<svg width="202" height="207" viewBox="0 0 202 207" fill="none" xmlns="http://www.w3.org/2000/svg">
<path d="M34.8627 194.792C34.4474 194.792 34.104 194.451 34.0937 194.02C34.0835 193.584 34.4218 193.227 34.8473 193.216C34.8729 193.216 37.4872 193.148 41.0704 192.433C41.4856 192.349 41.8906 192.628 41.9726 193.059C42.0546 193.484 41.7829 193.899 41.3626 193.983C37.641 194.724 34.9908 194.792 34.878 194.792C34.8729 194.792 34.8678 194.792 34.8627 194.792Z" fill="#8259E7" stroke="#0000F4" stroke-width="1.5" stroke-linecap="round" stroke-linejoin="round"/>
<path d="M49.1798 191.577C48.8774 191.577 48.5903 191.393 48.4673 191.094C48.3033 190.689 48.4878 190.232 48.8825 190.064C53.537 188.084 57.0946 185.337 59.4577 181.896C59.7038 181.539 60.1805 181.455 60.5291 181.707C60.8777 181.959 60.9597 182.447 60.7136 182.805C58.1762 186.487 54.3931 189.423 49.472 191.519C49.3746 191.561 49.2772 191.582 49.1747 191.582L49.1798 191.577ZM62.6103 178.103C62.518 178.103 62.4257 178.087 62.3386 178.051C61.9439 177.898 61.7388 177.441 61.8926 177.037C62.9076 174.284 63.492 171.574 63.6304 168.989C63.6509 168.553 64.0046 168.217 64.4403 168.243C64.8658 168.27 65.1887 168.637 65.1682 169.073C65.0196 171.821 64.4044 174.689 63.3331 177.594C63.2152 177.909 62.923 178.103 62.6154 178.103H62.6103Z" fill="#8259E7" stroke="#0000F4" stroke-width="1.5" stroke-linecap="round" stroke-linejoin="round"/>
<path d="M63.2871 161.42C62.9693 161.42 62.6668 161.215 62.5592 160.884C61.252 156.934 58.7402 153.12 55.0853 149.548C54.7777 149.248 54.7675 148.749 55.0597 148.434C55.3519 148.119 55.8388 148.109 56.1464 148.408C59.9807 152.159 62.6258 156.188 64.015 160.38C64.1534 160.789 63.933 161.241 63.5331 161.378C63.4511 161.404 63.3691 161.42 63.2871 161.42ZM49.221 144.332C49.0416 144.332 48.8622 144.269 48.7135 144.137C44.4383 140.303 42.0803 135.785 42.0701 131.42C42.0701 130.984 42.4135 130.632 42.839 130.632C43.2645 130.632 43.6079 130.984 43.6079 131.42C43.6182 135.328 45.7916 139.42 49.7285 142.955C50.0463 143.244 50.0822 143.738 49.8003 144.069C49.6465 144.248 49.4363 144.337 49.221 144.337V144.332ZM155.527 127.375C155.127 127.375 154.794 127.06 154.763 126.65C154.732 126.214 155.045 125.836 155.47 125.804C158.356 125.573 160.991 124.964 163.308 123.981C163.698 123.819 164.149 124.008 164.313 124.407C164.477 124.811 164.287 125.268 163.892 125.437C161.427 126.477 158.633 127.128 155.588 127.37C155.568 127.37 155.547 127.37 155.527 127.37V127.375ZM149.99 127.375C149.99 127.375 149.954 127.375 149.934 127.375C145.69 127.06 141.163 126.056 136.473 124.402L136.242 124.323C135.842 124.181 135.627 123.735 135.765 123.32C135.904 122.91 136.339 122.689 136.744 122.831L136.98 122.915C141.542 124.523 145.941 125.494 150.052 125.804C150.477 125.836 150.795 126.214 150.764 126.65C150.734 127.065 150.395 127.38 150.001 127.38L149.99 127.375ZM44.2487 126.787C44.1205 126.787 43.9872 126.755 43.8693 126.682C43.5003 126.466 43.3721 125.988 43.5823 125.61C44.8689 123.283 46.9553 121.224 49.7746 119.49C50.1386 119.264 50.6102 119.385 50.8306 119.758C51.051 120.131 50.9331 120.614 50.5692 120.84C47.9805 122.432 46.0787 124.302 44.9202 126.387C44.7767 126.645 44.5204 126.787 44.2487 126.787ZM128.63 121.618C128.548 121.618 128.466 121.607 128.389 121.576C123.027 119.742 118.952 118.482 115.189 117.478C114.779 117.368 114.533 116.937 114.641 116.517C114.748 116.097 115.169 115.839 115.579 115.955C119.377 116.969 123.478 118.24 128.876 120.084C129.281 120.22 129.496 120.667 129.363 121.082C129.255 121.413 128.958 121.623 128.635 121.623L128.63 121.618ZM170.3 120.614C170.131 120.614 169.957 120.557 169.813 120.436C169.485 120.157 169.439 119.664 169.705 119.327C171.448 117.158 172.366 114.589 172.366 111.894C172.366 110.203 172.007 108.485 171.305 106.794C171.136 106.394 171.32 105.932 171.71 105.759C172.099 105.591 172.55 105.775 172.72 106.174C173.509 108.065 173.904 109.987 173.904 111.894C173.904 114.957 172.863 117.872 170.89 120.325C170.736 120.514 170.515 120.614 170.295 120.614H170.3ZM57.7919 117.62C57.4638 117.62 57.1563 117.399 57.0537 117.058C56.9307 116.643 57.1614 116.202 57.5663 116.076C60.8471 115.062 64.6353 114.295 68.8284 113.796C69.6691 113.696 70.4944 113.602 71.3095 113.512C71.7298 113.46 72.1091 113.78 72.1553 114.211C72.2014 114.642 71.8939 115.03 71.4735 115.078C70.6636 115.167 69.8434 115.261 69.0078 115.361C64.9018 115.85 61.2059 116.601 58.0072 117.589C57.9354 117.61 57.8585 117.62 57.7868 117.62H57.7919ZM107.274 115.661C107.228 115.661 107.182 115.661 107.136 115.65C104.399 115.141 101.728 114.762 98.9752 114.495C98.5497 114.453 98.2421 114.069 98.2831 113.638C98.3241 113.202 98.7035 112.887 99.1187 112.929C101.918 113.197 104.629 113.581 107.413 114.101C107.828 114.179 108.11 114.589 108.033 115.015C107.966 115.393 107.643 115.661 107.279 115.661H107.274ZM79.6753 114.353C79.2703 114.353 78.9371 114.032 78.9064 113.617C78.8808 113.181 79.1986 112.808 79.624 112.782C82.9253 112.561 85.9702 112.456 88.9331 112.456C90.4966 112.456 92.0498 112.488 93.5466 112.551C93.9721 112.567 94.3001 112.934 94.2848 113.37C94.2694 113.806 93.9157 114.137 93.4851 114.127C92.0088 114.064 90.4812 114.038 88.9331 114.038C86.0009 114.038 82.9868 114.143 79.7214 114.358C79.7061 114.358 79.6856 114.358 79.6702 114.358L79.6753 114.353ZM167.158 100.438C166.968 100.438 166.778 100.369 166.63 100.222C163.79 97.4853 159.966 94.9429 155.255 92.663C154.87 92.4792 154.706 92.0064 154.886 91.6124C155.065 91.2185 155.527 91.0504 155.911 91.2342C160.765 93.5876 164.728 96.2193 167.681 99.0717C167.988 99.3711 168.004 99.8702 167.716 100.185C167.568 100.348 167.363 100.432 167.158 100.432V100.438ZM150.488 90.5146C150.395 90.5146 150.303 90.4988 150.211 90.462C147.76 89.4955 145.126 88.6025 142.388 87.7988C141.978 87.6779 141.742 87.2419 141.86 86.827C141.978 86.412 142.404 86.1651 142.809 86.2859C145.592 87.1001 148.268 88.0089 150.759 88.9912C151.154 89.1488 151.354 89.6058 151.2 90.0103C151.082 90.3255 150.79 90.5146 150.482 90.5146H150.488ZM134.53 85.8026C134.479 85.8026 134.422 85.7974 134.371 85.7869C130.045 84.8623 125.467 84.1322 120.761 83.6174C120.341 83.5701 120.033 83.1814 120.079 82.7506C120.126 82.3199 120.51 82.0047 120.925 82.052C125.682 82.572 130.311 83.3127 134.684 84.2425C135.099 84.3318 135.366 84.7468 135.278 85.1723C135.201 85.5452 134.884 85.7974 134.525 85.7974L134.53 85.8026ZM84.8834 83.5543C84.4887 83.5543 84.1555 83.2497 84.1197 82.8399C84.0787 82.4092 84.3913 82.0205 84.8117 81.9837C87.59 81.7158 90.3889 81.5109 93.1314 81.3638C93.5671 81.3428 93.9157 81.6738 93.9413 82.1098C93.9618 82.5458 93.6389 82.9135 93.2134 82.9397C90.4914 83.0816 87.7131 83.2917 84.9552 83.5543C84.9296 83.5543 84.9091 83.5543 84.8834 83.5543ZM112.559 82.9397C112.559 82.9397 112.534 82.9397 112.518 82.9397C109.386 82.7664 106.167 82.6771 102.948 82.6771C101.569 82.6666 100.134 82.6928 98.7291 82.7244C98.3242 82.7454 97.9551 82.3882 97.9448 81.9522C97.9346 81.5162 98.2729 81.1537 98.6984 81.1485C100.108 81.1169 101.538 81.1012 102.938 81.1012H102.953C106.198 81.1012 109.448 81.1905 112.606 81.3691C113.031 81.3953 113.354 81.7631 113.333 82.1991C113.313 82.6193 112.969 82.945 112.565 82.945L112.559 82.9397Z" fill="#8259E7" stroke="#0000F4" stroke-width="1.5" stroke-linecap="round" stroke-linejoin="round"/>
<path d="M70.1817 85.4979C69.8127 85.4979 69.4846 85.2248 69.4231 84.8361C69.3564 84.4053 69.6384 84.0008 70.0587 83.9326C72.1707 83.5754 74.3134 83.2497 76.4202 82.9607C76.8406 82.903 77.2302 83.2076 77.2866 83.6384C77.3429 84.0691 77.0456 84.4684 76.6253 84.5261C74.5338 84.8151 72.4065 85.1407 70.3099 85.4927C70.2689 85.498 70.2279 85.5032 70.1817 85.5032V85.4979Z" fill="#8259E7" stroke="#0000F4" stroke-width="1.5" stroke-linecap="round" stroke-linejoin="round"/>
<path d="M145.746 132.528C145.746 132.528 145.751 130.558 138.743 126.272C131.736 121.985 119.254 111.38 110.847 104.398C102.445 97.417 98.8211 100.637 96.9655 106.615C95.1047 112.593 97.7293 116.501 100.805 119.616C103.886 122.731 132.628 137.503 132.628 137.503H143.459L145.746 132.533V132.528Z" fill="#AA51F6" stroke="#0000F4" stroke-width="1.5" stroke-linecap="round" stroke-linejoin="round"/>
<path d="M145.766 132.512C145.766 132.512 138.733 138.454 128.194 132.166C117.655 125.878 113.605 116.753 104.87 116.659C96.1352 116.569 95.72 122.453 86.9748 121.392C78.2296 120.331 83.3814 111.737 78.4911 111.201C73.6008 110.665 68.3414 125.794 71.2735 141.548C71.2735 141.548 87.836 144.857 111.949 152.111C136.063 159.366 157.29 160.348 165.24 157.039C173.191 153.724 175.57 146.764 171.294 144.148C167.019 141.532 153.819 136.636 145.771 132.512H145.766Z" fill="#77EEBC" stroke="#0000F4" stroke-width="1.5" stroke-linecap="round" stroke-linejoin="round"/>
<path d="M171.289 144.143C170.402 143.601 169.131 142.961 167.609 142.251C171.986 148.776 159.361 149.259 149.862 148.256C140.363 147.252 137.021 142.083 128.666 143.791C122.273 145.099 114.261 149.69 110.852 151.78C111.216 151.891 111.58 151.996 111.949 152.106C136.063 159.36 157.29 160.343 165.24 157.033C173.191 153.719 175.57 146.759 171.294 144.143H171.289Z" fill="#F3C254" stroke="#0000F4" stroke-width="1.5" stroke-linecap="round" stroke-linejoin="round"/>
<path d="M97.0527 141.322L117.275 129.46L111.903 124.764L90.9783 137.209L97.0527 141.322Z" fill="#65A0F5" stroke="#0000F4" stroke-width="1.5" stroke-linecap="round" stroke-linejoin="round"/>
<path d="M106.541 149.396L126.764 137.534L121.392 132.833L100.472 145.277L106.541 149.396Z" fill="#65A0F5" stroke="#0000F4" stroke-width="1.5" stroke-linecap="round" stroke-linejoin="round"/>
<path d="M139.174 157.974C111.457 153.629 106.879 142.803 92.3828 132.455C82.3971 125.326 75.2667 122.138 71.7912 120.845C70.3507 126.471 69.8484 133.931 71.2683 141.548C71.2683 141.548 87.8308 144.857 111.944 152.111C121.725 155.053 131.034 156.965 139.174 157.974Z" fill="#5EC5D1" stroke="#0000F4" stroke-width="1.5" stroke-linecap="round" stroke-linejoin="round"/>
<path d="M70.5249 129.192C70.2891 133.069 70.4788 137.282 71.2733 141.548C71.2733 141.548 81.4743 143.586 97.5191 147.967C92.193 144.358 85.9904 139.804 81.5768 136.105C77.3222 132.533 73.1854 130.369 70.5249 129.192Z" fill="#B5FBE0" stroke="#0000F4" stroke-width="1.5" stroke-linecap="round" stroke-linejoin="round"/>
<path d="M173.468 146.9L173.278 146.89C173.965 150.099 171.135 154.575 165.23 157.033C157.28 160.348 136.052 159.36 111.939 152.106C87.8257 144.852 71.2632 141.542 71.2632 141.542C71.2632 141.542 65.4758 142.887 66.865 149.958C68.2542 157.028 83.6325 156.135 95.5097 156.76C107.392 157.385 114.128 163.017 133.735 166.289C153.343 169.562 166.471 161.803 170.218 157.401C173.96 152.999 173.463 146.89 173.463 146.89L173.468 146.9Z" fill="#1E49F1" stroke="#0000F4" stroke-width="1.5" stroke-linecap="round" stroke-linejoin="round"/>
<path d="M71.2734 141.548C71.2734 141.548 69.792 141.894 68.5053 143.15C68.5053 143.15 66.7112 147.468 72.8267 149.396C78.9421 151.323 93.0902 151.56 100.59 152.111C108.089 152.663 123.109 155.085 123.109 155.085C119.49 154.244 115.758 153.256 111.949 152.111C87.8359 144.857 71.2734 141.548 71.2734 141.548Z" fill="#65A0F5" stroke="#0000F4" stroke-width="1.5" stroke-linecap="round" stroke-linejoin="round"/>
<path d="M130.49 136.037C130.321 136.037 130.147 135.99 129.993 135.901C129.614 135.675 129.419 135.218 129.527 134.782L131.854 124.895L125.559 131.273C125.251 131.583 124.79 131.656 124.411 131.457C124.031 131.257 123.816 130.831 123.878 130.401L125.498 119.296L117.952 126.309C117.614 126.618 117.116 126.661 116.737 126.403C116.358 126.146 116.199 125.662 116.347 125.221L119.767 115.093L111.888 122.096C111.472 122.463 110.847 122.416 110.488 121.996C110.129 121.57 110.176 120.929 110.586 120.562L121.268 111.07C121.607 110.77 122.104 110.739 122.478 110.996C122.852 111.253 123.006 111.737 122.863 112.173L119.5 122.138L126.236 115.881C126.548 115.592 126.999 115.535 127.374 115.74C127.743 115.944 127.948 116.365 127.886 116.79L126.297 127.695L132.956 120.956C133.274 120.635 133.761 120.572 134.145 120.793C134.53 121.019 134.725 121.476 134.622 121.917L132.264 131.94L139.558 124.848C139.958 124.459 140.584 124.481 140.963 124.885C141.342 125.295 141.322 125.936 140.927 126.324L131.193 135.78C131.003 135.964 130.757 136.058 130.511 136.058L130.49 136.037Z" fill="#65A0F5" stroke="#0000F4" stroke-width="1.5" stroke-linecap="round" stroke-linejoin="round"/>
<path d="M149.18 79.0105L159.161 71.7981L162.437 61.3184H161.288L157.608 70.6267L150.488 73.395L149.18 79.0105Z" fill="#8259E7" stroke="#0000F4" stroke-width="1.5" stroke-linecap="round" stroke-linejoin="round"/>
<path d="M160.063 60.73L161.288 61.3184L157.608 70.6267L150.488 73.395L146.889 71.5512L156.465 68.6988L160.063 60.73Z" fill="#C8D4FA" stroke="#0000F4" stroke-width="1.5" stroke-linecap="round" stroke-linejoin="round"/>
<path d="M156.465 68.6988L157.608 70.6267L161.288 61.3184L160.063 60.73L156.465 68.6988Z" fill="#C8D4FA" stroke="#0000F4" stroke-width="1.5" stroke-linecap="round" stroke-linejoin="round"/>
<path d="M176.836 47.2508L176.795 61.7544L165.481 68.494L165.522 53.9852L176.836 47.2508Z" fill="#77EEBC" stroke="#0000F4" stroke-width="1.5" stroke-linecap="round" stroke-linejoin="round"/>
<path d="M165.523 53.9852L165.482 68.494L154.091 61.7544L154.127 47.2508L165.523 53.9852Z" fill="#7EEEF8" stroke="#0000F4" stroke-width="1.5" stroke-linecap="round" stroke-linejoin="round"/>
<path d="M176.836 47.2508L165.523 53.9852L154.127 47.2508L165.446 40.5112L176.836 47.2508Z" fill="#B5FBE0" stroke="#0000F4" stroke-width="1.5" stroke-linecap="round" stroke-linejoin="round"/>
<path d="M144.926 117.121L156.465 110.077L149.222 83.1604L154.255 67.0651L146.889 39.1402L144.68 39.8966L149.591 67.4381L140.63 85.5505L144.926 117.121Z" fill="#8259E7" stroke="#0000F4" stroke-width="1.5" stroke-linecap="round" stroke-linejoin="round"/>
<path d="M144.926 117.121L132.531 110.203L134.981 85.1723L146.151 66.6869L142.593 39.1402L144.68 39.8966L149.59 67.4381L140.63 85.5505L144.926 117.121Z" fill="#C8D4FA" stroke="#0000F4" stroke-width="1.5" stroke-linecap="round" stroke-linejoin="round"/>
<path d="M134.981 85.1723L140.63 85.5505L149.591 67.4381L146.151 66.6869L134.981 85.1723Z" fill="#C8D4FA" stroke="#0000F4" stroke-width="1.5" stroke-linecap="round" stroke-linejoin="round"/>
<path d="M128.804 74.9867L130.609 91.5862L135.76 99.555L139.769 101.063L132.531 91.0031L130.116 74.2302L128.804 74.9867Z" fill="#C8D4FA" stroke="#0000F4" stroke-width="1.5" stroke-linecap="round" stroke-linejoin="round"/>
<path d="M131.26 73.8153L135.35 89.0752L138.052 91.0031L139.769 101.063L132.531 91.0031L130.116 74.2302L131.26 73.8153Z" fill="#8259E7" stroke="#0000F4" stroke-width="1.5" stroke-linecap="round" stroke-linejoin="round"/>
<path d="M132.531 91.0031L130.609 91.5862L128.804 74.9867L130.116 74.2302L132.531 91.0031Z" fill="#C8D4FA" stroke="#0000F4" stroke-width="1.5" stroke-linecap="round" stroke-linejoin="round"/>
<path d="M141.363 61.9435L141.317 77.9599L128.825 85.4034L128.871 69.3817L141.363 61.9435Z" fill="#77EEBC" stroke="#0000F4" stroke-width="1.5" stroke-linecap="round" stroke-linejoin="round"/>
<path d="M128.871 69.3817L128.825 85.4034L116.25 77.9599L116.291 61.9435L128.871 69.3817Z" fill="#7EEEF8" stroke="#0000F4" stroke-width="1.5" stroke-linecap="round" stroke-linejoin="round"/>
<path d="M141.364 61.9435L128.871 69.3817L116.292 61.9435L128.789 54.4999L141.364 61.9435Z" fill="#B5FBE0" stroke="#0000F4" stroke-width="1.5" stroke-linecap="round" stroke-linejoin="round"/>
<path d="M158.925 24.2689L158.864 46.673L141.389 57.0792L141.45 34.6751L158.925 24.2689Z" fill="#77EEBC" stroke="#0000F4" stroke-width="1.5" stroke-linecap="round" stroke-linejoin="round"/>
<path d="M141.45 34.6751L141.389 57.0792L123.801 46.673L123.863 24.2689L141.45 34.6751Z" fill="#7EEEF8" stroke="#0000F4" stroke-width="1.5" stroke-linecap="round" stroke-linejoin="round"/>
<path d="M158.925 24.2689L141.45 34.6751L123.863 24.2689L141.338 13.8627L158.925 24.2689Z" fill="#B5FBE0" stroke="#0000F4" stroke-width="1.5" stroke-linecap="round" stroke-linejoin="round"/>
<path d="M58.894 90.3832C63.268 90.3832 66.8138 88.3465 66.8138 85.8341C66.8138 83.3217 63.268 81.285 58.894 81.285C54.52 81.285 50.9741 83.3217 50.9741 85.8341C50.9741 88.3465 54.52 90.3832 58.894 90.3832Z" fill="#8259E7" stroke="#0000F4" stroke-width="1.5" stroke-linecap="round" stroke-linejoin="round"/>
<path d="M72.5192 60.6565C73.7802 58.2138 74.4415 55.393 74.2826 52.3988C73.8674 44.4772 67.6238 38.0108 59.8987 37.5065C50.9331 36.9234 43.4797 44.2041 43.4797 53.2655C43.4797 55.9603 44.141 58.4975 45.2995 60.7143L45.32 60.7563C45.3354 60.7878 45.3559 60.8246 45.3713 60.8561L57.6842 83.7224C58.2071 84.6942 59.5706 84.6995 60.0935 83.7224C63.4204 77.5396 72.5038 60.667 72.5141 60.6512L72.5192 60.6565ZM58.894 45.6486C63 45.6486 66.332 49.0578 66.332 53.2708C66.332 57.4837 63.0051 60.8929 58.894 60.8929C54.7828 60.8929 51.456 57.4837 51.456 53.2708C51.456 49.0578 54.7828 45.6486 58.894 45.6486Z" fill="#EB7956" stroke="#0000F4" stroke-width="1.5" stroke-linecap="round" stroke-linejoin="round"/>
<path d="M22.5395 198.338C26.9135 198.338 30.4593 196.301 30.4593 193.789C30.4593 191.276 26.9135 189.24 22.5395 189.24C18.1655 189.24 14.6196 191.276 14.6196 193.789C14.6196 196.301 18.1655 198.338 22.5395 198.338Z" fill="#C8D4FA" stroke="#0000F4" stroke-width="1.5" stroke-linecap="round" stroke-linejoin="round"/>
<path d="M52.717 154.044C53.3117 153.929 53.773 154.559 53.4911 155.111C51.7892 158.462 46.9399 166.615 39.302 168.149C29.6341 170.087 27.4863 170.229 22.5806 175.697V149.448C22.5806 149.448 27.3376 145.913 35.5855 149.931C43.003 153.545 48.2881 154.916 52.717 154.05V154.044Z" fill="#1E49F1" stroke="#0000F4" stroke-width="1.5" stroke-linecap="round" stroke-linejoin="round"/>
<path d="M24.472 147.94L24.3849 193.232C24.3849 193.516 24.2003 193.804 23.8364 194.02C23.0982 194.461 21.9038 194.461 21.1606 194.02C20.7863 193.799 20.6018 193.51 20.6018 193.221L20.689 147.93C20.689 148.219 20.8735 148.508 21.2477 148.728C21.991 149.17 23.1854 149.17 23.9235 148.728C24.2926 148.508 24.472 148.224 24.472 147.94Z" fill="#8259E7" stroke="#0000F4" stroke-width="1.5" stroke-linecap="round" stroke-linejoin="round"/>
<path d="M23.9133 147.142C24.6566 147.583 24.6617 148.292 23.9235 148.728C23.1854 149.164 21.991 149.17 21.2477 148.728C20.5044 148.287 20.4993 147.578 21.2374 147.142C21.9756 146.706 23.1751 146.706 23.9133 147.142Z" fill="#C8D4FA" stroke="#0000F4" stroke-width="1.5" stroke-linecap="round" stroke-linejoin="round"/>
</svg>
