<svg width="177" height="168" viewBox="0 0 177 168" fill="none" xmlns="http://www.w3.org/2000/svg">
<path d="M149.5 1.8501C148.2 3.0501 147.9 3.8001 147.45 6.7001C146.4 14.2501 141.55 19.2001 134.55 19.8501C131.3 20.2001 129.3 21.1501 128.55 22.8501C127.65 24.8001 127.9 26.4001 129.4 28.0001C130.5 29.2501 131.3 29.6501 133.75 29.9501C141.8 31.1001 146.4 35.6001 147.5 43.3501C147.85 46.2001 148.2 47.0001 149.5 48.1001C151.6 50.0501 154.1 50.0001 156.05 48.0501C157.15 46.9001 157.5 46.1001 157.5 44.6001C157.5 41.4501 159 37.6501 161.2 35.1501C163.55 32.4501 168.35 30.0001 171.15 30.0001C173.35 30.0001 175.75 28.9001 176.5 27.5501C177.35 25.8501 177.1 23.1501 175.85 21.7501C174.95 20.7001 174.1 20.3501 171.35 20.0001C163.9 19.1001 158.45 13.8501 157.65 6.8501C157.3 3.8001 156.4 1.7501 155.05 1.0001C153.3 0.1001 151.1 0.4001 149.5 1.8501ZM155 22.7501L157.2 25.0001L154.9 27.3501L152.55 29.6501L150.25 27.3001L147.95 24.9001L150.1 22.7001C151.3 21.5001 152.35 20.5501 152.5 20.5001C152.65 20.5001 153.8 21.5001 155 22.7501Z" fill="black"/>
<path d="M61.6497 20.95C59.7997 22.1 59.6497 22.45 59.2497 28.25C58.1997 42.35 52.8497 53.85 42.7497 63.75C34.9997 71.35 26.5997 75.75 15.6497 77.95C12.8497 78.55 9.19968 79 7.49968 79C3.99968 79 1.94968 79.85 1.09968 81.75C0.0996765 83.95 0.399676 85.5 2.09968 87.2C3.69968 88.8 3.94968 88.85 8.74968 89.15C24.2497 90.05 39.2997 98.2 48.6497 110.75C55.0997 119.4 58.3497 128.55 59.2997 140.45C59.5997 144.4 59.8497 145.35 60.7997 146.3C62.4997 148.05 64.3497 148.35 66.4497 147.2C68.6497 146.05 69.4497 144 69.4997 139.5C69.4997 137.7 69.9497 134.2 70.4497 131.75C73.6997 116 84.3997 102.15 98.9997 94.75C105.2 91.6 115.3 89 121.35 89C125.75 89 128 87.3 128 84C128 80.7 125.75 79 121.35 79C115.35 79 105.25 76.4 98.9997 73.25C90.7997 69.1 83.3997 62.55 78.3997 55C73.0497 46.95 70.3497 39 69.5497 29.1C69.0497 23.05 68.3997 21.3 66.1997 20.5C64.3497 19.8 63.4497 19.9 61.6497 20.95ZM65.6497 52.6C70.9997 64.35 82.6497 76.15 94.6497 82.05C96.4997 82.95 97.9997 83.85 97.9997 84C97.9997 84.15 95.8997 85.3 93.3497 86.65C87.4997 89.65 83.1997 92.9 77.7497 98.35C73.2497 102.85 67.9997 110.2 65.6997 115.2L64.3997 118.1L61.7997 113.3C58.2997 106.75 55.5497 103.05 50.2497 97.75C45.4997 92.95 38.5997 88 33.5497 85.7C31.8497 84.95 30.4997 84.2 30.4997 84.05C30.4997 83.85 32.3497 82.8 34.6497 81.65C42.1997 77.85 48.5997 72.8 54.2497 66C57.3497 62.3 62.1497 54.75 63.4997 51.5C63.8497 50.7 64.1997 50 64.2497 50C64.3497 50 64.9497 51.2 65.6497 52.6Z" fill="black"/>
<path d="M149.5 119.85C148.2 121.05 147.9 121.8 147.45 124.7C146.4 132.25 141.55 137.2 134.55 137.85C131.3 138.2 129.3 139.15 128.55 140.85C127.65 142.8 127.9 144.4 129.4 146C130.5 147.25 131.3 147.65 133.75 147.95C141.8 149.1 146.4 153.6 147.5 161.35C147.85 164.2 148.2 165 149.5 166.1C151.6 168.05 154.1 168 156.05 166.05C157.15 164.9 157.5 164.1 157.5 162.6C157.5 159.45 159 155.65 161.2 153.15C163.55 150.45 168.35 148 171.15 148C173.35 148 175.75 146.9 176.5 145.55C177.35 143.85 177.1 141.15 175.85 139.75C174.95 138.7 174.1 138.35 171.35 138C163.9 137.1 158.45 131.85 157.65 124.85C157.3 121.8 156.4 119.75 155.05 119C153.3 118.1 151.1 118.4 149.5 119.85ZM155 140.75L157.2 143L154.9 145.35L152.55 147.65L150.25 145.3L147.95 142.9L150.1 140.7C151.3 139.5 152.35 138.55 152.5 138.5C152.65 138.5 153.8 139.5 155 140.75Z" fill="black"/>
</svg>
