<svg width="182" height="109" viewBox="0 0 182 109" fill="none" xmlns="http://www.w3.org/2000/svg">
<path d="M168.086 35.2461L111.902 2.59644C113.325 3.41986 113.92 5.25674 113.583 7.86345C112.575 15.7372 104.282 20.7167 104.199 20.7654L21.9929 68.2271C19.7516 69.5231 17.6272 71.9885 16.3068 74.8291C16.1802 75.1019 16.2045 75.3602 16.3507 75.443L72.5338 108.093C72.3876 108.01 72.3633 107.752 72.49 107.479C73.8104 104.638 75.9347 102.168 78.176 100.877L160.387 53.4151C160.465 53.3712 168.763 48.3917 169.771 40.5131C170.103 37.9015 169.508 36.0695 168.09 35.2461H168.086Z" fill="#DFC0FB" stroke="#0000F4" stroke-width="1.5" stroke-linecap="round" stroke-linejoin="round"/>
<path d="M155.198 51.5539L99.0151 18.9042C99.9019 19.4207 101.139 19.484 102.723 18.797C103.371 18.5144 103.99 18.2026 104.584 17.8616C106.894 16.5265 108.75 14.7627 109.915 12.7699C110.855 11.1572 111.274 9.52983 111.123 8.05351C111.04 7.23008 110.631 6.61129 110.012 6.25073L166.195 38.9004C166.814 39.2609 167.223 39.8797 167.306 40.7032C167.452 42.1746 167.033 43.8068 166.098 45.4196C164.933 47.4124 163.077 49.181 160.767 50.5112C160.178 50.8523 159.554 51.1641 158.906 51.4467C157.323 52.1337 156.085 52.0704 155.198 51.5539Z" fill="#AA51F6" stroke="#0000F4" stroke-width="1.5" stroke-linecap="round" stroke-linejoin="round"/>
<path d="M156.753 46.014L100.569 13.3643C100.438 13.2864 100.404 13.0623 100.506 12.804C101.831 9.45671 103.775 6.94257 105.978 5.67089C106.426 5.41265 106.889 5.20314 107.357 5.0521C108.623 4.63795 109.773 4.72565 110.606 5.21289L166.79 37.8625C165.952 37.3753 164.807 37.2876 163.54 37.7018C163.072 37.8528 162.609 38.0623 162.161 38.3205C159.959 39.5922 158.01 42.1064 156.689 45.4537C156.587 45.707 156.621 45.936 156.753 46.014Z" fill="#8359E8" stroke="#0000F4" stroke-width="1.5" stroke-linecap="round" stroke-linejoin="round"/>
<path d="M112.526 1.55378C112.258 1.39786 111.961 1.27118 111.644 1.18348C109.939 0.691369 107.741 1.20784 105.481 2.50876C103.795 3.48323 102.075 4.89621 100.501 6.66488C97.5874 9.93423 96.0721 13.8467 96.5448 16.8822C96.7689 18.3439 97.4218 19.3817 98.3768 19.9372L154.56 52.5868C153.61 52.0362 152.957 50.9936 152.728 49.5319C152.255 46.4964 153.771 42.5839 156.684 39.3145C158.258 37.5459 159.978 36.1329 161.664 35.1584C163.92 33.8526 166.117 33.341 167.827 33.8331C168.149 33.9257 168.441 34.0475 168.709 34.2034L112.526 1.55378Z" fill="#EAD7FC" stroke="#0000F4" stroke-width="1.5" stroke-linecap="round" stroke-linejoin="round"/>
<path d="M161.664 35.1584C163.92 33.8526 166.117 33.341 167.827 33.8331C170.069 34.4762 171.058 36.7273 170.614 40.1818C169.494 48.9471 160.485 54.3408 160.392 54.3944L78.1808 101.861C76.2124 102.996 74.3414 105.164 73.1867 107.664C73.1038 107.844 72.9723 107.99 72.8407 108.063C72.753 108.117 72.6605 108.137 72.5874 108.112C72.3974 108.059 72.3535 107.776 72.4948 107.479C73.8152 104.638 75.9396 102.168 78.1808 100.877L160.392 53.4151C160.47 53.3712 168.768 48.3917 169.776 40.5131C170.166 37.4727 169.294 35.4848 167.321 34.9196C165.761 34.4714 163.749 34.944 161.678 36.1377C160.119 37.0391 158.521 38.3498 157.059 39.9918C154.467 42.9005 153.166 46.2235 153.581 48.8838C153.931 51.1592 155.719 52.8304 158.911 51.4418C159.559 51.1592 160.178 50.8474 160.772 50.5063C163.082 49.1713 164.938 47.4075 166.102 45.4147C167.043 43.8019 167.462 42.1746 167.311 40.6982C167.131 38.9247 165.435 38.0915 163.364 38.7688C162.97 38.9003 162.575 39.0758 162.195 39.295C160.29 40.3962 158.589 42.5985 157.43 45.5316C157.352 45.7314 157.21 45.897 157.064 45.9847C156.991 46.0286 156.913 46.0481 156.845 46.0383C156.64 46.0189 156.572 45.7557 156.694 45.4537C158.019 42.1064 159.963 39.5922 162.166 38.3205C162.614 38.0623 163.077 37.8528 163.544 37.7017C165.961 36.9173 167.949 37.9454 168.163 40.1038C168.339 41.8481 167.818 43.8604 166.702 45.7704C165.377 48.0409 163.306 50.0288 160.758 51.4954C160.134 51.8559 159.481 52.1824 158.809 52.4796C155.661 53.8487 153.22 52.6647 152.733 49.527C152.26 46.4915 153.775 42.579 156.689 39.3096C158.263 37.541 159.983 36.128 161.669 35.1535L161.664 35.1584Z" fill="#989CF6" stroke="#0000F4" stroke-width="1.5" stroke-linecap="round" stroke-linejoin="round"/>
<path d="M41.7163 58.5408C41.7163 59.5738 40.8247 60.558 39.3094 61.1232L19.7907 68.3879C18.3485 68.9238 16.5506 69.0066 14.9915 68.6022L2.55234 65.3865C1.57787 65.1331 1.00293 64.5728 1.00293 63.9881V65.596C1.0078 66.1856 1.58761 66.7459 2.55721 66.9944L14.9963 70.2101C16.5555 70.6145 18.3534 70.5317 19.7956 69.9957L39.3143 62.7311C40.8344 62.1659 41.7261 61.1816 41.7212 60.1487V58.5408H41.7163Z" fill="#1E48F1" stroke="#0000F4" stroke-width="1.5" stroke-linecap="round" stroke-linejoin="round"/>
<path d="M13.6809 65.0356L27.1773 46.9349C27.5135 46.4866 28.4003 46.2771 29.1652 46.4768L30.9826 46.9446C31.4406 47.0615 31.7671 47.3052 31.8548 47.5975L35.47 59.3253C35.4847 59.3788 35.4944 59.4324 35.4944 59.486V57.8782C35.4895 57.8246 35.4798 57.771 35.4652 57.7174L31.8499 45.9896C31.7622 45.6973 31.4357 45.4537 30.9777 45.3367L29.1603 44.869C28.4003 44.6741 27.5086 44.8787 27.1724 45.327L13.676 63.4278C13.5883 63.5447 13.5493 63.6665 13.5493 63.7883V65.3962C13.5493 65.2744 13.5932 65.1526 13.6809 65.0356Z" fill="#5EC6D2" stroke="#0000F4" stroke-width="1.5" stroke-linecap="round" stroke-linejoin="round"/>
<path d="M41.6334 58.0048C42.0086 59.2229 41.0877 60.4605 39.3093 61.1232L19.7906 68.3878C18.3484 68.9238 16.5505 69.0066 14.9914 68.6022L2.55223 65.3865C1.2367 65.0454 0.642271 64.1391 1.22208 63.3644L18.6602 39.9771C19.24 39.1976 20.7748 38.8419 22.0904 39.1829L34.5295 42.3987C36.0886 42.8031 37.2044 43.6363 37.5114 44.6254L41.6334 58.0048ZM34.7829 58.6383C35.3091 58.4434 35.577 58.0828 35.465 57.7223L31.8497 45.9945C31.762 45.7022 31.4356 45.4585 30.9775 45.3416L29.1602 44.8739C28.4001 44.679 27.5084 44.8836 27.1722 45.3319L13.6758 63.4327C13.3396 63.8809 13.6856 64.4071 14.4456 64.602L16.263 65.0698C16.721 65.1867 17.2473 65.1623 17.6663 65.0064L34.778 58.6334" fill="#8359E8"/>
<path d="M34.7829 58.6383C35.3091 58.4434 35.577 58.0828 35.465 57.7223L31.8497 45.9945C31.762 45.7022 31.4356 45.4585 30.9775 45.3416L29.1602 44.8739C28.4001 44.679 27.5084 44.8836 27.1722 45.3319L13.6758 63.4327C13.3396 63.8809 13.6856 64.4071 14.4456 64.602L16.263 65.0698C16.721 65.1867 17.2473 65.1623 17.6663 65.0064L34.778 58.6334M41.6334 58.0048C42.0086 59.2229 41.0877 60.4605 39.3093 61.1232L19.7906 68.3878C18.3484 68.9238 16.5505 69.0066 14.9914 68.6022L2.55223 65.3865C1.2367 65.0454 0.642271 64.1391 1.22208 63.3644L18.6602 39.9771C19.24 39.1976 20.7748 38.8419 22.0904 39.1829L34.5295 42.3987C36.0886 42.8031 37.2044 43.6363 37.5114 44.6254L41.6334 58.0048Z" stroke="#0000F4" stroke-width="1.5" stroke-linecap="round" stroke-linejoin="round"/>
<path d="M38.6904 61.3521C38.6904 61.3521 36.8048 60.4849 35.918 59.4617C35.0313 58.4385 35.4649 57.6784 36.6489 56.9183C38.1885 55.9341 39.9328 55.5784 40.5906 55.7197L38.6904 61.3521Z" fill="#65A0F5" stroke="#0000F4" stroke-width="1.5" stroke-linecap="round" stroke-linejoin="round"/>
<path d="M38.6904 61.3521C38.6904 61.3521 38.7879 57.7953 40.0401 56.09C41.1217 54.6137 41.6333 58.0048 41.6333 58.0048C41.6333 58.0048 41.8428 58.9647 41.3361 59.6955C40.5371 60.8454 38.6953 61.3521 38.6953 61.3521H38.6904Z" fill="#0000F5" stroke="#0000F4" stroke-width="1.5" stroke-linecap="round" stroke-linejoin="round"/>
<path d="M47.1049 58.4337L47.0074 62.1951L45.1267 64.8213L45.2193 61.0599L47.1049 58.4337Z" fill="#65A0F5" stroke="#0000F4" stroke-width="1.5" stroke-linecap="round" stroke-linejoin="round"/>
<path d="M45.2193 61.0598L45.1268 64.8213L39.241 62.7944L39.3335 59.0329L45.2193 61.0598Z" fill="#7EEFF9" stroke="#0000F4" stroke-width="1.5" stroke-linecap="round" stroke-linejoin="round"/>
<path d="M47.1049 58.4336L45.2193 61.0598L39.3335 59.0329L41.2142 56.4019L47.1049 58.4336Z" fill="#B6FCE1" stroke="#0000F4" stroke-width="1.5" stroke-linecap="round" stroke-linejoin="round"/>
<path d="M51.6801 91.093C48.0746 91.093 45.541 90.1916 44.1864 89.0905C42.1108 87.4095 41.3507 85.0562 42.0962 82.6443C43.2363 78.956 48.3864 74.337 59.1543 73.4502C63.481 73.0945 68.8113 73.533 74.4632 73.9959C77.1772 74.22 79.9739 74.449 82.7414 74.5952C83.3114 74.1421 83.8864 73.6743 84.4613 73.2017C92.3204 66.7117 101.183 63.2378 110.548 62.8041C110.889 61.016 110.48 59.5445 109.305 58.4921C106.479 55.9536 100.004 56.3288 96.7153 59.2181C91.0195 64.222 80.8119 69.9713 69.2596 71.1017C64.1972 71.5938 63.0814 69.601 62.867 68.3635C62.219 64.5971 68.8064 58.7503 79.6523 56.051C87.6478 54.0631 91.5262 50.555 91.229 48.1188C91.0146 46.3745 88.6418 45.2441 85.1776 45.2441C79.5159 45.2441 74.205 50.1896 69.0696 54.9742C65.5274 58.2777 62.18 61.396 58.823 62.7603C52.5425 65.3182 48.2938 63.8468 46.4618 62.8723C45.9064 62.5751 45.7505 61.8491 46.15 61.3619C46.4521 60.9965 46.9686 60.8893 47.3827 61.1134C48.8103 61.8832 52.4402 63.2085 58.0678 60.9185C61.0838 59.6907 64.2995 56.6942 67.7053 53.5223C73.1234 48.4745 78.7217 43.2562 85.1727 43.2562C90.6736 43.2562 92.9295 45.6437 93.2023 47.8801C93.5775 50.9497 90.3812 55.442 80.1298 57.9902C69.5617 60.6164 64.4749 66.0004 64.8257 68.0273C64.9816 68.9384 66.6041 69.3574 69.0598 69.1187C80.1395 68.037 89.9281 62.5215 95.3949 57.7222C99.4828 54.1313 107.03 53.7805 110.631 57.0109C111.732 58 113.023 59.8222 112.589 62.7603C120.561 62.77 128.863 64.9577 137.209 69.3428L137.585 69.5377L136.664 71.3064L136.284 71.1066C128.064 66.7897 119.893 64.6848 112.068 64.7725C111.62 66.0101 110.889 67.4036 109.793 68.9628C104.643 76.2859 94.1719 77.1337 83.3845 76.6221C73.9565 84.0476 65.2886 88.6763 57.5952 90.3914C55.3831 90.8835 53.4049 91.093 51.6752 91.093H51.6801ZM62.6575 75.3114C61.4833 75.3114 60.3675 75.3504 59.3151 75.4333C50.1648 76.1885 45.0294 79.8915 43.9964 83.229C43.4897 84.8759 43.9867 86.3668 45.4386 87.5411C47.0075 88.8127 51.0224 89.8165 57.1664 88.4473C63.9779 86.9271 71.9199 82.81 80.3491 76.4467C78.3124 76.3103 76.2855 76.1446 74.2927 75.979C70.1317 75.6379 66.1413 75.3066 62.6527 75.3066L62.6575 75.3114ZM85.7574 74.717C95.161 74.9704 103.917 73.8692 108.17 67.8178C108.901 66.7751 109.476 65.786 109.885 64.8554C101.222 65.4157 93.0415 68.7094 85.7574 74.717Z" fill="#65A0F5" stroke="#0000F4" stroke-width="1.5" stroke-linecap="round" stroke-linejoin="round"/>
<path d="M80.354 76.4467L82.7415 74.5952" stroke="#0000F4" stroke-width="1.5" stroke-linecap="round" stroke-linejoin="round"/>
<path d="M83.3943 76.6221L85.7574 74.717" stroke="#0000F4" stroke-width="1.5" stroke-linecap="round" stroke-linejoin="round"/>
<path d="M109.885 64.8554L112.073 64.7725" stroke="#0000F4" stroke-width="1.5" stroke-linecap="round" stroke-linejoin="round"/>
<path d="M110.548 62.8041L112.594 62.7554" stroke="#0000F4" stroke-width="1.5" stroke-linecap="round" stroke-linejoin="round"/>
<path d="M143.568 72.2321V73.1238L139.12 75.7061V74.8145L143.568 72.2321Z" fill="white" stroke="#0000F4" stroke-width="1.5" stroke-linecap="round" stroke-linejoin="round"/>
<path d="M139.12 72.8071V75.7061L133.282 72.3393L133.287 69.4354L139.12 72.8071Z" fill="#7EEFF9" stroke="#0000F4" stroke-width="1.5" stroke-linecap="round" stroke-linejoin="round"/>
<path d="M142.413 71.0287L139.12 72.8071L133.287 69.4354L136.581 67.6619L142.413 71.0287Z" fill="#B6FCE1" stroke="#0000F4" stroke-width="1.5" stroke-linecap="round" stroke-linejoin="round"/>
<path d="M179.755 76.9632L149.303 94.6596C148.289 95.2491 146.647 95.2491 145.624 94.6596L135.982 89.0905C135.002 88.5253 134.461 87.7603 134.466 86.971V88.5935C134.461 89.3779 134.997 90.1429 135.977 90.713L145.619 96.2821C146.637 96.8716 148.284 96.8716 149.298 96.2821L179.75 78.5857C180.252 78.2933 180.505 77.9133 180.505 77.5284V75.9059C180.505 76.2908 180.257 76.6708 179.755 76.9632Z" fill="#1E48F1" stroke="#0000F4" stroke-width="1.5" stroke-linecap="round" stroke-linejoin="round"/>
<path d="M144.401 76.5052C144.518 76.1544 144.991 75.8815 145.59 75.8133L165.411 73.6061C165.898 73.5525 166.405 73.6402 166.76 73.8449L168.173 74.6585C168.471 74.8291 168.617 75.0532 168.617 75.2773V73.6548C168.622 73.4307 168.475 73.2066 168.178 73.036L166.765 72.2224C166.41 72.0177 165.908 71.93 165.416 71.9836L145.595 74.1908C144.991 74.259 144.518 74.5319 144.406 74.8827L140.659 86.3717C140.64 86.4253 140.635 86.4789 140.635 86.5325V88.155C140.635 88.1014 140.635 88.0478 140.654 87.9942L144.401 76.5052Z" fill="#5EC6D2" stroke="#0000F4" stroke-width="1.5" stroke-linecap="round" stroke-linejoin="round"/>
<path d="M179.745 74.8291C180.764 75.4186 180.769 76.3736 179.755 76.9583L149.303 94.6547C148.289 95.2443 146.647 95.2443 145.624 94.6547L135.982 89.0856C134.774 88.3889 134.238 87.39 134.554 86.4204L138.827 73.3187C139.217 72.1249 140.825 71.1894 142.886 70.9604L165.494 68.4414C167.165 68.2563 168.89 68.5632 170.098 69.26L179.74 74.8291H179.745ZM144.616 87.965L168.183 74.2688C168.768 73.9277 168.763 73.3771 168.178 73.0361L166.765 72.2224C166.41 72.0177 165.908 71.93 165.416 71.9836L145.595 74.1908C144.991 74.259 144.518 74.5319 144.406 74.8827L140.659 86.3717C140.567 86.6543 140.723 86.9466 141.078 87.1513L142.491 87.965C143.081 88.306 144.031 88.306 144.621 87.965" fill="#8359E8"/>
<path d="M144.616 87.965L168.183 74.2688C168.768 73.9277 168.763 73.3771 168.178 73.0361L166.765 72.2224C166.41 72.0177 165.908 71.93 165.416 71.9836L145.595 74.1908C144.991 74.259 144.518 74.5319 144.406 74.8827L140.659 86.3717C140.567 86.6543 140.723 86.9466 141.078 87.1513L142.491 87.965C143.081 88.306 144.031 88.306 144.621 87.965M179.745 74.8291C180.764 75.4186 180.769 76.3736 179.755 76.9583L149.303 94.6547C148.289 95.2443 146.647 95.2443 145.624 94.6547L135.982 89.0856C134.774 88.3889 134.238 87.39 134.554 86.4204L138.827 73.3187C139.217 72.1249 140.825 71.1894 142.886 70.9604L165.494 68.4414C167.165 68.2563 168.89 68.5632 170.098 69.26L179.74 74.8291H179.745Z" stroke="#0000F4" stroke-width="1.5" stroke-linecap="round" stroke-linejoin="round"/>
<path d="M138.545 74.1908C138.545 74.1908 142.886 74.9265 144.386 74.1908C145.887 73.4551 143.241 70.7948 141.629 69.5913C140.011 68.3878 137.755 69.9957 138.549 74.1908H138.545Z" fill="#65A0F5" stroke="#0000F4" stroke-width="1.5" stroke-linecap="round" stroke-linejoin="round"/>
<path d="M114.724 54.6917L114.685 40.4693L86.5906 24.142L86.6296 38.3644C86.6296 38.8371 86.7952 39.1684 87.0632 39.3194L115.157 55.6467C114.889 55.4908 114.724 55.1594 114.724 54.6917Z" fill="#F3C254" stroke="#0000F4" stroke-width="1.5" stroke-linecap="round" stroke-linejoin="round"/>
<path d="M102.713 13.6275C102.44 13.4716 102.065 13.4911 101.651 13.7298L88.0815 21.5646L116.176 37.8918L129.745 30.0571C130.159 29.8183 130.534 29.794 130.807 29.9547L102.713 13.6275Z" fill="#F3C254" stroke="#0000F4" stroke-width="1.5" stroke-linecap="round" stroke-linejoin="round"/>
<path d="M114.685 40.4693L86.5906 24.142C86.5906 23.1968 87.2532 22.042 88.0766 21.5694L116.171 37.8967C115.347 38.3741 114.68 39.524 114.685 40.4693Z" fill="#FCFBD6" stroke="#0000F4" stroke-width="1.5" stroke-linecap="round" stroke-linejoin="round"/>
<path d="M129.745 30.0571C130.568 29.5796 131.241 29.9645 131.241 30.9097L131.28 45.1321C131.28 46.0774 130.617 47.2321 129.794 47.7047L116.224 55.5395C115.401 56.017 114.728 55.6321 114.728 54.6868L114.689 40.4644C114.689 39.5192 115.352 38.3644 116.176 37.8918L129.745 30.0571Z" fill="#EF9C87" stroke="#0000F4" stroke-width="1.5" stroke-linecap="round" stroke-linejoin="round"/>
<path d="M95.9115 66.1125L95.8726 51.8901L67.7786 35.5628L67.8175 49.7852C67.8175 50.2578 67.9832 50.5891 68.2512 50.7402L96.3452 67.0674C96.0772 66.9115 95.9115 66.5802 95.9115 66.1125Z" fill="#F3C254" stroke="#0000F4" stroke-width="1.5" stroke-linecap="round" stroke-linejoin="round"/>
<path d="M83.8963 25.0483C83.6235 24.8923 83.2483 24.9118 82.8342 25.1506L69.2646 32.9853L97.3586 49.3126L110.928 41.4778C111.342 41.2391 111.717 41.2147 111.99 41.3755L83.8963 25.0483Z" fill="#F3C254" stroke="#0000F4" stroke-width="1.5" stroke-linecap="round" stroke-linejoin="round"/>
<path d="M95.8677 51.89L67.7737 35.5628C67.7737 34.6175 68.4363 33.4628 69.2598 32.9902L97.3537 49.3174C96.5303 49.7949 95.8628 50.9448 95.8677 51.89Z" fill="#FCFBD6" stroke="#0000F4" stroke-width="1.5" stroke-linecap="round" stroke-linejoin="round"/>
<path d="M110.928 41.4779C111.752 41.0004 112.424 41.3853 112.424 42.3305L112.463 56.5529C112.463 57.4982 111.8 58.6529 110.977 59.1255L97.4073 66.9603C96.5839 67.4378 95.9115 67.0528 95.9115 66.1076L95.8726 51.8852C95.8726 50.94 96.5352 49.7852 97.3586 49.3126L110.928 41.4779Z" fill="#EF9C87" stroke="#0000F4" stroke-width="1.5" stroke-linecap="round" stroke-linejoin="round"/>
</svg>
