<?xml version="1.0" encoding="UTF-8"?>
<svg id="Layer_2" data-name="Layer 2" xmlns="http://www.w3.org/2000/svg" viewBox="0 0 394.06 394.06">
  <defs>
    <style>
      .cls-1 {
        fill: #dfc0fb;
      }

      .cls-1, .cls-2, .cls-3, .cls-4, .cls-5, .cls-6, .cls-7, .cls-8, .cls-9, .cls-10, .cls-11, .cls-12, .cls-13, .cls-14, .cls-15 {
        stroke: #0000f4;
        stroke-linecap: round;
        stroke-linejoin: round;
        stroke-width: 1.5px;
      }

      .cls-2 {
        fill: #f3c254;
      }

      .cls-3 {
        fill: #ef9c87;
      }

      .cls-4 {
        fill: #1e48f1;
      }

      .cls-5 {
        fill: #989cf6;
      }

      .cls-16 {
        fill: none;
      }

      .cls-6 {
        fill: #b6fce1;
      }

      .cls-7 {
        fill: #5ec6d2;
      }

      .cls-17 {
        isolation: isolate;
      }

      .cls-8 {
        fill: #ead7fc;
      }

      .cls-9 {
        fill: #aa51f6;
      }

      .cls-10 {
        fill: #8359e8;
      }

      .cls-11 {
        fill: #fff;
      }

      .cls-12 {
        fill: #fcfbd6;
      }

      .cls-13 {
        fill: #0000f5;
      }

      .cls-14 {
        fill: #7eeff9;
      }

      .cls-15 {
        fill: #65a0f5;
      }
    </style>
  </defs>
  <g id="Layer_2-2" data-name="Layer 2">
    <g>
      <g>
        <g class="cls-17">
          <path class="cls-1" d="M357.04,164.54l-115.31-67.01c2.92,1.69,4.14,5.46,3.45,10.81-2.07,16.16-19.09,26.38-19.26,26.48L57.2,232.23c-4.6,2.66-8.96,7.72-11.67,13.55-.26.56-.21,1.09.09,1.26l115.31,67.01c-.3-.17-.35-.7-.09-1.26,2.71-5.83,7.07-10.9,11.67-13.55l168.73-97.41h0c.16-.09,17.19-10.31,19.26-26.48.68-5.36-.54-9.12-3.45-10.81Z"/>
          <path class="cls-9" d="M330.59,198.01l-115.31-67.01c1.82,1.06,4.36,1.19,7.61-.22,1.33-.58,2.6-1.22,3.82-1.92,4.74-2.74,8.55-6.36,10.94-10.45,1.93-3.31,2.79-6.65,2.48-9.68-.17-1.69-1.01-2.96-2.28-3.7l115.31,67.01c1.27.74,2.11,2.01,2.28,3.7.3,3.02-.56,6.37-2.48,9.68-2.39,4.09-6.2,7.72-10.94,10.45-1.21.7-2.49,1.34-3.82,1.92-3.25,1.41-5.79,1.28-7.61.22Z"/>
          <path class="cls-10" d="M333.78,186.64l-115.31-67.01c-.27-.16-.34-.62-.13-1.15,2.72-6.87,6.71-12.03,11.23-14.64.92-.53,1.87-.96,2.83-1.27,2.6-.85,4.96-.67,6.67.33l115.31,67.01c-1.72-1-4.07-1.18-6.67-.33-.96.31-1.91.74-2.83,1.27-4.52,2.61-8.52,7.77-11.23,14.64-.21.52-.14.99.13,1.15Z"/>
          <path class="cls-8" d="M243.01,95.39c-.55-.32-1.16-.58-1.81-.76-3.5-1.01-8.01.05-12.65,2.72-3.46,2-6.99,4.9-10.22,8.53-5.98,6.71-9.09,14.74-8.12,20.97.46,3,1.8,5.13,3.76,6.27l115.31,67.01c-1.95-1.13-3.29-3.27-3.76-6.27-.97-6.23,2.14-14.26,8.12-20.97,3.23-3.63,6.76-6.53,10.22-8.53,4.63-2.68,9.14-3.73,12.65-2.72.66.19,1.26.44,1.81.76l-115.31-67.01Z"/>
          <path class="cls-5" d="M343.86,164.36c4.63-2.68,9.14-3.73,12.65-2.72,4.6,1.32,6.63,5.94,5.72,13.03-2.3,17.99-20.79,29.06-20.98,29.17l-168.73,97.42c-4.04,2.33-7.88,6.78-10.25,11.91-.17.37-.44.67-.71.82-.18.11-.37.15-.52.1-.39-.11-.48-.69-.19-1.3,2.71-5.83,7.07-10.9,11.67-13.55l168.73-97.41c.16-.09,17.19-10.31,19.26-26.48.8-6.24-.99-10.32-5.04-11.48-3.2-.92-7.33.05-11.58,2.5-3.2,1.85-6.48,4.54-9.48,7.91-5.32,5.97-7.99,12.79-7.14,18.25.72,4.67,4.39,8.1,10.94,5.25,1.33-.58,2.6-1.22,3.82-1.92,4.74-2.74,8.55-6.36,10.94-10.45,1.93-3.31,2.79-6.65,2.48-9.68-.37-3.64-3.85-5.35-8.1-3.96-.81.27-1.62.63-2.4,1.08-3.91,2.26-7.4,6.78-9.78,12.8-.16.41-.45.75-.75.93-.15.09-.31.13-.45.11-.42-.04-.56-.58-.31-1.2,2.72-6.87,6.71-12.03,11.23-14.64.92-.53,1.87-.96,2.83-1.27,4.96-1.61,9.04.5,9.48,4.93.36,3.58-.71,7.71-3,11.63-2.72,4.66-6.97,8.74-12.2,11.75-1.28.74-2.62,1.41-4,2.02-6.46,2.81-11.47.38-12.47-6.06-.97-6.23,2.14-14.26,8.12-20.97,3.23-3.63,6.76-6.53,10.22-8.53Z"/>
        </g>
        <g>
          <g>
            <path class="cls-4" d="M97.68,212.35c0,2.12-1.83,4.14-4.94,5.3l-40.06,14.91c-2.96,1.1-6.65,1.27-9.85.44l-25.53-6.6c-2-.52-3.18-1.67-3.18-2.87v3.3c.01,1.21,1.2,2.36,3.19,2.87l25.53,6.6c3.2.83,6.89.66,9.85-.44l40.06-14.91c3.12-1.16,4.95-3.18,4.94-5.3v-3.3Z"/>
            <path class="cls-7" d="M40.14,225.68l27.7-37.15c.69-.92,2.51-1.35,4.08-.94l3.73.96c.94.24,1.61.74,1.79,1.34l7.42,24.07c.03.11.05.22.05.33v-3.3c-.01-.11-.03-.22-.06-.33l-7.42-24.07c-.18-.6-.85-1.1-1.79-1.34l-3.73-.96c-1.56-.4-3.39.02-4.08.94l-27.7,37.15c-.18.24-.26.49-.26.74v3.3c0-.25.09-.5.27-.74Z"/>
          </g>
          <path class="cls-10" d="M97.51,211.25c.77,2.5-1.12,5.04-4.77,6.4l-40.06,14.91c-2.96,1.1-6.65,1.27-9.85.44l-25.53-6.6c-2.7-.7-3.92-2.56-2.73-4.15l35.79-48c1.19-1.6,4.34-2.33,7.04-1.63l25.53,6.6c3.2.83,5.49,2.54,6.12,4.57l8.46,27.46ZM83.45,212.55c1.08-.4,1.63-1.14,1.4-1.88l-7.42-24.07c-.18-.6-.85-1.1-1.79-1.34l-3.73-.96c-1.56-.4-3.39.02-4.08.94l-27.7,37.15c-.69.92.02,2,1.58,2.4l3.73.96c.94.24,2.02.19,2.88-.13l35.12-13.08"/>
          <path class="cls-15" d="M91.47,218.12s-3.87-1.78-5.69-3.88-.93-3.66,1.5-5.22c3.16-2.02,6.74-2.75,8.09-2.46l-3.9,11.56Z"/>
          <path class="cls-13" d="M91.47,218.12s.2-7.3,2.77-10.8c2.22-3.03,3.27,3.93,3.27,3.93,0,0,.43,1.97-.61,3.47-1.64,2.36-5.42,3.4-5.42,3.4Z"/>
          <g class="cls-17">
            <polygon class="cls-15" points="108.74 212.13 108.54 219.85 104.68 225.24 104.87 217.52 108.74 212.13"/>
            <polygon class="cls-14" points="104.87 217.52 104.68 225.24 92.6 221.08 92.79 213.36 104.87 217.52"/>
            <polygon class="cls-6" points="108.74 212.13 104.87 217.52 92.79 213.36 96.65 207.96 108.74 212.13"/>
          </g>
        </g>
        <g>
          <path class="cls-15" d="M118.13,279.16c-7.4,0-12.6-1.85-15.38-4.11-4.26-3.45-5.82-8.28-4.29-13.23,2.34-7.57,12.91-17.05,35.01-18.87,8.88-.73,19.82.17,31.42,1.12,5.57.46,11.31.93,16.99,1.23,1.17-.93,2.35-1.89,3.53-2.86,16.13-13.32,34.32-20.45,53.54-21.34.7-3.67-.14-6.69-2.55-8.85-5.8-5.21-19.09-4.44-25.84,1.49-11.69,10.27-32.64,22.07-56.35,24.39-10.39,1.01-12.68-3.08-13.12-5.62-1.33-7.73,12.19-19.73,34.45-25.27,16.41-4.08,24.37-11.28,23.76-16.28-.44-3.58-5.31-5.9-12.42-5.9-11.62,0-22.52,10.15-33.06,19.97-7.27,6.78-14.14,13.18-21.03,15.98-12.89,5.25-21.61,2.23-25.37.23-1.14-.61-1.46-2.1-.64-3.1h0c.62-.75,1.68-.97,2.53-.51,2.93,1.58,10.38,4.3,21.93-.4,6.19-2.52,12.79-8.67,19.78-15.18,11.12-10.36,22.61-21.07,35.85-21.07,11.29,0,15.92,4.9,16.48,9.49.77,6.3-5.79,15.52-26.83,20.75-21.69,5.39-32.13,16.44-31.41,20.6.32,1.87,3.65,2.73,8.69,2.24,22.74-2.22,42.83-13.54,54.05-23.39,8.39-7.37,23.88-8.09,31.27-1.46,2.26,2.03,4.91,5.77,4.02,11.8,16.36.02,33.4,4.51,50.53,13.51l.77.4-1.89,3.63-.78-.41c-16.87-8.86-33.64-13.18-49.7-13-.92,2.54-2.42,5.4-4.67,8.6-10.57,15.03-32.06,16.77-54.2,15.72-19.35,15.24-37.14,24.74-52.93,28.26-4.54,1.01-8.6,1.44-12.15,1.44ZM140.66,246.77c-2.41,0-4.7.08-6.86.25-18.78,1.55-29.32,9.15-31.44,16-1.04,3.38-.02,6.44,2.96,8.85,3.22,2.61,11.46,4.67,24.07,1.86,13.98-3.12,30.28-11.57,47.58-24.63-4.18-.28-8.34-.62-12.43-.96-8.54-.7-16.73-1.38-23.89-1.38ZM188.07,245.55c19.3.52,37.27-1.74,46-14.16,1.5-2.14,2.68-4.17,3.52-6.08-17.78,1.15-34.57,7.91-49.52,20.24Z"/>
          <line class="cls-15" x1="176.98" y1="249.1" x2="181.88" y2="245.3"/>
          <line class="cls-15" x1="183.22" y1="249.46" x2="188.07" y2="245.55"/>
          <line class="cls-15" x1="237.59" y1="225.31" x2="242.08" y2="225.14"/>
          <line class="cls-15" x1="238.95" y1="221.1" x2="243.15" y2="221"/>
        </g>
        <g>
          <g class="cls-17">
            <polygon class="cls-11" points="306.72 240.45 306.72 242.28 297.59 247.58 297.59 245.75 306.72 240.45"/>
            <polygon class="cls-14" points="297.59 241.63 297.59 247.58 285.61 240.67 285.62 234.71 297.59 241.63"/>
            <polygon class="cls-6" points="304.35 237.98 297.59 241.63 285.62 234.71 292.38 231.07 304.35 237.98"/>
          </g>
          <g>
            <path class="cls-4" d="M380.99,250.16l-62.5,36.32c-2.08,1.21-5.45,1.21-7.55,0l-19.79-11.43c-2.01-1.16-3.12-2.73-3.11-4.35v3.33c-.01,1.61,1.09,3.18,3.1,4.35l19.79,11.43c2.09,1.21,5.47,1.21,7.55,0l62.5-36.32c1.03-.6,1.55-1.38,1.55-2.17v-3.33c0,.79-.51,1.57-1.54,2.17Z"/>
            <path class="cls-7" d="M308.43,249.22c.24-.72,1.21-1.28,2.44-1.42l40.68-4.53c1-.11,2.04.07,2.77.49l2.9,1.67c.61.35.91.81.91,1.27v-3.33c.01-.46-.29-.92-.9-1.27l-2.9-1.67c-.73-.42-1.76-.6-2.77-.49l-40.68,4.53c-1.24.14-2.21.7-2.44,1.42l-7.69,23.58c-.04.11-.05.22-.05.33v3.33c0-.11,0-.22.04-.33l7.69-23.58Z"/>
          </g>
          <path class="cls-10" d="M380.97,245.78c2.09,1.21,2.1,3.17.02,4.37l-62.5,36.32c-2.08,1.21-5.45,1.21-7.55,0l-19.79-11.43c-2.48-1.43-3.58-3.48-2.93-5.47l8.77-26.89c.8-2.45,4.1-4.37,8.33-4.84l46.4-5.17c3.43-.38,6.97.25,9.45,1.68l19.79,11.43ZM308.87,272.74l48.37-28.11c1.2-.7,1.19-1.83-.01-2.53l-2.9-1.67c-.73-.42-1.76-.6-2.77-.49l-40.68,4.53c-1.24.14-2.21.7-2.44,1.42l-7.69,23.58c-.19.58.13,1.18.86,1.6l2.9,1.67c1.21.7,3.16.7,4.37,0"/>
          <path class="cls-15" d="M296.41,244.47s8.91,1.51,11.99,0-2.35-6.97-5.66-9.44c-3.32-2.47-7.95.83-6.32,9.44Z"/>
        </g>
        <g class="cls-17">
          <path class="cls-2" d="M247.52,204.45l-.08-29.19-57.66-33.51.08,29.19c0,.97.34,1.65.89,1.96l57.66,33.51c-.55-.32-.89-1-.89-1.96Z"/>
          <path class="cls-2" d="M222.87,120.17c-.56-.32-1.33-.28-2.18.21l-27.85,16.08,57.66,33.51,27.85-16.08c.85-.49,1.62-.54,2.18-.21l-57.66-33.51Z"/>
          <path class="cls-12" d="M247.44,175.26l-57.66-33.51c0-1.94,1.36-4.31,3.05-5.28l57.66,33.51c-1.69.98-3.06,3.34-3.05,5.28Z"/>
          <path class="cls-3" d="M278.35,153.89c1.69-.98,3.07-.19,3.07,1.75l.08,29.19c0,1.94-1.36,4.31-3.05,5.28l-27.85,16.08c-1.69.98-3.07.19-3.07-1.75l-.08-29.19c0-1.94,1.36-4.31,3.05-5.28l27.85-16.08Z"/>
        </g>
        <g class="cls-17">
          <path class="cls-2" d="M208.91,227.89l-.08-29.19-57.66-33.51.08,29.19c0,.97.34,1.65.89,1.96l57.66,33.51c-.55-.32-.89-1-.89-1.96Z"/>
          <path class="cls-2" d="M184.25,143.61c-.56-.32-1.33-.28-2.18.21l-27.85,16.08,57.66,33.51,27.85-16.08c.85-.49,1.62-.54,2.18-.21l-57.66-33.51Z"/>
          <path class="cls-12" d="M208.82,198.7l-57.66-33.51c0-1.94,1.36-4.31,3.05-5.28l57.66,33.51c-1.69.98-3.06,3.34-3.05,5.28Z"/>
          <path class="cls-3" d="M239.73,177.33c1.69-.98,3.07-.19,3.07,1.75l.08,29.19c0,1.94-1.36,4.31-3.05,5.28l-27.85,16.08c-1.69.98-3.07.19-3.07-1.75l-.08-29.19c0-1.94,1.36-4.31,3.05-5.28l27.85-16.08Z"/>
        </g>
      </g>
      <rect class="cls-16" width="394.06" height="394.06"/>
    </g>
  </g>
</svg>