<svg width="161" height="186" viewBox="0 0 161 186" fill="none" xmlns="http://www.w3.org/2000/svg">
<path d="M111.569 156.382C108.679 156.382 105.557 155.979 102.277 155.18C90.0078 152.191 79.5952 144.493 79.0641 138.014C78.994 137.168 79.0933 136.362 79.3501 135.615L90.5156 103.554C90.5798 103.373 90.7491 103.262 90.93 103.262C90.9767 103.262 91.0293 103.268 91.076 103.286C91.3036 103.367 91.4262 103.613 91.3444 103.846C91.1226 104.476 91.0468 105.159 91.1051 105.883C91.6071 112.017 101.722 119.366 113.652 122.272C116.862 123.055 119.915 123.451 122.734 123.451C128.664 123.451 132.826 121.665 133.87 118.683L134.699 118.969L123.534 151.03C122.366 154.386 117.895 156.388 111.574 156.388L111.569 156.382Z" fill="#65A0F5"/>
<path d="M90.9358 103.694C90.6965 104.371 90.6089 105.113 90.6731 105.912C91.1926 112.228 101.436 119.739 113.553 122.693C116.868 123.498 119.979 123.883 122.74 123.883C128.798 123.883 133.164 122.045 134.291 118.817L123.125 150.878C121.999 154.106 117.633 155.944 111.574 155.944C108.814 155.944 105.703 155.565 102.387 154.754C90.2704 151.806 80.027 144.288 79.5076 137.973C79.4434 137.174 79.5368 136.432 79.7702 135.755L90.9358 103.694ZM90.107 103.403L78.9414 135.463C78.6613 136.269 78.5562 137.133 78.6321 138.043C79.1866 144.808 89.5292 152.518 102.177 155.6C105.487 156.405 108.644 156.814 111.574 156.814C118.088 156.814 122.716 154.701 123.948 151.164L135.102 119.144C135.143 119.039 135.166 118.928 135.166 118.811C135.166 118.327 134.775 117.936 134.291 117.936C133.9 117.936 133.573 118.187 133.456 118.543C132.47 121.333 128.466 123.002 122.74 123.002C119.956 123.002 116.932 122.611 113.757 121.835C102.195 119.021 92.0214 111.691 91.5428 105.836C91.4903 105.177 91.5603 104.547 91.7588 103.98L90.93 103.694L90.1011 103.408L90.107 103.403Z" fill="#0000F4"/>
<path d="M123.119 150.878L134.285 118.817C132.65 123.516 124.135 125.273 113.547 122.693C112.94 122.547 112.339 122.383 111.743 122.214L103.181 146.792C102.195 149.629 98.6927 151.392 93.749 151.777C96.4281 152.997 99.3406 154.024 102.376 154.759C112.958 157.339 121.473 155.582 123.113 150.884L123.119 150.878Z" fill="#3072C1"/>
<path d="M122.74 124.315C119.851 124.315 116.722 123.913 113.448 123.113C101.179 120.125 90.7665 112.426 90.2354 105.947C90.0953 104.261 90.6031 102.784 91.7354 101.552C93.7316 99.3869 97.5487 98.1904 102.487 98.1904C105.376 98.1904 108.504 98.5931 111.779 99.3927C124.047 102.381 134.46 110.086 134.991 116.564C135.131 118.251 134.623 119.728 133.491 120.959C131.495 123.125 127.678 124.321 122.74 124.321V124.315Z" fill="#1E49F1"/>
<path d="M102.481 98.6281C105.241 98.6281 108.352 99.0075 111.668 99.8188C123.785 102.766 134.028 110.284 134.547 116.599C134.927 121.187 130.065 123.883 122.734 123.883C119.973 123.883 116.862 123.504 113.547 122.693C101.43 119.745 91.1867 112.228 90.6672 105.912C90.2878 101.325 95.1498 98.6281 102.481 98.6281ZM102.481 97.7526C97.4203 97.7526 93.4922 98.9958 91.4085 101.255C90.2061 102.562 89.6458 104.196 89.7917 105.982C90.3462 112.747 100.689 120.457 113.337 123.539C116.646 124.345 119.804 124.753 122.734 124.753C127.794 124.753 131.722 123.51 133.806 121.251C135.008 119.944 135.569 118.309 135.417 116.523C134.863 109.759 124.52 102.043 111.872 98.9667C108.562 98.1612 105.405 97.7526 102.481 97.7526Z" fill="#0000F4"/>
<path d="M122.191 122.343C119.559 122.343 116.716 121.975 113.734 121.251C102.574 118.531 93.0954 111.516 92.6109 105.615C92.5467 104.838 92.6343 104.103 92.8736 103.42L109.251 56.3939L110.08 56.6799C109.882 57.2461 109.812 57.8648 109.864 58.5185C110.319 64.075 119.5 70.7405 130.322 73.3787C133.234 74.0849 136.007 74.4468 138.569 74.4468C143.939 74.4468 147.709 72.8359 148.649 70.1393L149.478 70.4253L133.1 117.451C132.032 120.516 127.952 122.348 122.191 122.348V122.343Z" fill="#65A0F5"/>
<path d="M109.672 56.534C109.456 57.1527 109.374 57.8239 109.432 58.5535C109.905 64.291 119.215 71.1199 130.223 73.7989C133.234 74.5343 136.065 74.8787 138.575 74.8787C144.079 74.8787 148.048 73.2094 149.069 70.2736L132.691 117.3C131.67 120.23 127.701 121.905 122.197 121.905C119.687 121.905 116.862 121.555 113.845 120.825C102.837 118.146 93.5273 111.317 93.0546 105.58C92.9962 104.856 93.0779 104.179 93.2939 103.56L109.672 56.534ZM108.843 56.248L92.4651 103.274C92.2083 104.015 92.109 104.815 92.1791 105.65C92.6869 111.831 102.113 118.87 113.635 121.677C116.646 122.413 119.53 122.786 122.191 122.786C128.238 122.786 132.365 120.895 133.514 117.597L149.88 70.6179C149.921 70.5129 149.945 70.402 149.945 70.2852C149.945 69.8183 149.583 69.4389 149.127 69.4097C149.11 69.4097 149.087 69.4097 149.069 69.4097C149.017 69.4097 148.964 69.4097 148.912 69.4214C148.789 69.4447 148.672 69.4914 148.567 69.5615C148.462 69.6374 148.369 69.7307 148.305 69.8533C148.275 69.9058 148.252 69.9584 148.234 70.0109C147.347 72.5148 143.74 74.009 138.575 74.009C136.048 74.009 133.31 73.653 130.433 72.9526C119.962 70.402 110.74 63.7773 110.308 58.4835C110.261 57.894 110.325 57.3337 110.5 56.8259L109.672 56.5399L108.843 56.2539V56.248Z" fill="#0000F4"/>
<path d="M137.005 74.8378L122.541 116.366C121.648 118.922 118.52 120.516 114.084 120.883C123.592 123.142 131.215 121.537 132.685 117.305L149.063 70.2794C147.948 73.4837 143.314 75.1822 136.999 74.8378H137.005Z" fill="#3072C1"/>
<path d="M138.972 76.5305C136.082 76.5305 132.954 76.1277 129.685 75.3281C117.417 72.3397 107.004 64.6412 106.473 58.1566C106.403 57.3103 106.502 56.5048 106.759 55.7578C106.759 55.7578 114.207 34.3722 114.212 34.3663C117.989 22.9965 128.39 15.3621 140.116 15.3621C140.489 15.3621 140.863 15.368 141.242 15.3855C146.332 15.5898 151.217 18.5548 154.655 23.5218C159.902 31.0978 161.046 41.6447 157.707 51.7246L150.931 71.1724C149.764 74.5285 145.293 76.5305 138.972 76.5305Z" fill="#7EEFF9"/>
<path d="M140.11 15.7999C140.477 15.7999 140.845 15.8057 141.219 15.8232C153.68 16.3252 163.34 33.2924 157.287 51.5845L150.516 71.0265C149.39 74.2542 145.024 76.0927 138.972 76.0927C136.211 76.0927 133.1 75.7133 129.785 74.902C117.668 71.9487 107.424 64.4369 106.905 58.1216C106.841 57.322 106.934 56.5807 107.167 55.9037L114.615 34.5298C114.615 34.5298 114.615 34.5356 114.615 34.5414C118.105 23.9887 127.899 15.7999 140.11 15.7999ZM140.11 14.9244C128.203 14.9244 117.633 22.6813 113.792 34.2263V34.2379L106.344 55.6118C106.064 56.4173 105.959 57.2811 106.035 58.1916C106.59 64.9563 116.932 72.6724 129.58 75.7484C132.89 76.5538 136.047 76.9624 138.972 76.9624C145.584 76.9624 150.09 74.902 151.345 71.3125L158.116 51.8705C161.495 41.6447 160.334 30.9577 155.011 23.265C151.497 18.1871 146.483 15.152 141.254 14.9419C140.874 14.9244 140.489 14.9185 140.11 14.9185V14.9244Z" fill="#0000F4"/>
<path d="M138.972 76.5305C136.082 76.5305 132.954 76.1277 129.685 75.3281C129.271 75.2289 128.857 75.118 128.448 75.0071L128.057 74.8962C127.777 74.8203 127.497 74.7386 127.217 74.6569L126.773 74.5168C126.51 74.4351 126.254 74.3534 125.997 74.2717L125.553 74.1258C125.29 74.0382 125.028 73.9448 124.771 73.8514L124.368 73.7055C124.076 73.6005 123.79 73.4896 123.504 73.3787L123.207 73.2619C122.407 72.9468 121.631 72.6141 120.89 72.2697C120.493 72.0829 120.137 71.9137 119.781 71.7444L119.611 71.6627C119.302 71.5051 118.993 71.3533 118.689 71.1899L118.508 71.0907C118.205 70.9273 117.901 70.7638 117.604 70.5946L117.463 70.5187C117.131 70.3319 116.804 70.1393 116.477 69.9409C114.749 68.8961 113.197 67.7813 111.854 66.6256C111.697 66.4914 111.656 66.2579 111.761 66.077C111.843 65.9369 111.989 65.8552 112.14 65.8552C112.187 65.8552 112.234 65.861 112.281 65.8785C113.605 66.3221 114.936 66.7074 116.232 67.0284C119.436 67.8105 122.495 68.2074 125.314 68.2074C131.244 68.2074 135.405 66.4213 136.444 63.4388L143.215 43.9969C146.507 34.0453 145.234 23.335 139.9 16.0684C139.8 15.9341 139.789 15.759 139.865 15.6131C139.941 15.4672 140.092 15.3738 140.256 15.3738C140.583 15.3738 140.909 15.3738 141.236 15.3913C146.326 15.5956 151.211 18.5606 154.649 23.5276C159.896 31.1036 161.04 41.6505 157.702 51.7304L150.925 71.1782C149.758 74.5343 145.287 76.5363 138.966 76.5363L138.972 76.5305Z" fill="#5EC6D2"/>
<path d="M140.256 15.8057C140.577 15.8057 140.898 15.8057 141.219 15.8232C153.68 16.3252 163.34 33.2924 157.287 51.5845L150.517 71.0265C149.39 74.2542 145.024 76.0927 138.972 76.0927C136.211 76.0927 133.1 75.7133 129.785 74.902C129.37 74.8028 128.962 74.6978 128.559 74.5869C128.431 74.5518 128.302 74.511 128.168 74.476C127.888 74.4001 127.614 74.3184 127.339 74.2367C127.193 74.19 127.042 74.1433 126.896 74.1024C126.639 74.0207 126.382 73.939 126.125 73.8573C125.979 73.8106 125.833 73.7581 125.687 73.7114C125.425 73.6238 125.168 73.5304 124.911 73.4429C124.777 73.3962 124.649 73.3495 124.514 73.297C124.228 73.1919 123.942 73.081 123.662 72.9759C123.563 72.9351 123.464 72.9001 123.364 72.8592C122.582 72.5499 121.818 72.223 121.071 71.8786C121.059 71.8728 121.047 71.867 121.03 71.8611C120.674 71.6977 120.324 71.5284 119.973 71.3592C119.915 71.33 119.862 71.3008 119.804 71.2716C119.495 71.1199 119.191 70.9623 118.894 70.8047C118.835 70.7755 118.771 70.7405 118.713 70.7113C118.409 70.5479 118.111 70.3845 117.814 70.221C117.767 70.1977 117.726 70.1685 117.68 70.1452C117.347 69.9584 117.026 69.7658 116.705 69.5732C116.705 69.5732 116.699 69.5732 116.693 69.5673C114.995 68.5401 113.465 67.4428 112.141 66.2988C113.442 66.7365 114.773 67.1276 116.127 67.4544C119.442 68.2599 122.553 68.6451 125.314 68.6451C131.367 68.6451 135.738 66.8066 136.859 63.5789L143.629 44.1369C147.277 33.0998 145.205 22.5529 140.25 15.8057M140.256 14.9302C139.929 14.9302 139.625 15.117 139.474 15.4088C139.322 15.7065 139.351 16.0567 139.55 16.3252C144.808 23.4868 146.052 34.0395 142.801 43.8684L136.036 63.2987C135.061 66.1003 131.051 67.7755 125.32 67.7755C122.536 67.7755 119.512 67.3844 116.343 66.614C115.059 66.2988 113.74 65.9194 112.427 65.4758C112.333 65.4466 112.24 65.4291 112.146 65.4291C111.837 65.4291 111.545 65.5926 111.388 65.8727C111.177 66.2346 111.259 66.6957 111.574 66.97C112.934 68.1432 114.504 69.2755 116.244 70.3261C116.582 70.5304 116.915 70.723 117.248 70.9156L117.347 70.9681L117.388 70.9915C117.685 71.1607 117.995 71.3242 118.304 71.4934L118.339 71.5109L118.485 71.5868C118.788 71.7502 119.104 71.9078 119.413 72.0596L119.483 72.0946L119.588 72.1471C119.944 72.3222 120.3 72.4915 120.662 72.6608L120.703 72.6783C121.456 73.0226 122.244 73.3612 123.043 73.6763L123.23 73.7522L123.341 73.7931C123.627 73.904 123.919 74.0149 124.211 74.1199C124.322 74.1608 124.438 74.2016 124.549 74.2425L124.613 74.2658C124.876 74.3592 125.139 74.4526 125.401 74.5402C125.553 74.5927 125.699 74.6394 125.851 74.6919C126.108 74.7795 126.37 74.8612 126.633 74.9429L126.732 74.9721C126.849 75.0071 126.966 75.0421 127.082 75.083C127.363 75.1647 127.643 75.2464 127.929 75.3281L128.069 75.369C128.151 75.3923 128.238 75.4157 128.32 75.439C128.734 75.5499 129.149 75.6608 129.569 75.76C132.878 76.5655 136.036 76.9741 138.96 76.9741C145.573 76.9741 150.079 74.9137 151.334 71.3242L158.104 51.8822C161.484 41.6563 160.322 30.9694 154.999 23.2767C151.486 18.1988 146.472 15.1637 141.242 14.9536C140.909 14.9419 140.577 14.936 140.244 14.936L140.256 14.9302Z" fill="#0000F4"/>
<path d="M146.828 52.6643C143.956 52.6643 140.874 52.2674 137.67 51.4911C125.758 48.5903 115.257 40.8159 114.738 34.5123C114.609 32.9305 115.082 31.5414 116.145 30.3916C118.059 28.3137 121.777 27.1756 126.621 27.1756C129.551 27.1756 132.726 27.5841 136.048 28.3954C148.229 31.3604 158.554 38.8723 159.073 45.135C159.202 46.7284 158.717 48.1409 157.632 49.3199C155.641 51.4795 151.807 52.6702 146.828 52.6702V52.6643Z" fill="white"/>
<path d="M126.627 27.6075C129.429 27.6075 132.598 27.9985 135.948 28.8157C147.738 31.6873 158.133 39.0182 158.641 45.1642C159.009 49.6234 154.071 52.2266 146.834 52.2266C144.09 52.2266 141.02 51.853 137.781 51.0651C126.003 48.1993 115.689 40.6233 115.181 34.4772C114.82 30.0822 119.576 27.6075 126.627 27.6075ZM126.627 26.732C121.66 26.732 117.825 27.9285 115.829 30.0939C114.697 31.3254 114.172 32.8663 114.312 34.5473C114.855 41.131 125.291 48.923 137.577 51.9172C140.81 52.7052 143.927 53.1021 146.834 53.1021C151.935 53.1021 155.886 51.8647 157.958 49.6117C159.114 48.3568 159.657 46.7926 159.517 45.0941C159.254 41.8781 156.598 38.3119 152.04 35.0492C147.645 31.9033 142.007 29.3877 136.158 27.9635C132.802 27.1464 129.598 26.732 126.633 26.732H126.627Z" fill="#0000F4"/>
<path d="M146.886 51.6429C144.114 51.6429 141.014 51.246 137.915 50.4872C128.279 48.1409 119.296 42.4793 116.553 37.0162C116.098 36.1115 115.835 35.236 115.765 34.4189C115.642 32.9188 116.185 31.6406 117.376 30.6192C119.214 29.0491 122.489 28.1795 126.586 28.1795C129.417 28.1795 132.604 28.5939 135.808 29.3701C145.579 31.7515 154.614 37.343 157.293 42.6719C157.731 43.5474 157.988 44.3996 158.058 45.1992C158.18 46.7226 157.62 48.03 156.388 49.0806C154.462 50.7265 151.089 51.6371 146.892 51.6371L146.886 51.6429Z" fill="#C0E5F5"/>
<path d="M126.586 28.6289C129.341 28.6289 132.452 29.0199 135.709 29.8079C145.363 32.1601 154.275 37.6582 156.902 42.882C157.316 43.705 157.556 44.5046 157.62 45.2459C157.731 46.6234 157.223 47.8024 156.102 48.7596C154.211 50.3763 150.908 51.2051 146.886 51.2051C144.184 51.2051 141.16 50.8316 138.02 50.067C128.501 47.7498 119.635 42.1816 116.944 36.8294C116.512 35.9773 116.267 35.1543 116.203 34.3897C116.092 33.0356 116.582 31.8799 117.662 30.9636C119.465 29.4227 122.658 28.6289 126.592 28.6289M126.586 27.7534C122.32 27.7534 119.039 28.6347 117.09 30.2982C115.806 31.3955 115.193 32.8371 115.327 34.4656C115.397 35.3411 115.677 36.2691 116.162 37.2263C118.958 42.7887 128.063 48.5495 137.816 50.925C140.944 51.6896 144.085 52.0923 146.892 52.0923C151.194 52.0923 154.666 51.1468 156.674 49.4366C157.999 48.3043 158.63 46.8335 158.495 45.1875C158.425 44.3295 158.151 43.4249 157.69 42.5027C154.958 37.0687 145.8 31.378 135.919 28.9732C132.68 28.1853 129.458 27.7651 126.592 27.7651L126.586 27.7534Z" fill="#0000F4"/>
<path d="M138.972 76.5305C136.082 76.5305 132.954 76.1277 129.685 75.3281C117.417 72.3397 107.004 64.6412 106.473 58.1566C106.403 57.3103 106.502 56.5048 106.759 55.7578C106.759 55.7578 114.207 34.3722 114.212 34.3663C114.446 33.6543 114.726 32.9247 115.041 32.1951C115.111 32.0317 115.275 31.9266 115.444 31.9266C115.497 31.9266 115.549 31.9383 115.602 31.9558C115.823 32.0433 115.934 32.2885 115.853 32.5103C115.642 33.1056 115.561 33.7477 115.619 34.4305C116.109 40.3898 126.306 47.8082 137.886 50.6273C141.02 51.3919 144.026 51.7771 146.828 51.7771C153.487 51.7771 157.847 49.5942 158.198 46.0864C158.209 45.9521 158.285 45.8354 158.396 45.7595C158.466 45.7128 158.548 45.6895 158.63 45.6895C158.676 45.6895 158.729 45.6953 158.775 45.7128C158.98 45.7829 159.114 45.993 159.079 46.2031C158.764 48.0709 158.303 49.9269 157.713 51.7129L150.937 71.1607C149.769 74.5168 145.299 76.5188 138.977 76.5188L138.972 76.5305Z" fill="#65A0F5"/>
<path d="M115.438 32.3702C115.21 33.0122 115.117 33.7126 115.181 34.4714C115.689 40.6174 126.002 48.1934 137.781 51.0592C141.02 51.8472 144.09 52.2207 146.828 52.2207C153.522 52.2207 158.244 49.9911 158.629 46.1331H158.647C158.343 47.9308 157.9 49.7518 157.293 51.5845L150.522 71.0265C149.396 74.2542 145.03 76.0927 138.977 76.0927C136.217 76.0927 133.106 75.7133 129.79 74.9021C117.673 71.9487 107.43 64.4369 106.911 58.1216C106.846 57.322 106.94 56.5807 107.173 55.9037L114.621 34.5298C114.621 34.5298 114.621 34.5356 114.621 34.5414C114.866 33.806 115.14 33.0823 115.444 32.3702M115.438 31.4947C115.1 31.4947 114.773 31.6931 114.633 32.0258C114.317 32.7671 114.037 33.5083 113.792 34.2263V34.2379L106.344 55.6118C106.064 56.4173 105.959 57.2811 106.035 58.1916C106.59 64.9564 116.932 72.6724 129.58 75.7484C132.89 76.5538 136.047 76.9624 138.972 76.9624C145.584 76.9624 150.09 74.902 151.345 71.3125L158.116 51.8705C158.717 50.0495 159.184 48.1759 159.505 46.279C159.575 45.8529 159.33 45.4385 158.915 45.3043C158.822 45.2751 158.729 45.2576 158.635 45.2576C158.466 45.2576 158.303 45.3043 158.157 45.3977C157.935 45.5436 157.783 45.777 157.754 46.0455C157.433 49.2674 153.143 51.3452 146.822 51.3452C144.055 51.3452 141.079 50.96 137.979 50.2071C126.761 47.4755 116.518 40.0863 116.045 34.3955C115.993 33.7768 116.063 33.1932 116.255 32.6562C116.413 32.2126 116.191 31.7223 115.747 31.5472C115.642 31.5064 115.537 31.4889 115.426 31.4889L115.438 31.4947Z" fill="#0000F4"/>
<path d="M158.566 47.0086C158.566 47.0086 158.513 47.0086 158.484 47.0027C158.244 46.956 158.093 46.7343 158.134 46.495L158.145 46.4307C158.163 46.3199 158.18 46.209 158.192 46.0981C158.204 45.9638 158.28 45.8471 158.39 45.7712C158.46 45.7245 158.542 45.7012 158.624 45.7012C158.671 45.7012 158.723 45.707 158.77 45.7245C158.974 45.7946 159.108 46.0047 159.073 46.2148C159.062 46.3023 158.992 46.6525 158.992 46.6525C158.951 46.8627 158.77 47.0086 158.56 47.0086H158.566Z" fill="white"/>
<path d="M158.63 46.1331H158.647C158.63 46.2556 158.6 46.3724 158.583 46.495C158.606 46.3782 158.624 46.2556 158.635 46.1331M158.577 46.495C158.577 46.495 158.565 46.5416 158.565 46.565C158.565 46.5416 158.577 46.5183 158.577 46.495ZM158.635 45.2634C158.466 45.2634 158.303 45.3101 158.157 45.4035C157.935 45.5494 157.783 45.7829 157.754 46.0514C157.742 46.1506 157.731 46.244 157.713 46.3432L157.702 46.4191C157.614 46.8918 157.929 47.3471 158.402 47.4347C158.455 47.4463 158.507 47.4522 158.565 47.4522C158.98 47.4522 159.342 47.1603 159.423 46.7401L159.435 46.6642L159.453 46.5592C159.47 46.4716 159.488 46.3782 159.505 46.2907C159.575 45.8646 159.33 45.4502 158.916 45.3159C158.822 45.2868 158.729 45.2693 158.635 45.2693V45.2634Z" fill="#0000F4"/>
<path d="M158.56 46.5708C158.56 46.5708 158.56 46.5883 158.56 46.5942C158.56 46.5825 158.56 46.5767 158.56 46.5708ZM158.56 46.5942C158.56 46.5942 158.548 46.6467 158.548 46.67C158.548 46.6467 158.56 46.6175 158.56 46.5942ZM158.56 45.6953C158.145 45.6953 157.777 45.9872 157.702 46.4074C157.702 46.4074 157.702 46.4249 157.702 46.4366V46.4658L157.684 46.5183C157.596 46.9911 157.906 47.4405 158.373 47.5339C158.431 47.5456 158.489 47.5514 158.542 47.5514C158.945 47.5514 159.312 47.2712 159.4 46.8568C159.406 46.8276 159.412 46.7926 159.418 46.7634C159.418 46.7576 159.418 46.7343 159.418 46.7343C159.505 46.2615 159.19 45.8062 158.717 45.7187C158.665 45.707 158.612 45.7012 158.56 45.7012V45.6953Z" fill="#0000F4"/>
<path d="M150.517 71.0323L157.287 51.5904C157.836 49.9386 158.238 48.2926 158.542 46.6759C157.573 51.2285 150.213 53.2772 140.874 51.7071L134.442 70.1743C133.707 72.2755 131.594 73.7872 128.536 74.5869C128.95 74.6978 129.364 74.8087 129.785 74.9079C140.367 77.4877 148.876 75.7309 150.517 71.0323Z" fill="#3072C1"/>
<path d="M146.828 52.6643C144.954 52.6643 142.97 52.495 140.921 52.1565C140.793 52.1332 140.682 52.0573 140.618 51.9464C140.554 51.8355 140.536 51.7013 140.583 51.5787L143.221 43.9969C144.505 40.1096 145.118 36.1465 145.042 32.2243C145.042 32.0725 145.112 31.9266 145.24 31.8449C145.31 31.7982 145.392 31.7749 145.48 31.7749C145.544 31.7749 145.608 31.7865 145.667 31.8157C153.575 35.6154 158.717 40.7166 159.079 45.1175C159.208 46.7109 158.723 48.1234 157.638 49.3024C155.647 51.462 151.813 52.6526 146.834 52.6526L146.828 52.6643Z" fill="#B6FCE1"/>
<path d="M145.474 32.2184C152.851 35.7613 158.274 40.7692 158.635 45.1642C159.003 49.6234 154.065 52.2266 146.828 52.2266C145.013 52.2266 143.052 52.0631 140.991 51.7246L143.629 44.1428C144.984 40.0454 145.55 36.0123 145.474 32.2184ZM145.474 31.3429C145.31 31.3429 145.141 31.3896 145.001 31.483C144.744 31.6464 144.592 31.9324 144.598 32.236C144.68 36.1057 144.073 40.0162 142.801 43.8684L140.162 51.4328C140.075 51.6779 140.104 51.9464 140.238 52.1682C140.373 52.39 140.594 52.5417 140.851 52.5826C142.923 52.927 144.937 53.0962 146.828 53.0962C151.929 53.0962 155.881 51.8589 157.953 49.6059C159.108 48.351 159.651 46.7868 159.511 45.0883C159.137 40.5299 153.902 35.2944 145.853 31.4247C145.731 31.3663 145.602 31.3371 145.474 31.3371V31.3429Z" fill="#0000F4"/>
<path d="M146.898 51.6429C145.118 51.6429 143.227 51.4853 141.266 51.1701C141.137 51.1468 141.026 51.0709 140.962 50.96C140.898 50.8491 140.88 50.7149 140.927 50.5923L143.221 43.9969C144.376 40.4948 144.989 36.917 145.036 33.3508C145.036 33.199 145.118 33.0589 145.246 32.983C145.316 32.9422 145.398 32.9188 145.474 32.9188C145.538 32.9188 145.608 32.9364 145.666 32.9655C151.363 35.773 155.6 39.3158 157.293 42.6836C157.731 43.5591 157.988 44.4113 158.058 45.2109C158.18 46.7342 157.62 48.0417 156.388 49.0923C154.462 50.7382 151.094 51.6429 146.898 51.6429Z" fill="#93D1EE"/>
<path d="M145.474 33.3566C150.902 36.0356 155.209 39.5143 156.902 42.882C157.316 43.705 157.556 44.5046 157.62 45.2459C157.731 46.6234 157.223 47.8024 156.102 48.7596C154.211 50.3763 150.913 51.2051 146.898 51.2051C145.158 51.2051 143.285 51.0476 141.335 50.7382L143.629 44.1428C144.849 40.454 145.427 36.8177 145.468 33.3624M145.474 32.4811C145.316 32.4811 145.159 32.5219 145.018 32.6095C144.762 32.7671 144.604 33.0414 144.598 33.3449C144.551 36.8644 143.944 40.4015 142.8 43.8626L140.507 50.4405C140.419 50.6857 140.448 50.9542 140.583 51.176C140.717 51.3978 140.939 51.5495 141.195 51.5904C143.174 51.9114 145.094 52.069 146.898 52.069C151.258 52.069 154.637 51.1526 156.668 49.4133C157.993 48.281 158.624 46.8101 158.489 45.1642C158.419 44.3062 158.145 43.4015 157.684 42.4793C155.951 39.0298 151.637 35.4169 145.859 32.5628C145.736 32.5044 145.602 32.4753 145.474 32.4753V32.4811Z" fill="#0000F4"/>
<path d="M148.608 24.1463C147.493 24.1463 146.285 23.9887 145.024 23.6852C140.197 22.5062 136.246 19.547 136.03 16.9439C136.001 16.5878 136.042 16.2435 136.152 15.9224L138.388 9.50794L139.217 9.79394C139.147 9.99822 139.117 10.22 139.141 10.4535C139.322 12.6306 143.133 15.3621 147.47 16.4186C148.666 16.7104 149.799 16.8563 150.849 16.8563C152.974 16.8563 154.45 16.2493 154.806 15.2337C154.871 15.0528 155.04 14.9419 155.221 14.9419C155.268 14.9419 155.32 14.9477 155.367 14.9652C155.594 15.0469 155.717 15.2921 155.635 15.5256L153.4 21.9401C152.91 23.3467 151.164 24.1522 148.614 24.1522L148.608 24.1463Z" fill="#B6FCE1"/>
<path d="M138.802 9.65386C138.715 9.91067 138.68 10.1908 138.703 10.4943C138.902 12.8874 142.783 15.7298 147.365 16.8446C148.62 17.1481 149.799 17.2941 150.849 17.2941C153.143 17.2941 154.795 16.5995 155.221 15.3796L152.985 21.7941C152.559 23.014 150.908 23.7086 148.614 23.7086C147.569 23.7086 146.39 23.5627 145.129 23.2591C140.547 22.1443 136.666 19.296 136.468 16.9088C136.444 16.6053 136.479 16.3252 136.567 16.0684L138.802 9.65386ZM138.802 8.77836C138.44 8.77836 138.102 9.00599 137.974 9.36786L135.738 15.7824C135.61 16.1617 135.557 16.5645 135.592 16.9847C135.82 19.763 139.917 22.8973 144.919 24.1171C146.215 24.4323 147.458 24.5957 148.608 24.5957C151.357 24.5957 153.254 23.6852 153.808 22.0918L156.026 15.724C156.067 15.6189 156.091 15.508 156.091 15.3913C156.091 14.9244 155.729 14.545 155.273 14.5158C155.256 14.5158 155.233 14.5158 155.215 14.5158C155.163 14.5158 155.11 14.5158 155.057 14.5333C154.929 14.5567 154.818 14.6034 154.713 14.6792C154.608 14.7551 154.515 14.8485 154.45 14.9652C154.421 15.0119 154.398 15.0645 154.38 15.1228C154.089 15.9224 152.699 16.4361 150.838 16.4361C149.828 16.4361 148.725 16.2902 147.563 16.01C143.028 14.9069 139.713 12.187 139.567 10.436C139.555 10.2609 139.567 10.1033 139.619 9.95736C139.777 9.5021 139.538 9.00015 139.082 8.84256C138.989 8.80754 138.89 8.79587 138.796 8.79587L138.802 8.77836Z" fill="#0000F4"/>
<path d="M151.194 19.6579C149.915 19.6579 148.538 19.477 147.09 19.1268C141.569 17.7843 137.051 14.4049 136.812 11.4399C136.777 11.0372 136.824 10.6519 136.952 10.2959L139.52 2.93001C139.584 2.74907 139.754 2.63817 139.935 2.63817C139.981 2.63817 140.034 2.64401 140.081 2.66152C140.308 2.74323 140.431 2.98838 140.349 3.21601C140.267 3.45531 140.232 3.7238 140.256 4.00396C140.466 6.53124 144.867 9.69471 149.869 10.9146C151.246 11.2473 152.554 11.4224 153.762 11.4224C156.231 11.4224 157.952 10.7103 158.373 9.51378C158.437 9.33284 158.606 9.22194 158.787 9.22194C158.834 9.22194 158.886 9.22778 158.933 9.24529C159.161 9.32701 159.283 9.57215 159.202 9.80561L156.633 17.1715C156.079 18.7591 154.1 19.6696 151.199 19.6696L151.194 19.6579Z" fill="#8359E8"/>
<path d="M139.929 3.07592C139.824 3.37359 139.783 3.69461 139.812 4.03898C140.04 6.78805 144.493 10.0566 149.758 11.3348C151.199 11.685 152.553 11.8543 153.756 11.8543C156.388 11.8543 158.291 11.0547 158.775 9.65386L156.207 17.0197C155.717 18.4205 153.82 19.2202 151.188 19.2202C149.985 19.2202 148.631 19.0567 147.19 18.7007C141.925 17.4166 137.466 14.1481 137.244 11.4049C137.215 11.0547 137.256 10.7336 137.361 10.4418L139.929 3.07592ZM139.929 2.20042C139.567 2.20042 139.228 2.42805 139.1 2.78993L136.532 10.1558C136.386 10.5702 136.333 11.0196 136.368 11.4807C136.625 14.6209 141.289 18.1696 146.979 19.5587C148.456 19.9206 149.874 20.1015 151.182 20.1015C154.281 20.1015 156.412 19.0859 157.03 17.3116L159.581 9.99239C159.622 9.88733 159.645 9.77643 159.645 9.6597C159.645 9.17525 159.254 8.78419 158.77 8.78419C158.378 8.78419 158.052 9.03517 157.935 9.38537C157.579 10.3718 155.974 10.9846 153.744 10.9846C152.571 10.9846 151.299 10.8212 149.956 10.4943C144.616 9.19276 140.845 6.07598 140.676 3.97477C140.658 3.75882 140.676 3.55453 140.746 3.36776C140.903 2.9125 140.664 2.41054 140.209 2.25295C140.116 2.21793 140.016 2.20626 139.923 2.20626L139.929 2.20042Z" fill="#0000F4"/>
<path d="M153.756 12.2979C152.478 12.2979 151.1 12.1169 149.659 11.7667C144.137 10.4243 139.619 7.04486 139.38 4.07983C139.316 3.28605 139.561 2.5623 140.098 1.97863C141.014 0.986396 142.736 0.437749 144.954 0.437749C146.232 0.437749 147.61 0.618686 149.051 0.968887C154.573 2.31716 159.091 5.69076 159.336 8.65579C159.4 9.44957 159.155 10.1733 158.618 10.757C157.701 11.7492 155.98 12.2979 153.762 12.2979H153.756Z" fill="#D5C5FA"/>
<path d="M144.948 0.8755C146.151 0.8755 147.499 1.03893 148.941 1.39496C154.211 2.67903 158.665 5.94757 158.892 8.69664C159.056 10.6928 156.943 11.866 153.756 11.866C152.553 11.866 151.199 11.7025 149.758 11.3465C144.493 10.0624 140.034 6.79389 139.812 4.05065C139.649 2.05451 141.761 0.881335 144.948 0.881335M144.948 -1.42868e-06C142.608 -1.42868e-06 140.769 0.595338 139.771 1.68096C139.152 2.35218 138.867 3.19266 138.942 4.11485C139.199 7.25498 143.863 10.8037 149.553 12.1928C151.03 12.5547 152.448 12.7356 153.756 12.7356C156.096 12.7356 157.935 12.1403 158.933 11.0547C159.552 10.3834 159.838 9.54296 159.762 8.62076C159.505 5.48063 154.841 1.93194 149.145 0.542807C147.668 0.180933 146.256 -1.42868e-06 144.948 -1.42868e-06Z" fill="#0000F4"/>
<path d="M121.38 88.017C118.998 88.5365 118.24 90.3692 118.315 91.7875C118.38 92.9782 118.333 94.1689 117.545 94.7818C116.313 95.739 115.339 97.6943 116.635 100.046C117.79 102.136 121.607 104.809 123.382 104.348C124.129 104.155 124.724 103.677 125.069 102.994C125.5 102.142 125.495 101.068 125.057 99.9822C124.59 98.8207 123.784 97.3908 123.347 96.6437C123.288 96.5386 123.312 96.4102 123.411 96.3401L123.942 95.9491C124.561 95.4938 124.736 94.6417 124.345 93.9763L123.557 92.6339L123.925 92.3712C124.082 92.2603 124.047 92.021 123.866 91.9568L122.214 91.3731C122.068 91.3206 121.911 91.4257 121.899 91.5833L121.812 93.3985C121.8 93.5969 122.022 93.7136 122.185 93.6027L122.518 93.3693L123.253 94.6183C123.318 94.7234 123.288 94.8576 123.189 94.9277L122.658 95.3187C122.039 95.774 121.864 96.6203 122.249 97.2857C122.67 98.0036 123.44 99.3694 123.878 100.455C124.175 101.19 124.199 101.908 123.936 102.422C123.761 102.772 123.458 103.017 123.067 103.117C122.168 103.35 118.8 101.331 117.749 99.4277C116.839 97.7818 117.452 96.4627 118.327 95.7798C119.576 94.8051 119.664 93.1767 119.588 91.7175C119.565 91.2506 119.635 89.6922 121.654 89.2544C123.679 88.8167 126.668 89.0326 127.724 90.0424C128.098 90.3984 128.051 90.8595 127.946 91.1805C127.742 91.8401 127.088 92.5521 126.177 92.8557C125.897 92.949 125.728 93.2409 125.775 93.5385C125.833 93.9238 126.224 94.1747 126.598 94.0522C127.765 93.6553 128.746 92.7448 129.125 91.6591C129.137 91.6299 129.148 91.6008 129.154 91.5716C129.452 90.6436 129.248 89.7564 128.6 89.1319C127.047 87.6377 123.376 87.5851 121.386 88.017H121.38Z" fill="#0000F4"/>
<path d="M109.25 96.2944C109.068 96.8087 108.778 97.2168 108.379 97.5186C107.977 97.8196 107.498 97.9969 106.943 98.0507C106.385 98.1035 105.779 98.0144 105.126 97.7833C104.477 97.5542 103.954 97.2442 103.556 96.8533C103.158 96.4624 102.899 96.0229 102.779 95.5346C102.66 95.0464 102.692 94.5424 102.875 94.0228C103.017 93.621 103.197 93.3273 103.413 93.1416C103.627 92.9523 103.841 92.8259 104.053 92.7623C104.264 92.6952 104.435 92.6457 104.567 92.6139L104.595 92.5336L101.558 91.4598L101.893 90.5116L110.121 93.4205L109.797 94.3365L108.849 94.0013L108.809 94.1138C108.897 94.2232 109.004 94.3725 109.13 94.5617C109.253 94.7499 109.34 94.9869 109.389 95.2726C109.436 95.5574 109.39 95.898 109.25 96.2944ZM108.443 95.8647C108.578 95.4844 108.592 95.1279 108.487 94.7954C108.379 94.4619 108.172 94.1643 107.867 93.9027C107.559 93.6402 107.172 93.4265 106.706 93.2618C106.245 93.0989 105.819 93.0234 105.426 93.0351C105.03 93.046 104.69 93.1485 104.404 93.3428C104.116 93.5362 103.903 93.8257 103.767 94.2114C103.625 94.6132 103.61 94.9845 103.721 95.3252C103.831 95.6623 104.038 95.9599 104.341 96.2179C104.643 96.4722 105.011 96.6761 105.445 96.8295C105.884 96.9848 106.307 97.0589 106.713 97.0519C107.118 97.0412 107.472 96.9407 107.778 96.7503C108.081 96.5563 108.303 96.2611 108.443 95.8647ZM110.782 91.5523L104.61 89.3706L104.934 88.4546L105.866 88.7841L105.889 88.7198C105.624 88.4994 105.448 88.2082 105.362 87.8464C105.276 87.4845 105.298 87.1188 105.429 86.7491C105.453 86.6795 105.485 86.5929 105.525 86.4894C105.565 86.3859 105.597 86.3083 105.621 86.2566L106.585 86.5975C106.566 86.6268 106.528 86.6962 106.471 86.8057C106.412 86.9116 106.361 87.0274 106.316 87.1533C106.21 87.4533 106.179 87.7434 106.221 88.0236C106.262 88.3002 106.368 88.5456 106.539 88.7599C106.709 88.9705 106.933 89.125 107.212 89.2235L111.117 90.6041L110.782 91.5523ZM112.27 87.3428L106.099 85.1611L106.434 84.2129L112.605 86.3946L112.27 87.3428ZM105.241 84.3153C105.175 84.5002 105.056 84.6373 104.883 84.7267C104.71 84.8134 104.536 84.8256 104.359 84.7631C104.182 84.7006 104.054 84.5814 103.975 84.4057C103.896 84.2273 103.89 84.0456 103.955 83.8608C104.02 83.676 104.139 83.5402 104.311 83.4535C104.485 83.3641 104.66 83.3506 104.836 83.4131C105.013 83.4756 105.141 83.5961 105.219 83.7745C105.299 83.9502 105.306 84.1305 105.241 84.3153ZM119.062 101.318L122.775 102.631L122.44 103.579L116.268 101.397L116.592 100.481L117.557 100.822L117.585 100.742C117.323 100.486 117.149 100.178 117.063 99.8158C116.974 99.453 117.012 99.0386 117.177 98.5725C117.324 98.1547 117.539 97.8194 117.822 97.5666C118.101 97.3129 118.444 97.16 118.851 97.1081C119.256 97.0552 119.721 97.1215 120.246 97.3071L124.167 98.6934L123.832 99.6416L119.975 98.278C119.49 98.1066 119.068 98.099 118.708 98.2552C118.346 98.4103 118.087 98.7076 117.932 99.1468C117.825 99.4495 117.795 99.7432 117.842 100.028C117.89 100.31 118.015 100.564 118.219 100.79C118.422 101.015 118.704 101.191 119.062 101.318ZM122.842 95.2815L121.663 94.8828L121.731 94.69L119.938 91.0186L120.352 89.8454L122.244 93.7504L122.216 93.8308L122.842 95.2815ZM124.779 96.9608L116.551 94.0519L116.886 93.1037L125.115 96.0126L124.779 96.9608ZM126.166 93.0395L122.26 94.3707L121.84 93.4628L126.592 91.8342L126.166 93.0395Z" fill="#0000F4"/>
<path d="M115.952 108.012C115.79 108.47 115.591 108.843 115.357 109.131C115.126 109.42 114.876 109.64 114.608 109.793C114.344 109.943 114.082 110.045 113.822 110.098L113.559 109.155C113.702 109.109 113.869 109.046 114.06 108.966C114.253 108.887 114.444 108.752 114.632 108.563C114.823 108.371 114.984 108.089 115.116 107.717C115.292 107.219 115.317 106.765 115.19 106.356C115.064 105.946 114.743 105.651 114.229 105.469L112.976 105.026L112.947 105.106C113.035 105.216 113.139 105.364 113.26 105.551C113.379 105.735 113.46 105.969 113.505 106.252C113.547 106.533 113.498 106.874 113.356 107.275C113.179 107.774 112.903 108.179 112.528 108.492C112.153 108.803 111.7 108.994 111.168 109.065C110.638 109.133 110.051 109.054 109.408 108.827C108.776 108.603 108.265 108.298 107.875 107.91C107.482 107.521 107.227 107.082 107.11 106.595C106.99 106.107 107.022 105.603 107.206 105.083C107.348 104.682 107.528 104.386 107.745 104.198C107.961 104.006 108.175 103.877 108.388 103.811C108.6 103.741 108.771 103.69 108.903 103.658L108.937 103.562L107.957 103.215L108.281 102.299L114.629 104.544C115.159 104.731 115.548 105.004 115.795 105.362C116.045 105.719 116.177 106.127 116.189 106.587C116.205 107.044 116.126 107.52 115.952 108.012ZM112.549 106.846C112.684 106.465 112.71 106.113 112.629 105.789C112.548 105.465 112.368 105.177 112.089 104.925C111.811 104.673 111.444 104.466 110.989 104.305C110.544 104.148 110.128 104.076 109.74 104.09C109.353 104.104 109.016 104.208 108.731 104.402C108.445 104.596 108.234 104.886 108.098 105.272C107.956 105.674 107.939 106.044 108.048 106.384C108.158 106.721 108.36 107.018 108.656 107.273C108.952 107.525 109.309 107.725 109.727 107.873C110.156 108.024 110.559 108.091 110.935 108.074C111.31 108.053 111.639 107.943 111.92 107.744C112.199 107.542 112.409 107.242 112.549 106.846ZM115.852 100.981C115.714 101.372 115.515 101.7 115.255 101.967C114.992 102.233 114.687 102.41 114.339 102.498C113.989 102.585 113.613 102.557 113.212 102.415C112.858 102.29 112.596 102.119 112.426 101.902C112.253 101.685 112.144 101.437 112.101 101.159C112.057 100.882 112.054 100.592 112.092 100.289C112.128 99.9819 112.178 99.6787 112.242 99.3788C112.326 98.9868 112.398 98.67 112.456 98.4285C112.513 98.1833 112.529 97.9962 112.505 97.8673C112.482 97.7357 112.395 97.6429 112.242 97.589L112.21 97.5776C111.814 97.4375 111.467 97.437 111.171 97.5764C110.875 97.713 110.651 97.9996 110.496 98.4362C110.336 98.8888 110.31 99.2788 110.417 99.606C110.524 99.9332 110.672 100.189 110.86 100.373L110.221 101.159C109.902 100.866 109.686 100.548 109.572 100.207C109.456 99.8613 109.413 99.5146 109.443 99.1665C109.47 98.8148 109.539 98.4836 109.649 98.1729C109.719 97.9747 109.824 97.7555 109.963 97.5154C110.1 97.2717 110.284 97.0549 110.514 96.865C110.745 96.6724 111.034 96.5473 111.383 96.4898C111.732 96.4323 112.151 96.4902 112.642 96.6635L116.707 98.1009L116.372 99.0491L115.537 98.7537L115.52 98.8019C115.631 98.9135 115.736 99.0713 115.836 99.2753C115.935 99.4792 115.995 99.7247 116.014 100.012C116.033 100.299 115.979 100.622 115.852 100.981ZM115.052 100.535C115.184 100.16 115.222 99.8177 115.166 99.5085C115.11 99.1966 114.989 98.9338 114.803 98.7202C114.617 98.5039 114.396 98.3503 114.138 98.2594L113.271 97.9526C113.305 98.0098 113.318 98.1138 113.309 98.2646C113.3 98.4118 113.278 98.579 113.245 98.7662C113.21 98.9498 113.174 99.1284 113.137 99.302C113.098 99.472 113.067 99.6103 113.045 99.7168C112.99 99.9746 112.96 100.223 112.957 100.463C112.952 100.699 112.997 100.908 113.093 101.09C113.186 101.268 113.354 101.399 113.595 101.484C113.924 101.601 114.217 101.567 114.472 101.383C114.725 101.195 114.918 100.912 115.052 100.535ZM117.319 96.3703L111.148 94.1886L111.472 93.2726L112.436 93.6135L112.465 93.5331C112.181 93.2881 111.998 92.9901 111.917 92.6391C111.834 92.2872 111.863 91.9103 112.005 91.5086C112.149 91.1014 112.361 90.7953 112.642 90.5901C112.921 90.3813 113.252 90.2588 113.635 90.2226L113.658 90.1583C113.395 89.8876 113.226 89.561 113.15 89.1787C113.071 88.7954 113.11 88.3828 113.267 87.9409C113.462 87.3891 113.794 86.9988 114.263 86.7701C114.73 86.5404 115.327 86.5539 116.053 86.8105L120.183 88.2707L119.848 89.2188L115.717 87.7587C115.262 87.5977 114.893 87.6072 114.609 87.7872C114.325 87.9672 114.124 88.2259 114.005 88.5634C113.851 88.9973 113.864 89.3798 114.042 89.711C114.217 90.0413 114.505 90.2769 114.904 90.418L118.921 91.8384L118.581 92.8026L114.354 91.3084C114.003 91.1843 113.68 91.1983 113.386 91.3502C113.088 91.5012 112.876 91.7561 112.749 92.115C112.662 92.3614 112.646 92.615 112.702 92.8757C112.758 93.1337 112.88 93.3695 113.066 93.5831C113.251 93.7931 113.495 93.9516 113.798 94.0586L117.654 95.4221L117.319 96.3703ZM121.839 83.9951C121.629 84.5897 121.316 85.0563 120.901 85.3947C120.485 85.7295 119.998 85.9296 119.441 85.995C118.883 86.0568 118.288 85.976 117.656 85.7525C117.024 85.529 116.507 85.2169 116.107 84.8161C115.704 84.4117 115.441 83.9541 115.318 83.4433C115.192 82.9289 115.228 82.3931 115.425 81.836C115.538 81.5146 115.704 81.2161 115.922 80.9406C116.14 80.6651 116.415 80.4414 116.747 80.2695C117.076 80.0966 117.465 80.0035 117.912 79.99C118.36 79.9765 118.872 80.0716 119.448 80.2752L119.85 80.4172L118.168 85.1741L117.348 84.8844L118.689 81.0917C118.341 80.9686 118.006 80.9284 117.683 80.9711C117.362 81.0111 117.077 81.1304 116.829 81.329C116.582 81.5249 116.398 81.7943 116.277 82.1371C116.143 82.5148 116.121 82.8747 116.211 83.2168C116.299 83.5554 116.466 83.8509 116.711 84.1033C116.957 84.3557 117.249 84.542 117.589 84.6623L118.136 84.8555C118.602 85.0202 119.025 85.0796 119.406 85.0334C119.785 84.9837 120.111 84.844 120.382 84.6144C120.65 84.3838 120.852 84.077 120.987 83.694C121.075 83.4449 121.12 83.2076 121.121 82.9821C121.121 82.753 121.076 82.5396 120.986 82.3421C120.893 82.1437 120.754 81.9664 120.568 81.8103L121.149 80.9852C121.426 81.1914 121.642 81.4501 121.797 81.7611C121.95 82.0711 122.032 82.4168 122.045 82.798C122.055 83.1782 121.987 83.5773 121.839 83.9951ZM123.527 108.575L123.467 109.512C123.306 109.515 123.14 109.546 122.969 109.603C122.796 109.656 122.635 109.756 122.484 109.901C122.333 110.047 122.209 110.258 122.111 110.533C121.978 110.911 121.953 111.257 122.039 111.57C122.122 111.88 122.296 112.081 122.561 112.175C122.797 112.258 123.013 112.239 123.211 112.115C123.408 111.992 123.616 111.765 123.836 111.433L124.385 110.596C124.714 110.092 125.064 109.753 125.436 109.58C125.805 109.406 126.205 109.395 126.636 109.548C126.99 109.673 127.27 109.886 127.476 110.188C127.684 110.488 127.804 110.847 127.837 111.265C127.87 111.683 127.801 112.132 127.632 112.612C127.409 113.241 127.089 113.714 126.67 114.03C126.251 114.346 125.759 114.466 125.195 114.39L125.288 113.41C125.651 113.442 125.957 113.368 126.208 113.188C126.459 113.006 126.653 112.721 126.791 112.332C126.947 111.89 126.977 111.506 126.881 111.18C126.784 110.851 126.603 110.639 126.338 110.545C126.123 110.469 125.917 110.481 125.72 110.58C125.519 110.678 125.328 110.869 125.146 111.154L124.541 112.098C124.208 112.615 123.853 112.957 123.478 113.123C123.102 113.285 122.7 113.291 122.274 113.14C121.926 113.017 121.653 112.811 121.454 112.52C121.256 112.227 121.141 111.884 121.109 111.49C121.077 111.093 121.138 110.678 121.292 110.244C121.507 109.633 121.811 109.201 122.202 108.947C122.594 108.691 123.035 108.567 123.527 108.575ZM128.86 108.728L122.689 106.547L123.024 105.599L129.195 107.78L128.86 108.728ZM121.831 105.701C121.766 105.886 121.646 106.023 121.473 106.112C121.301 106.199 121.126 106.211 120.949 106.149C120.773 106.086 120.645 105.967 120.565 105.791C120.486 105.613 120.48 105.431 120.545 105.246C120.611 105.062 120.729 104.926 120.902 104.839C121.075 104.75 121.25 104.736 121.427 104.799C121.603 104.861 121.731 104.982 121.81 105.16C121.889 105.336 121.896 105.516 121.831 105.701ZM133.133 104.416C132.971 104.874 132.773 105.247 132.538 105.535C132.307 105.824 132.057 106.044 131.789 106.197C131.525 106.347 131.263 106.449 131.003 106.502L130.74 105.559C130.883 105.513 131.05 105.45 131.241 105.37C131.434 105.291 131.625 105.156 131.813 104.967C132.004 104.775 132.165 104.493 132.297 104.121C132.473 103.623 132.498 103.169 132.371 102.76C132.245 102.35 131.925 102.055 131.41 101.873L130.157 101.43L130.128 101.51C130.216 101.619 130.321 101.768 130.441 101.955C130.56 102.139 130.642 102.372 130.686 102.656C130.728 102.936 130.679 103.277 130.537 103.679C130.361 104.177 130.085 104.583 129.709 104.896C129.334 105.207 128.881 105.397 128.349 105.469C127.819 105.537 127.232 105.458 126.589 105.231C125.957 105.007 125.446 104.701 125.056 104.313C124.663 103.924 124.408 103.486 124.291 102.999C124.172 102.511 124.204 102.007 124.387 101.487C124.529 101.085 124.709 100.79 124.926 100.602C125.142 100.41 125.356 100.281 125.569 100.215C125.781 100.145 125.953 100.094 126.084 100.062L126.118 99.9658L125.138 99.6192L125.462 98.7032L131.81 100.947C132.34 101.135 132.729 101.408 132.976 101.766C133.226 102.123 133.358 102.531 133.37 102.991C133.386 103.448 133.307 103.923 133.133 104.416ZM129.73 103.25C129.865 102.869 129.891 102.517 129.81 102.193C129.729 101.869 129.549 101.581 129.27 101.329C128.992 101.077 128.625 100.87 128.17 100.709C127.725 100.552 127.309 100.48 126.922 100.494C126.534 100.507 126.197 100.611 125.912 100.806C125.626 101 125.415 101.29 125.279 101.676C125.137 102.078 125.12 102.448 125.229 102.788C125.339 103.125 125.542 103.421 125.837 103.677C126.133 103.929 126.491 104.129 126.908 104.277C127.337 104.428 127.74 104.495 128.116 104.478C128.492 104.457 128.82 104.347 129.101 104.148C129.38 103.945 129.59 103.646 129.73 103.25ZM128.87 96.8887L132.582 98.2011L132.247 99.1492L124.018 96.2403L124.354 95.2922L127.375 96.3603L127.403 96.2799C127.136 96.0226 126.959 95.7162 126.874 95.3606C126.787 95.0014 126.829 94.5794 127.001 94.0946C127.149 93.6741 127.364 93.3357 127.644 93.0793C127.922 92.8219 128.265 92.6673 128.672 92.6153C129.077 92.5597 129.545 92.6257 130.075 92.8132L133.997 94.1995L133.661 95.1476L129.804 93.7841C129.314 93.6108 128.89 93.604 128.532 93.7638C128.173 93.9199 127.914 94.2217 127.756 94.669C127.646 94.9797 127.613 95.2814 127.657 95.5742C127.702 95.8644 127.826 96.1249 128.027 96.3559C128.23 96.5842 128.511 96.7618 128.87 96.8887ZM129.387 87.5993L130.191 87.8834L129.06 91.0815L128.257 90.7974L129.387 87.5993ZM127.108 89.3426L127.443 88.3944L133.325 90.4739C133.593 90.5685 133.807 90.6007 133.969 90.5704C134.128 90.5364 134.253 90.4659 134.342 90.3588C134.429 90.2481 134.498 90.1231 134.547 89.9838C134.584 89.8793 134.609 89.7917 134.622 89.721C134.632 89.6493 134.64 89.5919 134.646 89.5489L135.566 89.6572C135.568 89.73 135.56 89.8282 135.543 89.9519C135.529 90.0766 135.491 90.2273 135.429 90.404C135.334 90.6719 135.184 90.914 134.978 91.1304C134.772 91.3442 134.522 91.4937 134.227 91.5792C133.932 91.6619 133.606 91.6398 133.247 91.5129L127.108 89.3426Z" fill="#0000F4"/>
<path d="M111.568 184.999C110.22 184.999 109.006 184.783 107.955 184.357C107.068 184.001 106.304 183.493 105.679 182.851L78.7429 155.045L79.3733 154.438C79.9103 154.993 80.5698 155.431 81.3461 155.74C82.2916 156.119 83.3947 156.318 84.6321 156.318C91.7762 156.318 102.072 150.084 109.666 141.154C117.388 132.072 120.207 122.605 116.36 118.636L116.991 118.029L143.927 145.835C148.158 150.201 145.421 159.948 137.267 169.532C129.516 178.643 118.952 185.005 111.568 185.005V184.999Z" fill="#65A0F5"/>
<path d="M116.67 118.333L143.606 146.139C147.551 150.213 144.977 159.785 136.929 169.246C129.113 178.427 118.648 184.561 111.562 184.561C110.296 184.561 109.134 184.363 108.113 183.954C107.267 183.61 106.56 183.137 105.988 182.548L79.0521 154.742C79.6241 155.331 80.3304 155.804 81.1767 156.149C82.1923 156.557 83.3538 156.756 84.6262 156.756C91.7119 156.756 102.177 150.621 109.992 141.44C118.041 131.979 120.615 122.407 116.67 118.333ZM117.3 117.726L116.67 118.333L116.039 118.94C119.722 122.745 116.897 131.967 109.327 140.868C101.809 149.705 91.6535 155.88 84.6262 155.88C83.4472 155.88 82.4024 155.699 81.5094 155.337C80.7915 155.045 80.1786 154.643 79.6825 154.135C79.5132 153.96 79.2798 153.866 79.0521 153.866C78.8303 153.866 78.6144 153.948 78.4451 154.112C78.1008 154.45 78.0891 155.005 78.4276 155.349L105.364 183.155C106.029 183.838 106.841 184.381 107.792 184.76C108.895 185.204 110.167 185.431 111.568 185.431C119.068 185.431 129.773 179.005 137.6 169.806C145.905 160.047 148.631 150.061 144.236 145.526L117.3 117.72V117.726Z" fill="#0000F4"/>
<path d="M143.612 146.133L116.675 118.327C120.621 122.401 118.047 131.973 109.998 141.434C109.537 141.977 109.064 142.502 108.586 143.028L129.236 164.337C131.617 166.795 131.623 171.26 129.481 176.495C132.096 174.394 134.635 171.948 136.94 169.234C144.989 159.773 147.563 150.201 143.617 146.127L143.612 146.133Z" fill="#3072C1"/>
<path d="M84.632 157.193C83.2837 157.193 82.0697 156.977 81.0191 156.551C78.9763 155.728 77.6105 154.123 77.0677 151.917C75.8011 146.763 78.9938 138.884 85.3966 131.349C93.1477 122.237 103.712 115.875 111.096 115.875C112.444 115.875 113.658 116.091 114.708 116.518C116.751 117.34 118.111 118.946 118.654 121.152C119.921 126.306 116.728 134.185 110.325 141.72C102.574 150.831 92.0096 157.193 84.6262 157.193H84.632Z" fill="#1E49F1"/>
<path d="M111.101 116.319C112.374 116.319 113.529 116.518 114.551 116.926C121.251 119.634 119.208 130.607 109.998 141.44C102.183 150.621 91.7177 156.756 84.632 156.756C83.3654 156.756 82.2039 156.557 81.1825 156.149C74.482 153.44 76.519 142.467 85.7351 131.634C93.5446 122.453 104.016 116.319 111.101 116.319ZM111.101 115.444C103.601 115.444 92.8909 121.87 85.0697 131.068C78.5735 138.703 75.3458 146.734 76.6474 152.022C77.2253 154.374 78.6786 156.078 80.8557 156.96C81.9588 157.403 83.2312 157.631 84.632 157.631C92.1321 157.631 102.837 151.205 110.664 142.006C117.16 134.372 120.387 126.341 119.086 121.053C118.508 118.7 117.055 116.996 114.878 116.115C113.775 115.671 112.502 115.444 111.101 115.444Z" fill="#0000F4"/>
<path d="M85.1983 154.543C83.9726 154.543 82.8636 154.345 81.9006 153.96C81.0893 153.633 80.3889 153.166 79.8169 152.582L40.3084 111.801C40.1392 111.626 40.145 111.352 40.3201 111.183C40.4077 111.101 40.5127 111.06 40.6236 111.06C40.7345 111.06 40.8513 111.107 40.9388 111.194C41.4232 111.691 42.0186 112.087 42.719 112.373C43.5711 112.718 44.5751 112.893 45.6899 112.893C52.1686 112.893 61.5131 107.231 68.4062 99.1301C75.416 90.8945 77.9725 82.3088 74.4938 78.7192L75.1242 78.1122L114.633 118.893C118.497 122.879 116.004 131.757 108.586 140.483C101.535 148.771 91.9222 154.555 85.2041 154.555L85.1983 154.543Z" fill="#65A0F5"/>
<path d="M74.8031 78.4099L114.312 119.191C117.895 122.891 115.561 131.594 108.241 140.191C101.144 148.538 91.6302 154.112 85.1924 154.112C84.0367 154.112 82.9861 153.931 82.0581 153.557C81.2876 153.248 80.6456 152.816 80.1261 152.279L40.6177 111.498C41.1372 112.035 41.7792 112.467 42.5496 112.776C43.4718 113.15 44.5283 113.331 45.6839 113.331C52.1218 113.331 61.6356 107.757 68.733 99.4102C76.0521 90.807 78.3868 82.1103 74.8031 78.4099ZM74.8031 77.5344C74.5813 77.5344 74.3653 77.6161 74.1961 77.7795C73.8517 78.118 73.84 78.6725 74.1786 79.0169C77.4471 82.3846 74.8206 90.912 68.0734 98.8441C61.2562 106.858 52.0517 112.455 45.6898 112.455C44.6333 112.455 43.6878 112.292 42.8823 111.965C42.2403 111.708 41.6916 111.346 41.2539 110.891L40.6235 111.498L39.9932 112.105L79.5016 152.886C80.1145 153.516 80.8616 154.012 81.7312 154.368C82.741 154.777 83.9083 154.987 85.1924 154.987C92.033 154.987 101.786 149.139 108.913 140.763C116.489 131.856 118.969 122.739 114.942 118.584L75.4335 77.8028C75.2642 77.6277 75.0307 77.5344 74.8031 77.5344Z" fill="#0000F4"/>
<path d="M73.2681 93.0307L108.154 129.037C110.302 131.255 110.325 135.259 108.422 139.969C115.596 131.442 117.866 122.856 114.312 119.185L74.8031 78.404C77.4938 81.1823 76.8518 86.7738 73.2681 93.0249V93.0307Z" fill="#3072C1"/>
<mask id="mask0_159_183" style="mask-type:luminance" maskUnits="userSpaceOnUse" x="40" y="78" width="76" height="77">
<path d="M74.8031 78.4099L114.312 119.191C117.895 122.891 115.561 131.594 108.241 140.191C99.8716 150.032 88.1457 156.014 82.0581 153.557C81.2876 153.248 80.6456 152.816 80.1261 152.279L40.6177 111.498C41.1371 112.035 41.7792 112.467 42.5496 112.776C48.6373 115.233 60.3631 109.251 68.7329 99.4102C76.0521 90.807 78.3868 82.1103 74.8031 78.4099Z" fill="white"/>
</mask>
<g mask="url(#mask0_159_183)">
<path d="M77.1377 150.347L77.1261 154.444L75.8303 148.088L75.842 143.997L77.1377 150.347Z" fill="#FCFBD6"/>
<path d="M94.0174 145.666L94.0057 149.757L89.4531 155.571L89.4648 151.479L94.0174 145.666Z" fill="#F3C254"/>
<path d="M78.3692 154.759L78.3576 158.851L67.5364 157.584L67.5481 153.487L78.3692 154.759Z" fill="#F3C254"/>
<path d="M96.9591 156.184L85.992 155.454L80.5989 161.022L78.3751 154.759L67.5481 153.493L77.1436 150.353L75.8478 144.002L84.0017 148.327L94.0233 145.672L89.4706 151.485L96.9591 156.195V156.184Z" fill="#FCFBD6"/>
<path d="M77.1377 146.255L77.1261 150.347L75.8303 143.997L75.842 139.905L77.1377 146.255Z" fill="#FCFBD6"/>
<path d="M94.0174 141.569L94.0057 145.666L89.4531 151.479L89.4648 147.382L94.0174 141.569Z" fill="#F3C254"/>
<path d="M78.3692 150.662L78.3576 154.759L67.5364 153.487L67.5481 149.396L78.3692 150.662Z" fill="#F3C254"/>
<path d="M96.959 152.092L96.9473 156.184L85.9744 155.454L85.986 151.362L96.959 152.092Z" fill="#FCFBD6"/>
<path d="M80.5931 156.931L80.5814 161.022L78.3577 154.759L78.3693 150.662L80.5931 156.931Z" fill="#FCFBD6"/>
<path d="M96.9591 152.092L85.992 151.362L80.5989 156.931L78.3751 150.668L67.5481 149.401L77.1436 146.261L75.8478 139.911L84.0017 144.236L94.0233 141.58L89.4706 147.394L96.9591 152.104V152.092Z" fill="#FCFBD6"/>
<path d="M85.9861 151.362L85.9744 155.454L80.5813 161.022L80.593 156.931L85.9861 151.362Z" fill="#F3C254"/>
<path d="M77.1377 142.158L77.1261 146.255L75.8303 139.905L75.842 135.808L77.1377 142.158Z" fill="#FCFBD6"/>
<path d="M94.0174 137.477L94.0057 141.569L89.4531 147.382L89.4648 143.29L94.0174 137.477Z" fill="#F3C254"/>
<path d="M78.3692 146.571L78.3576 150.662L67.5364 149.396L67.5481 145.298L78.3692 146.571Z" fill="#F3C254"/>
<path d="M96.959 147.995L96.9473 152.092L85.9744 151.362L85.986 147.265L96.959 147.995Z" fill="#FCFBD6"/>
<path d="M80.5931 152.833L80.5814 156.931L78.3577 150.662L78.3693 146.571L80.5931 152.833Z" fill="#FCFBD6"/>
<path d="M96.9591 147.995L85.992 147.265L80.5989 152.833L78.3751 146.571L67.5481 145.304L77.1436 142.164L75.8478 135.814L84.0017 140.139L94.0233 137.483L89.4706 143.296L96.9591 148.006V147.995Z" fill="#FCFBD6"/>
<path d="M85.9861 147.265L85.9744 151.362L80.5813 156.931L80.593 152.833L85.9861 147.265Z" fill="#F3C254"/>
<path d="M77.1377 138.067L77.1261 142.158L75.8303 135.808L75.842 131.716L77.1377 138.067Z" fill="#FCFBD6"/>
<path d="M94.0174 133.38L94.0057 137.477L89.4531 143.29L89.4648 139.193L94.0174 133.38Z" fill="#F3C254"/>
<path d="M78.3692 142.473L78.3576 146.571L67.5364 145.298L67.5481 141.207L78.3692 142.473Z" fill="#F3C254"/>
<path d="M96.959 143.903L96.9473 147.995L85.9744 147.265L85.986 143.174L96.959 143.903Z" fill="#FCFBD6"/>
<path d="M80.5931 148.742L80.5814 152.833L78.3577 146.571L78.3693 142.473L80.5931 148.742Z" fill="#FCFBD6"/>
<path d="M96.9591 143.903L85.992 143.174L80.5989 148.742L78.3751 142.479L67.5481 141.212L77.1436 138.072L75.8478 131.722L84.0017 136.047L94.0233 133.391L89.4706 139.205L96.9591 143.915V143.903Z" fill="#FCFBD6"/>
<path d="M85.9861 143.174L85.9744 147.265L80.5813 152.833L80.593 148.742L85.9861 143.174Z" fill="#F3C254"/>
<path d="M79.5425 141.323L87.8481 136.403L83.599 137.53L78.6903 134.932L79.4724 138.749L73.7 140.641L79.5425 141.323Z" fill="#F3C254"/>
<path d="M87.352 138.837L80.6982 142.783L81.5504 145.176L84.7956 141.825L91.3969 142.263L86.8851 139.432L87.352 138.837Z" fill="#F3C254"/>
<path d="M81.9996 121.8H77.9431C77.9431 121.8 78.4859 124.975 81.9996 124.975C85.5133 124.975 86.0561 121.8 86.0561 121.8H81.9996Z" fill="#0000F5"/>
<path d="M72.9177 118.321L76.8575 118.537L75.4392 112.724C75.4392 112.724 73.9158 115.8 72.9177 118.321Z" fill="#EB7956"/>
<path d="M91.6592 119.611L87.7195 119.827L88.4607 113.097C88.4607 113.097 90.6612 117.09 91.6592 119.611Z" fill="#EB7956"/>
<path d="M81.9938 123.749C80.4938 123.749 79.0696 123.405 78.0015 122.786C76.875 122.132 76.2505 121.251 76.2447 120.3C76.2447 120.148 76.1571 119.78 76.0404 119.319C75.626 117.621 74.768 114.084 75.1415 108.79C75.3692 105.539 75.8594 103.035 76.2096 101.202L76.2797 100.846C76.3089 100.706 76.4256 100.607 76.5657 100.607C76.5774 100.607 76.5949 100.607 76.6065 100.607C76.6474 100.613 80.844 101.214 81.9763 101.214C83.1086 101.214 87.3402 100.613 87.381 100.607C87.3927 100.607 87.4102 100.607 87.4219 100.607C87.562 100.607 87.6787 100.706 87.7079 100.846L87.7779 101.196C88.134 103.029 88.6184 105.533 88.8519 108.784C89.2254 114.072 88.3674 117.609 87.953 119.313C87.8421 119.774 87.7546 120.142 87.7488 120.294C87.7488 121.245 87.1184 122.132 85.9919 122.78C84.918 123.399 83.4997 123.743 81.9938 123.743V123.749Z" fill="white"/>
<path d="M87.4277 100.904C87.7721 102.69 88.3208 105.358 88.5601 108.813C89.0445 115.63 87.4628 119.488 87.4569 120.294C87.4569 121.105 86.9141 121.911 85.846 122.529C84.7779 123.142 83.3888 123.451 81.9938 123.457C80.6047 123.457 79.2097 123.148 78.1416 122.529C77.0735 121.911 76.5365 121.099 76.5307 120.294C76.5307 119.483 74.9431 115.63 75.4275 108.813C75.6727 105.358 76.2213 102.69 76.5599 100.904C76.5599 100.904 80.8031 101.517 81.9704 101.517H82.0055C83.1728 101.517 87.4161 100.904 87.4161 100.904M87.4277 100.321C87.4277 100.321 87.3694 100.321 87.346 100.327C87.3052 100.332 83.1319 100.934 82.0171 100.934H81.9821C80.8732 100.934 76.6941 100.332 76.6532 100.327C76.6241 100.327 76.5949 100.321 76.5715 100.321C76.2972 100.321 76.0521 100.513 75.9995 100.794L75.9295 101.15C75.591 102.883 75.0832 105.504 74.8555 108.772C74.4762 114.107 75.3458 117.673 75.7602 119.389C75.8536 119.78 75.9528 120.183 75.9528 120.3C75.9528 121.362 76.6357 122.331 77.8556 123.037C78.9704 123.679 80.4412 124.041 81.9938 124.041C83.5464 124.041 85.0172 123.679 86.1378 123.037C87.3577 122.331 88.0348 121.356 88.0406 120.3C88.0406 120.183 88.1398 119.78 88.2332 119.389C88.6476 117.673 89.5173 114.107 89.1379 108.772C88.9044 105.504 88.3966 102.883 88.0639 101.15L87.9939 100.794C87.9414 100.513 87.6962 100.321 87.4219 100.321H87.4277Z" fill="#0000F4"/>
<path d="M87.4276 100.904C87.4276 100.904 85.5248 101.179 83.9139 101.36C84.7544 103.916 85.5423 107.424 85.4548 111.492C85.3322 117.376 84.2291 121.397 83.5579 123.323C84.3983 123.177 85.1863 122.915 85.8517 122.529C86.9198 121.911 87.4568 121.099 87.4626 120.294C87.4626 119.483 89.0502 115.63 88.5657 108.813C88.3206 105.358 87.7719 102.69 87.4334 100.904H87.4276Z" fill="#AABDF9"/>
<path d="M81.9935 104.751C80.4935 104.751 79.0752 104.406 78.0012 103.788C76.8748 103.134 76.2502 102.253 76.2444 101.301C76.2444 100.397 76.9156 98.5055 77.3942 97.4549C78.8592 94.2564 80.546 90.9879 81.976 90.9879H82.011C83.4468 90.9879 85.1336 94.2564 86.5928 97.4549C87.0714 98.5055 87.7485 100.397 87.7426 101.301C87.7426 102.253 87.1123 103.14 85.9858 103.788C84.9118 104.406 83.4935 104.751 81.9877 104.751H81.9935Z" fill="#EF9C87"/>
<path d="M82.017 91.2739C83.4119 91.2739 85.3964 95.523 86.3361 97.5717C86.8497 98.6923 87.4626 100.484 87.4626 101.295C87.4626 102.107 86.9198 102.912 85.8517 103.531C84.7836 104.144 83.3944 104.453 81.9995 104.459C80.6103 104.459 79.2154 104.15 78.1473 103.531C77.0792 102.912 76.5422 102.101 76.5363 101.295C76.5363 100.484 77.1492 98.6923 77.6628 97.5717C78.6025 95.523 80.587 91.2739 81.982 91.2739C81.9878 91.2739 81.9936 91.2739 81.9995 91.2739C82.0053 91.2739 82.0111 91.2739 82.017 91.2739ZM82.017 90.6902C82.017 90.6902 82.0053 90.6902 81.9995 90.6902C81.9936 90.6902 81.9878 90.6902 81.982 90.6902C80.6921 90.6902 79.2854 92.6163 77.1317 97.3324C76.6706 98.3363 75.9468 100.297 75.9527 101.301C75.9527 102.364 76.6356 103.332 77.8554 104.039C78.9702 104.681 80.4411 105.043 81.9936 105.043C83.5462 105.043 85.017 104.681 86.1377 104.039C87.3575 103.332 88.0346 102.358 88.0404 101.301C88.0404 100.297 87.3225 98.3363 86.8614 97.3324C84.7077 92.6163 83.301 90.6902 82.0111 90.6902H82.017Z" fill="#0000F4"/>
<path d="M86.3364 97.5775C85.42 95.5755 83.5056 91.4723 82.1106 91.2856C82.9219 92.9198 84.2643 96.7195 84.3927 104.132C84.918 103.98 85.4083 103.788 85.8461 103.531C86.9142 102.912 87.4512 102.101 87.457 101.295C87.457 100.484 86.8441 98.6923 86.3305 97.5717L86.3364 97.5775Z" fill="#ED8A6E"/>
<path d="M81.4333 92.9724C80.8964 93.6553 80.0267 95.0736 78.6726 98.0386C78.1415 99.1943 77.6453 100.776 77.6512 101.295C77.6512 101.722 78.0364 102.188 78.7076 102.574C79.2913 102.912 80.0384 103.146 80.8497 103.262L81.4333 92.9724Z" fill="#F6CDC3"/>
<path d="M78.2466 112.607L79.5073 123.183L73.2387 130.391C73.2387 130.391 72.7134 122.243 78.2466 112.607Z" fill="#EF9C87"/>
<path d="M74.4878 127.257C74.768 124.706 75.5326 120.79 77.5696 116.337L78.34 122.821L74.4878 127.251V127.257Z" fill="#F6CDC3"/>
<path d="M86.768 112.134L85.5073 122.71L91.7759 129.919C91.7759 129.919 92.3012 121.771 86.768 112.134Z" fill="#EF9C87"/>
<path d="M90.5268 126.784C90.2466 124.234 89.482 120.317 87.445 115.864L86.6746 122.348L90.5268 126.778V126.784Z" fill="#F6CDC3"/>
<path d="M80.1728 105.819C81.5678 106.595 82.3966 108.498 82.0231 110.068C81.6495 111.638 80.2254 112.286 78.8304 111.515C77.4354 110.745 76.6125 108.842 76.9802 107.266C77.3479 105.69 78.7779 105.043 80.167 105.819H80.1728Z" fill="white"/>
<path d="M79.8752 106.817C80.7798 107.319 81.3168 108.55 81.0775 109.572C80.8382 110.593 79.9102 111.014 79.0113 110.512C78.1125 110.01 77.5697 108.778 77.809 107.757C78.0483 106.735 78.9763 106.315 79.8752 106.817Z" fill="#65A0F5"/>
<path d="M79.6182 110.021C78.7135 109.519 78.1766 108.288 78.4159 107.266C78.4684 107.039 78.556 106.846 78.6669 106.683C78.2583 106.834 77.9314 107.208 77.803 107.751C77.5637 108.772 78.1007 110.004 79.0054 110.506C79.7116 110.897 80.4237 110.728 80.8206 110.15C80.4587 110.284 80.0326 110.255 79.6124 110.021H79.6182Z" fill="#0000F5"/>
<g opacity="0.55">
<path d="M73.2681 93.0307L108.154 129.037C110.302 131.255 110.325 135.259 108.422 139.969C115.596 131.442 117.866 122.856 114.312 119.185L74.8031 78.404C77.4938 81.1823 76.8518 86.7738 73.2681 93.0249V93.0307Z" fill="#3072C1"/>
</g>
</g>
<path d="M44.2773 116.173C42.929 116.173 41.715 115.957 40.6644 115.531C39.7772 115.169 39.0068 114.667 38.3881 114.025L20.4228 95.4821C10.3837 85.4256 8.17748 70.4837 14.9363 58.2908C18.3158 52.1915 25.4657 48.5494 34.0515 48.5494C43.361 48.5494 52.9273 52.7752 60.2931 60.1469L76.63 77.0091C80.8616 81.3749 78.1242 91.1163 69.9762 100.7C62.2251 109.811 51.6607 116.173 44.2773 116.173Z" fill="#7EEFF9"/>
<path d="M34.0455 48.9872C42.497 48.9872 52.0984 52.5767 59.9779 60.4563L76.3147 77.3126C80.2603 81.3866 77.6922 90.9529 69.6434 100.414C61.8281 109.601 51.3629 115.73 44.2772 115.73C43.0048 115.73 41.8433 115.531 40.8277 115.123C39.9814 114.778 39.2752 114.305 38.7032 113.716L20.7437 95.1786C20.7437 95.1786 20.7496 95.1845 20.7554 95.1903C11.5276 85.9625 8.27661 71.1957 15.3215 58.501C18.7184 52.3725 25.8392 48.9872 34.0514 48.9872M34.0455 48.1117C25.2964 48.1117 18.0122 51.8355 14.551 58.0749C11.0957 64.3085 9.88753 71.3008 11.0665 78.2931C12.1697 84.836 15.3798 91.0463 20.1017 95.7798C20.1017 95.7798 20.1076 95.7856 20.1134 95.7915L38.0728 114.329C38.7382 115.012 39.5495 115.554 40.4951 115.934C41.5982 116.377 42.8706 116.605 44.2714 116.605C51.7715 116.605 62.476 110.179 70.303 100.98C78.6027 91.2214 81.3343 81.2348 76.9393 76.6997L60.6024 59.8434C53.1431 52.3841 43.4659 48.1117 34.0397 48.1117H34.0455Z" fill="#0000F4"/>
<path d="M51.8357 114.422C51.6898 114.422 51.5556 114.352 51.4738 114.23C51.3571 114.054 51.3805 113.821 51.5322 113.675C52.6645 112.554 53.7385 111.399 54.7307 110.231C62.4526 101.155 65.2659 91.6883 61.4254 87.7194L45.0885 70.863C37.8919 63.6664 28.5591 59.5399 19.483 59.5399C17.913 59.5399 16.3662 59.6683 14.8837 59.9193C14.8604 59.9193 14.837 59.9251 14.8137 59.9251C14.6736 59.9251 14.5452 59.8609 14.4635 59.7442C14.3643 59.6099 14.3526 59.4348 14.4285 59.2831C14.5977 58.9504 14.767 58.6235 14.9479 58.2967C18.3274 52.1974 25.4773 48.5611 34.063 48.5611C43.3725 48.5611 52.9389 52.7869 60.3047 60.1586L76.6416 77.0207C80.8732 81.3866 78.1358 91.128 69.9878 100.712C69.6726 101.085 69.3516 101.447 69.0247 101.809L68.7095 102.153C68.4877 102.399 68.2601 102.644 68.0325 102.883L67.6648 103.268C67.4488 103.49 67.2329 103.712 67.0169 103.934L66.6375 104.313C66.4099 104.535 66.1881 104.751 65.9605 104.967L65.6103 105.299C65.3535 105.539 65.0966 105.772 64.8398 106.006L64.5713 106.251C63.8476 106.893 63.1122 107.517 62.3768 108.101C61.9857 108.416 61.6297 108.691 61.2736 108.959L61.0985 109.087C60.7833 109.327 60.4682 109.554 60.1471 109.782L59.9545 109.916C59.6335 110.144 59.3125 110.366 58.9915 110.582L58.8397 110.681C58.4779 110.926 58.116 111.159 57.7483 111.387C55.7988 112.607 53.8727 113.617 52.0108 114.387C51.9583 114.41 51.8999 114.422 51.8416 114.422H51.8357Z" fill="#5EC6D2"/>
<path d="M34.0456 48.9872C42.4971 48.9872 52.0984 52.5767 59.9779 60.4563L76.3148 77.3126C80.2604 81.3866 77.6922 90.9529 69.6435 100.414C69.3283 100.782 69.0131 101.144 68.6921 101.5C68.587 101.616 68.482 101.727 68.3827 101.838C68.1609 102.083 67.9391 102.323 67.7115 102.562C67.5889 102.69 67.4664 102.819 67.3438 102.941C67.1278 103.163 66.9177 103.385 66.7018 103.601C66.5792 103.724 66.4508 103.852 66.3282 103.974C66.1064 104.196 65.8788 104.412 65.657 104.628C65.5403 104.739 65.4235 104.85 65.3068 104.961C65.05 105.2 64.799 105.434 64.5422 105.661C64.4546 105.743 64.3613 105.825 64.2737 105.906C63.5558 106.543 62.8321 107.155 62.0966 107.745C62.085 107.757 62.0733 107.762 62.0558 107.774C61.7056 108.054 61.3554 108.329 60.9993 108.591C60.941 108.632 60.8826 108.679 60.8242 108.72C60.5091 108.953 60.1997 109.187 59.8845 109.408C59.8203 109.455 59.7561 109.496 59.6978 109.543C59.3767 109.77 59.0616 109.992 58.7405 110.202C58.6939 110.237 58.6413 110.266 58.5946 110.301C58.2328 110.541 57.8767 110.774 57.5148 111.002C57.5148 111.002 57.509 111.002 57.5032 111.008C55.5887 112.21 53.6801 113.208 51.8416 113.973C52.9506 112.875 54.0304 111.72 55.0634 110.506C63.1122 101.044 65.6803 91.4782 61.7348 87.4042L45.3979 70.5479C37.5184 62.6684 27.9229 59.0905 19.4772 59.0905C17.8722 59.0905 16.3079 59.2189 14.8079 59.4757C14.9713 59.1488 15.1406 58.8278 15.3215 58.501C18.7185 52.3725 25.8392 48.9872 34.0514 48.9872M34.0456 48.1117C25.2964 48.1117 18.0122 51.8355 14.5511 58.0749C14.3643 58.4134 14.1892 58.7578 14.0258 59.073C13.874 59.3706 13.9032 59.7208 14.1017 59.9893C14.2709 60.217 14.5336 60.3454 14.8079 60.3454C14.8546 60.3454 14.9071 60.3454 14.9538 60.3337C16.413 60.0885 17.9305 59.966 19.4772 59.966C28.4365 59.966 37.6585 64.0516 44.7792 71.1665L61.1044 88.017C64.7873 91.8225 61.9682 101.039 54.3922 109.945C53.4117 111.095 52.3436 112.245 51.2229 113.36C50.9252 113.652 50.8785 114.119 51.112 114.469C51.2813 114.72 51.5556 114.86 51.8416 114.86C51.9525 114.86 52.0692 114.837 52.1743 114.796C54.0595 114.014 56.009 112.992 57.9643 111.766C58.3437 111.527 58.7114 111.288 59.0791 111.043L59.1783 110.973L59.225 110.938C59.5518 110.716 59.8729 110.494 60.1997 110.266L60.2347 110.237L60.3923 110.126C60.7133 109.899 61.0285 109.665 61.3495 109.426L61.4196 109.373L61.5246 109.298C61.8807 109.029 62.2425 108.749 62.5986 108.463L62.6394 108.434C63.3749 107.844 64.122 107.214 64.8515 106.566L65.0208 106.414L65.1259 106.321C65.3885 106.087 65.6453 105.848 65.9021 105.609C66.0014 105.515 66.1006 105.422 66.1998 105.329L66.2582 105.276C66.4858 105.06 66.7134 104.838 66.9411 104.617C67.0695 104.488 67.1979 104.366 67.3205 104.237C67.5423 104.015 67.7582 103.794 67.9742 103.572L68.0559 103.49C68.1551 103.391 68.2485 103.292 68.3477 103.187C68.5753 102.947 68.803 102.696 69.0306 102.451L69.1473 102.329C69.2174 102.253 69.2816 102.183 69.3516 102.107C69.6785 101.745 69.9995 101.377 70.3205 101.004C78.6203 91.2447 81.3518 81.2582 76.9568 76.7231L60.6199 59.8667C53.1607 52.4075 43.4835 48.135 34.0572 48.135L34.0456 48.1117Z" fill="#0000F4"/>
<path d="M24.2748 95.5989C22.9791 95.5989 21.8117 95.3946 20.8078 94.9919C18.8934 94.2156 17.6152 92.7156 17.1015 90.6435C15.8642 85.6123 19.086 77.797 25.5122 70.2444C33.1349 61.2851 43.816 54.7888 50.9134 54.7888C52.1741 54.7888 53.3064 54.9873 54.2928 55.3842C56.2306 56.1663 57.5264 57.7072 58.0517 59.8376C59.3007 64.9271 56.0555 72.9759 49.7811 80.3476C42.2634 89.1844 31.5356 95.5989 24.2748 95.5989Z" fill="white"/>
<path d="M50.9135 55.2266C52.0983 55.2266 53.1781 55.4075 54.1295 55.7928C60.6491 58.4251 58.4136 69.5323 49.4485 80.0675C41.8258 89.0326 31.2672 95.167 24.2749 95.167C23.055 95.167 21.9402 94.9802 20.9713 94.5891C14.4518 91.9568 16.8915 81.0597 25.845 70.5362C33.5027 61.536 43.962 55.2324 50.9135 55.2324M50.9135 54.3511C43.5826 54.3511 33.0007 60.7714 25.1796 69.9642C18.6659 77.6219 15.409 85.5831 16.6814 90.7486C17.2242 92.9607 18.5958 94.5658 20.6445 95.3946C21.7009 95.8207 22.9208 96.0366 24.2749 96.0366C31.6525 96.0366 42.5203 89.5579 50.1139 80.6336C56.5751 73.0401 59.7736 65.0322 58.472 59.7325C57.9117 57.462 56.5225 55.8161 54.4505 54.9815C53.4174 54.5612 52.2267 54.3511 50.9076 54.3511H50.9135Z" fill="#0000F4"/>
<path d="M24.2748 94.4315C23.125 94.4315 22.1094 94.2564 21.2456 93.9062C19.6697 93.27 18.66 92.0794 18.2397 90.3634C17.1074 85.7582 20.3117 78.1589 26.4052 71.0031C33.8236 62.2831 44.1312 55.9562 50.9134 55.9562C52.0224 55.9562 53.0088 56.1313 53.8551 56.4698C55.4544 57.1177 56.4816 58.3434 56.9194 60.1177C58.0809 64.8513 54.9349 72.4973 48.8939 79.5947C41.5806 88.1921 31.2263 94.4315 24.2748 94.4315Z" fill="#C0E5F5"/>
<path d="M50.9134 56.3939C51.964 56.3939 52.8978 56.5574 53.6916 56.8725C55.1508 57.462 56.0905 58.5885 56.4932 60.217C57.6255 64.8221 54.5088 72.3105 48.5612 79.3087C41.3237 87.8186 31.1095 93.9938 24.2748 93.9938C23.1833 93.9938 22.2203 93.8304 21.409 93.4977C19.9732 92.9198 19.051 91.8284 18.6599 90.2583C17.5626 85.7874 20.7319 78.3398 26.732 71.2833C34.0746 62.6567 44.242 56.3939 50.9075 56.3939M50.9134 55.5184C44.0086 55.5184 33.5609 61.9096 26.0725 70.7171C19.8914 77.9779 16.6521 85.7349 17.8194 90.4684C18.2689 92.3012 19.4012 93.6319 21.088 94.309C22.0043 94.6767 23.0783 94.8635 24.2806 94.8635C31.3488 94.8635 41.8432 88.5598 49.2324 79.869C55.3609 72.6666 58.5419 64.8688 57.3454 60.001C56.8784 58.1099 55.7286 56.7441 54.0185 56.0554C53.1255 55.6935 52.0807 55.5126 50.9134 55.5126V55.5184Z" fill="#0000F4"/>
<path d="M44.2773 116.173C42.929 116.173 41.715 115.957 40.6644 115.531C39.7772 115.169 39.0068 114.667 38.3881 114.025L20.4228 95.4821C19.8158 94.8751 19.2146 94.2156 18.6309 93.5269C18.4792 93.3459 18.4967 93.0774 18.6718 92.9198C18.7535 92.844 18.8586 92.8089 18.9636 92.8089C19.0804 92.8089 19.1971 92.8556 19.2788 92.9432C19.7808 93.4685 20.4053 93.8829 21.1349 94.1806C22.0337 94.5424 23.0902 94.7292 24.275 94.7292C31.3024 94.7292 41.75 88.4431 49.1159 79.7873C54.9292 72.9526 58.0752 65.6626 57.3339 60.7598C57.0538 58.9095 56.225 57.5379 54.8767 56.6799C54.7658 56.6099 54.6899 56.4873 54.6783 56.3589C54.6666 56.2305 54.7133 56.0963 54.8067 56.0029C54.8942 55.9153 55.0168 55.8686 55.1335 55.8686C55.2211 55.8686 55.3086 55.892 55.3845 55.9503C57.1238 57.2286 58.7756 58.6469 60.2873 60.1586L76.6242 77.0207C80.8557 81.3866 78.1183 91.128 69.9703 100.712C62.2192 109.823 51.6549 116.185 44.2715 116.185L44.2773 116.173Z" fill="#65A0F5"/>
<path d="M55.1218 56.2889C56.7911 57.5146 58.4195 58.8979 59.9779 60.4563L76.3148 77.3126C80.2604 81.3866 77.6922 90.9529 69.6435 100.414C61.8281 109.601 51.363 115.73 44.2773 115.73C43.0049 115.73 41.8434 115.531 40.8278 115.123C39.9815 114.778 39.2752 114.305 38.7032 113.716L20.7438 95.1786C20.7438 95.1786 20.7496 95.1845 20.7555 95.1903C20.1309 94.5658 19.5356 93.9121 18.9636 93.235C19.5006 93.7953 20.166 94.2506 20.9714 94.5775C21.9403 94.9685 23.0493 95.1553 24.275 95.1553C31.2673 95.1553 41.8259 89.0209 49.4486 80.0558C57.9234 70.0984 60.3748 59.6333 55.116 56.2947L55.1276 56.283M55.1218 55.4134C54.8942 55.4134 54.6724 55.5009 54.5031 55.6702L54.4914 55.6819C54.3047 55.8686 54.2113 56.1313 54.2405 56.3998C54.2697 56.6683 54.4156 56.9017 54.6432 57.0418C55.8806 57.8298 56.6393 59.0963 56.902 60.8181C57.6257 65.6042 54.5148 72.76 48.7832 79.4955C41.4932 88.0637 31.1856 94.2856 24.275 94.2856C23.1485 94.2856 22.1446 94.1105 21.3041 93.772C20.6329 93.4977 20.0551 93.1183 19.5998 92.6397C19.4305 92.4587 19.1971 92.3712 18.9694 92.3712C18.7593 92.3712 18.5492 92.4471 18.3858 92.593C18.0356 92.9082 17.9947 93.4451 18.3041 93.807C18.8936 94.5074 19.5064 95.1728 20.1134 95.7857C20.1134 95.7857 20.1193 95.7915 20.1251 95.7973L38.0846 114.335C38.7499 115.017 39.5612 115.56 40.5068 115.94C41.6099 116.383 42.8823 116.611 44.2831 116.611C51.7832 116.611 62.4877 110.185 70.3147 100.986C78.6144 91.2272 81.346 81.2407 76.951 76.7056L60.6141 59.8492C59.0732 58.3084 57.4039 56.8784 55.6471 55.5826C55.4895 55.4659 55.3086 55.4134 55.1276 55.4134H55.1218Z" fill="#0000F4"/>
<path d="M55.5188 57.0301C55.4254 57.0301 55.332 57.0009 55.2561 56.9426L55.1977 56.8959C55.0927 56.82 54.9876 56.7441 54.8767 56.6741C54.7658 56.604 54.6899 56.4815 54.6783 56.3472C54.6666 56.213 54.7133 56.0846 54.8067 55.9912C54.8942 55.9036 55.0168 55.857 55.1335 55.857C55.2211 55.857 55.3086 55.8803 55.3845 55.9387C55.4662 55.997 55.5421 56.0612 55.6238 56.1196L55.7872 56.2422C55.9799 56.3881 56.0149 56.6624 55.869 56.855C55.7814 56.9659 55.653 57.0301 55.5188 57.0301Z" fill="white"/>
<path d="M55.1219 56.2889C55.2328 56.3706 55.3379 56.4581 55.4488 56.5398C55.3379 56.4581 55.227 56.3764 55.1103 56.3005L55.1219 56.2889ZM55.4546 56.5398C55.4546 56.5398 55.5013 56.5749 55.5188 56.5924C55.4955 56.5749 55.4722 56.5574 55.4546 56.5398ZM55.1219 55.4134C54.9002 55.4134 54.6725 55.5009 54.5033 55.6702L54.4916 55.6819C54.3048 55.8686 54.2114 56.1313 54.2406 56.3998C54.2698 56.6624 54.4157 56.9017 54.6433 57.0418C54.7426 57.106 54.836 57.1702 54.9235 57.2402L54.9877 57.2928C55.1453 57.4095 55.3321 57.4679 55.513 57.4679C55.7757 57.4679 56.0383 57.3511 56.2134 57.1235C56.5052 56.7383 56.4294 56.1896 56.05 55.8978L55.9858 55.8453L55.8866 55.7694C55.8048 55.7052 55.7231 55.641 55.6414 55.5826C55.4838 55.4659 55.3029 55.4134 55.1219 55.4134Z" fill="#0000F4"/>
<path d="M55.6121 57.1002C55.5187 57.1002 55.4253 57.071 55.3494 57.0126L55.256 56.9426C55.0634 56.7967 55.0284 56.5223 55.1743 56.3297C55.2619 56.2188 55.3903 56.1546 55.5245 56.1546C55.6179 56.1546 55.7113 56.1838 55.7872 56.2422L55.8922 56.318C56.079 56.4698 56.114 56.7383 55.9623 56.9309C55.8747 57.0418 55.7463 57.1002 55.6179 57.1002H55.6121Z" fill="white"/>
<path d="M55.5187 56.5865C55.5187 56.5865 55.5362 56.5982 55.5421 56.604C55.5362 56.5982 55.5246 56.5924 55.5187 56.5865ZM55.5421 56.6099C55.5421 56.6099 55.5888 56.6449 55.6121 56.6624C55.5888 56.6449 55.5654 56.6274 55.5421 56.6099ZM55.5187 55.711C55.2561 55.711 54.9934 55.8278 54.8183 56.0554C54.5265 56.4406 54.6024 56.9893 54.9818 57.2811L55.0051 57.2986L55.0284 57.3161L55.0751 57.3511C55.2327 57.4737 55.4195 57.5262 55.6004 57.5262C55.8631 57.5262 56.1199 57.4095 56.2892 57.1877C56.581 56.8083 56.5226 56.2655 56.1432 55.9679C56.1141 55.9445 56.0907 55.927 56.0615 55.9037L56.0323 55.8803C55.8748 55.7636 55.688 55.7052 55.5071 55.7052L55.5187 55.711Z" fill="#0000F4"/>
<path d="M76.3148 77.3126L59.978 60.4563C58.5714 59.0496 57.1122 57.7947 55.6122 56.6624C59.7504 59.9835 58.0694 68.5225 51.6841 77.2309L67.198 93.2467C68.9665 95.0677 69.4217 97.9977 68.6688 101.523C68.9957 101.161 69.3167 100.794 69.6377 100.42C77.6865 90.9587 80.2546 81.3924 76.309 77.3184L76.3148 77.3126Z" fill="#3072C1"/>
<path d="M51.7658 77.5635C51.6491 77.5635 51.5324 77.5168 51.4506 77.4293L45.0828 70.8572C41.7734 67.5478 38.0496 64.8921 34.0048 62.9602C33.8647 62.896 33.7714 62.7617 33.7597 62.61C33.7422 62.4582 33.8064 62.3123 33.9289 62.2189C40.0575 57.4971 46.2443 54.783 50.9137 54.783C52.1744 54.783 53.3067 54.9814 54.2873 55.3783C56.1317 56.1254 57.404 57.5613 57.9702 59.5399C59.2309 63.9524 57.0422 70.6179 52.116 77.3768C52.0401 77.4818 51.9234 77.546 51.795 77.5577C51.7833 77.5577 51.7775 77.5577 51.7658 77.5577V77.5635Z" fill="#B6FCE1"/>
<path d="M50.9137 55.2266C52.0985 55.2266 53.1783 55.4075 54.1239 55.7928C60.0364 58.18 58.7465 67.542 51.76 77.1258L45.3922 70.5537C41.9135 67.075 38.0964 64.431 34.1916 62.5691C40.0808 58.0282 46.2735 55.2266 50.9079 55.2266M50.9137 54.3511C46.151 54.3511 39.8649 57.0943 33.6605 61.8746C33.4212 62.0613 33.2928 62.359 33.322 62.6625C33.3511 62.966 33.5379 63.2287 33.8181 63.3629C37.8104 65.2715 41.4991 67.898 44.7794 71.1782L51.1355 77.7386C51.2989 77.9079 51.5265 78.0071 51.7659 78.0071C51.7834 78.0071 51.8067 78.0071 51.8242 78.0071C52.081 77.9896 52.3203 77.8554 52.4721 77.6511C57.48 70.7813 59.6921 63.9699 58.3905 59.4348C57.7893 57.322 56.4235 55.7869 54.4507 54.9873C53.4176 54.567 52.2269 54.3569 50.9079 54.3569L50.9137 54.3511Z" fill="#0000F4"/>
<path d="M50.9371 76.7056C50.8204 76.7056 50.7036 76.6589 50.6219 76.5713L45.0829 70.8514C42.1062 67.8747 38.7618 65.4116 35.1547 63.5322C35.0205 63.4621 34.933 63.3279 34.9213 63.182C34.9096 63.0361 34.9738 62.8843 35.0964 62.7968C40.863 58.4426 46.6296 55.9445 50.9138 55.9445C52.0227 55.9445 53.0091 56.1196 53.8554 56.4581C55.4547 57.106 56.482 58.3317 56.9197 60.1061C57.9119 64.1392 55.8049 70.2735 51.2931 76.5188C51.2173 76.6238 51.1005 76.688 50.9721 76.6997C50.9605 76.6997 50.9488 76.6997 50.943 76.6997L50.9371 76.7056Z" fill="#93D1EE"/>
<path d="M50.9137 56.3939C51.9643 56.3939 52.8981 56.5573 53.6919 56.8725C55.1511 57.462 56.0908 58.5885 56.4935 60.2169C57.4624 64.1567 55.3087 70.2152 50.937 76.2678L45.398 70.5479C42.2637 67.4136 38.8551 64.968 35.3589 63.147C40.8687 58.9912 46.6179 56.3881 50.9137 56.3881M50.9137 55.5184C46.5362 55.5184 40.6703 58.0457 34.8278 62.4582C34.5885 62.6392 34.4601 62.931 34.4834 63.2287C34.5068 63.5263 34.6877 63.7948 34.9504 63.9349C38.5224 65.791 41.826 68.2249 44.7735 71.1782L50.3008 76.8865C50.4642 77.0558 50.6919 77.155 50.9312 77.155C50.9545 77.155 50.972 77.155 50.9954 77.155C51.2522 77.1375 51.4915 77.0032 51.6433 76.7931C56.2309 70.4428 58.3613 64.1742 57.3398 60.0185C56.8729 58.1274 55.7231 56.7616 54.0129 56.0729C53.1199 55.711 52.0752 55.5301 50.9078 55.5301L50.9137 55.5184Z" fill="#0000F4"/>
<path d="M15.2863 64.5653C14.7435 64.5653 14.2474 64.4777 13.8155 64.3026C13.442 64.1509 13.1209 63.9407 12.8583 63.6723L7.47104 58.1099C7.30178 57.9348 7.30761 57.6605 7.48271 57.4912C7.57026 57.4095 7.67532 57.3687 7.78622 57.3687C7.89712 57.3687 8.01385 57.4153 8.1014 57.5029C8.2765 57.6838 8.49829 57.8297 8.75511 57.9348C9.08196 58.0691 9.46718 58.1333 9.8991 58.1333C12.4906 58.1333 16.3836 55.7577 19.1677 52.4892C21.9577 49.2148 23.0491 45.7011 21.7184 44.3237C21.5491 44.1486 21.5549 43.8743 21.73 43.705C21.8176 43.6233 21.9226 43.5824 22.0335 43.5824C22.1444 43.5824 22.2612 43.6291 22.3487 43.7167L27.736 49.279C29.4403 51.0359 28.4072 54.8764 25.2262 58.6177C22.2437 62.1197 18.158 64.5711 15.2922 64.5711L15.2863 64.5653Z" fill="#B6FCE1"/>
<path d="M22.0336 44.0202L27.4209 49.5825C28.9151 51.1234 27.9403 54.748 24.8878 58.3317C21.9286 61.8045 17.9655 64.1275 15.2864 64.1275C14.8078 64.1275 14.3642 64.0516 13.979 63.8999C13.658 63.7715 13.3895 63.5905 13.1736 63.3688L7.7863 57.8064C8.00226 58.0282 8.27074 58.2091 8.59176 58.3375C8.97698 58.4951 9.41473 58.5652 9.89918 58.5652C12.584 58.5652 16.5471 56.2422 19.5005 52.7694C22.5472 49.1856 23.5278 45.5611 22.0336 44.0202ZM22.664 43.4073L22.0336 44.0143L21.4033 44.6214C22.4188 45.6661 21.7359 48.7887 18.8351 52.1974C16.1269 55.3783 12.3681 57.6897 9.89918 57.6897C9.52563 57.6897 9.19294 57.6313 8.92445 57.5204C8.726 57.4387 8.55674 57.3278 8.4225 57.1935C8.25323 57.0184 8.01977 56.9251 7.79214 56.9251C7.57034 56.9251 7.35439 57.0068 7.18512 57.1702C6.84076 57.5087 6.82908 58.0632 7.16761 58.4076L12.5549 63.9699C12.8584 64.2851 13.2319 64.5303 13.658 64.7054C14.1424 64.898 14.6911 64.9972 15.2923 64.9972C18.2806 64.9972 22.5006 62.4874 25.5648 58.892C28.8976 54.9756 29.9248 50.8899 28.0571 48.9638L22.6698 43.4015L22.664 43.4073Z" fill="#0000F4"/>
<path d="M10.2846 60.9874C9.66594 60.9874 9.10562 60.8882 8.62118 60.6897C8.20093 60.5205 7.83906 60.2812 7.54723 59.9776L1.36035 53.5923L1.99071 52.9853C2.20083 53.2013 2.45765 53.3705 2.76699 53.4931C3.14637 53.6449 3.60163 53.7266 4.10359 53.7266C7.1445 53.7266 11.5395 51.0534 14.8022 47.2245C18.0241 43.4365 19.2789 39.3684 17.7264 37.7633C17.5571 37.5882 17.563 37.3138 17.7381 37.1446C17.8256 37.0629 17.9307 37.022 18.0416 37.022C18.1525 37.022 18.2692 37.0687 18.3567 37.1563L24.5436 43.5416C26.4756 45.5377 25.2907 49.9094 21.6603 54.1818C18.2459 58.1916 13.5765 60.9932 10.2963 60.9932L10.2846 60.9874Z" fill="#8359E8"/>
<path d="M18.0299 37.4539L24.2167 43.8392C25.9327 45.6136 24.8121 49.7751 21.3101 53.89C17.9131 57.8823 13.3605 60.5496 10.2788 60.5496C9.72428 60.5496 9.22233 60.4621 8.77874 60.287C8.41103 60.1352 8.10168 59.931 7.85654 59.6741L1.66967 53.2888C1.92065 53.5456 2.22415 53.7499 2.59186 53.9017C3.03545 54.0826 3.5374 54.1643 4.09189 54.1643C7.17365 54.1643 11.7263 51.497 15.1232 47.5047C18.6252 43.3898 19.7458 39.2283 18.0299 37.4539ZM18.6602 36.8469L18.0299 37.4539L17.3995 38.0609C18.6077 39.3041 17.8373 42.9637 14.4578 46.9327C11.3294 50.6098 6.96937 53.283 4.09773 53.283C3.6483 53.283 3.25724 53.2129 2.92455 53.0845C2.67941 52.9853 2.46929 52.8452 2.30003 52.676L1.66967 53.283L1.03931 53.89L7.22618 60.2753C7.56471 60.6255 7.97328 60.8998 8.45188 61.0866C8.98886 61.3026 9.60755 61.4135 10.2788 61.4135C13.6757 61.4135 18.4851 58.5477 21.9755 54.4445C25.7576 49.9969 26.9366 45.3801 24.8413 43.2147L18.6544 36.8294L18.6602 36.8469Z" fill="#0000F4"/>
<path d="M4.09775 54.6021C3.47906 54.6021 2.91874 54.5028 2.4343 54.3044C1.47125 53.9133 0.823377 53.1604 0.566563 52.1156C-0.00543104 49.7985 1.40704 46.2848 4.23783 42.9579C7.65228 38.9423 12.3275 36.1407 15.6077 36.1407C16.2264 36.1407 16.7867 36.2399 17.2711 36.4383C18.2342 36.8294 18.882 37.5823 19.1389 38.6271C19.7109 40.9443 18.2984 44.4579 15.4618 47.7907C12.0473 51.8005 7.37796 54.6021 4.09775 54.6021Z" fill="#D5C5FA"/>
<path d="M15.6017 36.5784C16.1562 36.5784 16.6582 36.666 17.1017 36.8411C20.0142 38.0201 19.1329 42.7886 15.1231 47.5047C11.7262 51.497 7.17356 54.1643 4.09179 54.1643C3.53731 54.1643 3.03536 54.0768 2.59177 53.9017C-0.320731 52.7227 0.560606 47.9541 4.5704 43.2439C7.96735 39.2458 12.52 36.5843 15.6017 36.5843M15.6017 35.7029C12.2048 35.7029 7.39535 38.5687 3.89919 42.6719C0.975011 46.1097 -0.466648 49.7693 0.13453 52.2207C0.426364 53.4056 1.16178 54.2635 2.25908 54.7071C2.79605 54.9231 3.41474 55.034 4.08596 55.034C7.4829 55.034 12.2923 52.1682 15.7827 48.065C18.7068 44.6272 20.1543 40.9676 19.5473 38.5104C19.2555 37.3255 18.5201 36.4675 17.4228 36.0239C16.8858 35.808 16.2671 35.6971 15.5959 35.6971L15.6017 35.7029Z" fill="#0000F4"/>
</svg>
