<svg width="289" height="295" viewBox="0 0 289 295" fill="none" xmlns="http://www.w3.org/2000/svg">
<path d="M281.705 62.835L175.955 1.77504C174.385 0.865036 172.965 0.785037 171.945 1.38504L162.585 6.82504C163.605 6.22504 165.025 6.31503 166.595 7.21503L272.345 68.275C275.455 70.075 277.975 74.435 277.965 78.005L277.505 240.625C277.505 242.405 276.875 243.655 275.855 244.245L285.215 238.805C286.225 238.215 286.855 236.965 286.865 235.185L287.325 72.565C287.335 68.985 284.815 64.625 281.705 62.835Z" fill="#77EEBC" stroke="#0000F4" stroke-width="1.5" stroke-linecap="round" stroke-linejoin="round"/>
<path d="M272.345 68.2751C275.455 70.0751 277.975 74.4351 277.965 78.0051L277.505 240.625C277.495 244.205 274.955 245.645 271.845 243.845L166.095 182.785C162.975 180.985 160.465 176.625 160.475 173.055L160.935 10.4351C160.945 6.85506 163.475 5.40505 166.595 7.21505L272.345 68.2751Z" fill="#7EEEF8" stroke="#0000F4" stroke-width="1.5" stroke-linecap="round" stroke-linejoin="round"/>
<path d="M176.885 81.315C174.625 80.005 172.795 76.835 172.805 74.235L172.855 54.965C172.855 52.365 174.695 51.315 176.965 52.625L258.965 99.965C261.225 101.275 263.055 104.435 263.045 107.035L262.995 126.305C262.995 128.905 261.155 129.965 258.885 128.655L176.885 81.315Z" fill="#65A0F5" stroke="#0000F4" stroke-width="1.5" stroke-linecap="round" stroke-linejoin="round"/>
<path d="M260.845 162.105C261.445 162.455 262.045 163.055 262.495 163.845C263.415 165.435 263.415 167.145 262.495 167.685L247.725 176.315C247.275 176.575 246.675 176.505 246.045 176.145L245.905 176.065C245.225 175.625 244.605 174.875 244.185 174.015L238.055 161.255C237.265 159.615 237.465 158.025 238.505 157.705C238.935 157.575 239.435 157.685 239.935 157.975C240.645 158.385 241.345 159.155 241.805 160.105L246.285 169.455L259.155 161.935C259.615 161.665 260.225 161.745 260.835 162.095L260.845 162.105Z" fill="#1E49F1" stroke="#0000F4" stroke-width="1.5" stroke-linecap="round" stroke-linejoin="round"/>
<path d="M260.905 139.555C261.505 139.905 262.105 140.505 262.555 141.295C263.475 142.885 263.475 144.605 262.555 145.135L247.785 153.765C247.335 154.025 246.735 153.965 246.105 153.605L245.965 153.515C245.285 153.075 244.665 152.335 244.245 151.465L238.115 138.705C237.325 137.065 237.525 135.475 238.565 135.155C238.995 135.025 239.495 135.135 239.995 135.425C240.705 135.835 241.405 136.605 241.865 137.565L246.345 146.905L259.215 139.385C259.675 139.115 260.285 139.195 260.895 139.545L260.905 139.555Z" fill="#1E49F1" stroke="#0000F4" stroke-width="1.5" stroke-linecap="round" stroke-linejoin="round"/>
<path d="M260.775 184.645C261.375 184.995 261.975 185.595 262.425 186.385C263.345 187.965 263.345 189.685 262.425 190.215L247.655 198.855C247.205 199.115 246.605 199.045 245.975 198.685L245.835 198.605C245.155 198.165 244.535 197.415 244.115 196.555L237.985 183.785C237.195 182.155 237.395 180.555 238.435 180.245C238.865 180.115 239.365 180.225 239.865 180.515C240.575 180.925 241.275 181.695 241.735 182.645L246.215 191.985L259.085 184.475C259.545 184.205 260.155 184.285 260.765 184.635L260.775 184.645Z" fill="#1E49F1" stroke="#0000F4" stroke-width="1.5" stroke-linecap="round" stroke-linejoin="round"/>
<path d="M225.665 125.785C227.925 127.095 229.755 130.265 229.745 132.865C229.735 135.465 227.905 136.515 225.635 135.205L176.805 107.015C174.545 105.705 172.715 102.545 172.725 99.945C172.735 97.345 174.565 96.285 176.835 97.595L225.665 125.785Z" fill="white" stroke="#0000F4" stroke-width="1.5" stroke-linecap="round" stroke-linejoin="round"/>
<path d="M225.605 148.325C227.865 149.635 229.695 152.795 229.685 155.405C229.675 158.015 227.845 159.055 225.575 157.745L176.745 129.555C174.485 128.245 172.655 125.085 172.665 122.485C172.675 119.885 174.505 118.825 176.775 120.135L225.605 148.325Z" fill="white" stroke="#0000F4" stroke-width="1.5" stroke-linecap="round" stroke-linejoin="round"/>
<path d="M225.545 170.875C227.805 172.185 229.635 175.345 229.625 177.945C229.615 180.545 227.785 181.605 225.515 180.295L176.685 152.105C174.425 150.795 172.595 147.625 172.605 145.025C172.615 142.425 174.445 141.375 176.715 142.685L225.545 170.875Z" fill="white" stroke="#0000F4" stroke-width="1.5" stroke-linecap="round" stroke-linejoin="round"/>
<path d="M192.985 167.985C180.995 154.495 136.455 152.145 91.7249 161.635C46.9949 171.135 38.0049 194.615 24.5049 217.355C24.0449 218.135 23.5549 218.875 23.0649 219.615H1.00488L1.02488 246.425C0.964883 250.555 3.45488 254.625 8.08488 255.885C27.0549 261.035 59.3449 264.705 103.715 251.845C172.105 232.015 193.065 211.505 192.985 194.095C192.955 187.105 192.985 167.985 192.985 167.985Z" fill="#C63E3E" stroke="#0000F4" stroke-width="1.5" stroke-linecap="round" stroke-linejoin="round"/>
<path d="M45.8852 229.185C32.8252 229.185 20.5552 227.655 9.4052 224.625C6.9252 223.955 6.2952 221.935 6.1352 221.095C5.7852 219.255 6.4952 217.485 8.0152 216.355C16.6452 209.965 23.6452 202.295 28.8352 193.555C30.2152 191.225 31.5452 188.895 32.8752 186.565C44.6252 166.005 54.7652 148.255 92.7552 140.195C104.565 137.685 116.225 136.415 127.425 136.415C156.575 136.415 174.305 144.735 180.635 151.845C186.935 158.935 189.155 165.895 187.235 172.545C183.875 184.205 166.405 202.005 102.295 220.595C82.6652 226.285 63.6852 229.175 45.8752 229.175L45.8852 229.185Z" fill="#EA6A68" stroke="#0000F4" stroke-width="1.5" stroke-linecap="round" stroke-linejoin="round"/>
<path d="M184.425 148.495C172.435 135.005 136.445 125.755 91.715 135.255C46.985 144.755 37.995 168.235 24.495 190.975C18.835 200.505 11.565 207.445 5.015 212.295C-1.525 217.135 0.224998 227.375 8.085 229.505C27.055 234.655 59.345 238.325 103.715 225.465C199.555 197.675 202.255 168.555 184.425 148.505V148.495ZM92.775 140.195C104.585 137.685 116.245 136.415 127.445 136.415C154.105 136.415 171.205 143.365 178.775 150.005C178.745 149.985 178.715 149.975 178.685 149.955C177.555 152.835 175.905 155.875 173.455 158.685C165.185 168.155 154.355 170.155 143.865 165.825C133.365 161.495 104.885 156.995 92.555 160.165C80.225 163.335 72.895 167.495 67.065 164.325C62.745 161.985 60.485 156.745 61.665 152.065C69.435 147.105 79.365 143.045 92.775 140.205V140.195ZM102.305 220.605C82.675 226.295 63.695 229.185 45.885 229.185C32.825 229.185 20.555 227.655 9.405 224.625C6.925 223.955 6.295 221.935 6.135 221.095C5.785 219.255 6.495 217.485 8.015 216.355C9.735 215.085 11.365 213.745 12.955 212.375C18.775 209.635 29.845 204.975 41.065 203.135C57.395 200.465 58.395 194.975 82.715 193.635C103.655 192.485 122.715 200.115 132.295 210.765C123.645 213.995 113.715 217.285 102.285 220.595L102.305 220.605ZM142.285 206.835C136.685 204.945 130.285 202.565 125.625 200.135C115.375 194.805 94.385 189.475 75.065 190.635C55.745 191.805 41.625 198.955 33.605 201.705C28.735 203.375 23.815 205.095 20.385 205.075C23.585 201.475 26.425 197.635 28.855 193.535C30.235 191.205 31.565 188.875 32.895 186.545C38.125 177.395 43.045 168.795 50.245 161.365C53.555 161.295 57.605 162.045 61.245 165.135C69.075 171.795 86.065 166.135 100.895 162.635C115.725 159.135 133.715 168.135 153.875 170.965C169.885 173.215 174.445 158.985 185.065 157.945C185.065 157.945 185.065 157.925 185.075 157.915C187.885 162.895 188.625 167.795 187.255 172.535C184.735 181.265 174.305 193.445 142.285 206.815V206.835Z" fill="#FFC0C0" stroke="#0000F4" stroke-width="1.5" stroke-linecap="round" stroke-linejoin="round"/>
<path d="M125.625 176.145C138.919 176.145 149.695 170.105 149.695 162.655C149.695 155.205 138.919 149.165 125.625 149.165C112.332 149.165 101.555 155.205 101.555 162.655C101.555 170.105 112.332 176.145 125.625 176.145Z" fill="white" stroke="#0000F4" stroke-width="1.5" stroke-linecap="round" stroke-linejoin="round"/>
<path d="M125.625 170.255C134.158 170.255 141.075 166.378 141.075 161.595C141.075 156.812 134.158 152.935 125.625 152.935C117.092 152.935 110.175 156.812 110.175 161.595C110.175 166.378 117.092 170.255 125.625 170.255Z" fill="#F09D9B" stroke="#0000F4" stroke-width="1.5" stroke-linecap="round" stroke-linejoin="round"/>
<path d="M206.935 198.765C206.935 198.765 205.975 187.755 202.265 182.245C198.555 176.735 199.035 165.845 201.185 165.245C203.335 164.645 206.095 172.665 206.935 180.205C207.775 187.745 207.055 190.465 209.685 181.985C212.315 173.505 213.755 175.775 214.475 179.245C215.195 182.715 212.915 189.655 214.475 188.945C216.035 188.235 216.865 176.975 219.505 171.585C222.135 166.195 232.555 160.215 234.105 161.645C235.655 163.075 227.875 181.635 222.305 187.265C216.735 192.895 217.105 191.815 219.255 191.095C221.405 190.375 247.385 174.335 252.895 176.375C258.405 178.415 244.515 188.465 235.535 193.135C226.555 197.805 222.725 198.335 223.565 199.625C224.405 200.915 236.975 200.195 245.475 204.025C253.975 207.855 258.465 210.725 254.725 213.245C250.985 215.765 241.165 216.355 229.075 211.205C216.985 206.055 206.805 203.905 206.925 198.755L206.935 198.765Z" fill="#5EC5D1" stroke="#0000F4" stroke-width="1.5" stroke-linecap="round" stroke-linejoin="round"/>
<path d="M122.665 248.405C118.545 248.445 115.815 244.095 117.805 240.495C119.035 238.255 120.815 235.555 123.385 232.405C131.765 222.115 183.355 194.815 199.155 194.935C214.955 195.055 219.385 207.865 215.075 216.725C211.015 225.075 165.125 247.995 122.665 248.405Z" fill="#EF9C87" stroke="#0000F4" stroke-width="1.5" stroke-linecap="round" stroke-linejoin="round"/>
<path d="M178.495 228.685C178.475 225.745 177.645 222.135 175.205 218.155C168.985 207.985 158.605 209.695 158.595 209.705C157.015 210.505 155.455 211.325 153.905 212.145C160.355 211.875 165.155 212.055 169.225 215.165C173.295 218.275 174.735 221.155 175.095 225.935C175.185 227.135 175.155 228.425 175.095 229.695C161.775 233.505 147.135 236.185 132.875 236.325C128.755 236.365 126.025 232.015 128.015 228.415C128.105 228.255 128.215 228.075 128.315 227.905C126.125 229.605 124.425 231.135 123.395 232.395C120.835 235.545 119.055 238.245 117.815 240.485C115.825 244.085 118.565 248.435 122.675 248.395C165.135 247.975 211.025 225.065 215.085 216.715C215.775 215.295 216.215 213.775 216.445 212.225C207.975 217.535 194.325 223.855 178.505 228.685H178.495Z" fill="#EB7956" stroke="#0000F4" stroke-width="1.5" stroke-linecap="round" stroke-linejoin="round"/>
<path d="M185.745 206.305C187.665 209.655 189.095 215.405 190.555 215.885C192.005 216.365 195.085 214.445 189.345 206.545C187.135 203.505 183.995 201.255 180.955 199.625C179.695 200.105 178.405 200.625 177.085 201.165C180.505 202.035 184.415 203.965 185.745 206.305Z" fill="#EB7956" stroke="#0000F4" stroke-width="1.5" stroke-linecap="round" stroke-linejoin="round"/>
<path d="M149.595 221.665C152.465 224.335 152.225 230.245 152.225 230.245C152.225 230.245 154.735 224.975 151.265 220.545C149.605 218.425 147.015 217.545 144.745 217.195C142.965 218.225 141.235 219.255 139.595 220.265C142.755 219.515 146.715 218.995 149.595 221.665Z" fill="#EB7956" stroke="#0000F4" stroke-width="1.5" stroke-linecap="round" stroke-linejoin="round"/>
<path d="M111.275 257.245C112.245 266.795 120.485 273.925 130.085 273.545C143.115 273.025 159.235 270.205 179.935 266.645C203.895 262.515 234.935 251.625 252.045 243.255C256.495 241.075 255.095 234.405 250.145 234.205C236.145 233.625 216.945 234.585 199.865 234.685C177.365 234.815 147.785 234.855 127.035 237.415C117.265 238.625 110.275 247.455 111.275 257.255V257.245Z" fill="#EF9C87" stroke="#0000F4" stroke-width="1.5" stroke-linecap="round" stroke-linejoin="round"/>
<path d="M231.855 247.235C233.705 240.835 231.375 236.545 229.145 234.115C226.895 234.155 224.615 234.205 222.305 234.255C226.345 236.275 228.655 239.615 229.135 243.475C229.325 245.015 229.055 246.675 228.575 248.295C218.175 251.595 207.445 254.455 197.685 256.315C199.335 254.045 200.805 249.625 199.685 243.475C198.915 239.265 196.945 236.495 194.925 234.695C193.485 234.695 192.025 234.715 190.535 234.725C196.165 238.225 197.435 242.645 197.665 246.705C197.915 250.975 195.265 254.925 194.755 256.855C194.725 256.855 194.685 256.865 194.655 256.875C189.795 257.715 185.195 258.505 180.815 259.245C182.445 254.575 182.255 247.495 180.285 242.575C179.035 239.455 177.005 236.835 175.105 234.885C173.455 234.905 171.795 234.935 170.125 234.965C172.195 235.885 174.205 237.155 175.965 238.985C180.995 244.195 181.685 255.365 179.195 257.475C178.515 258.045 177.725 258.935 177.015 259.875C164.435 261.945 153.855 263.425 144.785 263.785C135.185 264.165 126.945 257.045 125.975 247.485C125.605 243.845 126.345 240.335 127.915 237.305C127.615 237.345 127.305 237.375 127.015 237.405C117.245 238.615 110.255 247.445 111.255 257.245C112.225 266.795 120.465 273.925 130.065 273.545C143.095 273.025 159.215 270.205 179.915 266.645C203.875 262.515 234.915 251.625 252.025 243.255C253.925 242.325 254.745 240.575 254.695 238.865C247.815 241.695 239.975 244.585 231.835 247.255L231.855 247.235Z" fill="#EB7956" stroke="#0000F4" stroke-width="1.5" stroke-linecap="round" stroke-linejoin="round"/>
<path d="M142.055 252.635C141.995 255.855 144.035 256.225 143.495 248.225C143.185 243.665 141.245 239.205 139.635 236.215C138.695 236.285 137.775 236.365 136.855 236.435C143.275 242.525 142.065 252.635 142.065 252.635H142.055Z" fill="#EB7956" stroke="#0000F4" stroke-width="1.5" stroke-linecap="round" stroke-linejoin="round"/>
<path d="M114.215 253.785C114.215 253.785 117.085 252.995 118.255 256.495C119.425 259.995 115.115 260.625 114.755 263.405C114.395 266.185 113.225 274.265 108.295 281.635C103.355 288.995 99.4952 290.975 96.9852 290.705C94.4752 290.435 96.0852 285.495 97.3452 282.355C98.6052 279.215 102.285 272.225 102.285 272.225C102.285 272.225 94.2052 283.255 88.9052 286.575C83.6052 289.895 84.0552 285.765 85.4052 282.265C86.7552 278.765 85.7652 280.375 78.6752 286.755C71.5852 293.125 59.1952 294.835 55.8752 292.865C52.5552 290.895 57.0452 283.885 65.4852 279.575C73.9252 275.265 80.9252 277.155 84.3352 274.545C87.7452 271.935 98.2552 261.885 100.135 260.185C102.015 258.485 98.7852 262.165 83.7052 262.515C68.6252 262.875 61.0852 260.805 63.7752 256.325C66.4652 251.845 79.3952 250.755 84.9652 251.115C90.5352 251.475 97.8952 253.985 97.8952 253.095C97.8952 252.205 87.3952 249.055 77.4252 243.305C67.4552 237.555 63.3252 224.455 66.2952 222.205C69.2652 219.955 79.1352 223.375 86.9452 231.095C94.7552 238.815 99.2452 245.905 99.0652 244.385C98.8852 242.865 95.9252 238.635 96.1052 232.715C96.2852 226.795 97.5452 223.735 99.4252 225.175C101.305 226.615 107.955 238.335 114.235 253.795L114.215 253.785Z" fill="#5EC5D1" stroke="#0000F4" stroke-width="1.5" stroke-linecap="round" stroke-linejoin="round"/>
</svg>
