<svg width="288" height="300" viewBox="0 0 288 300" fill="none" xmlns="http://www.w3.org/2000/svg">
<path d="M214.3 174.421C247.62 174.421 274.63 147.41 274.63 114.091C274.63 80.7712 247.62 53.7605 214.3 53.7605C180.981 53.7605 153.97 80.7712 153.97 114.091C153.97 147.41 180.981 174.421 214.3 174.421Z" fill="#65A0F5" stroke="#0000F4" stroke-width="1.5" stroke-linecap="round" stroke-linejoin="round"/>
<path d="M179.35 111.541C189.79 117.571 198.21 132.161 198.17 144.151C198.13 156.141 189.66 160.981 179.22 154.961C168.78 148.941 160.35 134.331 160.39 122.341C160.43 110.351 168.91 105.511 179.35 111.541Z" fill="#EB7956" stroke="#0000F4" stroke-width="1.5" stroke-linecap="round" stroke-linejoin="round"/>
<path d="M247.77 38.8605L186.61 3.55054C180.63 0.100543 174.31 0.150544 169.69 3.70054C164.5 7.69054 162.73 15.0205 164.96 23.3205L176.27 65.3605C176.41 65.8705 176.6 66.3605 176.83 66.8205C180.91 63.5805 185.41 60.8605 190.25 58.7605L179.65 19.3705C179.65 19.3705 179.65 19.3505 179.65 19.3405C179.39 18.3605 180.46 17.5705 181.34 18.0705L240.17 52.0405C245.17 54.9305 248.41 63.1405 247.31 65.9105L236.73 92.4305C235.26 96.1105 236.66 100.451 240.19 102.261C241.32 102.841 242.52 103.121 243.69 103.121C246.71 103.121 249.57 101.311 250.76 98.3305L261.44 71.5505C265.57 61.1905 258.93 45.3105 247.78 38.8705L247.77 38.8605Z" fill="#AA51F6" stroke="#0000F4" stroke-width="1.5" stroke-linecap="round" stroke-linejoin="round"/>
<path d="M49.6602 96.0805C44.4802 93.0705 37.3101 93.4905 29.3901 98.0605C13.6601 107.141 0.950147 129.161 1.00015 147.241C1.03015 156.221 4.20015 162.541 9.31015 165.511L23.1701 173.571C18.0601 170.601 14.8901 164.281 14.8601 155.301C14.8101 137.221 27.5201 115.201 43.2501 106.121C51.1701 101.551 58.3402 101.131 63.5202 104.141L49.6602 96.0805Z" fill="#B6FCE1" stroke="#0000F4" stroke-width="1.5" stroke-linecap="round" stroke-linejoin="round"/>
<path d="M73.49 91.4905C66.42 87.3805 56.63 87.9605 45.83 94.2005C24.36 106.601 7.00004 136.661 7.07004 161.331C7.10004 173.591 11.43 182.211 18.41 186.261L37.33 197.261C30.35 193.201 26.02 184.581 25.99 172.331C25.92 147.661 43.27 117.601 64.75 105.201C75.55 98.9605 85.34 98.3805 92.41 102.491L73.49 91.4905Z" fill="#B6FCE1" stroke="#0000F4" stroke-width="1.5" stroke-linecap="round" stroke-linejoin="round"/>
<path d="M97.1201 89.6005C88.6801 84.6905 76.9801 85.3905 64.0801 92.8405C38.4301 107.651 17.7101 143.541 17.8001 173.011C17.8401 187.651 23.0101 197.951 31.3401 202.801L53.9401 215.931C45.6001 211.091 40.4401 200.791 40.4001 186.141C40.3201 156.671 61.0401 120.781 86.6801 105.971C99.5901 98.5205 111.28 97.8305 119.72 102.731L97.1201 89.6005Z" fill="#B6FCE1" stroke="#0000F4" stroke-width="1.5" stroke-linecap="round" stroke-linejoin="round"/>
<path d="M86.6801 105.971C112.33 91.1605 133.18 103.051 133.27 132.521C133.35 161.991 112.63 197.881 86.9901 212.691C61.3401 227.501 40.4901 215.611 40.4001 186.141C40.3201 156.671 61.0401 120.781 86.6801 105.971Z" fill="#65A0F5" stroke="#0000F4" stroke-width="1.5" stroke-linecap="round" stroke-linejoin="round"/>
<path d="M86.6999 113.191C108.88 100.391 126.91 110.661 126.98 136.141C127.05 161.621 109.14 192.651 86.9599 205.461C64.7799 218.271 46.7499 207.991 46.6799 182.511C46.6099 157.031 64.5199 126.001 86.6999 113.191Z" fill="#1E49F1" stroke="#0000F4" stroke-width="1.5" stroke-linecap="round" stroke-linejoin="round"/>
<path d="M86.7802 142.741C94.7502 138.141 101.24 141.831 101.26 150.991C101.28 160.151 94.8402 171.311 86.8702 175.911C78.9002 180.511 72.4102 176.821 72.3902 167.661C72.3702 158.501 78.8102 147.341 86.7802 142.741Z" fill="#AA51F6" stroke="#0000F4" stroke-width="1.5" stroke-linecap="round" stroke-linejoin="round"/>
<path d="M95.3803 146.331C93.3403 145.141 90.5103 145.311 87.3903 147.111C81.1903 150.691 76.1803 159.361 76.2003 166.501C76.2103 170.041 77.4603 172.531 79.4703 173.701L185.19 235.141C183.18 233.971 181.93 231.481 181.92 227.941C181.9 220.811 186.91 212.131 193.11 208.551C196.23 206.751 199.05 206.581 201.1 207.771L95.3803 146.331Z" fill="#8359E8" stroke="#0000F4" stroke-width="1.5" stroke-linecap="round" stroke-linejoin="round"/>
<path d="M193.12 208.551C199.32 204.971 204.36 207.841 204.38 214.971C204.4 222.101 199.39 230.771 193.19 234.351C186.99 237.931 181.95 235.061 181.93 227.931C181.91 220.801 186.92 212.121 193.12 208.541V208.551Z" fill="white" stroke="#0000F4" stroke-width="1.5" stroke-linecap="round" stroke-linejoin="round"/>
<path d="M228.35 165.691C219.91 160.781 208.21 161.481 195.31 168.931C169.66 183.741 148.94 219.631 149.03 249.101C149.07 263.741 154.24 274.041 162.57 278.891L185.17 292.021C176.83 287.181 171.67 276.881 171.63 262.231C171.55 232.761 192.27 196.871 217.91 182.061C230.82 174.611 242.51 173.921 250.95 178.821L228.35 165.691Z" fill="#B6FCE1" stroke="#0000F4" stroke-width="1.5" stroke-linecap="round" stroke-linejoin="round"/>
<path d="M217.91 182.071C243.56 167.261 264.41 179.151 264.5 208.621C264.58 238.091 243.86 273.981 218.22 288.791C192.57 303.601 171.72 291.711 171.63 262.241C171.55 232.771 192.27 196.881 217.91 182.071Z" fill="#65A0F5" stroke="#0000F4" stroke-width="1.5" stroke-linecap="round" stroke-linejoin="round"/>
<path d="M247.97 190.381C240.9 186.271 231.11 186.851 220.31 193.091C198.84 205.491 181.48 235.551 181.55 260.221C181.58 272.481 185.91 281.101 192.89 285.151L211.81 296.151C204.83 292.091 200.5 283.471 200.47 271.221C200.4 246.551 217.75 216.491 239.23 204.091C250.03 197.851 259.82 197.271 266.89 201.381L247.97 190.381Z" fill="#B6FCE1" stroke="#0000F4" stroke-width="1.5" stroke-linecap="round" stroke-linejoin="round"/>
<path d="M239.24 204.091C260.71 191.691 278.17 201.651 278.24 226.321C278.31 250.991 260.96 281.041 239.49 293.441C218.02 305.841 200.55 295.891 200.48 271.221C200.41 246.551 217.76 216.491 239.24 204.091Z" fill="#65A0F5" stroke="#0000F4" stroke-width="1.5" stroke-linecap="round" stroke-linejoin="round"/>
<path d="M239.26 212.881C256.5 202.921 270.53 210.921 270.59 230.741C270.65 250.561 256.71 274.691 239.47 284.641C222.23 294.601 208.2 286.611 208.14 266.791C208.08 246.971 222.02 222.831 239.27 212.881H239.26Z" fill="#1E49F1" stroke="#0000F4" stroke-width="1.5" stroke-linecap="round" stroke-linejoin="round"/>
<path d="M264.19 219.361C259.01 216.351 251.84 216.771 243.92 221.341C228.19 230.421 215.48 252.441 215.53 270.521C215.56 279.501 218.73 285.821 223.84 288.791L237.7 296.851C232.59 293.881 229.42 287.561 229.39 278.581C229.34 260.501 242.05 238.481 257.78 229.401C265.7 224.831 272.87 224.411 278.05 227.421L264.19 219.361Z" fill="#B6FCE1" stroke="#0000F4" stroke-width="1.5" stroke-linecap="round" stroke-linejoin="round"/>
<path d="M257.78 229.401C273.51 220.321 286.31 227.611 286.36 245.691C286.41 263.771 273.7 285.781 257.96 294.871C242.23 303.951 229.44 296.661 229.39 278.591C229.34 260.521 242.05 238.491 257.78 229.411V229.401Z" fill="#65A0F5" stroke="#0000F4" stroke-width="1.5" stroke-linecap="round" stroke-linejoin="round"/>
<path d="M257.81 237.081C269.85 230.131 279.65 235.711 279.69 249.551C279.73 263.391 270 280.241 257.95 287.191C245.91 294.141 236.12 288.561 236.08 274.731C236.04 260.901 245.77 244.041 257.81 237.091V237.081Z" fill="#1E49F1" stroke="#0000F4" stroke-width="1.5" stroke-linecap="round" stroke-linejoin="round"/>
<path d="M257.86 254.531C261.51 252.421 264.48 254.111 264.5 258.311C264.52 262.511 261.56 267.621 257.91 269.731C254.26 271.841 251.29 270.151 251.28 265.951C251.27 261.751 254.22 256.641 257.87 254.531H257.86Z" fill="#AA51F6" stroke="#0000F4" stroke-width="1.5" stroke-linecap="round" stroke-linejoin="round"/>
</svg>
