<svg width="135" height="145" viewBox="0 0 135 145" fill="none" xmlns="http://www.w3.org/2000/svg">
<path d="M19.0304 1.15C18.1304 2.1 17.9304 2.95 17.8304 7.25L17.6804 12.25L13.6804 12.8C11.4804 13.1 9.03041 13.6 8.23041 13.95C5.73041 14.95 3.18041 17.35 1.63041 20.1C0.180412 22.75 0.180413 22.75 0.0304125 32.6C-0.0695875 38.6 0.0804125 43.55 0.430412 45.2C1.38041 49.7 3.98041 54.45 7.38041 57.8C11.0304 61.4 10.9804 61.35 18.4304 64.2C23.3804 66.1 24.3304 66.65 25.1304 68.05C28.4804 73.8 34.0304 79.4 41.5804 84.45C47.3304 88.3 50.7804 92.15 52.2304 96.25C53.2804 99.4 52.9804 99.5 43.1804 99.5C32.9304 99.5 33.0804 99.45 32.3804 105.1C31.1304 116.1 28.3804 136.7 28.1304 137.05C27.9804 137.3 24.3304 137.5 19.9804 137.5C12.9804 137.5 11.9804 137.6 11.2804 138.4C10.4304 139.35 10.1304 142.3 10.8304 143.3C11.9304 144.95 12.9804 145 67.5804 145C121.68 145 121.78 145 123.13 143.95C124.83 142.6 124.93 140 123.33 138.5C122.33 137.6 121.58 137.5 114.38 137.5C106.68 137.5 106.53 137.5 106.28 136.4C106.03 135.35 105.38 130.3 103.88 117.5C102.93 109.35 101.93 102.15 101.68 101.4C100.98 99.65 99.4304 99.5 80.1804 99.35L61.1804 99.25L59.7804 95.05C57.2804 87.6 53.5304 82.95 46.1804 78.25C36.1804 71.8 30.0304 63.75 26.7304 52.75C25.7804 49.45 25.7304 48.1 25.6804 28.5V7.75H67.4304H109.18V28C109.13 47.55 109.13 48.4 108.03 52.2C104.73 63.65 98.4304 71.9 87.6804 78.75C78.0304 84.85 74.2804 92.8 80.5304 93.8C82.3304 94.1 82.5304 94 85.5304 90.75C87.2804 88.9 91.0304 85.8 93.9304 83.8C100.13 79.6 104.28 75.6 108.08 70.2L110.83 66.25L116.23 64.25C126.73 60.4 132.23 54.5 134.28 44.85C134.83 42.2 134.98 38.95 134.83 32.5C134.68 24.7 134.53 23.5 133.53 21.25C131.23 16.2 127.38 13.55 121.23 12.75L117.18 12.25L116.93 7.15C116.73 3.1 116.48 1.9 115.73 1.05L114.78 -2.16067e-06H67.4304H20.0804L19.0304 1.15ZM17.9804 36C18.1804 45.35 18.4804 51.9 18.8304 53C19.9804 56.35 19.4804 56.7 16.1804 54.95C13.1304 53.35 11.1804 51.2 9.33041 47.55L7.68041 44.25V34.5C7.68041 25.75 7.78041 24.6 8.63041 23.35C10.0304 21.25 11.7804 20.5 14.9304 20.65L17.6804 20.75L17.9804 36ZM125.28 22.75L126.93 24.65V33.95C126.93 43.3 126.63 45.5 124.83 48.75C123.78 50.7 119.38 54.85 117.68 55.5C115.08 56.5 115.03 56.35 115.98 51.35C116.73 47.65 116.88 44.2 116.93 33.55V20.4L120.28 20.6C123.38 20.8 123.68 20.9 125.28 22.75ZM95.3304 111.1C95.6304 113.4 96.2304 118.3 96.6804 122C97.1304 125.7 97.6804 130.25 97.9304 132.1C98.2304 133.95 98.4304 135.9 98.4304 136.45C98.4304 137.5 98.3804 137.5 67.4304 137.5H36.4304V135.9C36.4304 134.45 39.0804 112.4 39.7304 108.6L39.9804 107H67.3804H94.7804L95.3304 111.1Z" fill="black"/>
<path d="M45.1309 112.6C42.6809 113.75 42.6309 117.05 45.0309 118.7C46.0309 119.4 48.7309 119.5 67.5809 119.5H88.9809L90.1809 118.25C91.7809 116.7 91.7809 114.8 90.1809 113.25L88.9809 112L67.5809 112.05C53.9309 112.05 45.7809 112.25 45.1309 112.6Z" fill="black"/>
<path d="M52.2307 125.55C50.6307 126.8 50.4807 129.3 51.8807 131.05C52.8307 132.25 52.8307 132.25 66.2807 132.4C74.5307 132.5 80.2307 132.35 81.0307 132.05C83.9807 130.95 84.6307 127.65 82.3307 125.5C81.2807 124.55 80.6307 124.5 67.3807 124.5C54.1807 124.5 53.5307 124.55 52.2307 125.55Z" fill="black"/>
<path d="M63.4309 16.5999C62.2309 17.4499 60.9309 19.3499 58.8309 23.4499C57.2309 26.5999 55.8309 29.2499 55.7309 29.3499C55.6309 29.4999 52.8809 29.9499 49.5809 30.4499C42.9809 31.3999 40.8309 32.2999 39.4309 34.6499C38.4309 36.2499 38.1809 39.3999 38.8809 41.1999C39.0809 41.6999 41.3309 44.1999 43.9309 46.7999L48.6809 51.4499L47.7809 56.5999C47.3309 59.4499 46.9309 62.9499 46.9309 64.4499C46.9309 66.8999 47.0809 67.2999 48.8809 69.0499C51.9309 72.1499 54.5309 71.9499 61.3809 68.1999C64.1309 66.6999 66.7809 65.4999 67.2309 65.4999C67.7309 65.4999 70.4809 66.7499 73.3809 68.2999C77.6809 70.5499 79.0809 71.0999 81.0309 71.0999C83.7309 71.0499 85.4809 70.0999 86.9309 67.7499C88.1809 65.6999 88.1809 63.5999 86.9309 57.0499L85.9309 51.8499L90.8809 46.7499C96.0309 41.4499 96.8309 39.9999 96.1809 36.8999C95.2809 32.8999 93.2809 31.7499 85.3809 30.4999C82.0309 29.9499 79.0809 29.3499 78.8809 29.1499C78.6809 28.9499 77.2309 26.2499 75.6809 23.1499C73.5809 18.8999 72.4809 17.2999 71.2309 16.5499C68.9309 15.0999 65.5809 15.1499 63.4309 16.5999ZM70.6309 30.3499C72.1309 33.3999 73.7809 36.1499 74.3309 36.4499C74.8309 36.6999 77.0309 37.1999 79.2309 37.4999C81.3809 37.7999 84.1309 38.1499 85.3309 38.3499C86.4809 38.4999 87.4309 38.7499 87.4309 38.8999C87.4309 39.0499 85.2809 41.3499 82.6809 44.0499C80.0809 46.6999 77.9309 49.1499 77.9309 49.4499C77.9309 49.7999 78.3809 52.7999 78.9809 56.0999C79.5309 59.3999 79.8809 62.2499 79.7309 62.3999C79.5309 62.5499 76.9809 61.3999 73.9809 59.8499C70.9809 58.2999 67.8809 56.9999 67.1309 56.9999C66.3309 56.9999 63.6809 58.1499 61.2309 59.4999C58.7809 60.8999 56.2809 62.1499 55.6809 62.2999C54.6309 62.5499 54.5809 62.4999 54.9809 60.1499C56.1309 53.3499 56.4809 50.2999 56.1809 49.0499C55.9809 48.1499 54.3309 46.1999 51.6309 43.6999C49.3309 41.5499 47.4309 39.5499 47.4309 39.1999C47.4309 38.6499 48.5309 38.3999 55.4809 37.4999C60.7309 36.7999 60.9809 36.5499 64.1309 30.1499C65.6809 26.9999 67.1309 24.4999 67.4309 24.5999C67.6809 24.6999 69.1309 27.2499 70.6309 30.3499Z" fill="black"/>
</svg>
