<svg width="202" height="244" viewBox="0 0 202 244" fill="none" xmlns="http://www.w3.org/2000/svg">
<mask id="path-1-inside-1_156_11" fill="white">
<path d="M199 3.05176e-05L199 16.8276L199 244L129.974 244L102.704 199.407L83.1044 244L3 244L3.00001 16.8276L3.00001 8.41382L3.00002 2.19501e-05L112.2 2.67234e-05L199 3.05176e-05Z"/>
</mask>
<path d="M199 3.05176e-05L199 16.8276L199 244L129.974 244L102.704 199.407L83.1044 244L3 244L3.00001 16.8276L3.00001 8.41382L3.00002 2.19501e-05L112.2 2.67234e-05L199 3.05176e-05Z" fill="#17C2CE"/>
<path d="M199 15.3276L3.00001 15.3276L3.00001 18.3276L199 18.3276L199 15.3276ZM199 3.05176e-05L202 3.06487e-05L202 -2.99997L199 -2.99997L199 3.05176e-05ZM199 244L199 247L202 247L202 244L199 244ZM3 244L4.59321e-06 244L4.46208e-06 247L3 247L3 244ZM3.00002 2.19501e-05L3.00002 -2.99998L1.53899e-05 -2.99998L1.52588e-05 2.1819e-05L3.00002 2.19501e-05ZM102.704 199.407L105.264 197.842L102.268 192.943L99.9579 198.2L102.704 199.407ZM129.974 244L127.415 245.565L128.292 247L129.974 247L129.974 244ZM83.1044 244L83.1044 247L85.0627 247L85.8508 245.207L83.1044 244ZM3.00002 3.00002L112.2 3.00003L112.2 -2.99997L3.00002 -2.99998L3.00002 3.00002ZM112.2 3.00003L199 3.00003L199 -2.99997L112.2 -2.99997L112.2 3.00003ZM196 3.03864e-05L196 16.8276L202 16.8276L202 3.06487e-05L196 3.03864e-05ZM196 16.8276L196 244L202 244L202 16.8276L196 16.8276ZM6 244L6.00001 16.8276L1.45232e-05 16.8276L4.59321e-06 244L6 244ZM6.00001 16.8276L6.00001 8.41382L1.4891e-05 8.41382L1.45232e-05 16.8276L6.00001 16.8276ZM6.00001 8.41382L6.00002 2.20813e-05L1.52588e-05 2.1819e-05L1.4891e-05 8.41382L6.00001 8.41382ZM199 241L129.974 241L129.974 247L199 247L199 241ZM132.533 242.435L105.264 197.842L100.145 200.972L127.415 245.565L132.533 242.435ZM99.9579 198.2L80.3579 242.793L85.8508 245.207L105.451 200.614L99.9579 198.2ZM83.1044 241L3 241L3 247L83.1044 247L83.1044 241Z" fill="#3DF0FA" mask="url(#path-1-inside-1_156_11)"/>
<g clip-path="url(#clip0_156_11)">
<path d="M34.8627 203.792C34.4474 203.792 34.104 203.451 34.0937 203.02C34.0835 202.584 34.4218 202.227 34.8473 202.216C34.8729 202.216 37.4872 202.148 41.0704 201.433C41.4856 201.349 41.8906 201.628 41.9726 202.058C42.0546 202.484 41.7829 202.899 41.3626 202.983C37.641 203.724 34.9908 203.792 34.878 203.792C34.8729 203.792 34.8678 203.792 34.8627 203.792Z" fill="#8259E7" stroke="#0000F4" stroke-width="1.5" stroke-linecap="round" stroke-linejoin="round"/>
<path d="M49.1798 200.577C48.8774 200.577 48.5903 200.393 48.4673 200.094C48.3033 199.689 48.4878 199.232 48.8825 199.064C53.537 197.084 57.0946 194.337 59.4577 190.896C59.7038 190.539 60.1805 190.455 60.5291 190.707C60.8777 190.959 60.9597 191.447 60.7136 191.805C58.1762 195.487 54.3931 198.423 49.472 200.519C49.3746 200.561 49.2772 200.582 49.1747 200.582L49.1798 200.577ZM62.6103 187.103C62.518 187.103 62.4257 187.087 62.3386 187.051C61.9439 186.898 61.7388 186.441 61.8926 186.037C62.9076 183.284 63.492 180.574 63.6304 177.989C63.6509 177.553 64.0046 177.217 64.4403 177.243C64.8658 177.27 65.1887 177.637 65.1682 178.073C65.0196 180.821 64.4044 183.689 63.3331 186.594C63.2152 186.909 62.923 187.103 62.6154 187.103H62.6103Z" fill="#8259E7" stroke="#0000F4" stroke-width="1.5" stroke-linecap="round" stroke-linejoin="round"/>
<path d="M63.2871 170.42C62.9693 170.42 62.6668 170.215 62.5592 169.884C61.252 165.934 58.7402 162.12 55.0853 158.548C54.7777 158.248 54.7675 157.749 55.0597 157.434C55.3519 157.119 55.8388 157.109 56.1464 157.408C59.9807 161.159 62.6258 165.188 64.015 169.38C64.1534 169.789 63.933 170.241 63.5331 170.378C63.4511 170.404 63.3691 170.42 63.2871 170.42ZM49.221 153.332C49.0416 153.332 48.8622 153.269 48.7135 153.137C44.4383 149.303 42.0803 144.785 42.0701 140.42C42.0701 139.984 42.4135 139.632 42.839 139.632C43.2645 139.632 43.6079 139.984 43.6079 140.42C43.6182 144.328 45.7916 148.42 49.7285 151.955C50.0463 152.244 50.0822 152.738 49.8003 153.069C49.6465 153.248 49.4363 153.337 49.221 153.337V153.332ZM155.527 136.375C155.127 136.375 154.794 136.06 154.763 135.65C154.732 135.214 155.045 134.836 155.47 134.804C158.356 134.573 160.991 133.964 163.308 132.981C163.698 132.819 164.149 133.008 164.313 133.407C164.477 133.811 164.287 134.268 163.892 134.437C161.427 135.477 158.633 136.128 155.588 136.37C155.568 136.37 155.547 136.37 155.527 136.37V136.375ZM149.99 136.375C149.99 136.375 149.954 136.375 149.934 136.375C145.69 136.06 141.163 135.056 136.473 133.402L136.242 133.323C135.842 133.181 135.627 132.735 135.765 132.32C135.904 131.91 136.339 131.689 136.744 131.831L136.98 131.915C141.542 133.523 145.941 134.494 150.052 134.804C150.477 134.836 150.795 135.214 150.764 135.65C150.734 136.065 150.395 136.38 150.001 136.38L149.99 136.375ZM44.2487 135.787C44.1205 135.787 43.9872 135.755 43.8693 135.682C43.5003 135.466 43.3721 134.988 43.5823 134.61C44.8689 132.283 46.9553 130.224 49.7746 128.49C50.1386 128.264 50.6102 128.385 50.8306 128.758C51.051 129.131 50.9331 129.614 50.5692 129.84C47.9805 131.432 46.0787 133.302 44.9202 135.387C44.7767 135.645 44.5204 135.787 44.2487 135.787ZM128.63 130.618C128.548 130.618 128.466 130.607 128.389 130.576C123.027 128.742 118.952 127.482 115.189 126.478C114.779 126.368 114.533 125.937 114.641 125.517C114.748 125.097 115.169 124.839 115.579 124.955C119.377 125.969 123.478 127.24 128.876 129.084C129.281 129.22 129.496 129.667 129.363 130.082C129.255 130.413 128.958 130.623 128.635 130.623L128.63 130.618ZM170.3 129.614C170.131 129.614 169.957 129.557 169.813 129.436C169.485 129.157 169.439 128.663 169.705 128.327C171.448 126.158 172.366 123.589 172.366 120.894C172.366 119.203 172.007 117.485 171.305 115.794C171.136 115.394 171.32 114.932 171.71 114.759C172.099 114.591 172.55 114.775 172.72 115.174C173.509 117.065 173.904 118.987 173.904 120.894C173.904 123.957 172.863 126.872 170.89 129.325C170.736 129.514 170.515 129.614 170.295 129.614H170.3ZM57.7919 126.62C57.4638 126.62 57.1563 126.399 57.0537 126.058C56.9307 125.643 57.1614 125.202 57.5663 125.076C60.8471 124.062 64.6353 123.295 68.8284 122.796C69.6691 122.696 70.4944 122.602 71.3095 122.512C71.7298 122.46 72.1091 122.78 72.1553 123.211C72.2014 123.642 71.8939 124.03 71.4735 124.078C70.6636 124.167 69.8434 124.261 69.0078 124.361C64.9018 124.85 61.2059 125.601 58.0072 126.589C57.9354 126.61 57.8585 126.62 57.7868 126.62H57.7919ZM107.274 124.661C107.228 124.661 107.182 124.661 107.136 124.65C104.399 124.141 101.728 123.762 98.9752 123.495C98.5497 123.453 98.2421 123.069 98.2831 122.638C98.3241 122.202 98.7035 121.887 99.1187 121.929C101.918 122.197 104.629 122.581 107.413 123.101C107.828 123.179 108.11 123.589 108.033 124.015C107.966 124.393 107.643 124.661 107.279 124.661H107.274ZM79.6753 123.353C79.2703 123.353 78.9371 123.032 78.9064 122.617C78.8808 122.181 79.1986 121.808 79.624 121.782C82.9253 121.561 85.9702 121.456 88.9331 121.456C90.4966 121.456 92.0498 121.488 93.5466 121.551C93.9721 121.567 94.3001 121.934 94.2848 122.37C94.2694 122.806 93.9157 123.137 93.4851 123.127C92.0088 123.064 90.4812 123.038 88.9331 123.038C86.0009 123.038 82.9868 123.143 79.7214 123.358C79.7061 123.358 79.6856 123.358 79.6702 123.358L79.6753 123.353ZM167.158 109.437C166.968 109.437 166.778 109.369 166.63 109.222C163.79 106.485 159.966 103.943 155.255 101.663C154.87 101.479 154.706 101.006 154.886 100.612C155.065 100.218 155.527 100.05 155.911 100.234C160.765 102.588 164.728 105.219 167.681 108.072C167.988 108.371 168.004 108.87 167.716 109.185C167.568 109.348 167.363 109.432 167.158 109.432V109.437ZM150.488 99.5146C150.395 99.5146 150.303 99.4988 150.211 99.462C147.76 98.4955 145.126 97.6025 142.388 96.7988C141.978 96.6779 141.742 96.2419 141.86 95.8269C141.978 95.412 142.404 95.1651 142.809 95.2859C145.592 96.1001 148.268 97.0089 150.759 97.9912C151.154 98.1488 151.354 98.6058 151.2 99.0103C151.082 99.3255 150.79 99.5146 150.482 99.5146H150.488ZM134.53 94.8026C134.479 94.8026 134.422 94.7974 134.371 94.7868C130.045 93.8623 125.467 93.1321 120.761 92.6174C120.341 92.5701 120.033 92.1814 120.079 91.7506C120.126 91.3199 120.51 91.0047 120.925 91.052C125.682 91.572 130.311 92.3127 134.684 93.2425C135.099 93.3318 135.366 93.7468 135.278 94.1722C135.201 94.5452 134.884 94.7974 134.525 94.7974L134.53 94.8026ZM84.8834 92.5543C84.4887 92.5543 84.1555 92.2496 84.1197 91.8399C84.0787 91.4092 84.3913 91.0204 84.8117 90.9837C87.59 90.7158 90.3889 90.5109 93.1314 90.3638C93.5671 90.3428 93.9157 90.6737 93.9413 91.1097C93.9618 91.5457 93.6389 91.9135 93.2134 91.9397C90.4914 92.0815 87.7131 92.2917 84.9552 92.5543C84.9296 92.5543 84.9091 92.5543 84.8834 92.5543ZM112.559 91.9397C112.559 91.9397 112.534 91.9397 112.518 91.9397C109.386 91.7664 106.167 91.6771 102.948 91.6771C101.569 91.6666 100.134 91.6928 98.7291 91.7243C98.3242 91.7454 97.9551 91.3882 97.9448 90.9522C97.9346 90.5162 98.2729 90.1537 98.6984 90.1484C100.108 90.1169 101.538 90.1012 102.938 90.1012H102.953C106.198 90.1012 109.448 90.1905 112.606 90.3691C113.031 90.3953 113.354 90.763 113.333 91.199C113.313 91.6193 112.969 91.945 112.565 91.945L112.559 91.9397Z" fill="#8259E7" stroke="#0000F4" stroke-width="1.5" stroke-linecap="round" stroke-linejoin="round"/>
<path d="M70.1817 94.4979C69.8127 94.4979 69.4846 94.2248 69.4231 93.8361C69.3564 93.4053 69.6384 93.0008 70.0587 92.9325C72.1707 92.5753 74.3134 92.2496 76.4202 91.9607C76.8406 91.9029 77.2302 92.2076 77.2866 92.6384C77.3429 93.0691 77.0456 93.4683 76.6253 93.5261C74.5338 93.815 72.4065 94.1407 70.3099 94.4927C70.2689 94.4979 70.2279 94.5032 70.1817 94.5032V94.4979Z" fill="#8259E7" stroke="#0000F4" stroke-width="1.5" stroke-linecap="round" stroke-linejoin="round"/>
<path d="M145.746 141.528C145.746 141.528 145.751 139.558 138.743 135.272C131.736 130.985 119.254 120.38 110.847 113.398C102.445 106.417 98.8211 109.637 96.9655 115.615C95.1047 121.593 97.7293 125.501 100.805 128.616C103.886 131.731 132.628 146.503 132.628 146.503H143.459L145.746 141.533V141.528Z" fill="#AA51F6" stroke="#0000F4" stroke-width="1.5" stroke-linecap="round" stroke-linejoin="round"/>
<path d="M145.766 141.512C145.766 141.512 138.733 147.454 128.194 141.166C117.655 134.878 113.605 125.753 104.87 125.659C96.1352 125.569 95.72 131.453 86.9748 130.392C78.2296 129.331 83.3814 120.737 78.4911 120.201C73.6008 119.665 68.3414 134.794 71.2735 150.548C71.2735 150.548 87.836 153.857 111.949 161.111C136.063 168.366 157.29 169.348 165.24 166.039C173.191 162.724 175.57 155.764 171.294 153.148C167.019 150.532 153.819 145.636 145.771 141.512H145.766Z" fill="#77EEBC" stroke="#0000F4" stroke-width="1.5" stroke-linecap="round" stroke-linejoin="round"/>
<path d="M171.289 153.143C170.402 152.601 169.131 151.961 167.609 151.251C171.986 157.776 159.361 158.259 149.862 157.256C140.363 156.252 137.021 151.083 128.666 152.791C122.273 154.099 114.261 158.69 110.852 160.78C111.216 160.891 111.58 160.996 111.949 161.106C136.063 168.36 157.29 169.343 165.24 166.033C173.191 162.719 175.57 155.759 171.294 153.143H171.289Z" fill="#F3C254" stroke="#0000F4" stroke-width="1.5" stroke-linecap="round" stroke-linejoin="round"/>
<path d="M97.0527 150.322L117.275 138.46L111.903 133.764L90.9783 146.209L97.0527 150.322Z" fill="#65A0F5" stroke="#0000F4" stroke-width="1.5" stroke-linecap="round" stroke-linejoin="round"/>
<path d="M106.541 158.396L126.764 146.534L121.392 141.833L100.472 154.277L106.541 158.396Z" fill="#65A0F5" stroke="#0000F4" stroke-width="1.5" stroke-linecap="round" stroke-linejoin="round"/>
<path d="M139.174 166.974C111.457 162.629 106.879 151.803 92.3828 141.455C82.3971 134.326 75.2667 131.138 71.7912 129.845C70.3507 135.471 69.8484 142.931 71.2683 150.548C71.2683 150.548 87.8308 153.857 111.944 161.111C121.725 164.053 131.034 165.965 139.174 166.974Z" fill="#5EC5D1" stroke="#0000F4" stroke-width="1.5" stroke-linecap="round" stroke-linejoin="round"/>
<path d="M70.5249 138.192C70.2891 142.069 70.4788 146.282 71.2733 150.548C71.2733 150.548 81.4743 152.586 97.5191 156.967C92.193 153.358 85.9904 148.804 81.5768 145.105C77.3222 141.533 73.1854 139.369 70.5249 138.192Z" fill="#B5FBE0" stroke="#0000F4" stroke-width="1.5" stroke-linecap="round" stroke-linejoin="round"/>
<path d="M173.468 155.9L173.278 155.89C173.965 159.099 171.135 163.575 165.23 166.033C157.28 169.348 136.052 168.36 111.939 161.106C87.8257 153.852 71.2632 150.542 71.2632 150.542C71.2632 150.542 65.4758 151.887 66.865 158.958C68.2542 166.028 83.6325 165.135 95.5097 165.76C107.392 166.385 114.128 172.017 133.735 175.289C153.343 178.562 166.471 170.803 170.218 166.401C173.96 161.999 173.463 155.89 173.463 155.89L173.468 155.9Z" fill="#1E49F1" stroke="#0000F4" stroke-width="1.5" stroke-linecap="round" stroke-linejoin="round"/>
<path d="M71.2734 150.548C71.2734 150.548 69.792 150.894 68.5053 152.15C68.5053 152.15 66.7112 156.468 72.8267 158.396C78.9421 160.323 93.0902 160.56 100.59 161.111C108.089 161.663 123.109 164.085 123.109 164.085C119.49 163.244 115.758 162.256 111.949 161.111C87.8359 153.857 71.2734 150.548 71.2734 150.548Z" fill="#65A0F5" stroke="#0000F4" stroke-width="1.5" stroke-linecap="round" stroke-linejoin="round"/>
<path d="M130.49 145.037C130.321 145.037 130.147 144.99 129.993 144.901C129.614 144.675 129.419 144.218 129.527 143.782L131.854 133.895L125.559 140.273C125.251 140.583 124.79 140.656 124.411 140.456C124.031 140.257 123.816 139.831 123.878 139.401L125.498 128.296L117.952 135.309C117.614 135.618 117.116 135.661 116.737 135.403C116.358 135.146 116.199 134.662 116.347 134.221L119.767 124.093L111.888 131.096C111.472 131.463 110.847 131.416 110.488 130.996C110.129 130.57 110.176 129.929 110.586 129.562L121.268 120.07C121.607 119.77 122.104 119.739 122.478 119.996C122.852 120.253 123.006 120.737 122.863 121.173L119.5 131.138L126.236 124.881C126.548 124.592 126.999 124.535 127.374 124.74C127.743 124.944 127.948 125.365 127.886 125.79L126.297 136.695L132.956 129.956C133.274 129.635 133.761 129.572 134.145 129.793C134.53 130.019 134.725 130.476 134.622 130.917L132.264 140.94L139.558 133.848C139.958 133.459 140.584 133.481 140.963 133.885C141.342 134.295 141.322 134.936 140.927 135.324L131.193 144.78C131.003 144.964 130.757 145.058 130.511 145.058L130.49 145.037Z" fill="#65A0F5" stroke="#0000F4" stroke-width="1.5" stroke-linecap="round" stroke-linejoin="round"/>
<path d="M149.18 88.0105L159.161 80.7981L162.437 70.3183H161.288L157.608 79.6267L150.488 82.395L149.18 88.0105Z" fill="#8259E7" stroke="#0000F4" stroke-width="1.5" stroke-linecap="round" stroke-linejoin="round"/>
<path d="M160.063 69.73L161.288 70.3183L157.608 79.6267L150.488 82.395L146.889 80.5512L156.465 77.6988L160.063 69.73Z" fill="#C8D4FA" stroke="#0000F4" stroke-width="1.5" stroke-linecap="round" stroke-linejoin="round"/>
<path d="M156.465 77.6988L157.608 79.6267L161.288 70.3183L160.063 69.73L156.465 77.6988Z" fill="#C8D4FA" stroke="#0000F4" stroke-width="1.5" stroke-linecap="round" stroke-linejoin="round"/>
<path d="M176.836 56.2508L176.795 70.7543L165.481 77.4939L165.522 62.9851L176.836 56.2508Z" fill="#77EEBC" stroke="#0000F4" stroke-width="1.5" stroke-linecap="round" stroke-linejoin="round"/>
<path d="M165.523 62.9851L165.482 77.4939L154.091 70.7543L154.127 56.2508L165.523 62.9851Z" fill="#7EEEF8" stroke="#0000F4" stroke-width="1.5" stroke-linecap="round" stroke-linejoin="round"/>
<path d="M176.836 56.2508L165.523 62.9851L154.127 56.2508L165.446 49.5112L176.836 56.2508Z" fill="#B5FBE0" stroke="#0000F4" stroke-width="1.5" stroke-linecap="round" stroke-linejoin="round"/>
<path d="M144.926 126.121L156.465 119.077L149.222 92.1603L154.255 76.0651L146.889 48.1401L144.68 48.8966L149.591 76.4381L140.63 94.5505L144.926 126.121Z" fill="#8259E7" stroke="#0000F4" stroke-width="1.5" stroke-linecap="round" stroke-linejoin="round"/>
<path d="M144.926 126.121L132.531 119.203L134.981 94.1722L146.151 75.6869L142.593 48.1401L144.68 48.8966L149.59 76.4381L140.63 94.5505L144.926 126.121Z" fill="#C8D4FA" stroke="#0000F4" stroke-width="1.5" stroke-linecap="round" stroke-linejoin="round"/>
<path d="M134.981 94.1722L140.63 94.5505L149.591 76.4381L146.151 75.6869L134.981 94.1722Z" fill="#C8D4FA" stroke="#0000F4" stroke-width="1.5" stroke-linecap="round" stroke-linejoin="round"/>
<path d="M128.804 83.9867L130.609 100.586L135.76 108.555L139.769 110.063L132.531 100.003L130.116 83.2302L128.804 83.9867Z" fill="#C8D4FA" stroke="#0000F4" stroke-width="1.5" stroke-linecap="round" stroke-linejoin="round"/>
<path d="M131.26 82.8152L135.35 98.0752L138.052 100.003L139.769 110.063L132.531 100.003L130.116 83.2302L131.26 82.8152Z" fill="#8259E7" stroke="#0000F4" stroke-width="1.5" stroke-linecap="round" stroke-linejoin="round"/>
<path d="M132.531 100.003L130.609 100.586L128.804 83.9867L130.116 83.2302L132.531 100.003Z" fill="#C8D4FA" stroke="#0000F4" stroke-width="1.5" stroke-linecap="round" stroke-linejoin="round"/>
<path d="M141.363 70.9435L141.317 86.9599L128.825 94.4034L128.871 78.3817L141.363 70.9435Z" fill="#77EEBC" stroke="#0000F4" stroke-width="1.5" stroke-linecap="round" stroke-linejoin="round"/>
<path d="M128.871 78.3817L128.825 94.4034L116.25 86.9599L116.291 70.9435L128.871 78.3817Z" fill="#7EEEF8" stroke="#0000F4" stroke-width="1.5" stroke-linecap="round" stroke-linejoin="round"/>
<path d="M141.364 70.9434L128.871 78.3817L116.292 70.9434L128.789 63.4999L141.364 70.9434Z" fill="#B5FBE0" stroke="#0000F4" stroke-width="1.5" stroke-linecap="round" stroke-linejoin="round"/>
<path d="M158.925 33.2689L158.864 55.673L141.389 66.0792L141.45 43.6751L158.925 33.2689Z" fill="#77EEBC" stroke="#0000F4" stroke-width="1.5" stroke-linecap="round" stroke-linejoin="round"/>
<path d="M141.45 43.6751L141.389 66.0792L123.801 55.673L123.863 33.2689L141.45 43.6751Z" fill="#7EEEF8" stroke="#0000F4" stroke-width="1.5" stroke-linecap="round" stroke-linejoin="round"/>
<path d="M158.925 33.2689L141.45 43.6751L123.863 33.2689L141.338 22.8627L158.925 33.2689Z" fill="#B5FBE0" stroke="#0000F4" stroke-width="1.5" stroke-linecap="round" stroke-linejoin="round"/>
<path d="M58.894 99.3832C63.268 99.3832 66.8138 97.3465 66.8138 94.8341C66.8138 92.3217 63.268 90.285 58.894 90.285C54.52 90.285 50.9741 92.3217 50.9741 94.8341C50.9741 97.3465 54.52 99.3832 58.894 99.3832Z" fill="#8259E7" stroke="#0000F4" stroke-width="1.5" stroke-linecap="round" stroke-linejoin="round"/>
<path d="M72.5192 69.6565C73.7802 67.2138 74.4415 64.393 74.2826 61.3987C73.8674 53.4772 67.6238 47.0108 59.8987 46.5065C50.9331 45.9234 43.4797 53.2041 43.4797 62.2655C43.4797 64.9603 44.141 67.4975 45.2995 69.7143L45.32 69.7563C45.3354 69.7878 45.3559 69.8246 45.3713 69.8561L57.6842 92.7224C58.2071 93.6942 59.5706 93.6995 60.0935 92.7224C63.4204 86.5396 72.5038 69.667 72.5141 69.6512L72.5192 69.6565ZM58.894 54.6486C63 54.6486 66.332 58.0578 66.332 62.2707C66.332 66.4837 63.0051 69.8929 58.894 69.8929C54.7828 69.8929 51.456 66.4837 51.456 62.2707C51.456 58.0578 54.7828 54.6486 58.894 54.6486Z" fill="#EB7956" stroke="#0000F4" stroke-width="1.5" stroke-linecap="round" stroke-linejoin="round"/>
<path d="M22.5395 207.338C26.9135 207.338 30.4593 205.301 30.4593 202.789C30.4593 200.276 26.9135 198.24 22.5395 198.24C18.1655 198.24 14.6196 200.276 14.6196 202.789C14.6196 205.301 18.1655 207.338 22.5395 207.338Z" fill="#C8D4FA" stroke="#0000F4" stroke-width="1.5" stroke-linecap="round" stroke-linejoin="round"/>
<path d="M52.717 163.044C53.3117 162.929 53.773 163.559 53.4911 164.111C51.7892 167.462 46.9399 175.615 39.302 177.149C29.6341 179.087 27.4863 179.229 22.5806 184.697V158.448C22.5806 158.448 27.3376 154.913 35.5855 158.931C43.003 162.545 48.2881 163.916 52.717 163.05V163.044Z" fill="#1E49F1" stroke="#0000F4" stroke-width="1.5" stroke-linecap="round" stroke-linejoin="round"/>
<path d="M24.472 156.94L24.3849 202.232C24.3849 202.516 24.2003 202.804 23.8364 203.02C23.0982 203.461 21.9038 203.461 21.1606 203.02C20.7863 202.799 20.6018 202.51 20.6018 202.221L20.689 156.93C20.689 157.219 20.8735 157.508 21.2477 157.728C21.991 158.17 23.1854 158.17 23.9235 157.728C24.2926 157.508 24.472 157.224 24.472 156.94Z" fill="#8259E7" stroke="#0000F4" stroke-width="1.5" stroke-linecap="round" stroke-linejoin="round"/>
<path d="M23.9133 156.142C24.6566 156.583 24.6617 157.292 23.9235 157.728C23.1854 158.164 21.991 158.17 21.2477 157.728C20.5044 157.287 20.4993 156.578 21.2374 156.142C21.9756 155.706 23.1751 155.706 23.9133 156.142Z" fill="#C8D4FA" stroke="#0000F4" stroke-width="1.5" stroke-linecap="round" stroke-linejoin="round"/>
</g>
<defs>
<clipPath id="clip0_156_11">
<rect width="202" height="207" fill="white" transform="translate(0 9)"/>
</clipPath>
</defs>
</svg>
