<svg width="196" height="259" viewBox="0 0 196 259" fill="none" xmlns="http://www.w3.org/2000/svg">
<mask id="path-1-inside-1_163_72" fill="white">
<path d="M196 0L196 14.8424L196 215.215L151.687 259L100.557 215.215L51.9826 259L5.85145e-06 215.215L1.461e-05 14.8424L1.49344e-05 7.4212L1.52588e-05 -8.56743e-06L109.2 -3.79415e-06L196 0Z"/>
</mask>
<path d="M196 0L196 14.8424L196 215.215L151.687 259L100.557 215.215L51.9826 259L5.85145e-06 215.215L1.461e-05 14.8424L1.49344e-05 7.4212L1.52588e-05 -8.56743e-06L109.2 -3.79415e-06L196 0Z" fill="#D4BCFE"/>
<path d="M196 13.3424L1.46756e-05 13.3424L1.45444e-05 16.3424L196 16.3424L196 13.3424ZM196 0L199 1.31134e-07L199 -3L196 -3L196 0ZM196 215.215L198.109 217.349L199 216.468L199 215.215L196 215.215ZM5.85145e-06 215.215L-2.99999 215.215L-2.99999 216.61L-1.93267 217.509L5.85145e-06 215.215ZM1.52588e-05 -8.56743e-06L1.53899e-05 -3.00001L-2.99998 -3.00001L-2.99998 -8.69857e-06L1.52588e-05 -8.56743e-06ZM100.557 215.215L102.508 212.936L100.506 211.222L98.5479 212.987L100.557 215.215ZM151.687 259L149.736 261.279L151.832 263.074L153.796 261.134L151.687 259ZM51.9826 259L50.0499 261.295L52.0494 262.979L53.9912 261.228L51.9826 259ZM1.51277e-05 2.99999L109.2 3L109.2 -3L1.53899e-05 -3.00001L1.51277e-05 2.99999ZM109.2 3L196 3L196 -3L109.2 -3L109.2 3ZM193 -1.31134e-07L193 14.8424L199 14.8424L199 1.31134e-07L193 -1.31134e-07ZM193 14.8424L193 215.215L199 215.215L199 14.8424L193 14.8424ZM3.00001 215.215L3.00001 14.8424L-2.99999 14.8424L-2.99999 215.215L3.00001 215.215ZM3.00001 14.8424L3.00001 7.4212L-2.99999 7.42119L-2.99999 14.8424L3.00001 14.8424ZM3.00001 7.4212L3.00002 -8.4363e-06L-2.99998 -8.69857e-06L-2.99999 7.42119L3.00001 7.4212ZM193.891 213.081L149.578 256.866L153.796 261.134L198.109 217.349L193.891 213.081ZM153.638 256.721L102.508 212.936L98.6052 217.494L149.736 261.279L153.638 256.721ZM98.5479 212.987L49.974 256.772L53.9912 261.228L102.565 217.443L98.5479 212.987ZM53.9153 256.705L1.93267 212.92L-1.93267 217.509L50.0499 261.295L53.9153 256.705Z" fill="#A47CDB" mask="url(#path-1-inside-1_163_72)"/>
<path d="M181.506 64.441L115.764 26.4818C114.788 25.9161 113.906 25.8664 113.271 26.2394L107.453 29.6213C108.087 29.2483 108.97 29.3042 109.946 29.8637L175.687 67.8229C177.621 68.9419 179.187 71.6524 179.181 73.8718L178.895 174.968C178.895 176.074 178.503 176.852 177.869 177.218L183.688 173.836C184.316 173.47 184.708 172.693 184.714 171.586L185 70.4899C185.006 68.2643 183.439 65.5538 181.506 64.441Z" fill="#77EEBC" stroke="#0000F4" stroke-width="1.5" stroke-linecap="round" stroke-linejoin="round"/>
<path d="M175.687 67.8229C177.621 68.9419 179.187 71.6524 179.181 73.8718L178.895 174.968C178.889 177.193 177.31 178.089 175.377 176.97L109.635 139.01C107.695 137.891 106.135 135.181 106.141 132.962L106.427 31.8655C106.433 29.6399 108.006 28.7385 109.946 29.8637L175.687 67.8229Z" fill="#7EEEF8" stroke="#0000F4" stroke-width="1.5" stroke-linecap="round" stroke-linejoin="round"/>
<path d="M116.343 75.9295C114.938 75.1151 113.8 73.1444 113.806 71.5281L113.837 59.5485C113.837 57.9322 114.981 57.2794 116.392 58.0938L167.369 87.5237C168.774 88.3381 169.912 90.3026 169.906 91.9189L169.875 103.898C169.875 105.515 168.731 106.174 167.32 105.359L116.343 75.9295Z" fill="#65A0F5" stroke="#0000F4" stroke-width="1.5" stroke-linecap="round" stroke-linejoin="round"/>
<path d="M168.538 126.154C168.911 126.372 169.284 126.745 169.564 127.236C170.136 128.224 170.136 129.288 169.564 129.623L160.382 134.988C160.102 135.15 159.729 135.106 159.337 134.883L159.25 134.833C158.827 134.559 158.442 134.093 158.181 133.558L154.37 125.626C153.879 124.606 154.003 123.618 154.65 123.419C154.917 123.338 155.228 123.406 155.539 123.587C155.98 123.842 156.415 124.32 156.701 124.911L159.486 130.724L167.487 126.049C167.773 125.881 168.152 125.93 168.532 126.148L168.538 126.154Z" fill="#1E49F1" stroke="#0000F4" stroke-width="1.5" stroke-linecap="round" stroke-linejoin="round"/>
<path d="M168.575 112.136C168.948 112.353 169.321 112.726 169.601 113.217C170.173 114.206 170.173 115.275 169.601 115.605L160.419 120.97C160.139 121.131 159.766 121.094 159.375 120.87L159.288 120.814C158.865 120.541 158.48 120.081 158.218 119.54L154.408 111.607C153.916 110.588 154.041 109.599 154.687 109.4C154.955 109.319 155.265 109.388 155.576 109.568C156.018 109.823 156.453 110.302 156.739 110.898L159.524 116.705L167.525 112.03C167.811 111.862 168.19 111.912 168.569 112.129L168.575 112.136Z" fill="#1E49F1" stroke="#0000F4" stroke-width="1.5" stroke-linecap="round" stroke-linejoin="round"/>
<path d="M168.494 140.167C168.867 140.384 169.24 140.757 169.52 141.248C170.092 142.231 170.092 143.3 169.52 143.629L160.338 149.001C160.058 149.162 159.685 149.119 159.293 148.895L159.206 148.845C158.783 148.572 158.398 148.105 158.137 147.571L154.326 139.632C153.835 138.619 153.959 137.624 154.606 137.431C154.873 137.351 155.184 137.419 155.495 137.599C155.936 137.854 156.371 138.333 156.657 138.923L159.442 144.73L167.443 140.061C167.729 139.893 168.108 139.943 168.488 140.161L168.494 140.167Z" fill="#1E49F1" stroke="#0000F4" stroke-width="1.5" stroke-linecap="round" stroke-linejoin="round"/>
<path d="M146.667 103.575C148.072 104.39 149.21 106.36 149.204 107.977C149.197 109.593 148.06 110.246 146.648 109.431L116.292 91.9064C114.887 91.0921 113.75 89.1276 113.756 87.5112C113.762 85.8949 114.9 85.2359 116.311 86.0503L146.667 103.575Z" fill="white" stroke="#0000F4" stroke-width="1.5" stroke-linecap="round" stroke-linejoin="round"/>
<path d="M146.631 117.588C148.035 118.402 149.173 120.367 149.167 121.989C149.161 123.612 148.023 124.258 146.612 123.444L116.256 105.919C114.851 105.105 113.713 103.14 113.719 101.524C113.725 99.9074 114.863 99.2484 116.274 100.063L146.631 117.588Z" fill="white" stroke="#0000F4" stroke-width="1.5" stroke-linecap="round" stroke-linejoin="round"/>
<path d="M146.593 131.606C147.998 132.421 149.136 134.385 149.129 136.002C149.123 137.618 147.985 138.277 146.574 137.462L116.218 119.938C114.813 119.123 113.675 117.152 113.682 115.536C113.688 113.92 114.826 113.267 116.237 114.081L146.593 131.606Z" fill="white" stroke="#0000F4" stroke-width="1.5" stroke-linecap="round" stroke-linejoin="round"/>
<path d="M126.352 129.81C118.898 121.423 91.2085 119.962 63.4011 125.862C35.5938 131.768 30.005 146.365 21.6124 160.502C21.3265 160.987 21.0219 161.447 20.7172 161.907H7.00317L7.01561 178.574C6.97831 181.141 8.52627 183.671 11.4046 184.455C23.1977 187.656 43.2714 189.938 70.855 181.943C113.371 169.615 126.401 156.865 126.352 146.042C126.333 141.696 126.352 129.81 126.352 129.81Z" fill="#C63E3E" stroke="#0000F4" stroke-width="1.5" stroke-linecap="round" stroke-linejoin="round"/>
<path d="M34.9037 167.856C26.7847 167.856 19.1568 166.905 12.2252 165.021C10.6834 164.605 10.2918 163.349 10.1923 162.827C9.97471 161.683 10.4161 160.582 11.361 159.88C16.7261 155.907 21.0778 151.139 24.3042 145.706C25.1621 144.257 25.989 142.809 26.8158 141.36C34.1204 128.579 40.4241 117.544 64.0414 112.533C71.3833 110.973 78.632 110.184 85.5947 110.184C103.716 110.184 114.739 115.356 118.674 119.776C122.59 124.184 123.97 128.51 122.777 132.645C120.688 139.893 109.827 150.959 69.9722 162.516C57.7688 166.053 45.9694 167.85 34.8975 167.85L34.9037 167.856Z" fill="#EA6A68" stroke="#0000F4" stroke-width="1.5" stroke-linecap="round" stroke-linejoin="round"/>
<path d="M121.03 117.693C113.576 109.307 91.2022 103.557 63.3949 109.462C35.5875 115.368 29.9987 129.965 21.6062 144.102C18.0875 150.026 13.568 154.341 9.49601 157.356C5.43028 160.365 6.5182 166.731 11.4045 168.055C23.1976 171.257 43.2714 173.538 70.8549 165.543C130.436 148.267 132.114 130.164 121.03 117.7V117.693ZM64.0538 112.534C71.3958 110.973 78.6444 110.184 85.6072 110.184C102.181 110.184 112.811 114.504 117.518 118.632C117.499 118.62 117.48 118.613 117.462 118.601C116.759 120.391 115.733 122.281 114.21 124.028C109.069 129.915 102.336 131.159 95.815 128.467C89.2874 125.775 71.5823 122.978 63.9171 124.948C56.2519 126.919 51.695 129.505 48.0707 127.534C45.3851 126.08 43.9801 122.822 44.7137 119.913C49.544 116.829 55.7172 114.305 64.0538 112.54V112.534ZM69.9784 162.522C57.775 166.059 45.9756 167.856 34.9037 167.856C26.7847 167.856 19.1568 166.905 12.2251 165.021C10.6834 164.605 10.2917 163.349 10.1923 162.827C9.97469 161.683 10.4161 160.582 11.361 159.88C12.4303 159.09 13.4436 158.257 14.4321 157.406C18.0502 155.702 24.9321 152.805 31.9072 151.661C42.0591 150.002 42.6808 146.589 57.7998 145.756C70.8176 145.041 82.6667 149.784 88.6223 156.405C83.2448 158.413 77.0716 160.458 69.9659 162.516L69.9784 162.522ZM94.8327 153.962C91.3514 152.787 87.3727 151.307 84.4757 149.796C78.1036 146.483 65.0547 143.169 53.044 143.891C41.0334 144.618 32.2554 149.063 27.2696 150.772C24.242 151.811 21.1834 152.88 19.0511 152.867C21.0404 150.629 22.806 148.242 24.3166 145.693C25.1745 144.245 26.0014 142.796 26.8282 141.348C30.0795 135.66 33.1381 130.313 37.6142 125.694C39.6719 125.651 42.1897 126.117 44.4526 128.038C49.3202 132.178 59.8824 128.66 69.1018 126.484C78.3212 124.308 89.505 129.903 102.038 131.662C111.991 133.061 114.826 124.215 121.428 123.568C121.428 123.568 121.428 123.556 121.434 123.55C123.181 126.645 123.641 129.692 122.789 132.638C121.223 138.066 114.739 145.637 94.8327 153.949V153.962Z" fill="#FFC0C0" stroke="#0000F4" stroke-width="1.5" stroke-linecap="round" stroke-linejoin="round"/>
<path d="M84.4758 134.883C92.74 134.883 99.4394 131.128 99.4394 126.496C99.4394 121.865 92.74 118.11 84.4758 118.11C76.2116 118.11 69.5122 121.865 69.5122 126.496C69.5122 131.128 76.2116 134.883 84.4758 134.883Z" fill="white" stroke="#0000F4" stroke-width="1.5" stroke-linecap="round" stroke-linejoin="round"/>
<path d="M84.4754 131.221C89.78 131.221 94.0802 128.811 94.0802 125.837C94.0802 122.864 89.78 120.454 84.4754 120.454C79.1708 120.454 74.8706 122.864 74.8706 125.837C74.8706 128.811 79.1708 131.221 84.4754 131.221Z" fill="#F09D9B" stroke="#0000F4" stroke-width="1.5" stroke-linecap="round" stroke-linejoin="round"/>
<path d="M135.024 148.945C135.024 148.945 134.427 142.1 132.12 138.675C129.814 135.249 130.112 128.479 131.449 128.106C132.786 127.733 134.501 132.719 135.024 137.407C135.546 142.094 135.098 143.785 136.733 138.513C138.368 133.241 139.263 134.653 139.711 136.81C140.159 138.967 138.741 143.281 139.711 142.84C140.681 142.399 141.197 135.399 142.838 132.048C144.473 128.697 150.951 124.979 151.914 125.868C152.878 126.757 148.041 138.296 144.579 141.796C141.116 145.296 141.346 144.624 142.683 144.177C144.019 143.729 160.17 133.757 163.596 135.026C167.021 136.294 158.386 142.542 152.803 145.445C147.221 148.348 144.84 148.677 145.362 149.479C145.884 150.281 153.699 149.834 158.983 152.215C164.267 154.596 167.058 156.38 164.733 157.947C162.408 159.513 156.303 159.88 148.787 156.678C141.271 153.477 134.943 152.14 135.017 148.939L135.024 148.945Z" fill="#5EC5D1" stroke="#0000F4" stroke-width="1.5" stroke-linecap="round" stroke-linejoin="round"/>
<path d="M82.6356 179.804C80.0743 179.829 78.3772 177.125 79.6143 174.887C80.379 173.495 81.4855 171.816 83.0832 169.858C88.2928 163.461 120.365 146.489 130.187 146.564C140.01 146.638 142.764 154.602 140.084 160.11C137.56 165.301 109.032 179.55 82.6356 179.804Z" fill="#EF9C87" stroke="#0000F4" stroke-width="1.5" stroke-linecap="round" stroke-linejoin="round"/>
<path d="M117.343 167.545C117.331 165.717 116.815 163.473 115.298 160.999C111.431 154.677 104.978 155.74 104.972 155.746C103.99 156.243 103.02 156.753 102.056 157.263C106.066 157.095 109.05 157.207 111.58 159.14C114.111 161.074 115.006 162.864 115.23 165.836C115.286 166.582 115.267 167.383 115.23 168.173C106.949 170.542 97.8478 172.208 88.9827 172.295C86.4215 172.32 84.7243 169.615 85.9614 167.377C86.0174 167.278 86.0858 167.166 86.1479 167.06C84.7865 168.117 83.7296 169.068 83.0893 169.852C81.4978 171.81 80.3913 173.488 79.6204 174.881C78.3833 177.119 80.0866 179.823 82.6417 179.798C109.038 179.537 137.566 165.295 140.09 160.104C140.519 159.221 140.793 158.276 140.936 157.312C135.67 160.613 127.184 164.542 117.35 167.545H117.343Z" fill="#EB7956" stroke="#0000F4" stroke-width="1.5" stroke-linecap="round" stroke-linejoin="round"/>
<path d="M121.85 153.632C123.044 155.715 123.933 159.289 124.841 159.588C125.742 159.886 127.657 158.693 124.088 153.781C122.715 151.891 120.763 150.493 118.873 149.479C118.089 149.778 117.287 150.101 116.467 150.437C118.593 150.978 121.024 152.177 121.85 153.632Z" fill="#EB7956" stroke="#0000F4" stroke-width="1.5" stroke-linecap="round" stroke-linejoin="round"/>
<path d="M99.3769 163.181C101.161 164.841 101.012 168.515 101.012 168.515C101.012 168.515 102.572 165.239 100.415 162.485C99.3831 161.167 97.773 160.62 96.3618 160.402C95.2552 161.042 94.1797 161.683 93.1602 162.311C95.1246 161.844 97.5865 161.521 99.3769 163.181Z" fill="#EB7956" stroke="#0000F4" stroke-width="1.5" stroke-linecap="round" stroke-linejoin="round"/>
<path d="M75.5548 185.3C76.1578 191.237 81.2804 195.67 87.2484 195.433C95.3488 195.11 105.37 193.357 118.239 191.144C133.134 188.576 152.431 181.806 163.067 176.603C165.834 175.248 164.963 171.101 161.886 170.977C153.183 170.616 141.247 171.213 130.629 171.275C116.641 171.356 98.252 171.381 85.3523 172.972C79.2786 173.725 74.9331 179.214 75.5548 185.306V185.3Z" fill="#EF9C87" stroke="#0000F4" stroke-width="1.5" stroke-linecap="round" stroke-linejoin="round"/>
<path d="M150.516 179.077C151.666 175.098 150.217 172.431 148.831 170.921C147.432 170.946 146.015 170.977 144.579 171.008C147.09 172.264 148.526 174.34 148.825 176.74C148.943 177.697 148.775 178.729 148.476 179.736C142.011 181.788 135.341 183.566 129.273 184.722C130.299 183.311 131.213 180.563 130.516 176.74C130.038 174.122 128.813 172.4 127.557 171.281C126.662 171.281 125.754 171.294 124.828 171.3C128.328 173.476 129.118 176.224 129.261 178.748C129.416 181.402 127.769 183.858 127.452 185.058C127.433 185.058 127.408 185.064 127.389 185.07C124.368 185.592 121.508 186.083 118.785 186.543C119.799 183.64 119.681 179.239 118.456 176.18C117.679 174.241 116.417 172.612 115.236 171.399C114.21 171.412 113.178 171.431 112.14 171.449C113.427 172.021 114.676 172.811 115.77 173.948C118.897 177.187 119.326 184.131 117.778 185.443C117.356 185.797 116.865 186.351 116.423 186.935C108.603 188.222 102.025 189.142 96.3867 189.366C90.4187 189.602 85.2961 185.176 84.6931 179.233C84.4631 176.97 84.9231 174.788 85.8991 172.904C85.7126 172.929 85.5199 172.947 85.3396 172.966C79.2659 173.718 74.9204 179.208 75.5421 185.3C76.1451 191.237 81.2677 195.67 87.2357 195.433C95.3361 195.11 105.357 193.357 118.226 191.144C133.121 188.576 152.418 181.806 163.055 176.603C164.236 176.025 164.746 174.937 164.715 173.874C160.437 175.633 155.564 177.43 150.503 179.09L150.516 179.077Z" fill="#EB7956" stroke="#0000F4" stroke-width="1.5" stroke-linecap="round" stroke-linejoin="round"/>
<path d="M94.6897 182.434C94.6524 184.436 95.9206 184.666 95.5849 179.693C95.3922 176.858 94.1862 174.085 93.1853 172.226C92.6009 172.27 92.029 172.32 91.457 172.363C95.4482 176.149 94.6959 182.434 94.6959 182.434H94.6897Z" fill="#EB7956" stroke="#0000F4" stroke-width="1.5" stroke-linecap="round" stroke-linejoin="round"/>
<path d="M77.3823 183.149C77.3823 183.149 79.1665 182.658 79.8938 184.834C80.6212 187.01 77.9418 187.401 77.718 189.13C77.4942 190.858 76.7668 195.881 73.702 200.463C70.6309 205.038 68.2313 206.269 66.6709 206.101C65.1105 205.933 66.1114 202.862 66.8947 200.91C67.678 198.958 69.9657 194.613 69.9657 194.613C69.9657 194.613 64.9427 201.47 61.6478 203.534C58.3529 205.598 58.6327 203.03 59.472 200.854C60.3112 198.678 59.6957 199.679 55.2881 203.646C50.8805 207.606 43.178 208.669 41.114 207.444C39.0501 206.219 41.8414 201.861 47.0883 199.182C52.3352 196.503 56.6869 197.678 58.8068 196.055C60.9267 194.432 67.4604 188.185 68.6292 187.128C69.7979 186.071 67.7899 188.359 58.4151 188.576C49.0403 188.8 44.3529 187.513 46.0252 184.728C47.6975 181.943 55.7357 181.265 59.1984 181.489C62.6611 181.713 67.2366 183.273 67.2366 182.72C67.2366 182.167 60.7091 180.209 54.511 176.634C48.313 173.059 45.7455 164.915 47.5918 163.517C49.4382 162.118 55.5741 164.244 60.4293 169.043C65.2846 173.843 68.0759 178.25 67.964 177.305C67.8521 176.36 66.0119 173.731 66.1238 170.05C66.2357 166.37 67.019 164.468 68.1878 165.363C69.3565 166.258 73.4906 173.544 77.3947 183.155L77.3823 183.149Z" fill="#5EC5D1" stroke="#0000F4" stroke-width="1.5" stroke-linecap="round" stroke-linejoin="round"/>
</svg>
