<svg width="196" height="356" viewBox="0 0 196 356" fill="none" xmlns="http://www.w3.org/2000/svg">
<mask id="path-1-inside-1_179_74" fill="white">
<path d="M196 0L196 24.5517L196 356L92.4 309.352L-3.02464e-07 356L1.41856e-05 24.5517L1.47222e-05 12.2759L1.52588e-05 -8.56743e-06L109.2 -3.79415e-06L196 0Z"/>
</mask>
<path d="M196 0L196 24.5517L196 356L92.4 309.352L-3.02464e-07 356L1.41856e-05 24.5517L1.47222e-05 12.2759L1.52588e-05 -8.56743e-06L109.2 -3.79415e-06L196 0Z" fill="#FC795C"/>
<path d="M196 23.0517L1.42512e-05 23.0517L1.412e-05 26.0517L196 26.0517L196 23.0517ZM196 0L199 1.31134e-07L199 -3L196 -3L196 0ZM196 356L194.768 358.735L199 360.641L199 356L196 356ZM-3.02464e-07 356L-3 356L-3 360.875L1.35204 358.678L-3.02464e-07 356ZM1.52588e-05 -8.56743e-06L1.53899e-05 -3.00001L-2.99998 -3.00001L-2.99998 -8.69857e-06L1.52588e-05 -8.56743e-06ZM92.4 309.352L93.6317 306.616L92.3261 306.028L91.048 306.674L92.4 309.352ZM197.232 353.264L93.6317 306.616L91.1683 312.087L194.768 358.735L197.232 353.264ZM91.048 306.674L-1.35202 353.322L1.35204 358.678L93.752 312.03L91.048 306.674ZM1.51277e-05 2.99999L109.2 3L109.2 -3L1.53899e-05 -3.00001L1.51277e-05 2.99999ZM109.2 3L196 3L196 -3L109.2 -3L109.2 3ZM193 -1.31134e-07L193 24.5517L199 24.5517L199 1.31134e-07L193 -1.31134e-07ZM193 24.5517L193 356L199 356L199 24.5517L193 24.5517ZM3 356L3.00001 24.5517L-2.99999 24.5517L-3 356L3 356ZM3.00001 24.5517L3.00001 12.2759L-2.99999 12.2759L-2.99999 24.5517L3.00001 24.5517ZM3.00001 12.2759L3.00002 -8.4363e-06L-2.99998 -8.69857e-06L-2.99999 12.2759L3.00001 12.2759Z" fill="#FEC5B2" mask="url(#path-1-inside-1_179_74)"/>
<path d="M19.9098 115.763C19.9098 115.763 22.2662 111.192 54.3177 119.495C86.3692 127.798 121.345 133.417 136.963 123.856C152.582 114.295 168.2 107.466 172.426 110.884L174.702 135.613C174.702 135.613 145.254 156.438 114.997 157.086C84.7407 157.733 63.4285 152.694 49.7591 147.975C36.0959 143.256 17.9544 144.397 10.3486 148.302C10.3486 148.302 13.6426 128.451 19.9036 115.763H19.9098Z" fill="#1E49F1" stroke="#0000F5" stroke-width="1.5" stroke-linecap="round" stroke-linejoin="round"/>
<path d="M55.8908 156.839C46.7985 146.266 40.8521 134.416 37.7678 127.316C37.5827 126.897 37.8171 126.416 38.2613 126.292L64.1566 119.304L61.7447 110.372L33.9495 117.872C30.6925 118.748 28.1943 121.555 27.8489 125.133C27.7193 126.508 27.9722 127.89 28.5027 129.161C31.5376 136.458 38.1811 150.424 48.8773 162.865C55.3788 170.428 65.2793 174.524 75.3586 173.815C80.8301 173.432 86.0856 172.883 90.9834 172.18L89.6757 163.02C84.9938 163.686 79.9603 164.216 74.7109 164.58C67.5308 165.086 60.4987 162.187 55.8908 156.826V156.839Z" fill="#F3C254" stroke="#0000F5" stroke-width="1.5" stroke-linecap="round" stroke-linejoin="round"/>
<path d="M154.772 90.8853C152.675 87.9676 149.103 86.8017 145.846 87.6777L118.051 95.1785L120.463 104.111L146.358 97.1216C146.802 97.0044 147.24 97.3005 147.296 97.757C148.202 105.449 149.023 118.681 146.481 132.387C145.198 139.333 140.572 145.378 134.12 148.555C129.395 150.88 124.781 152.959 120.401 154.729L123.88 163.303C128.463 161.447 133.287 159.275 138.203 156.851C147.271 152.391 153.766 143.873 155.58 134.065C158.565 117.934 157.282 102.519 156.234 94.6851C156.049 93.3157 155.574 91.9956 154.772 90.8729V90.8853Z" fill="#F3C254" stroke="#0000F5" stroke-width="1.5" stroke-linecap="round" stroke-linejoin="round"/>
<path d="M141.238 193.134C141.238 193.134 120.166 197.471 110.772 172.038L106.688 173.142C111.37 199.852 90.9772 206.705 90.9772 206.705L89.1821 211.911L145.414 196.737L141.244 193.147L141.238 193.134Z" fill="#F3C254" stroke="#0000F5" stroke-width="1.5" stroke-linecap="round" stroke-linejoin="round"/>
<path d="M104.48 179.557C97.078 179.557 85.2592 175.832 71.0284 158.066C56.7114 140.202 48.0693 113.086 45.0221 102.26C44.8 101.47 44.8987 100.644 45.3058 99.9283C45.7129 99.2128 46.373 98.7008 47.1687 98.4849L124.663 77.5737C124.923 77.4997 125.194 77.4688 125.465 77.4688C126.853 77.4688 128.068 78.4126 128.42 79.7573C131.233 90.6509 137.408 118.428 134.021 141.072C129.715 169.861 117.366 177.022 110.383 178.731C108.533 179.28 106.54 179.557 104.486 179.557H104.48Z" fill="#F3C254"/>
<path d="M125.465 77.9253C126.619 77.9253 127.667 78.6963 127.969 79.8684C130.474 89.5652 136.982 118.101 133.558 140.998C129.364 169.04 117.52 176.504 110.272 178.274C108.674 178.749 106.731 179.089 104.486 179.089C96.6767 179.089 85.1601 174.956 71.392 157.77C56.9146 139.703 48.1861 111.766 45.472 102.124C45.0834 100.736 45.8976 99.2991 47.2917 98.9228L86.036 88.4672L124.78 78.0116C125.009 77.9499 125.237 77.9191 125.459 77.9191M125.465 77C125.157 77 124.848 77.0432 124.546 77.1234L85.8016 87.579L47.0573 98.0346C46.1444 98.2813 45.3795 98.8735 44.9107 99.6939C44.4419 100.514 44.3308 101.47 44.5837 102.377C47.6433 113.234 56.3039 140.418 70.6765 158.35C85.0244 176.257 96.9851 180.014 104.492 180.014C106.583 180.014 108.613 179.73 110.525 179.169C117.619 177.423 130.147 170.163 134.49 141.134C137.888 118.403 131.701 90.5522 128.882 79.6339C128.481 78.0795 127.081 77 125.484 77H125.465Z" fill="#0000F5"/>
<path d="M127.97 79.8684C127.612 78.4743 126.181 77.6415 124.787 78.0178L116.749 80.1829C116.903 80.4173 117.033 80.6764 117.107 80.9663C119.611 90.6632 126.119 119.199 122.696 142.096C118.828 167.961 108.453 176.313 101.174 178.848C104.856 179.372 107.928 178.965 110.266 178.281C117.514 176.504 129.364 169.046 133.552 141.004C136.976 118.107 130.468 89.5714 127.964 79.8745L127.97 79.8684Z" fill="#E0AC44"/>
<path d="M155.578 193.985L79.0083 214.645L84.4959 234.983L161.066 214.323L155.578 193.985Z" fill="#65A0F5" stroke="#0000F5" stroke-width="1.5" stroke-linecap="round" stroke-linejoin="round"/>
<path d="M144.625 204.606L93.813 218.317L97.3723 231.508L148.185 217.798L144.625 204.606Z" fill="#77EEBC" stroke="#0000F5" stroke-width="1.5" stroke-linecap="round" stroke-linejoin="round"/>
<path d="M169.43 212.067L76.1309 237.241L77.5289 242.422L170.828 217.248L169.43 212.067Z" fill="#1E49F1" stroke="#0000F5" stroke-width="1.5" stroke-linecap="round" stroke-linejoin="round"/>
<path d="M104.856 141.356C104.227 139.191 103.616 137.013 103.049 134.897L99.3723 121.284L97.7068 114.332L96.8987 114.029L85.561 119.957L86.3198 122.77L90.9153 121.068L95.2147 137.007C95.7884 139.129 96.3559 141.325 96.9049 143.527L91.3964 146.439L92.0071 148.696L97.7932 147.136L105.911 144.946L111.432 143.459L110.821 141.202L104.85 141.356H104.856Z" fill="white" stroke="#0000F5" stroke-width="1.5" stroke-linecap="round" stroke-linejoin="round"/>
<path d="M19.91 115.763C19.91 115.763 11.6133 136.261 38.4586 162.859C65.3039 189.458 87.5105 198.896 87.5105 198.896C87.5105 198.896 89.2191 183.844 117.28 168.232C145.34 152.613 168.281 140.899 172.432 110.884C172.432 110.884 181.95 117.471 190 142.121C190 142.121 188.291 162.131 159.744 177.016C131.19 191.901 119.235 205.81 112.4 222.65C105.566 239.49 95.5604 245.104 95.5604 245.104C95.5604 245.104 40.1673 203.133 23.3273 185.319C6.48731 167.504 6 148.468 6 148.468C6 148.468 10.1514 128.211 19.91 115.769V115.763Z" fill="#5EC6D2" stroke="#0000F5" stroke-width="1.5" stroke-linecap="round" stroke-linejoin="round"/>
<path d="M135.094 170.915C168.762 155.303 183.85 135.101 184.121 127.384C177.941 114.708 172.432 110.884 172.432 110.884C168.281 140.899 145.346 152.613 117.28 168.232C89.2192 183.851 87.5105 198.896 87.5105 198.896C87.5105 198.896 65.3039 189.458 38.4586 162.859C11.6134 136.261 19.91 115.763 19.91 115.763C15.7339 121.086 12.588 127.835 10.355 133.824C11.6257 141.825 14.895 152.311 22.84 162.859C39.1927 184.579 91.1684 213.126 91.1684 213.126C91.1684 213.126 101.42 186.528 135.094 170.909V170.915Z" fill="#B6FCE1" stroke="#0000F5" stroke-width="1.5" stroke-linecap="round" stroke-linejoin="round"/>
<path d="M81.5949 278.074C105.555 278.074 124.978 258.651 124.978 234.691C124.978 210.732 105.555 191.308 81.5949 191.308C57.6352 191.308 38.2119 210.732 38.2119 234.691C38.2119 258.651 57.6352 278.074 81.5949 278.074Z" fill="#C0E5F5" stroke="#0000F5" stroke-width="1.5" stroke-linecap="round" stroke-linejoin="round"/>
<path d="M81.595 270.592C101.422 270.592 117.496 254.519 117.496 234.691C117.496 214.864 101.422 198.791 81.595 198.791C61.7676 198.791 45.6943 214.864 45.6943 234.691C45.6943 254.519 61.7676 270.592 81.595 270.592Z" fill="#8359E8" stroke="#0000F5" stroke-width="1.5" stroke-linecap="round" stroke-linejoin="round"/>
<path d="M81.5952 262.295C96.8405 262.295 109.199 249.937 109.199 234.691C109.199 219.446 96.8405 207.087 81.5952 207.087C66.3499 207.087 53.9912 219.446 53.9912 234.691C53.9912 249.937 66.3499 262.295 81.5952 262.295Z" fill="#F3C254" stroke="#0000F5" stroke-width="1.5" stroke-linecap="round" stroke-linejoin="round"/>
<path d="M77.9803 219.307C78.5663 219.591 79.1708 219.807 79.7506 220.109C81.5087 221.028 82.5203 222.126 84.6608 222.422C86.024 222.607 87.159 222.219 88.4606 222.108C89.2686 222.04 90.0705 222.071 90.8724 222.052L92.9636 222.496C99.6379 225.531 100.082 233.593 99.5453 239.972C99.2431 243.562 98.4535 249.113 94.2281 250.057C91.3968 250.692 89.1699 249.268 87.6278 246.998C87.2762 246.479 85.364 242.877 85.3455 242.476C85.3331 242.112 85.8513 239.614 86.0055 239.256C86.2091 238.775 86.8321 238.886 87.1775 239.194C87.3502 239.349 87.9609 240.397 88.1275 240.681C89.0651 242.297 90.4777 246.59 92.5441 246.862C95.067 247.195 95.7517 243.58 96.0293 241.748C96.6523 237.695 96.7757 230.935 94.1973 227.536C91.3042 223.73 87.9301 226.247 84.2105 225.722C79.14 225.007 76.7774 219.702 71.5651 223.822C68.3944 226.333 64.9586 234.297 64.7489 238.238C64.6193 240.675 66.1183 242.149 68.4746 240.922C71.5034 239.349 76.1791 233.544 78.7699 232.903C79.9357 232.613 80.9843 232.933 81.8726 233.729C82.4648 234.26 82.7362 235.086 83.1988 235.573C83.3037 235.684 83.2914 235.74 83.4764 235.691C84.0809 235.53 85.5922 233.717 86.2646 233.34C86.4743 233.02 85.913 232.828 85.7649 232.551C85.3948 231.866 85.6847 231.391 86.4188 231.268C87.085 231.157 89.3982 231.138 90.089 231.219C90.7799 231.299 91.0945 231.484 91.1315 232.224C90.7737 233.081 90.7984 236.061 90.1569 236.548C89.3241 237.177 88.5839 235.66 88.4606 235.709C86.6038 237.412 84.5436 240.076 81.7122 238.633C80.8486 238.189 80.423 237.467 79.9295 236.684C79.763 236.425 79.9049 236.122 79.362 236.258C77.4498 237.887 75.6363 239.639 73.687 241.23C71.1209 243.327 68.3081 245.751 64.7797 244.216C62.5529 243.247 61.4055 241.07 61.424 238.695C61.424 238.047 61.5844 237.399 61.5351 236.776C61.7016 236.129 61.7757 235.45 61.9545 234.802C63.5707 228.881 68.3389 218.086 76.0187 218.882L77.9926 219.301L77.9803 219.307Z" fill="#1E49F1"/>
</svg>
