<svg width="198" height="250" viewBox="0 0 198 250" fill="none" xmlns="http://www.w3.org/2000/svg">
<path d="M196.5 1.5L196.5 13.9276L196.5 200.993L94.7242 248.332L1.50001 201.029L1.50001 13.9276L1.50001 6.96378L1.50002 1.49999L110.314 1.5L196.5 1.5Z" fill="#96FEDA" stroke="#1FAB4F" stroke-width="3"/>
<rect x="1.5" y="1.5" width="193" height="18" fill="#96FEDA" stroke="#1FAB4F" stroke-width="3"/>
<g clip-path="url(#clip0_122_388)">
<path d="M176.963 100.17L120.779 67.5201C122.202 68.3435 122.797 70.1804 122.46 72.7871C121.452 80.6608 113.159 85.6404 113.076 85.6891L30.8698 133.151C28.6285 134.447 26.5042 136.912 25.1838 139.753C25.0571 140.026 25.0815 140.284 25.2276 140.367L81.4108 173.016C81.2646 172.933 81.2402 172.675 81.3669 172.402C82.6873 169.562 84.8117 167.092 87.053 165.8L169.264 118.339C169.342 118.295 177.64 113.315 178.648 105.437C178.98 102.825 178.385 100.993 176.967 100.17H176.963Z" fill="#DFC0FB" stroke="#0000F4" stroke-width="1.5" stroke-linecap="round" stroke-linejoin="round"/>
<path d="M164.075 116.477L107.892 83.8279C108.779 84.3443 110.016 84.4077 111.6 83.7207C112.248 83.4381 112.867 83.1262 113.461 82.7852C115.771 81.4501 117.627 79.6864 118.792 77.6936C119.732 76.0808 120.151 74.4534 120 72.9771C119.917 72.1537 119.508 71.5349 118.889 71.1743L175.072 103.824C175.691 104.185 176.1 104.803 176.183 105.627C176.329 107.098 175.91 108.73 174.975 110.343C173.81 112.336 171.954 114.105 169.644 115.435C169.055 115.776 168.431 116.088 167.783 116.37C166.2 117.057 164.962 116.994 164.075 116.477Z" fill="#AA51F6" stroke="#0000F4" stroke-width="1.5" stroke-linecap="round" stroke-linejoin="round"/>
<path d="M165.63 110.938L109.446 78.288C109.315 78.21 109.281 77.9859 109.383 77.7277C110.708 74.3804 112.652 71.8662 114.855 70.5945C115.303 70.3363 115.766 70.1268 116.234 69.9757C117.5 69.5616 118.65 69.6493 119.483 70.1365L175.667 102.786C174.829 102.299 173.684 102.211 172.417 102.625C171.949 102.776 171.486 102.986 171.038 103.244C168.836 104.516 166.887 107.03 165.566 110.377C165.464 110.631 165.498 110.86 165.63 110.938Z" fill="#8359E8" stroke="#0000F4" stroke-width="1.5" stroke-linecap="round" stroke-linejoin="round"/>
<path d="M121.403 66.4774C121.135 66.3215 120.838 66.1948 120.521 66.1071C118.816 65.615 116.618 66.1315 114.358 67.4324C112.672 68.4068 110.952 69.8198 109.378 71.5885C106.464 74.8578 104.949 78.7703 105.422 81.8058C105.646 83.2675 106.299 84.3053 107.254 84.8608L163.437 117.51C162.487 116.96 161.834 115.917 161.605 114.455C161.132 111.42 162.648 107.507 165.561 104.238C167.135 102.469 168.855 101.056 170.541 100.082C172.797 98.7762 174.994 98.2646 176.704 98.7567C177.026 98.8493 177.318 98.9711 177.586 99.127L121.403 66.4774Z" fill="#EAD7FC" stroke="#0000F4" stroke-width="1.5" stroke-linecap="round" stroke-linejoin="round"/>
<path d="M170.541 100.082C172.797 98.7762 174.994 98.2646 176.704 98.7567C178.946 99.3999 179.935 101.651 179.491 105.105C178.371 113.871 169.362 119.264 169.269 119.318L87.0578 166.785C85.0894 167.92 83.2184 170.088 82.0636 172.588C81.9808 172.768 81.8492 172.914 81.7177 172.987C81.63 173.041 81.5374 173.06 81.4643 173.036C81.2743 172.982 81.2305 172.7 81.3718 172.402C82.6922 169.562 84.8165 167.092 87.0578 165.8L169.269 118.339C169.347 118.295 177.645 113.315 178.653 105.437C179.043 102.396 178.171 100.408 176.198 99.8433C174.638 99.395 172.626 99.8676 170.555 101.061C168.996 101.963 167.398 103.273 165.936 104.915C163.344 107.824 162.043 111.147 162.457 113.807C162.808 116.083 164.596 117.754 167.788 116.365C168.436 116.083 169.055 115.771 169.649 115.43C171.959 114.095 173.815 112.331 174.979 110.338C175.92 108.726 176.339 107.098 176.188 105.622C176.008 103.848 174.312 103.015 172.241 103.692C171.847 103.824 171.452 103.999 171.072 104.219C169.167 105.32 167.466 107.522 166.307 110.455C166.229 110.655 166.087 110.821 165.941 110.908C165.868 110.952 165.79 110.972 165.722 110.962C165.517 110.942 165.449 110.679 165.571 110.377C166.896 107.03 168.84 104.516 171.043 103.244C171.491 102.986 171.954 102.776 172.421 102.625C174.838 101.841 176.826 102.869 177.04 105.027C177.216 106.772 176.695 108.784 175.579 110.694C174.253 112.965 172.183 114.952 169.634 116.419C169.011 116.78 168.358 117.106 167.686 117.403C164.538 118.772 162.097 117.588 161.61 114.451C161.137 111.415 162.652 107.503 165.566 104.233C167.14 102.465 168.86 101.052 170.546 100.077L170.541 100.082Z" fill="#989CF6" stroke="#0000F4" stroke-width="1.5" stroke-linecap="round" stroke-linejoin="round"/>
<path d="M50.5933 123.464C50.5933 124.497 49.7016 125.482 48.1863 126.047L28.6677 133.311C27.2255 133.847 25.4276 133.93 23.8684 133.526L11.4293 130.31C10.4548 130.057 9.87988 129.496 9.87988 128.912V130.52C9.88476 131.109 10.4646 131.669 11.4342 131.918L23.8733 135.134C25.4324 135.538 27.2303 135.455 28.6726 134.919L48.1912 127.655C49.7114 127.089 50.603 126.105 50.5982 125.072V123.464H50.5933Z" fill="#1E48F1" stroke="#0000F4" stroke-width="1.5" stroke-linecap="round" stroke-linejoin="round"/>
<path d="M22.5578 129.959L36.0542 111.858C36.3904 111.41 37.2772 111.201 38.0422 111.4L39.8596 111.868C40.3176 111.985 40.644 112.229 40.7317 112.521L44.347 124.249C44.3616 124.302 44.3714 124.356 44.3714 124.41V122.802C44.3665 122.748 44.3567 122.695 44.3421 122.641L40.7268 110.913C40.6391 110.621 40.3127 110.377 39.8547 110.26L38.0373 109.793C37.2772 109.598 36.3856 109.802 36.0494 110.251L22.553 128.351C22.4652 128.468 22.4263 128.59 22.4263 128.712V130.32C22.4263 130.198 22.4701 130.076 22.5578 129.959Z" fill="#5EC6D2" stroke="#0000F4" stroke-width="1.5" stroke-linecap="round" stroke-linejoin="round"/>
<path d="M50.5103 122.928C50.8855 124.147 49.9646 125.384 48.1862 126.047L28.6676 133.311C27.2254 133.847 25.4275 133.93 23.8683 133.526L11.4292 130.31C10.1137 129.969 9.51922 129.063 10.099 128.288L27.5372 104.901C28.117 104.121 29.6518 103.766 30.9673 104.107L43.4064 107.322C44.9656 107.727 46.0814 108.56 46.3883 109.549L50.5103 122.928ZM43.6598 123.562C44.186 123.367 44.454 123.006 44.3419 122.646L40.7267 110.918C40.639 110.626 40.3125 110.382 39.8545 110.265L38.0371 109.797C37.277 109.603 36.3854 109.807 36.0492 110.256L22.5528 128.356C22.2166 128.805 22.5625 129.331 23.3226 129.526L25.14 129.993C25.598 130.11 26.1242 130.086 26.5432 129.93L43.6549 123.557" fill="#8359E8"/>
<path d="M43.6598 123.562C44.186 123.367 44.454 123.006 44.3419 122.646L40.7267 110.918C40.639 110.626 40.3125 110.382 39.8545 110.265L38.0371 109.797C37.277 109.603 36.3854 109.807 36.0492 110.256L22.5528 128.356C22.2166 128.805 22.5625 129.331 23.3226 129.526L25.14 129.993C25.598 130.11 26.1242 130.086 26.5432 129.93L43.6549 123.557M50.5103 122.928C50.8855 124.147 49.9646 125.384 48.1862 126.047L28.6676 133.311C27.2254 133.847 25.4275 133.93 23.8683 133.526L11.4292 130.31C10.1137 129.969 9.51922 129.063 10.099 128.288L27.5372 104.901C28.117 104.121 29.6518 103.766 30.9673 104.107L43.4064 107.322C44.9656 107.727 46.0814 108.56 46.3883 109.549L50.5103 122.928Z" stroke="#0000F4" stroke-width="1.5" stroke-linecap="round" stroke-linejoin="round"/>
<path d="M47.5673 126.276C47.5673 126.276 45.6817 125.409 44.795 124.385C43.9082 123.362 44.3418 122.602 45.5258 121.842C47.0655 120.858 48.8098 120.502 49.4676 120.643L47.5673 126.276Z" fill="#65A0F5" stroke="#0000F4" stroke-width="1.5" stroke-linecap="round" stroke-linejoin="round"/>
<path d="M47.5674 126.276C47.5674 126.276 47.6648 122.719 48.917 121.014C49.9987 119.537 50.5103 122.928 50.5103 122.928C50.5103 122.928 50.7198 123.888 50.2131 124.619C49.414 125.769 47.5723 126.276 47.5723 126.276H47.5674Z" fill="#0000F5" stroke="#0000F4" stroke-width="1.5" stroke-linecap="round" stroke-linejoin="round"/>
<path d="M55.9818 123.357L55.8844 127.119L54.0037 129.745L54.0962 125.983L55.9818 123.357Z" fill="#65A0F5" stroke="#0000F4" stroke-width="1.5" stroke-linecap="round" stroke-linejoin="round"/>
<path d="M54.0963 125.983L54.0037 129.745L48.1179 127.718L48.2105 123.957L54.0963 125.983Z" fill="#7EEFF9" stroke="#0000F4" stroke-width="1.5" stroke-linecap="round" stroke-linejoin="round"/>
<path d="M55.9819 123.357L54.0963 125.983L48.2104 123.957L50.0912 121.325L55.9819 123.357Z" fill="#B6FCE1" stroke="#0000F4" stroke-width="1.5" stroke-linecap="round" stroke-linejoin="round"/>
<path d="M60.5571 156.017C56.9515 156.017 54.4179 155.115 53.0634 154.014C50.9878 152.333 50.2277 149.98 50.9731 147.568C52.1133 143.88 57.2634 139.261 68.0313 138.374C72.3579 138.018 77.6883 138.457 83.3402 138.92C86.0541 139.144 88.8508 139.373 91.6183 139.519C92.1884 139.066 92.7633 138.598 93.3383 138.125C101.197 131.635 110.06 128.161 119.425 127.728C119.766 125.94 119.357 124.468 118.182 123.416C115.356 120.877 108.881 121.252 105.592 124.142C99.8965 129.146 89.6889 134.895 78.1365 136.025C73.0742 136.517 71.9584 134.525 71.744 133.287C71.096 129.521 77.6834 123.674 88.5293 120.975C96.5248 118.987 100.403 115.479 100.106 113.042C99.8916 111.298 97.5188 110.168 94.0545 110.168C88.3928 110.168 83.082 115.113 77.9465 119.898C74.4043 123.201 71.057 126.32 67.6999 127.684C61.4195 130.242 57.1708 128.77 55.3388 127.796C54.7833 127.499 54.6274 126.773 55.0269 126.286C55.329 125.92 55.8455 125.813 56.2597 126.037C57.6873 126.807 61.3172 128.132 66.9447 125.842C69.9607 124.614 73.1765 121.618 76.5822 118.446C82.0003 113.398 87.5986 108.18 94.0496 108.18C99.5505 108.18 101.806 110.567 102.079 112.804C102.454 115.873 99.2582 120.366 89.0068 122.914C78.4386 125.54 73.3519 130.924 73.7027 132.951C73.8586 133.862 75.4811 134.281 77.9368 134.042C89.0165 132.961 98.8051 127.445 104.272 122.646C108.36 119.055 115.907 118.704 119.508 121.935C120.609 122.924 121.9 124.746 121.466 127.684C129.438 127.694 137.74 129.881 146.086 134.266L146.462 134.461L145.541 136.23L145.161 136.03C136.941 131.713 128.77 129.608 120.945 129.696C120.497 130.934 119.766 132.327 118.67 133.886C113.52 141.21 103.049 142.057 92.2615 141.546C82.8335 148.971 74.1656 153.6 66.4721 155.315C64.2601 155.807 62.2819 156.017 60.5522 156.017H60.5571ZM71.5345 140.235C70.3603 140.235 69.2445 140.274 68.1921 140.357C59.0418 141.112 53.9063 144.815 52.8734 148.153C52.3666 149.8 52.8636 151.29 54.3156 152.465C55.8845 153.736 59.8993 154.74 66.0433 153.371C72.8549 151.851 80.7968 147.734 89.226 141.37C87.1894 141.234 85.1625 141.068 83.1697 140.903C79.0087 140.562 75.0182 140.23 71.5296 140.23L71.5345 140.235ZM94.6343 139.641C104.038 139.894 112.794 138.793 117.047 132.741C117.778 131.699 118.353 130.71 118.762 129.779C110.099 130.339 101.918 133.633 94.6343 139.641Z" fill="#65A0F5" stroke="#0000F4" stroke-width="1.5" stroke-linecap="round" stroke-linejoin="round"/>
<path d="M89.231 141.37L91.6184 139.519" stroke="#0000F4" stroke-width="1.5" stroke-linecap="round" stroke-linejoin="round"/>
<path d="M92.2712 141.546L94.6343 139.641" stroke="#0000F4" stroke-width="1.5" stroke-linecap="round" stroke-linejoin="round"/>
<path d="M118.762 129.779L120.95 129.696" stroke="#0000F4" stroke-width="1.5" stroke-linecap="round" stroke-linejoin="round"/>
<path d="M119.425 127.728L121.471 127.679" stroke="#0000F4" stroke-width="1.5" stroke-linecap="round" stroke-linejoin="round"/>
<path d="M152.445 137.156V138.047L147.997 140.63V139.738L152.445 137.156Z" fill="white" stroke="#0000F4" stroke-width="1.5" stroke-linecap="round" stroke-linejoin="round"/>
<path d="M147.997 137.731V140.63L142.159 137.263L142.164 134.359L147.997 137.731Z" fill="#7EEFF9" stroke="#0000F4" stroke-width="1.5" stroke-linecap="round" stroke-linejoin="round"/>
<path d="M151.29 135.952L147.997 137.731L142.164 134.359L145.458 132.585L151.29 135.952Z" fill="#B6FCE1" stroke="#0000F4" stroke-width="1.5" stroke-linecap="round" stroke-linejoin="round"/>
<path d="M188.632 141.887L158.18 159.583C157.166 160.173 155.524 160.173 154.501 159.583L144.859 154.014C143.879 153.449 143.338 152.684 143.343 151.895V153.517C143.338 154.302 143.874 155.067 144.854 155.637L154.496 161.206C155.514 161.795 157.161 161.795 158.175 161.206L188.627 143.509C189.129 143.217 189.382 142.837 189.382 142.452V140.83C189.382 141.214 189.134 141.594 188.632 141.887Z" fill="#1E48F1" stroke="#0000F4" stroke-width="1.5" stroke-linecap="round" stroke-linejoin="round"/>
<path d="M153.278 141.429C153.395 141.078 153.868 140.805 154.467 140.737L174.288 138.53C174.775 138.476 175.282 138.564 175.637 138.768L177.05 139.582C177.347 139.753 177.494 139.977 177.494 140.201V138.578C177.499 138.354 177.352 138.13 177.055 137.96L175.642 137.146C175.286 136.941 174.785 136.854 174.293 136.907L154.472 139.114C153.868 139.183 153.395 139.456 153.283 139.806L149.536 151.295C149.517 151.349 149.512 151.403 149.512 151.456V153.079C149.512 153.025 149.512 152.971 149.531 152.918L153.278 141.429Z" fill="#5EC6D2" stroke="#0000F4" stroke-width="1.5" stroke-linecap="round" stroke-linejoin="round"/>
<path d="M188.622 139.753C189.641 140.342 189.645 141.297 188.632 141.882L158.18 159.578C157.166 160.168 155.524 160.168 154.501 159.578L144.859 154.009C143.65 153.312 143.115 152.314 143.431 151.344L147.704 138.242C148.094 137.049 149.702 136.113 151.763 135.884L174.371 133.365C176.042 133.18 177.767 133.487 178.975 134.184L188.617 139.753H188.622ZM153.493 152.889L177.06 139.192C177.645 138.851 177.64 138.301 177.055 137.96L175.642 137.146C175.287 136.941 174.785 136.854 174.293 136.907L154.472 139.114C153.868 139.183 153.395 139.455 153.283 139.806L149.536 151.295C149.444 151.578 149.6 151.87 149.955 152.075L151.368 152.889C151.958 153.23 152.908 153.23 153.497 152.889" fill="#8359E8"/>
<path d="M153.493 152.889L177.06 139.192C177.645 138.851 177.64 138.301 177.055 137.96L175.642 137.146C175.287 136.941 174.785 136.854 174.293 136.907L154.472 139.114C153.868 139.183 153.395 139.455 153.283 139.806L149.536 151.295C149.444 151.578 149.6 151.87 149.955 152.075L151.368 152.889C151.958 153.23 152.908 153.23 153.497 152.889M188.622 139.753C189.641 140.342 189.645 141.297 188.632 141.882L158.18 159.578C157.166 160.168 155.524 160.168 154.501 159.578L144.859 154.009C143.65 153.312 143.115 152.314 143.431 151.344L147.704 138.242C148.094 137.049 149.702 136.113 151.763 135.884L174.371 133.365C176.042 133.18 177.767 133.487 178.975 134.184L188.617 139.753H188.622Z" stroke="#0000F4" stroke-width="1.5" stroke-linecap="round" stroke-linejoin="round"/>
<path d="M147.421 139.114C147.421 139.114 151.763 139.85 153.263 139.114C154.764 138.379 152.118 135.718 150.506 134.515C148.888 133.311 146.632 134.919 147.426 139.114H147.421Z" fill="#65A0F5" stroke="#0000F4" stroke-width="1.5" stroke-linecap="round" stroke-linejoin="round"/>
<path d="M123.601 119.615L123.562 105.393L95.4675 89.0656L95.5065 103.288C95.5065 103.761 95.6722 104.092 95.9401 104.243L124.034 120.57C123.766 120.414 123.601 120.083 123.601 119.615Z" fill="#F3C254" stroke="#0000F4" stroke-width="1.5" stroke-linecap="round" stroke-linejoin="round"/>
<path d="M111.59 78.5511C111.317 78.3952 110.942 78.4147 110.528 78.6534L96.9585 86.4882L125.052 102.815L138.622 94.9807C139.036 94.7419 139.411 94.7175 139.684 94.8783L111.59 78.5511Z" fill="#F3C254" stroke="#0000F4" stroke-width="1.5" stroke-linecap="round" stroke-linejoin="round"/>
<path d="M123.562 105.393L95.4675 89.0656C95.4675 88.1204 96.1302 86.9656 96.9536 86.493L125.048 102.82C124.224 103.298 123.557 104.448 123.562 105.393Z" fill="#FCFBD6" stroke="#0000F4" stroke-width="1.5" stroke-linecap="round" stroke-linejoin="round"/>
<path d="M138.622 94.9807C139.445 94.5032 140.118 94.8881 140.118 95.8333L140.157 110.056C140.157 111.001 139.494 112.156 138.671 112.628L125.101 120.463C124.278 120.941 123.605 120.556 123.605 119.61L123.566 105.388C123.566 104.443 124.229 103.288 125.052 102.815L138.622 94.9807Z" fill="#EF9C87" stroke="#0000F4" stroke-width="1.5" stroke-linecap="round" stroke-linejoin="round"/>
<path d="M104.788 131.036L104.75 116.814L76.6555 100.486L76.6945 114.709C76.6945 115.181 76.8602 115.513 77.1281 115.664L105.222 131.991C104.954 131.835 104.788 131.504 104.788 131.036Z" fill="#F3C254" stroke="#0000F4" stroke-width="1.5" stroke-linecap="round" stroke-linejoin="round"/>
<path d="M92.7733 89.9719C92.5004 89.816 92.1253 89.8354 91.7111 90.0742L78.1416 97.9089L106.236 114.236L119.805 106.401C120.219 106.163 120.594 106.138 120.867 106.299L92.7733 89.9719Z" fill="#F3C254" stroke="#0000F4" stroke-width="1.5" stroke-linecap="round" stroke-linejoin="round"/>
<path d="M104.745 116.814L76.6506 100.486C76.6506 99.5412 77.3133 98.3864 78.1367 97.9138L106.231 114.241C105.407 114.719 104.74 115.868 104.745 116.814Z" fill="#FCFBD6" stroke="#0000F4" stroke-width="1.5" stroke-linecap="round" stroke-linejoin="round"/>
<path d="M119.805 106.401C120.629 105.924 121.301 106.309 121.301 107.254L121.34 121.477C121.34 122.422 120.677 123.577 119.854 124.049L106.284 131.884C105.461 132.361 104.788 131.976 104.788 131.031L104.75 116.809C104.75 115.864 105.412 114.709 106.236 114.236L119.805 106.401Z" fill="#EF9C87" stroke="#0000F4" stroke-width="1.5" stroke-linecap="round" stroke-linejoin="round"/>
</g>
<defs>
<clipPath id="clip0_122_388">
<rect width="192" height="192" fill="white" transform="translate(3 20)"/>
</clipPath>
</defs>
</svg>
