<svg width="196" height="247" viewBox="0 0 196 247" fill="none" xmlns="http://www.w3.org/2000/svg">
<mask id="path-1-inside-1_125_5" fill="white">
<path d="M196 0L196 17.0345L196 247L92.4 214.635L4.46208e-06 247L1.45142e-05 17.0345L1.48865e-05 8.51723L1.52588e-05 -8.56743e-06L109.2 -3.79415e-06L196 0Z"/>
</mask>
<path d="M196 0L196 17.0345L196 247L92.4 214.635L4.46208e-06 247L1.45142e-05 17.0345L1.48865e-05 8.51723L1.52588e-05 -8.56743e-06L109.2 -3.79415e-06L196 0Z" fill="#3DF0FA"/>
<path d="M196 17.0345L196 15.5345L1.45798e-05 15.5345L1.45142e-05 17.0345L1.44486e-05 18.5345L196 18.5345L196 17.0345ZM196 0L199 1.31134e-07L199 -3L196 -3L196 0ZM196 247L195.105 249.864L199 251.08L199 247L196 247ZM4.46208e-06 247L-3 247L-3 251.23L0.991752 249.831L4.46208e-06 247ZM1.52588e-05 -8.56743e-06L1.53899e-05 -3.00001L-2.99998 -3.00001L-2.99998 -8.69857e-06L1.52588e-05 -8.56743e-06ZM92.4 214.635L93.2946 211.771L92.3461 211.475L91.4083 211.803L92.4 214.635ZM196 247L196.895 244.137L93.2946 211.771L92.4 214.635L91.5054 217.498L195.105 249.864L196 247ZM92.4 214.635L91.4083 211.803L-0.991743 244.169L4.46208e-06 247L0.991752 249.831L93.3917 217.466L92.4 214.635ZM1.52588e-05 -8.56743e-06L1.51277e-05 2.99999L109.2 3L109.2 -3.79415e-06L109.2 -3L1.53899e-05 -3.00001L1.52588e-05 -8.56743e-06ZM109.2 -3.79415e-06L109.2 3L196 3L196 0L196 -3L109.2 -3L109.2 -3.79415e-06ZM196 0L193 -1.31134e-07L193 17.0345L196 17.0345L199 17.0345L199 1.31134e-07L196 0ZM196 17.0345L193 17.0345L193 247L196 247L199 247L199 17.0345L196 17.0345ZM4.46208e-06 247L3 247L3.00001 17.0345L1.45142e-05 17.0345L-2.99999 17.0345L-3 247L4.46208e-06 247ZM1.45142e-05 17.0345L3.00001 17.0345L3.00001 8.51723L1.48865e-05 8.51723L-2.99999 8.51723L-2.99999 17.0345L1.45142e-05 17.0345ZM1.48865e-05 8.51723L3.00001 8.51723L3.00002 -8.4363e-06L1.52588e-05 -8.56743e-06L-2.99998 -8.69857e-06L-2.99999 8.51723L1.48865e-05 8.51723Z" fill="#17C2CE" mask="url(#path-1-inside-1_125_5)"/>
<path d="M129.569 177.382C126.679 177.382 123.557 176.979 120.277 176.18C108.008 173.191 97.5952 165.493 97.0641 159.014C96.994 158.168 97.0933 157.362 97.3501 156.615L108.516 124.554C108.58 124.373 108.749 124.262 108.93 124.262C108.977 124.262 109.029 124.268 109.076 124.286C109.304 124.368 109.426 124.613 109.344 124.846C109.123 125.476 109.047 126.159 109.105 126.883C109.607 133.017 119.722 140.366 131.652 143.272C134.862 144.055 137.915 144.452 140.734 144.452C146.664 144.452 150.826 142.665 151.87 139.683L152.699 139.969L141.534 172.03C140.366 175.386 135.895 177.388 129.574 177.388L129.569 177.382Z" fill="#65A0F5"/>
<path d="M108.936 124.694C108.696 125.371 108.609 126.113 108.673 126.912C109.193 133.228 119.436 140.739 131.553 143.693C134.868 144.498 137.979 144.883 140.74 144.883C146.798 144.883 151.164 143.045 152.291 139.817L141.125 171.878C139.999 175.106 135.633 176.944 129.574 176.944C126.814 176.944 123.703 176.565 120.387 175.754C108.27 172.806 98.027 165.288 97.5076 158.973C97.4434 158.174 97.5368 157.432 97.7702 156.755L108.936 124.694ZM108.107 124.403L96.9414 156.463C96.6613 157.269 96.5562 158.133 96.6321 159.043C97.1866 165.808 107.529 173.518 120.177 176.6C123.487 177.405 126.644 177.814 129.574 177.814C136.088 177.814 140.716 175.701 141.948 172.164L153.102 140.144C153.143 140.039 153.166 139.928 153.166 139.811C153.166 139.327 152.775 138.936 152.291 138.936C151.9 138.936 151.573 139.187 151.456 139.543C150.47 142.333 146.466 144.002 140.74 144.002C137.956 144.002 134.932 143.611 131.757 142.835C120.195 140.021 110.021 132.691 109.543 126.836C109.49 126.177 109.56 125.547 109.759 124.98L108.93 124.694L108.101 124.408L108.107 124.403Z" fill="#0000F4"/>
<path d="M141.119 171.878L152.285 139.817C150.65 144.516 142.135 146.273 131.547 143.693C130.94 143.547 130.339 143.383 129.743 143.214L121.181 167.792C120.195 170.629 116.693 172.392 111.749 172.777C114.428 173.997 117.341 175.024 120.376 175.759C130.958 178.339 139.473 176.582 141.113 171.884L141.119 171.878Z" fill="#3072C1"/>
<path d="M140.74 145.315C137.851 145.315 134.722 144.913 131.448 144.113C119.179 141.125 108.767 133.426 108.235 126.947C108.095 125.261 108.603 123.784 109.735 122.552C111.732 120.387 115.549 119.19 120.487 119.19C123.376 119.19 126.504 119.593 129.779 120.393C142.047 123.381 152.46 131.086 152.991 137.564C153.131 139.251 152.623 140.728 151.491 141.959C149.495 144.125 145.678 145.321 140.74 145.321V145.315Z" fill="#1E49F1"/>
<path d="M120.481 119.628C123.241 119.628 126.352 120.008 129.668 120.819C141.785 123.766 152.028 131.284 152.547 137.599C152.927 142.187 148.065 144.883 140.734 144.883C137.973 144.883 134.862 144.504 131.547 143.693C119.43 140.745 109.187 133.228 108.667 126.912C108.288 122.325 113.15 119.628 120.481 119.628ZM120.481 118.753C115.42 118.753 111.492 119.996 109.408 122.255C108.206 123.562 107.646 125.196 107.792 126.982C108.346 133.747 118.689 141.457 131.337 144.539C134.646 145.345 137.804 145.753 140.734 145.753C145.794 145.753 149.722 144.51 151.806 142.251C153.008 140.944 153.569 139.309 153.417 137.523C152.863 130.759 142.52 123.043 129.872 119.967C126.562 119.161 123.405 118.753 120.481 118.753Z" fill="#0000F4"/>
<path d="M140.191 143.343C137.559 143.343 134.716 142.975 131.734 142.251C120.574 139.531 111.095 132.516 110.611 126.615C110.547 125.838 110.634 125.103 110.874 124.42L127.251 77.394L128.08 77.68C127.882 78.2461 127.812 78.8648 127.864 79.5185C128.319 85.075 137.5 91.7405 148.322 94.3787C151.234 95.0849 154.007 95.4468 156.569 95.4468C161.939 95.4468 165.709 93.8359 166.649 91.1393L167.478 91.4253L151.1 138.451C150.032 141.516 145.952 143.348 140.191 143.348V143.343Z" fill="#65A0F5"/>
<path d="M127.672 77.534C127.456 78.1527 127.374 78.8239 127.432 79.5535C127.905 85.291 137.215 92.1199 148.223 94.7989C151.234 95.5343 154.065 95.8787 156.575 95.8787C162.079 95.8787 166.048 94.2094 167.069 91.2736L150.691 138.3C149.67 141.23 145.701 142.905 140.197 142.905C137.687 142.905 134.862 142.555 131.845 141.825C120.837 139.146 111.527 132.317 111.055 126.58C110.996 125.856 111.078 125.179 111.294 124.56L127.672 77.534ZM126.843 77.248L110.465 124.274C110.208 125.015 110.109 125.815 110.179 126.65C110.687 132.831 120.113 139.87 131.635 142.677C134.646 143.413 137.53 143.786 140.191 143.786C146.238 143.786 150.365 141.895 151.514 138.597L167.88 91.6179C167.921 91.5129 167.945 91.402 167.945 91.2852C167.945 90.8183 167.583 90.4389 167.127 90.4097C167.11 90.4097 167.087 90.4097 167.069 90.4097C167.017 90.4097 166.964 90.4097 166.912 90.4214C166.789 90.4447 166.672 90.4914 166.567 90.5615C166.462 90.6374 166.369 90.7307 166.305 90.8533C166.275 90.9059 166.252 90.9584 166.234 91.0109C165.347 93.5148 161.74 95.009 156.575 95.009C154.048 95.009 151.31 94.653 148.433 93.9526C137.962 91.402 128.74 84.7773 128.308 79.4835C128.261 78.894 128.325 78.3337 128.5 77.8259L127.672 77.5399L126.843 77.2539V77.248Z" fill="#0000F4"/>
<path d="M155.005 95.8378L140.541 137.366C139.648 139.922 136.52 141.516 132.084 141.883C141.592 144.142 149.215 142.537 150.685 138.305L167.063 91.2794C165.948 94.4837 161.314 96.1822 154.999 95.8378H155.005Z" fill="#3072C1"/>
<path d="M156.972 97.5305C154.082 97.5305 150.954 97.1278 147.685 96.3281C135.417 93.3398 125.004 85.6412 124.473 79.1567C124.403 78.3103 124.502 77.5049 124.759 76.7578C124.759 76.7578 132.207 55.3722 132.212 55.3664C135.989 43.9965 146.39 36.3622 158.116 36.3622C158.489 36.3622 158.863 36.368 159.242 36.3855C164.332 36.5898 169.217 39.5548 172.655 44.5218C177.902 52.0978 179.046 62.6447 175.707 72.7246L168.931 92.1724C167.764 95.5285 163.293 97.5305 156.972 97.5305Z" fill="#7EEFF9"/>
<path d="M158.11 36.7999C158.477 36.7999 158.845 36.8057 159.219 36.8232C171.68 37.3252 181.34 54.2924 175.287 72.5845L168.516 92.0265C167.39 95.2542 163.024 97.0927 156.972 97.0927C154.211 97.0927 151.1 96.7134 147.785 95.9021C135.668 92.9487 125.424 85.4369 124.905 79.1216C124.841 78.322 124.934 77.5807 125.167 76.9037L132.615 55.5298C132.615 55.5298 132.615 55.5356 132.615 55.5414C136.105 44.9887 145.899 36.7999 158.11 36.7999ZM158.11 35.9244C146.203 35.9244 135.633 43.6813 131.792 55.2263V55.2379L124.344 76.6118C124.064 77.4173 123.959 78.2811 124.035 79.1917C124.59 85.9564 134.932 93.6724 147.58 96.7484C150.89 97.5538 154.047 97.9624 156.972 97.9624C163.584 97.9624 168.09 95.9021 169.345 92.3125L176.116 72.8705C179.495 62.6447 178.334 51.9577 173.011 44.265C169.497 39.1871 164.483 36.152 159.254 35.9419C158.874 35.9244 158.489 35.9185 158.11 35.9185V35.9244Z" fill="#0000F4"/>
<path d="M156.972 97.5305C154.082 97.5305 150.954 97.1277 147.685 96.3281C147.271 96.2289 146.857 96.118 146.448 96.0071L146.057 95.8962C145.777 95.8203 145.497 95.7386 145.217 95.6569L144.773 95.5168C144.51 95.4351 144.254 95.3534 143.997 95.2717L143.553 95.1257C143.29 95.0382 143.028 94.9448 142.771 94.8514L142.368 94.7055C142.076 94.6004 141.79 94.4896 141.504 94.3787L141.207 94.2619C140.407 93.9467 139.631 93.614 138.89 93.2697C138.493 93.0829 138.137 92.9136 137.781 92.7444L137.611 92.6627C137.302 92.5051 136.993 92.3533 136.689 92.1899L136.508 92.0907C136.205 91.9272 135.901 91.7638 135.604 91.5946L135.463 91.5187C135.131 91.3319 134.804 91.1393 134.477 90.9409C132.749 89.8961 131.197 88.7813 129.854 87.6256C129.697 87.4914 129.656 87.2579 129.761 87.077C129.843 86.9369 129.989 86.8552 130.14 86.8552C130.187 86.8552 130.234 86.861 130.281 86.8785C131.605 87.3221 132.936 87.7073 134.232 88.0283C137.436 88.8105 140.495 89.2074 143.314 89.2074C149.244 89.2074 153.405 87.4213 154.444 84.4388L161.215 64.9968C164.507 55.0453 163.234 44.335 157.9 37.0683C157.8 36.9341 157.789 36.759 157.865 36.6131C157.941 36.4672 158.092 36.3738 158.256 36.3738C158.583 36.3738 158.909 36.3738 159.236 36.3913C164.326 36.5956 169.211 39.5606 172.649 44.5276C177.896 52.1036 179.04 62.6505 175.702 72.7304L168.925 92.1782C167.758 95.5343 163.287 97.5363 156.966 97.5363L156.972 97.5305Z" fill="#5EC6D2"/>
<path d="M158.256 36.8057C158.577 36.8057 158.898 36.8057 159.219 36.8232C171.68 37.3252 181.34 54.2924 175.287 72.5845L168.517 92.0265C167.39 95.2542 163.024 97.0927 156.972 97.0927C154.211 97.0927 151.1 96.7133 147.785 95.902C147.37 95.8028 146.962 95.6978 146.559 95.5869C146.431 95.5518 146.302 95.511 146.168 95.476C145.888 95.4001 145.614 95.3184 145.339 95.2367C145.193 95.19 145.042 95.1433 144.896 95.1024C144.639 95.0207 144.382 94.939 144.125 94.8573C143.979 94.8106 143.833 94.758 143.687 94.7114C143.425 94.6238 143.168 94.5304 142.911 94.4429C142.777 94.3962 142.649 94.3495 142.514 94.297C142.228 94.1919 141.942 94.081 141.662 93.9759C141.563 93.9351 141.464 93.9001 141.364 93.8592C140.582 93.5499 139.818 93.223 139.071 92.8786C139.059 92.8728 139.047 92.867 139.03 92.8611C138.674 92.6977 138.324 92.5284 137.973 92.3592C137.915 92.33 137.862 92.3008 137.804 92.2716C137.495 92.1199 137.191 91.9623 136.894 91.8047C136.835 91.7755 136.771 91.7405 136.713 91.7113C136.409 91.5479 136.111 91.3845 135.814 91.221C135.767 91.1977 135.726 91.1685 135.68 91.1451C135.347 90.9584 135.026 90.7658 134.705 90.5732C134.705 90.5732 134.699 90.5731 134.693 90.5673C132.995 89.5401 131.465 88.4428 130.141 87.2988C131.442 87.7365 132.773 88.1276 134.127 88.4544C137.442 89.2599 140.553 89.6451 143.314 89.6451C149.367 89.6451 153.738 87.8066 154.859 84.5789L161.629 65.1369C165.277 54.0998 163.205 43.5529 158.25 36.8057M158.256 35.9302C157.929 35.9302 157.625 36.117 157.474 36.4088C157.322 36.7065 157.351 37.0567 157.55 37.3252C162.808 44.4868 164.052 55.0395 160.801 64.8684L154.036 84.2987C153.061 87.1003 149.051 88.7755 143.32 88.7755C140.536 88.7755 137.512 88.3844 134.343 87.614C133.059 87.2988 131.74 86.9194 130.427 86.4758C130.333 86.4466 130.24 86.4291 130.146 86.4291C129.837 86.4291 129.545 86.5925 129.388 86.8727C129.177 87.2346 129.259 87.6957 129.574 87.97C130.934 89.1432 132.504 90.2755 134.244 91.3261C134.582 91.5304 134.915 91.723 135.248 91.9156L135.347 91.9681L135.388 91.9915C135.685 92.1607 135.995 92.3242 136.304 92.4934L136.339 92.5109L136.485 92.5868C136.788 92.7502 137.104 92.9078 137.413 93.0596L137.483 93.0946L137.588 93.1471C137.944 93.3222 138.3 93.4915 138.662 93.6608L138.703 93.6783C139.456 94.0226 140.244 94.3612 141.043 94.6763L141.23 94.7522L141.341 94.7931C141.627 94.904 141.919 95.0149 142.211 95.1199C142.322 95.1608 142.438 95.2016 142.549 95.2425L142.613 95.2658C142.876 95.3592 143.139 95.4526 143.401 95.5402C143.553 95.5927 143.699 95.6394 143.851 95.6919C144.108 95.7795 144.37 95.8612 144.633 95.9429L144.732 95.9721C144.849 96.0071 144.966 96.0421 145.082 96.083C145.363 96.1647 145.643 96.2464 145.929 96.3281L146.069 96.369C146.151 96.3923 146.238 96.4157 146.32 96.439C146.734 96.5499 147.149 96.6608 147.569 96.76C150.878 97.5655 154.036 97.9741 156.96 97.9741C163.573 97.9741 168.079 95.9137 169.334 92.3242L176.104 72.8822C179.484 62.6563 178.322 51.9694 172.999 44.2767C169.486 39.1987 164.472 36.1637 159.242 35.9536C158.909 35.9419 158.577 35.936 158.244 35.936L158.256 35.9302Z" fill="#0000F4"/>
<path d="M164.828 73.6643C161.956 73.6643 158.874 73.2674 155.67 72.4911C143.758 69.5903 133.257 61.8158 132.738 55.5122C132.609 53.9305 133.082 52.5414 134.145 51.3915C136.059 49.3137 139.777 48.1755 144.621 48.1755C147.551 48.1755 150.726 48.5841 154.048 49.3954C166.229 52.3604 176.554 59.8722 177.073 66.135C177.202 67.7284 176.717 69.1409 175.632 70.3199C173.641 72.4794 169.807 73.6701 164.828 73.6701V73.6643Z" fill="white"/>
<path d="M144.627 48.6075C147.429 48.6075 150.598 48.9985 153.948 49.8157C165.738 52.6873 176.133 60.0182 176.641 66.1642C177.009 70.6234 172.071 73.2266 164.834 73.2266C162.09 73.2266 159.02 72.853 155.781 72.0651C144.003 69.1993 133.689 61.6232 133.181 55.4772C132.82 51.0822 137.576 48.6075 144.627 48.6075ZM144.627 47.732C139.66 47.732 135.825 48.9285 133.829 51.0939C132.697 52.3254 132.172 53.8663 132.312 55.5473C132.855 62.131 143.291 69.923 155.577 72.9172C158.81 73.7052 161.927 74.1021 164.834 74.1021C169.935 74.1021 173.886 72.8647 175.958 70.6117C177.114 69.3568 177.657 67.7926 177.517 66.0941C177.254 62.8781 174.598 59.3119 170.04 56.0492C165.645 52.9033 160.007 50.3877 154.158 48.9635C150.802 48.1464 147.598 47.732 144.633 47.732H144.627Z" fill="#0000F4"/>
<path d="M164.886 72.6429C162.114 72.6429 159.014 72.246 155.915 71.4872C146.279 69.1409 137.296 63.4793 134.553 58.0162C134.098 57.1115 133.835 56.236 133.765 55.4189C133.642 53.9189 134.185 52.6406 135.376 51.6192C137.214 50.0491 140.489 49.1795 144.586 49.1795C147.417 49.1795 150.604 49.5939 153.808 50.3702C163.579 52.7515 172.614 58.3431 175.293 63.6719C175.731 64.5474 175.988 65.3996 176.058 66.1992C176.18 67.7226 175.62 69.03 174.388 70.0806C172.462 71.7266 169.089 72.6371 164.892 72.6371L164.886 72.6429Z" fill="#C0E5F5"/>
<path d="M144.586 49.6289C147.341 49.6289 150.452 50.0199 153.709 50.8079C163.363 53.1601 172.275 58.6582 174.902 63.882C175.316 64.705 175.556 65.5046 175.62 66.2459C175.731 67.6234 175.223 68.8024 174.102 69.7596C172.211 71.3763 168.908 72.2051 164.886 72.2051C162.184 72.2051 159.16 71.8316 156.02 71.067C146.501 68.7498 137.635 63.1816 134.944 57.8294C134.512 56.9773 134.267 56.1543 134.203 55.3897C134.092 54.0356 134.582 52.8799 135.662 51.9636C137.465 50.4227 140.658 49.6289 144.592 49.6289M144.586 48.7534C140.32 48.7534 137.039 49.6347 135.09 51.2982C133.806 52.3955 133.193 53.8371 133.327 55.4656C133.397 56.3411 133.677 57.2691 134.162 58.2263C136.958 63.7887 146.063 69.5495 155.816 71.925C158.944 72.6896 162.085 73.0923 164.892 73.0923C169.194 73.0923 172.666 72.1468 174.674 70.4366C175.999 69.3043 176.63 67.8335 176.495 66.1875C176.425 65.3295 176.151 64.4249 175.69 63.5027C172.958 58.0687 163.8 52.378 153.919 49.9733C150.68 49.1853 147.458 48.7651 144.592 48.7651L144.586 48.7534Z" fill="#0000F4"/>
<path d="M156.972 97.5305C154.082 97.5305 150.954 97.1277 147.685 96.3281C135.417 93.3397 125.004 85.6412 124.473 79.1566C124.403 78.3103 124.502 77.5048 124.759 76.7577C124.759 76.7577 132.207 55.3722 132.212 55.3663C132.446 54.6543 132.726 53.9247 133.041 53.1951C133.111 53.0317 133.275 52.9266 133.444 52.9266C133.497 52.9266 133.549 52.9383 133.602 52.9558C133.823 53.0433 133.934 53.2885 133.853 53.5103C133.642 54.1056 133.561 54.7476 133.619 55.4305C134.109 61.3898 144.306 68.8082 155.886 71.6273C159.02 72.3919 162.026 72.7771 164.828 72.7771C171.487 72.7771 175.847 70.5942 176.198 67.0864C176.209 66.9521 176.285 66.8354 176.396 66.7595C176.466 66.7128 176.548 66.6895 176.63 66.6895C176.676 66.6895 176.729 66.6953 176.775 66.7128C176.98 66.7829 177.114 66.993 177.079 67.2031C176.764 69.0708 176.303 70.9269 175.713 72.7129L168.937 92.1607C167.769 95.5168 163.299 97.5188 156.977 97.5188L156.972 97.5305Z" fill="#65A0F5"/>
<path d="M133.438 53.3702C133.21 54.0122 133.117 54.7126 133.181 55.4714C133.689 61.6174 144.002 69.1934 155.781 72.0592C159.02 72.8472 162.09 73.2207 164.828 73.2207C171.522 73.2207 176.244 70.9911 176.629 67.1331H176.647C176.343 68.9308 175.9 70.7518 175.293 72.5845L168.522 92.0265C167.396 95.2542 163.03 97.0927 156.977 97.0927C154.217 97.0927 151.106 96.7134 147.79 95.9021C135.673 92.9487 125.43 85.4369 124.911 79.1216C124.846 78.322 124.94 77.5807 125.173 76.9037L132.621 55.5298C132.621 55.5298 132.621 55.5356 132.621 55.5414C132.866 54.806 133.14 54.0823 133.444 53.3702M133.438 52.4947C133.1 52.4947 132.773 52.6931 132.633 53.0258C132.317 53.7671 132.037 54.5083 131.792 55.2263V55.2379L124.344 76.6118C124.064 77.4173 123.959 78.2811 124.035 79.1916C124.59 85.9564 134.932 93.6724 147.58 96.7484C150.89 97.5538 154.047 97.9624 156.972 97.9624C163.584 97.9624 168.09 95.902 169.345 92.3125L176.116 72.8705C176.717 71.0495 177.184 69.1759 177.505 67.279C177.575 66.8529 177.33 66.4385 176.915 66.3043C176.822 66.2751 176.729 66.2576 176.635 66.2576C176.466 66.2576 176.303 66.3043 176.157 66.3977C175.935 66.5436 175.783 66.777 175.754 67.0455C175.433 70.2674 171.143 72.3452 164.822 72.3452C162.055 72.3452 159.079 71.96 155.979 71.2071C144.761 68.4755 134.518 61.0863 134.045 55.3955C133.993 54.7768 134.063 54.1932 134.255 53.6562C134.413 53.2126 134.191 52.7223 133.747 52.5472C133.642 52.5064 133.537 52.4889 133.426 52.4889L133.438 52.4947Z" fill="#0000F4"/>
<path d="M176.566 68.0086C176.566 68.0086 176.513 68.0086 176.484 68.0027C176.244 67.9561 176.093 67.7343 176.134 67.495L176.145 67.4308C176.163 67.3199 176.18 67.209 176.192 67.0981C176.204 66.9638 176.28 66.8471 176.39 66.7712C176.46 66.7245 176.542 66.7012 176.624 66.7012C176.671 66.7012 176.723 66.707 176.77 66.7245C176.974 66.7946 177.108 67.0047 177.073 67.2148C177.062 67.3023 176.992 67.6525 176.992 67.6525C176.951 67.8627 176.77 68.0086 176.56 68.0086H176.566Z" fill="white"/>
<path d="M176.63 67.1331H176.647C176.63 67.2557 176.6 67.3724 176.583 67.495C176.606 67.3782 176.624 67.2557 176.635 67.1331M176.577 67.495C176.577 67.495 176.565 67.5417 176.565 67.565C176.565 67.5417 176.577 67.5183 176.577 67.495ZM176.635 66.2634C176.466 66.2634 176.303 66.3101 176.157 66.4035C175.935 66.5494 175.783 66.7829 175.754 67.0514C175.742 67.1506 175.731 67.244 175.713 67.3432L175.702 67.4191C175.614 67.8919 175.929 68.3471 176.402 68.4347C176.455 68.4463 176.507 68.4522 176.565 68.4522C176.98 68.4522 177.342 68.1603 177.423 67.7401L177.435 67.6642L177.453 67.5592C177.47 67.4716 177.488 67.3782 177.505 67.2907C177.575 66.8646 177.33 66.4502 176.916 66.316C176.822 66.2868 176.729 66.2693 176.635 66.2693V66.2634Z" fill="#0000F4"/>
<path d="M176.56 67.5708C176.56 67.5708 176.56 67.5884 176.56 67.5942C176.56 67.5825 176.56 67.5767 176.56 67.5708ZM176.56 67.5942C176.56 67.5942 176.548 67.6467 176.548 67.6701C176.548 67.6467 176.56 67.6175 176.56 67.5942ZM176.56 66.6953C176.145 66.6953 175.777 66.9872 175.702 67.4074C175.702 67.4074 175.702 67.4249 175.702 67.4366V67.4658L175.684 67.5183C175.596 67.9911 175.906 68.4405 176.373 68.5339C176.431 68.5456 176.489 68.5514 176.542 68.5514C176.945 68.5514 177.312 68.2712 177.4 67.8568C177.406 67.8277 177.412 67.7926 177.418 67.7635C177.418 67.7576 177.418 67.7343 177.418 67.7343C177.505 67.2615 177.19 66.8062 176.717 66.7187C176.665 66.707 176.612 66.7012 176.56 66.7012V66.6953Z" fill="#0000F4"/>
<path d="M168.517 92.0323L175.287 72.5904C175.836 70.9386 176.238 69.2927 176.542 67.6759C175.573 72.2285 168.213 74.2772 158.874 72.7071L152.442 91.1744C151.707 93.2756 149.594 94.7873 146.536 95.5869C146.95 95.6978 147.364 95.8087 147.785 95.9079C158.367 98.4877 166.876 96.7309 168.517 92.0323Z" fill="#3072C1"/>
<path d="M164.828 73.6643C162.954 73.6643 160.97 73.495 158.921 73.1565C158.793 73.1332 158.682 73.0573 158.618 72.9464C158.554 72.8355 158.536 72.7012 158.583 72.5787L161.221 64.9968C162.505 61.1096 163.118 57.1465 163.042 53.2243C163.042 53.0725 163.112 52.9266 163.24 52.8449C163.31 52.7982 163.392 52.7748 163.48 52.7748C163.544 52.7748 163.608 52.7865 163.667 52.8157C171.575 56.6154 176.717 61.7166 177.079 66.1175C177.208 67.7109 176.723 69.1234 175.638 70.3024C173.647 72.4619 169.813 73.6526 164.834 73.6526L164.828 73.6643Z" fill="#B6FCE1"/>
<path d="M163.474 53.2184C170.851 56.7613 176.274 61.7692 176.635 66.1642C177.003 70.6234 172.065 73.2266 164.828 73.2266C163.013 73.2266 161.052 73.0631 158.991 72.7246L161.629 65.1428C162.984 61.0454 163.55 57.0123 163.474 53.2184ZM163.474 52.3429C163.31 52.3429 163.141 52.3896 163.001 52.483C162.744 52.6464 162.592 52.9324 162.598 53.2359C162.68 57.1057 162.073 61.0162 160.801 64.8684L158.162 72.4328C158.075 72.6779 158.104 72.9464 158.238 73.1682C158.373 73.39 158.594 73.5417 158.851 73.5826C160.923 73.927 162.937 74.0962 164.828 74.0962C169.929 74.0962 173.881 72.8588 175.953 70.6059C177.108 69.351 177.651 67.7868 177.511 66.0883C177.137 61.5299 171.902 56.2944 163.853 52.4246C163.731 52.3663 163.602 52.3371 163.474 52.3371V52.3429Z" fill="#0000F4"/>
<path d="M164.898 72.6429C163.118 72.6429 161.227 72.4853 159.266 72.1701C159.137 72.1468 159.026 72.0709 158.962 71.96C158.898 71.8491 158.88 71.7148 158.927 71.5923L161.221 64.9968C162.376 61.4948 162.989 57.9169 163.036 54.3507C163.036 54.199 163.118 54.0589 163.246 53.983C163.316 53.9422 163.398 53.9188 163.474 53.9188C163.538 53.9188 163.608 53.9363 163.666 53.9655C169.363 56.773 173.6 60.3158 175.293 63.6836C175.731 64.5591 175.988 65.4112 176.058 66.2109C176.18 67.7342 175.62 69.0416 174.388 70.0922C172.462 71.7382 169.094 72.6429 164.898 72.6429Z" fill="#93D1EE"/>
<path d="M163.474 54.3566C168.902 57.0356 173.209 60.5143 174.902 63.882C175.316 64.705 175.556 65.5046 175.62 66.2459C175.731 67.6234 175.223 68.8024 174.102 69.7596C172.211 71.3763 168.913 72.2051 164.898 72.2051C163.158 72.2051 161.285 72.0475 159.335 71.7382L161.629 65.1428C162.849 61.454 163.427 57.8177 163.468 54.3624M163.474 53.4811C163.316 53.4811 163.159 53.5219 163.018 53.6095C162.762 53.7671 162.604 54.0414 162.598 54.3449C162.551 57.8644 161.944 61.4015 160.8 64.8626L158.507 71.4405C158.419 71.6857 158.448 71.9542 158.583 72.176C158.717 72.3977 158.939 72.5495 159.195 72.5904C161.174 72.9114 163.094 73.069 164.898 73.069C169.258 73.069 172.637 72.1526 174.668 70.4133C175.993 69.281 176.624 67.8101 176.489 66.1642C176.419 65.3062 176.145 64.4015 175.684 63.4793C173.951 60.0298 169.637 56.4169 163.859 53.5628C163.736 53.5044 163.602 53.4753 163.474 53.4753V53.4811Z" fill="#0000F4"/>
<path d="M166.608 45.1463C165.493 45.1463 164.285 44.9887 163.024 44.6852C158.197 43.5062 154.246 40.547 154.03 37.9439C154.001 37.5878 154.042 37.2435 154.152 36.9224L156.388 30.5079L157.217 30.7939C157.147 30.9982 157.117 31.22 157.141 31.4535C157.322 33.6306 161.133 36.3621 165.47 37.4186C166.666 37.7104 167.799 37.8563 168.849 37.8563C170.974 37.8563 172.45 37.2493 172.806 36.2337C172.871 36.0528 173.04 35.9419 173.221 35.9419C173.268 35.9419 173.32 35.9477 173.367 35.9652C173.594 36.0469 173.717 36.2921 173.635 36.5255L171.4 42.9401C170.91 44.3467 169.164 45.1522 166.614 45.1522L166.608 45.1463Z" fill="#B6FCE1"/>
<path d="M156.802 30.6539C156.715 30.9107 156.68 31.1908 156.703 31.4943C156.902 33.8874 160.783 36.7298 165.365 37.8446C166.62 38.1481 167.799 38.2941 168.849 38.2941C171.143 38.2941 172.795 37.5995 173.221 36.3796L170.985 42.7941C170.559 44.014 168.908 44.7086 166.614 44.7086C165.569 44.7086 164.39 44.5626 163.129 44.2591C158.547 43.1443 154.666 40.296 154.468 37.9088C154.444 37.6053 154.479 37.3252 154.567 37.0684L156.802 30.6539ZM156.802 29.7784C156.44 29.7784 156.102 30.006 155.974 30.3679L153.738 36.7824C153.61 37.1617 153.557 37.5645 153.592 37.9847C153.82 40.763 157.917 43.8973 162.919 45.1171C164.215 45.4323 165.458 45.5957 166.608 45.5957C169.357 45.5957 171.254 44.6852 171.808 43.0918L174.026 36.724C174.067 36.6189 174.091 36.508 174.091 36.3913C174.091 35.9244 173.729 35.545 173.273 35.5158C173.256 35.5158 173.233 35.5158 173.215 35.5158C173.163 35.5158 173.11 35.5158 173.057 35.5333C172.929 35.5567 172.818 35.6034 172.713 35.6792C172.608 35.7551 172.515 35.8485 172.45 35.9652C172.421 36.0119 172.398 36.0645 172.38 36.1228C172.089 36.9224 170.699 37.4361 168.838 37.4361C167.828 37.4361 166.725 37.2902 165.563 37.01C161.028 35.9069 157.713 33.187 157.567 31.436C157.555 31.2609 157.567 31.1033 157.619 30.9574C157.777 30.5021 157.538 30.0001 157.082 29.8426C156.989 29.8075 156.89 29.7959 156.796 29.7959L156.802 29.7784Z" fill="#0000F4"/>
<path d="M169.194 40.6579C167.915 40.6579 166.538 40.477 165.09 40.1268C159.569 38.7844 155.051 35.4049 154.812 32.4399C154.777 32.0372 154.824 31.6519 154.952 31.2959L157.52 23.93C157.584 23.7491 157.754 23.6382 157.935 23.6382C157.981 23.6382 158.034 23.644 158.081 23.6615C158.308 23.7432 158.431 23.9884 158.349 24.216C158.267 24.4553 158.232 24.7238 158.256 25.004C158.466 27.5312 162.867 30.6947 167.869 31.9146C169.246 32.2473 170.554 32.4224 171.762 32.4224C174.231 32.4224 175.952 31.7103 176.373 30.5138C176.437 30.3329 176.606 30.222 176.787 30.222C176.834 30.222 176.886 30.2278 176.933 30.2453C177.161 30.327 177.283 30.5722 177.202 30.8056L174.633 38.1715C174.079 39.7591 172.1 40.6696 169.199 40.6696L169.194 40.6579Z" fill="#8359E8"/>
<path d="M157.929 24.0759C157.824 24.3736 157.783 24.6946 157.812 25.039C158.04 27.7881 162.493 31.0566 167.758 32.3348C169.199 32.685 170.553 32.8543 171.756 32.8543C174.388 32.8543 176.291 32.0547 176.775 30.6539L174.207 38.0198C173.717 39.4206 171.82 40.2202 169.188 40.2202C167.985 40.2202 166.631 40.0568 165.19 39.7007C159.925 38.4167 155.466 35.1481 155.244 32.4049C155.215 32.0547 155.256 31.7337 155.361 31.4418L157.929 24.0759ZM157.929 23.2004C157.567 23.2004 157.228 23.4281 157.1 23.7899L154.532 31.1558C154.386 31.5702 154.333 32.0197 154.368 32.4808C154.625 35.6209 159.289 39.1696 164.979 40.5587C166.456 40.9206 167.874 41.1015 169.182 41.1015C172.281 41.1015 174.412 40.0859 175.03 38.3116L177.581 30.9924C177.622 30.8873 177.645 30.7764 177.645 30.6597C177.645 30.1753 177.254 29.7842 176.77 29.7842C176.378 29.7842 176.052 30.0352 175.935 30.3854C175.579 31.3718 173.974 31.9846 171.744 31.9846C170.571 31.9846 169.299 31.8212 167.956 31.4944C162.616 30.1928 158.845 27.076 158.676 24.9748C158.658 24.7588 158.676 24.5545 158.746 24.3678C158.903 23.9125 158.664 23.4106 158.209 23.253C158.116 23.2179 158.016 23.2063 157.923 23.2063L157.929 23.2004Z" fill="#0000F4"/>
<path d="M171.756 33.2979C170.478 33.2979 169.1 33.1169 167.659 32.7667C162.137 31.4243 157.619 28.0449 157.38 25.0798C157.316 24.286 157.561 23.5623 158.098 22.9786C159.014 21.9864 160.736 21.4377 162.954 21.4377C164.232 21.4377 165.61 21.6187 167.051 21.9689C172.573 23.3172 177.091 26.6908 177.336 29.6558C177.4 30.4496 177.155 31.1733 176.618 31.757C175.701 32.7492 173.98 33.2979 171.762 33.2979H171.756Z" fill="#D5C5FA"/>
<path d="M162.948 21.8755C164.151 21.8755 165.499 22.0389 166.941 22.395C172.211 23.679 176.665 26.9476 176.892 29.6966C177.056 31.6928 174.943 32.866 171.756 32.866C170.553 32.866 169.199 32.7025 167.758 32.3465C162.493 31.0624 158.034 27.7939 157.812 25.0507C157.649 23.0545 159.761 21.8813 162.948 21.8813M162.948 21C160.608 21 158.769 21.5953 157.771 22.681C157.152 23.3522 156.867 24.1927 156.942 25.1149C157.199 28.255 161.863 31.8037 167.553 33.1928C169.03 33.5547 170.448 33.7356 171.756 33.7356C174.096 33.7356 175.935 33.1403 176.933 32.0547C177.552 31.3834 177.838 30.543 177.762 29.6208C177.505 26.4806 172.841 22.9319 167.145 21.5428C165.668 21.1809 164.256 21 162.948 21Z" fill="#0000F4"/>
<path d="M139.38 109.017C136.998 109.537 136.24 111.369 136.315 112.788C136.38 113.978 136.333 115.169 135.545 115.782C134.313 116.739 133.339 118.694 134.635 121.046C135.79 123.136 139.607 125.809 141.382 125.348C142.129 125.155 142.724 124.677 143.069 123.994C143.5 123.142 143.495 122.068 143.057 120.982C142.59 119.821 141.784 118.391 141.347 117.644C141.288 117.539 141.312 117.41 141.411 117.34L141.942 116.949C142.561 116.494 142.736 115.642 142.345 114.976L141.557 113.634L141.925 113.371C142.082 113.26 142.047 113.021 141.866 112.957L140.214 112.373C140.068 112.321 139.911 112.426 139.899 112.583L139.812 114.398C139.8 114.597 140.022 114.714 140.185 114.603L140.518 114.369L141.253 115.618C141.318 115.723 141.288 115.858 141.189 115.928L140.658 116.319C140.039 116.774 139.864 117.62 140.249 118.286C140.67 119.004 141.44 120.369 141.878 121.455C142.175 122.19 142.199 122.908 141.936 123.422C141.761 123.772 141.458 124.017 141.067 124.117C140.168 124.35 136.8 122.331 135.749 120.428C134.839 118.782 135.452 117.463 136.327 116.78C137.576 115.805 137.664 114.177 137.588 112.718C137.565 112.251 137.635 110.692 139.654 110.254C141.679 109.817 144.668 110.033 145.724 111.042C146.098 111.398 146.051 111.86 145.946 112.181C145.742 112.84 145.088 113.552 144.177 113.856C143.897 113.949 143.728 114.241 143.775 114.539C143.833 114.924 144.224 115.175 144.598 115.052C145.765 114.655 146.746 113.745 147.125 112.659C147.137 112.63 147.148 112.601 147.154 112.572C147.452 111.644 147.248 110.756 146.6 110.132C145.047 108.638 141.376 108.585 139.386 109.017H139.38Z" fill="#0000F4"/>
<path d="M127.25 117.294C127.068 117.809 126.778 118.217 126.379 118.519C125.977 118.82 125.498 118.997 124.943 119.051C124.385 119.103 123.779 119.014 123.126 118.783C122.477 118.554 121.954 118.244 121.556 117.853C121.158 117.462 120.899 117.023 120.779 116.535C120.66 116.046 120.692 115.542 120.875 115.023C121.017 114.621 121.197 114.327 121.413 114.142C121.627 113.952 121.841 113.826 122.053 113.762C122.264 113.695 122.435 113.646 122.567 113.614L122.595 113.534L119.558 112.46L119.893 111.512L128.121 114.421L127.797 115.337L126.849 115.001L126.809 115.114C126.897 115.223 127.004 115.373 127.13 115.562C127.253 115.75 127.34 115.987 127.389 116.273C127.436 116.557 127.39 116.898 127.25 117.294ZM126.443 116.865C126.578 116.484 126.592 116.128 126.487 115.795C126.379 115.462 126.172 115.164 125.867 114.903C125.559 114.64 125.172 114.427 124.706 114.262C124.245 114.099 123.819 114.023 123.426 114.035C123.03 114.046 122.69 114.149 122.404 114.343C122.116 114.536 121.903 114.826 121.767 115.211C121.625 115.613 121.61 115.984 121.721 116.325C121.831 116.662 122.038 116.96 122.341 117.218C122.643 117.472 123.011 117.676 123.445 117.829C123.884 117.985 124.307 118.059 124.713 118.052C125.118 118.041 125.472 117.941 125.778 117.75C126.081 117.556 126.303 117.261 126.443 116.865ZM128.782 112.552L122.61 110.371L122.934 109.455L123.866 109.784L123.889 109.72C123.624 109.499 123.448 109.208 123.362 108.846C123.276 108.485 123.298 108.119 123.429 107.749C123.453 107.679 123.485 107.593 123.525 107.489C123.565 107.386 123.597 107.308 123.621 107.257L124.585 107.598C124.566 107.627 124.528 107.696 124.471 107.806C124.412 107.912 124.361 108.027 124.316 108.153C124.21 108.453 124.179 108.743 124.221 109.024C124.262 109.3 124.368 109.546 124.539 109.76C124.709 109.97 124.933 110.125 125.212 110.224L129.117 111.604L128.782 112.552ZM130.27 108.343L124.099 106.161L124.434 105.213L130.605 107.395L130.27 108.343ZM123.241 105.315C123.175 105.5 123.056 105.637 122.883 105.727C122.71 105.813 122.536 105.826 122.359 105.763C122.182 105.701 122.054 105.581 121.975 105.406C121.896 105.227 121.89 105.046 121.955 104.861C122.02 104.676 122.139 104.54 122.311 104.453C122.485 104.364 122.66 104.351 122.836 104.413C123.013 104.476 123.141 104.596 123.219 104.775C123.299 104.95 123.306 105.131 123.241 105.315ZM137.062 122.318L140.775 123.631L140.44 124.579L134.268 122.397L134.592 121.481L135.557 121.822L135.585 121.742C135.323 121.486 135.149 121.178 135.063 120.816C134.974 120.453 135.012 120.039 135.177 119.573C135.324 119.155 135.539 118.819 135.822 118.567C136.101 118.313 136.444 118.16 136.851 118.108C137.256 118.055 137.721 118.122 138.246 118.307L142.167 119.693L141.832 120.642L137.975 119.278C137.49 119.107 137.068 119.099 136.708 119.255C136.346 119.41 136.087 119.708 135.932 120.147C135.825 120.45 135.795 120.743 135.842 121.028C135.89 121.31 136.015 121.564 136.219 121.79C136.422 122.015 136.704 122.191 137.062 122.318ZM140.842 116.281L139.663 115.883L139.731 115.69L137.938 112.019L138.352 110.845L140.244 114.75L140.216 114.831L140.842 116.281ZM142.779 117.961L134.551 115.052L134.886 114.104L143.115 117.013L142.779 117.961ZM144.166 114.04L140.26 115.371L139.84 114.463L144.592 112.834L144.166 114.04Z" fill="#0000F4"/>
<path d="M133.952 129.012C133.79 129.47 133.591 129.843 133.357 130.131C133.126 130.42 132.876 130.64 132.608 130.793C132.344 130.943 132.082 131.045 131.822 131.098L131.559 130.155C131.702 130.109 131.869 130.046 132.06 129.966C132.253 129.887 132.444 129.752 132.632 129.563C132.823 129.371 132.984 129.089 133.116 128.717C133.292 128.219 133.317 127.765 133.19 127.356C133.064 126.946 132.743 126.651 132.229 126.469L130.976 126.026L130.947 126.106C131.035 126.216 131.139 126.364 131.26 126.551C131.379 126.735 131.46 126.969 131.505 127.252C131.547 127.533 131.498 127.874 131.356 128.275C131.179 128.774 130.903 129.179 130.528 129.492C130.153 129.803 129.7 129.994 129.168 130.065C128.638 130.133 128.051 130.054 127.408 129.827C126.776 129.603 126.265 129.298 125.875 128.91C125.482 128.521 125.227 128.082 125.11 127.595C124.99 127.107 125.022 126.603 125.206 126.083C125.348 125.682 125.528 125.386 125.745 125.198C125.961 125.006 126.175 124.877 126.388 124.811C126.6 124.741 126.771 124.69 126.903 124.658L126.937 124.562L125.957 124.215L126.281 123.299L132.629 125.544C133.159 125.731 133.548 126.004 133.795 126.362C134.045 126.719 134.177 127.127 134.189 127.587C134.205 128.044 134.126 128.52 133.952 129.012ZM130.549 127.846C130.684 127.465 130.71 127.113 130.629 126.789C130.548 126.465 130.368 126.177 130.089 125.925C129.811 125.673 129.444 125.466 128.989 125.305C128.544 125.148 128.128 125.076 127.74 125.09C127.353 125.104 127.016 125.208 126.731 125.402C126.445 125.596 126.234 125.886 126.098 126.272C125.956 126.674 125.939 127.044 126.048 127.384C126.158 127.721 126.36 128.018 126.656 128.273C126.952 128.525 127.309 128.725 127.727 128.873C128.156 129.024 128.559 129.091 128.935 129.074C129.31 129.053 129.639 128.943 129.92 128.744C130.199 128.542 130.409 128.242 130.549 127.846ZM133.852 121.981C133.714 122.372 133.515 122.7 133.255 122.967C132.992 123.233 132.687 123.41 132.339 123.498C131.989 123.585 131.613 123.557 131.212 123.415C130.858 123.29 130.596 123.119 130.426 122.902C130.253 122.685 130.144 122.437 130.101 122.159C130.057 121.882 130.054 121.592 130.092 121.289C130.128 120.982 130.178 120.679 130.242 120.379C130.326 119.987 130.398 119.67 130.456 119.428C130.513 119.183 130.529 118.996 130.505 118.867C130.482 118.736 130.395 118.643 130.242 118.589L130.21 118.578C129.814 118.437 129.467 118.437 129.171 118.576C128.875 118.713 128.651 119 128.496 119.436C128.336 119.889 128.31 120.279 128.417 120.606C128.524 120.933 128.672 121.189 128.86 121.373L128.221 122.159C127.902 121.866 127.686 121.548 127.572 121.207C127.456 120.861 127.413 120.515 127.443 120.167C127.47 119.815 127.539 119.484 127.649 119.173C127.719 118.975 127.824 118.756 127.963 118.515C128.1 118.272 128.284 118.055 128.514 117.865C128.745 117.672 129.034 117.547 129.383 117.49C129.732 117.432 130.151 117.49 130.642 117.664L134.707 119.101L134.372 120.049L133.537 119.754L133.52 119.802C133.631 119.914 133.736 120.071 133.836 120.275C133.935 120.479 133.995 120.725 134.014 121.012C134.033 121.299 133.979 121.622 133.852 121.981ZM133.052 121.535C133.184 121.16 133.222 120.818 133.166 120.508C133.11 120.197 132.989 119.934 132.803 119.72C132.617 119.504 132.396 119.35 132.138 119.259L131.271 118.953C131.305 119.01 131.318 119.114 131.309 119.265C131.3 119.412 131.278 119.579 131.245 119.766C131.21 119.95 131.174 120.128 131.137 120.302C131.098 120.472 131.067 120.61 131.045 120.717C130.99 120.975 130.96 121.223 130.957 121.463C130.952 121.699 130.997 121.908 131.093 122.09C131.186 122.268 131.354 122.399 131.595 122.484C131.924 122.601 132.217 122.567 132.472 122.383C132.725 122.195 132.918 121.912 133.052 121.535ZM135.319 117.37L129.148 115.189L129.472 114.273L130.436 114.613L130.465 114.533C130.181 114.288 129.998 113.99 129.917 113.639C129.834 113.287 129.863 112.91 130.005 112.509C130.149 112.101 130.361 111.795 130.642 111.59C130.921 111.381 131.252 111.259 131.635 111.223L131.658 111.158C131.395 110.888 131.226 110.561 131.15 110.179C131.071 109.795 131.11 109.383 131.267 108.941C131.462 108.389 131.794 107.999 132.263 107.77C132.73 107.54 133.327 107.554 134.053 107.811L138.183 109.271L137.848 110.219L133.717 108.759C133.262 108.598 132.893 108.607 132.609 108.787C132.325 108.967 132.124 109.226 132.005 109.563C131.851 109.997 131.864 110.38 132.042 110.711C132.217 111.041 132.505 111.277 132.904 111.418L136.921 112.838L136.581 113.803L132.354 112.308C132.003 112.184 131.68 112.198 131.386 112.35C131.088 112.501 130.876 112.756 130.749 113.115C130.662 113.361 130.646 113.615 130.702 113.876C130.758 114.134 130.88 114.369 131.066 114.583C131.251 114.793 131.495 114.952 131.798 115.059L135.654 116.422L135.319 117.37ZM139.839 104.995C139.629 105.59 139.316 106.056 138.901 106.395C138.485 106.729 137.998 106.93 137.441 106.995C136.883 107.057 136.288 106.976 135.656 106.753C135.024 106.529 134.507 106.217 134.107 105.816C133.704 105.412 133.441 104.954 133.318 104.443C133.192 103.929 133.228 103.393 133.425 102.836C133.538 102.515 133.704 102.216 133.922 101.941C134.14 101.665 134.415 101.441 134.747 101.269C135.076 101.097 135.465 101.003 135.912 100.99C136.36 100.977 136.872 101.072 137.448 101.275L137.85 101.417L136.168 106.174L135.348 105.884L136.689 102.092C136.341 101.969 136.006 101.928 135.683 101.971C135.362 102.011 135.077 102.13 134.829 102.329C134.582 102.525 134.398 102.794 134.277 103.137C134.143 103.515 134.121 103.875 134.211 104.217C134.299 104.555 134.466 104.851 134.711 105.103C134.957 105.356 135.249 105.542 135.589 105.662L136.136 105.855C136.602 106.02 137.025 106.08 137.406 106.033C137.785 105.984 138.111 105.844 138.382 105.614C138.65 105.384 138.852 105.077 138.987 104.694C139.075 104.445 139.12 104.208 139.121 103.982C139.121 103.753 139.076 103.54 138.986 103.342C138.893 103.144 138.754 102.966 138.568 102.81L139.149 101.985C139.426 102.191 139.642 102.45 139.797 102.761C139.95 103.071 140.032 103.417 140.045 103.798C140.055 104.178 139.987 104.577 139.839 104.995ZM141.527 129.575L141.467 130.512C141.306 130.515 141.14 130.546 140.969 130.603C140.796 130.656 140.635 130.756 140.484 130.901C140.333 131.047 140.209 131.258 140.111 131.533C139.978 131.911 139.953 132.257 140.039 132.57C140.122 132.88 140.296 133.081 140.561 133.175C140.797 133.258 141.013 133.239 141.211 133.115C141.408 132.992 141.616 132.765 141.836 132.433L142.385 131.596C142.714 131.092 143.064 130.753 143.436 130.58C143.805 130.406 144.205 130.395 144.636 130.548C144.99 130.673 145.27 130.886 145.476 131.188C145.684 131.488 145.804 131.847 145.837 132.265C145.87 132.683 145.801 133.132 145.632 133.612C145.409 134.241 145.089 134.714 144.67 135.03C144.251 135.346 143.759 135.466 143.195 135.39L143.288 134.41C143.651 134.442 143.957 134.368 144.208 134.188C144.459 134.006 144.653 133.721 144.791 133.332C144.947 132.89 144.977 132.506 144.881 132.18C144.784 131.851 144.603 131.639 144.338 131.545C144.123 131.469 143.917 131.481 143.72 131.58C143.519 131.678 143.328 131.869 143.146 132.154L142.541 133.098C142.208 133.615 141.853 133.957 141.478 134.123C141.102 134.285 140.7 134.291 140.274 134.14C139.926 134.017 139.653 133.811 139.454 133.52C139.256 133.227 139.141 132.884 139.109 132.49C139.077 132.093 139.138 131.678 139.292 131.244C139.507 130.633 139.811 130.201 140.202 129.947C140.594 129.691 141.035 129.567 141.527 129.575ZM146.86 129.728L140.689 127.547L141.024 126.599L147.195 128.78L146.86 129.728ZM139.831 126.701C139.766 126.886 139.646 127.023 139.473 127.112C139.301 127.199 139.126 127.211 138.949 127.149C138.773 127.086 138.645 126.967 138.565 126.791C138.486 126.613 138.48 126.431 138.545 126.246C138.611 126.062 138.729 125.926 138.902 125.839C139.075 125.75 139.25 125.736 139.427 125.799C139.603 125.861 139.731 125.982 139.81 126.16C139.889 126.336 139.896 126.516 139.831 126.701ZM151.133 125.416C150.971 125.874 150.773 126.247 150.538 126.535C150.307 126.824 150.057 127.044 149.789 127.197C149.525 127.347 149.263 127.449 149.003 127.502L148.74 126.559C148.883 126.513 149.05 126.45 149.241 126.37C149.434 126.291 149.625 126.156 149.813 125.967C150.004 125.775 150.165 125.493 150.297 125.121C150.473 124.623 150.498 124.169 150.371 123.76C150.245 123.35 149.925 123.055 149.41 122.873L148.157 122.43L148.128 122.51C148.216 122.619 148.321 122.768 148.441 122.955C148.56 123.139 148.642 123.372 148.686 123.656C148.728 123.936 148.679 124.277 148.537 124.679C148.361 125.177 148.085 125.583 147.709 125.896C147.334 126.207 146.881 126.397 146.349 126.469C145.819 126.537 145.232 126.458 144.589 126.231C143.957 126.007 143.446 125.701 143.056 125.313C142.663 124.924 142.408 124.486 142.291 123.999C142.172 123.511 142.204 123.007 142.387 122.487C142.529 122.085 142.709 121.79 142.926 121.602C143.142 121.41 143.356 121.281 143.569 121.215C143.781 121.145 143.953 121.094 144.084 121.062L144.118 120.966L143.138 120.619L143.462 119.703L149.81 121.947C150.34 122.135 150.729 122.408 150.976 122.766C151.226 123.123 151.358 123.531 151.37 123.991C151.386 124.448 151.307 124.923 151.133 125.416ZM147.73 124.25C147.865 123.869 147.891 123.517 147.81 123.193C147.729 122.869 147.549 122.581 147.27 122.329C146.992 122.077 146.625 121.87 146.17 121.709C145.725 121.552 145.309 121.48 144.922 121.494C144.534 121.507 144.197 121.611 143.912 121.806C143.626 122 143.415 122.29 143.279 122.676C143.137 123.078 143.12 123.448 143.229 123.788C143.339 124.125 143.542 124.421 143.837 124.677C144.133 124.929 144.491 125.129 144.908 125.277C145.337 125.428 145.74 125.495 146.116 125.478C146.492 125.457 146.82 125.347 147.101 125.148C147.38 124.945 147.59 124.646 147.73 124.25ZM146.87 117.889L150.582 119.201L150.247 120.149L142.018 117.24L142.354 116.292L145.375 117.36L145.403 117.28C145.136 117.023 144.959 116.716 144.874 116.361C144.787 116.001 144.829 115.579 145.001 115.095C145.149 114.674 145.364 114.336 145.644 114.079C145.922 113.822 146.265 113.667 146.672 113.615C147.077 113.56 147.545 113.626 148.075 113.813L151.997 115.199L151.661 116.148L147.804 114.784C147.314 114.611 146.89 114.604 146.532 114.764C146.173 114.92 145.914 115.222 145.756 115.669C145.646 115.98 145.613 116.281 145.657 116.574C145.702 116.864 145.826 117.125 146.027 117.356C146.23 117.584 146.511 117.762 146.87 117.889ZM147.387 108.599L148.191 108.883L147.06 112.081L146.257 111.797L147.387 108.599ZM145.108 110.343L145.443 109.394L151.325 111.474C151.593 111.569 151.807 111.601 151.969 111.57C152.128 111.536 152.253 111.466 152.342 111.359C152.429 111.248 152.498 111.123 152.547 110.984C152.584 110.879 152.609 110.792 152.622 110.721C152.632 110.649 152.64 110.592 152.646 110.549L153.566 110.657C153.568 110.73 153.56 110.828 153.543 110.952C153.529 111.077 153.491 111.227 153.429 111.404C153.334 111.672 153.184 111.914 152.978 112.13C152.772 112.344 152.522 112.494 152.227 112.579C151.932 112.662 151.606 112.64 151.247 112.513L145.108 110.343Z" fill="#0000F4"/>
<path d="M129.568 205.999C128.22 205.999 127.006 205.783 125.955 205.357C125.068 205.001 124.304 204.493 123.679 203.851L96.7429 176.045L97.3733 175.438C97.9103 175.993 98.5698 176.431 99.3461 176.74C100.292 177.119 101.395 177.318 102.632 177.318C109.776 177.318 120.072 171.084 127.666 162.154C135.388 153.072 138.207 143.605 134.36 139.636L134.991 139.029L161.927 166.835C166.158 171.201 163.421 180.948 155.267 190.532C147.516 199.643 136.952 206.005 129.568 206.005V205.999Z" fill="#65A0F5"/>
<path d="M134.67 139.333L161.606 167.139C165.551 171.213 162.977 180.785 154.929 190.246C147.113 199.427 136.648 205.561 129.562 205.561C128.296 205.561 127.134 205.363 126.113 204.954C125.267 204.61 124.56 204.137 123.988 203.548L97.0521 175.742C97.6241 176.331 98.3304 176.804 99.1767 177.149C100.192 177.557 101.354 177.756 102.626 177.756C109.712 177.756 120.177 171.621 127.992 162.44C136.041 152.979 138.615 143.407 134.67 139.333ZM135.3 138.726L134.67 139.333L134.039 139.94C137.722 143.745 134.897 152.967 127.327 161.868C119.809 170.705 109.654 176.88 102.626 176.88C101.447 176.88 100.402 176.699 99.5094 176.337C98.7915 176.045 98.1786 175.643 97.6825 175.135C97.5132 174.96 97.2798 174.866 97.0521 174.866C96.8303 174.866 96.6144 174.948 96.4451 175.112C96.1008 175.45 96.0891 176.005 96.4276 176.349L123.364 204.155C124.029 204.838 124.841 205.381 125.792 205.76C126.895 206.204 128.167 206.431 129.568 206.431C137.068 206.431 147.773 200.005 155.6 190.806C163.905 181.047 166.631 171.061 162.236 166.526L135.3 138.72V138.726Z" fill="#0000F4"/>
<path d="M161.612 167.133L134.675 139.327C138.621 143.401 136.047 152.973 127.998 162.434C127.537 162.977 127.064 163.502 126.586 164.028L147.236 185.337C149.617 187.795 149.623 192.26 147.481 197.495C150.096 195.394 152.635 192.948 154.94 190.234C162.989 180.773 165.563 171.201 161.617 167.127L161.612 167.133Z" fill="#3072C1"/>
<path d="M102.632 178.193C101.284 178.193 100.07 177.977 99.0191 177.551C96.9763 176.728 95.6105 175.123 95.0677 172.917C93.8011 167.763 96.9938 159.884 103.397 152.349C111.148 143.237 121.712 136.875 129.096 136.875C130.444 136.875 131.658 137.091 132.708 137.518C134.751 138.34 136.111 139.946 136.654 142.152C137.921 147.306 134.728 155.185 128.325 162.72C120.574 171.831 110.01 178.193 102.626 178.193H102.632Z" fill="#1E49F1"/>
<path d="M129.101 137.319C130.374 137.319 131.529 137.518 132.551 137.926C139.251 140.634 137.208 151.607 127.998 162.44C120.183 171.621 109.718 177.756 102.632 177.756C101.365 177.756 100.204 177.557 99.1825 177.149C92.482 174.44 94.519 163.467 103.735 152.635C111.545 143.453 122.016 137.319 129.101 137.319ZM129.101 136.444C121.601 136.444 110.891 142.87 103.07 152.068C96.5735 159.703 93.3458 167.734 94.6474 173.022C95.2253 175.374 96.6786 177.079 98.8557 177.96C99.9588 178.403 101.231 178.631 102.632 178.631C110.132 178.631 120.837 172.205 128.664 163.006C135.16 155.372 138.387 147.341 137.086 142.053C136.508 139.7 135.055 137.996 132.878 137.115C131.775 136.671 130.502 136.444 129.101 136.444Z" fill="#0000F4"/>
<path d="M103.198 175.543C101.973 175.543 100.864 175.345 99.9006 174.96C99.0893 174.633 98.3889 174.166 97.8169 173.582L58.3084 132.801C58.1392 132.626 58.145 132.352 58.3201 132.183C58.4077 132.101 58.5127 132.06 58.6236 132.06C58.7345 132.06 58.8513 132.107 58.9388 132.194C59.4232 132.691 60.0186 133.087 60.719 133.373C61.5711 133.718 62.5751 133.893 63.6899 133.893C70.1686 133.893 79.5131 128.231 86.4062 120.13C93.416 111.895 95.9725 103.309 92.4938 99.7192L93.1242 99.1122L132.633 139.893C136.497 143.879 134.004 152.757 126.586 161.483C119.535 169.771 109.922 175.555 103.204 175.555L103.198 175.543Z" fill="#65A0F5"/>
<path d="M92.8031 99.4099L132.312 140.191C135.895 143.891 133.561 152.594 126.241 161.191C119.144 169.538 109.63 175.112 103.192 175.112C102.037 175.112 100.986 174.931 100.058 174.557C99.2876 174.248 98.6456 173.816 98.1261 173.279L58.6177 132.498C59.1372 133.035 59.7792 133.467 60.5496 133.776C61.4718 134.15 62.5283 134.331 63.6839 134.331C70.1218 134.331 79.6356 128.757 86.733 120.41C94.0521 111.807 96.3868 103.11 92.8031 99.4099ZM92.8031 98.5344C92.5813 98.5344 92.3653 98.6161 92.1961 98.7795C91.8517 99.118 91.84 99.6725 92.1786 100.017C95.4471 103.385 92.8206 111.912 86.0734 119.844C79.2562 127.858 70.0517 133.455 63.6898 133.455C62.6333 133.455 61.6878 133.292 60.8823 132.965C60.2403 132.708 59.6916 132.346 59.2539 131.891L58.6235 132.498L57.9932 133.105L97.5016 173.886C98.1145 174.516 98.8616 175.012 99.7312 175.368C100.741 175.777 101.908 175.987 103.192 175.987C110.033 175.987 119.786 170.139 126.913 161.763C134.489 152.856 136.969 143.739 132.942 139.584L93.4335 98.8028C93.2642 98.6277 93.0307 98.5344 92.8031 98.5344Z" fill="#0000F4"/>
<path d="M91.2681 114.031L126.154 150.037C128.302 152.255 128.325 156.259 126.422 160.969C133.596 152.442 135.866 143.856 132.312 140.185L92.8031 99.404C95.4938 102.182 94.8518 107.774 91.2681 114.025V114.031Z" fill="#3072C1"/>
<mask id="mask0_125_5" style="mask-type:luminance" maskUnits="userSpaceOnUse" x="58" y="99" width="76" height="77">
<path d="M92.8031 99.4099L132.312 140.191C135.895 143.891 133.561 152.594 126.241 161.191C117.872 171.032 106.146 177.014 100.058 174.557C99.2876 174.248 98.6456 173.816 98.1261 173.279L58.6177 132.498C59.1371 133.035 59.7792 133.467 60.5496 133.776C66.6373 136.233 78.3631 130.251 86.7329 120.41C94.0521 111.807 96.3868 103.11 92.8031 99.4099Z" fill="white"/>
</mask>
<g mask="url(#mask0_125_5)">
<path d="M95.1377 171.347L95.1261 175.444L93.8303 169.088L93.842 164.997L95.1377 171.347Z" fill="#FCFBD6"/>
<path d="M112.017 166.666L112.006 170.757L107.453 176.571L107.465 172.479L112.017 166.666Z" fill="#F3C254"/>
<path d="M96.3692 175.759L96.3576 179.851L85.5364 178.584L85.5481 174.487L96.3692 175.759Z" fill="#F3C254"/>
<path d="M114.959 177.184L103.992 176.454L98.5989 182.022L96.3751 175.759L85.5481 174.493L95.1436 171.353L93.8478 165.002L102.002 169.327L112.023 166.672L107.471 172.485L114.959 177.195V177.184Z" fill="#FCFBD6"/>
<path d="M95.1377 167.255L95.1261 171.347L93.8303 164.997L93.842 160.905L95.1377 167.255Z" fill="#FCFBD6"/>
<path d="M112.017 162.569L112.006 166.666L107.453 172.479L107.465 168.382L112.017 162.569Z" fill="#F3C254"/>
<path d="M96.3692 171.662L96.3576 175.759L85.5364 174.487L85.5481 170.396L96.3692 171.662Z" fill="#F3C254"/>
<path d="M114.959 173.092L114.947 177.184L103.974 176.454L103.986 172.362L114.959 173.092Z" fill="#FCFBD6"/>
<path d="M98.5931 177.931L98.5814 182.022L96.3577 175.759L96.3693 171.662L98.5931 177.931Z" fill="#FCFBD6"/>
<path d="M114.959 173.092L103.992 172.362L98.5989 177.931L96.3751 171.668L85.5481 170.401L95.1436 167.261L93.8478 160.911L102.002 165.236L112.023 162.58L107.471 168.394L114.959 173.104V173.092Z" fill="#FCFBD6"/>
<path d="M103.986 172.362L103.974 176.454L98.5813 182.022L98.593 177.931L103.986 172.362Z" fill="#F3C254"/>
<path d="M95.1377 163.158L95.1261 167.255L93.8303 160.905L93.842 156.808L95.1377 163.158Z" fill="#FCFBD6"/>
<path d="M112.017 158.477L112.006 162.569L107.453 168.382L107.465 164.29L112.017 158.477Z" fill="#F3C254"/>
<path d="M96.3692 167.571L96.3576 171.662L85.5364 170.396L85.5481 166.298L96.3692 167.571Z" fill="#F3C254"/>
<path d="M114.959 168.995L114.947 173.092L103.974 172.362L103.986 168.265L114.959 168.995Z" fill="#FCFBD6"/>
<path d="M98.5931 173.833L98.5814 177.931L96.3577 171.662L96.3693 167.571L98.5931 173.833Z" fill="#FCFBD6"/>
<path d="M114.959 168.995L103.992 168.265L98.5989 173.833L96.3751 167.571L85.5481 166.304L95.1436 163.164L93.8478 156.814L102.002 161.139L112.023 158.483L107.471 164.296L114.959 169.006V168.995Z" fill="#FCFBD6"/>
<path d="M103.986 168.265L103.974 172.362L98.5813 177.931L98.593 173.833L103.986 168.265Z" fill="#F3C254"/>
<path d="M95.1377 159.067L95.1261 163.158L93.8303 156.808L93.842 152.716L95.1377 159.067Z" fill="#FCFBD6"/>
<path d="M112.017 154.38L112.006 158.477L107.453 164.29L107.465 160.193L112.017 154.38Z" fill="#F3C254"/>
<path d="M96.3692 163.473L96.3576 167.571L85.5364 166.298L85.5481 162.207L96.3692 163.473Z" fill="#F3C254"/>
<path d="M114.959 164.903L114.947 168.995L103.974 168.265L103.986 164.174L114.959 164.903Z" fill="#FCFBD6"/>
<path d="M98.5931 169.742L98.5814 173.833L96.3577 167.571L96.3693 163.473L98.5931 169.742Z" fill="#FCFBD6"/>
<path d="M114.959 164.903L103.992 164.174L98.5989 169.742L96.3751 163.479L85.5481 162.212L95.1436 159.072L93.8478 152.722L102.002 157.047L112.023 154.391L107.471 160.205L114.959 164.915V164.903Z" fill="#FCFBD6"/>
<path d="M103.986 164.174L103.974 168.265L98.5813 173.833L98.593 169.742L103.986 164.174Z" fill="#F3C254"/>
<path d="M97.5425 162.323L105.848 157.403L101.599 158.53L96.6903 155.932L97.4724 159.749L91.7 161.641L97.5425 162.323Z" fill="#F3C254"/>
<path d="M105.352 159.837L98.6982 163.783L99.5504 166.176L102.796 162.825L109.397 163.263L104.885 160.432L105.352 159.837Z" fill="#F3C254"/>
<path d="M99.9996 142.8H95.9431C95.9431 142.8 96.4859 145.975 99.9996 145.975C103.513 145.975 104.056 142.8 104.056 142.8H99.9996Z" fill="#0000F5"/>
<path d="M90.9177 139.321L94.8575 139.537L93.4392 133.724C93.4392 133.724 91.9158 136.8 90.9177 139.321Z" fill="#EB7956"/>
<path d="M109.659 140.611L105.719 140.827L106.461 134.097C106.461 134.097 108.661 138.09 109.659 140.611Z" fill="#EB7956"/>
<path d="M99.9938 144.749C98.4938 144.749 97.0696 144.405 96.0015 143.786C94.875 143.132 94.2505 142.251 94.2447 141.3C94.2447 141.148 94.1571 140.78 94.0404 140.319C93.626 138.621 92.768 135.084 93.1415 129.79C93.3692 126.539 93.8594 124.035 94.2096 122.202L94.2797 121.846C94.3089 121.706 94.4256 121.607 94.5657 121.607C94.5774 121.607 94.5949 121.607 94.6065 121.607C94.6474 121.613 98.844 122.214 99.9763 122.214C101.109 122.214 105.34 121.613 105.381 121.607C105.393 121.607 105.41 121.607 105.422 121.607C105.562 121.607 105.679 121.706 105.708 121.846L105.778 122.196C106.134 124.029 106.618 126.533 106.852 129.784C107.225 135.072 106.367 138.609 105.953 140.313C105.842 140.774 105.755 141.142 105.749 141.294C105.749 142.245 105.118 143.132 103.992 143.78C102.918 144.399 101.5 144.743 99.9938 144.743V144.749Z" fill="white"/>
<path d="M105.428 121.904C105.772 123.69 106.321 126.358 106.56 129.813C107.045 136.63 105.463 140.488 105.457 141.294C105.457 142.105 104.914 142.911 103.846 143.529C102.778 144.142 101.389 144.451 99.9938 144.457C98.6047 144.457 97.2097 144.148 96.1416 143.529C95.0735 142.911 94.5365 142.099 94.5307 141.294C94.5307 140.483 92.9431 136.63 93.4275 129.813C93.6727 126.358 94.2213 123.69 94.5599 121.904C94.5599 121.904 98.8031 122.517 99.9704 122.517H100.005C101.173 122.517 105.416 121.904 105.416 121.904M105.428 121.321C105.428 121.321 105.369 121.321 105.346 121.327C105.305 121.332 101.132 121.934 100.017 121.934H99.9821C98.8732 121.934 94.6941 121.332 94.6532 121.327C94.6241 121.327 94.5949 121.321 94.5715 121.321C94.2972 121.321 94.0521 121.513 93.9995 121.794L93.9295 122.15C93.591 123.883 93.0832 126.504 92.8555 129.772C92.4762 135.107 93.3458 138.673 93.7602 140.389C93.8536 140.78 93.9528 141.183 93.9528 141.3C93.9528 142.362 94.6357 143.331 95.8556 144.037C96.9704 144.679 98.4412 145.041 99.9938 145.041C101.546 145.041 103.017 144.679 104.138 144.037C105.358 143.331 106.035 142.356 106.041 141.3C106.041 141.183 106.14 140.78 106.233 140.389C106.648 138.673 107.517 135.107 107.138 129.772C106.904 126.504 106.397 123.883 106.064 122.15L105.994 121.794C105.941 121.513 105.696 121.321 105.422 121.321H105.428Z" fill="#0000F4"/>
<path d="M105.428 121.904C105.428 121.904 103.525 122.179 101.914 122.36C102.754 124.916 103.542 128.424 103.455 132.492C103.332 138.376 102.229 142.397 101.558 144.323C102.398 144.177 103.186 143.915 103.852 143.529C104.92 142.911 105.457 142.099 105.463 141.294C105.463 140.483 107.05 136.63 106.566 129.813C106.321 126.358 105.772 123.69 105.433 121.904H105.428Z" fill="#AABDF9"/>
<path d="M99.9935 125.751C98.4935 125.751 97.0752 125.406 96.0012 124.788C94.8748 124.134 94.2502 123.253 94.2444 122.301C94.2444 121.397 94.9156 119.506 95.3942 118.455C96.8592 115.256 98.546 111.988 99.976 111.988H100.011C101.447 111.988 103.134 115.256 104.593 118.455C105.071 119.506 105.748 121.397 105.743 122.301C105.743 123.253 105.112 124.14 103.986 124.788C102.912 125.406 101.494 125.751 99.9877 125.751H99.9935Z" fill="#EF9C87"/>
<path d="M100.017 112.274C101.412 112.274 103.396 116.523 104.336 118.572C104.85 119.692 105.463 121.484 105.463 122.295C105.463 123.107 104.92 123.912 103.852 124.531C102.784 125.144 101.394 125.453 99.9995 125.459C98.6103 125.459 97.2154 125.15 96.1473 124.531C95.0792 123.912 94.5422 123.101 94.5363 122.295C94.5363 121.484 95.1492 119.692 95.6628 118.572C96.6025 116.523 98.587 112.274 99.982 112.274C99.9878 112.274 99.9936 112.274 99.9995 112.274C100.005 112.274 100.011 112.274 100.017 112.274ZM100.017 111.69C100.017 111.69 100.005 111.69 99.9995 111.69C99.9936 111.69 99.9878 111.69 99.982 111.69C98.6921 111.69 97.2854 113.616 95.1317 118.332C94.6706 119.336 93.9468 121.297 93.9527 122.301C93.9527 123.364 94.6356 124.332 95.8554 125.039C96.9702 125.681 98.4411 126.043 99.9936 126.043C101.546 126.043 103.017 125.681 104.138 125.039C105.358 124.332 106.035 123.358 106.04 122.301C106.04 121.297 105.323 119.336 104.861 118.332C102.708 113.616 101.301 111.69 100.011 111.69H100.017Z" fill="#0000F4"/>
<path d="M104.336 118.578C103.42 116.576 101.506 112.472 100.111 112.286C100.922 113.92 102.264 117.72 102.393 125.132C102.918 124.98 103.408 124.788 103.846 124.531C104.914 123.912 105.451 123.101 105.457 122.295C105.457 121.484 104.844 119.692 104.331 118.572L104.336 118.578Z" fill="#ED8A6E"/>
<path d="M99.4333 113.972C98.8964 114.655 98.0267 116.074 96.6726 119.039C96.1415 120.194 95.6453 121.776 95.6512 122.295C95.6512 122.722 96.0364 123.188 96.7076 123.574C97.2913 123.912 98.0384 124.146 98.8497 124.262L99.4333 113.972Z" fill="#F6CDC3"/>
<path d="M96.2466 133.607L97.5073 144.183L91.2387 151.391C91.2387 151.391 90.7134 143.243 96.2466 133.607Z" fill="#EF9C87"/>
<path d="M92.4878 148.257C92.768 145.706 93.5326 141.79 95.5696 137.337L96.34 143.821L92.4878 148.251V148.257Z" fill="#F6CDC3"/>
<path d="M104.768 133.134L103.507 143.71L109.776 150.919C109.776 150.919 110.301 142.771 104.768 133.134Z" fill="#EF9C87"/>
<path d="M108.527 147.784C108.247 145.234 107.482 141.317 105.445 136.864L104.675 143.348L108.527 147.778V147.784Z" fill="#F6CDC3"/>
<path d="M98.1728 126.819C99.5678 127.595 100.397 129.498 100.023 131.068C99.6495 132.638 98.2254 133.286 96.8304 132.515C95.4354 131.745 94.6125 129.842 94.9802 128.266C95.3479 126.69 96.7779 126.043 98.167 126.819H98.1728Z" fill="white"/>
<path d="M97.8752 127.817C98.7798 128.319 99.3168 129.55 99.0775 130.572C98.8382 131.593 97.9102 132.014 97.0113 131.512C96.1125 131.01 95.5697 129.778 95.809 128.757C96.0483 127.735 96.9763 127.315 97.8752 127.817Z" fill="#65A0F5"/>
<path d="M97.6182 131.021C96.7135 130.519 96.1766 129.288 96.4159 128.266C96.4684 128.039 96.556 127.846 96.6669 127.683C96.2583 127.834 95.9314 128.208 95.803 128.751C95.5637 129.772 96.1007 131.004 97.0054 131.506C97.7116 131.897 98.4237 131.728 98.8206 131.15C98.4587 131.284 98.0326 131.255 97.6124 131.021H97.6182Z" fill="#0000F5"/>
<g opacity="0.55">
<path d="M91.2681 114.031L126.154 150.037C128.302 152.255 128.325 156.259 126.422 160.969C133.596 152.442 135.866 143.856 132.312 140.185L92.8031 99.404C95.4938 102.182 94.8518 107.774 91.2681 114.025V114.031Z" fill="#3072C1"/>
</g>
</g>
<path d="M62.2773 137.173C60.929 137.173 59.715 136.957 58.6644 136.531C57.7772 136.169 57.0068 135.667 56.3881 135.025L38.4228 116.482C28.3837 106.426 26.1775 91.4837 32.9363 79.2908C36.3158 73.1915 43.4657 69.5494 52.0515 69.5494C61.361 69.5494 70.9273 73.7752 78.2931 81.1469L94.63 98.0091C98.8616 102.375 96.1242 112.116 87.9762 121.7C80.2251 130.811 69.6607 137.173 62.2773 137.173Z" fill="#7EEFF9"/>
<path d="M52.0455 69.9872C60.497 69.9872 70.0984 73.5768 77.9779 81.4563L94.3147 98.3126C98.2603 102.387 95.6922 111.953 87.6434 121.414C79.8281 130.601 69.3629 136.73 62.2772 136.73C61.0048 136.73 59.8433 136.531 58.8277 136.123C57.9814 135.778 57.2752 135.305 56.7032 134.716L38.7437 116.179C38.7437 116.179 38.7496 116.184 38.7554 116.19C29.5276 106.963 26.2766 92.1957 33.3215 79.501C36.7184 73.3725 43.8392 69.9872 52.0514 69.9872M52.0455 69.1117C43.2964 69.1117 36.0122 72.8355 32.551 79.0749C29.0957 85.3085 27.8875 92.3008 29.0665 99.2931C30.1697 105.836 33.3798 112.046 38.1017 116.78C38.1017 116.78 38.1076 116.786 38.1134 116.791L56.0728 135.329C56.7382 136.012 57.5495 136.554 58.4951 136.934C59.5982 137.377 60.8706 137.605 62.2714 137.605C69.7715 137.605 80.476 131.179 88.303 121.98C96.6027 112.221 99.3343 102.235 94.9393 97.6997L78.6024 80.8434C71.1431 73.3841 61.4659 69.1117 52.0397 69.1117H52.0455Z" fill="#0000F4"/>
<path d="M69.8357 135.422C69.6898 135.422 69.5556 135.352 69.4738 135.23C69.3571 135.054 69.3805 134.821 69.5322 134.675C70.6645 133.554 71.7385 132.399 72.7307 131.231C80.4526 122.155 83.2659 112.688 79.4254 108.719L63.0885 91.8631C55.8919 84.6664 46.5591 80.5399 37.483 80.5399C35.913 80.5399 34.3662 80.6683 32.8837 80.9193C32.8604 80.9193 32.837 80.9251 32.8137 80.9251C32.6736 80.9251 32.5452 80.8609 32.4635 80.7442C32.3643 80.61 32.3526 80.4348 32.4285 80.2831C32.5977 79.9504 32.767 79.6235 32.9479 79.2967C36.3274 73.1974 43.4773 69.5611 52.063 69.5611C61.3725 69.5611 70.9389 73.7869 78.3047 81.1586L94.6416 98.0207C98.8732 102.387 96.1358 112.128 87.9878 121.712C87.6726 122.085 87.3516 122.447 87.0247 122.809L86.7095 123.153C86.4877 123.399 86.2601 123.644 86.0325 123.883L85.6648 124.268C85.4488 124.49 85.2329 124.712 85.0169 124.934L84.6375 125.313C84.4099 125.535 84.1881 125.751 83.9605 125.967L83.6103 126.299C83.3535 126.539 83.0966 126.772 82.8398 127.006L82.5713 127.251C81.8476 127.893 81.1122 128.517 80.3768 129.101C79.9857 129.416 79.6297 129.691 79.2736 129.959L79.0985 130.087C78.7833 130.327 78.4682 130.554 78.1471 130.782L77.9545 130.916C77.6335 131.144 77.3125 131.366 76.9915 131.582L76.8397 131.681C76.4779 131.926 76.116 132.159 75.7483 132.387C73.7988 133.607 71.8727 134.617 70.0108 135.387C69.9583 135.41 69.8999 135.422 69.8416 135.422H69.8357Z" fill="#5EC6D2"/>
<path d="M52.0456 69.9872C60.4971 69.9872 70.0984 73.5768 77.9779 81.4563L94.3148 98.3126C98.2604 102.387 95.6922 111.953 87.6435 121.414C87.3283 121.782 87.0131 122.144 86.6921 122.5C86.587 122.616 86.482 122.727 86.3827 122.838C86.1609 123.083 85.9391 123.323 85.7115 123.562C85.5889 123.69 85.4664 123.819 85.3438 123.941C85.1278 124.163 84.9177 124.385 84.7018 124.601C84.5792 124.724 84.4508 124.852 84.3282 124.975C84.1064 125.196 83.8788 125.412 83.657 125.628C83.5403 125.739 83.4235 125.85 83.3068 125.961C83.05 126.2 82.799 126.434 82.5422 126.661C82.4546 126.743 82.3613 126.825 82.2737 126.906C81.5558 127.543 80.8321 128.155 80.0966 128.745C80.085 128.757 80.0733 128.763 80.0558 128.774C79.7056 129.054 79.3554 129.329 78.9993 129.591C78.941 129.632 78.8826 129.679 78.8242 129.72C78.5091 129.953 78.1997 130.187 77.8845 130.408C77.8203 130.455 77.7561 130.496 77.6978 130.543C77.3767 130.77 77.0616 130.992 76.7405 131.202C76.6939 131.237 76.6413 131.266 76.5946 131.301C76.2328 131.541 75.8767 131.774 75.5148 132.002C75.5148 132.002 75.509 132.002 75.5032 132.008C73.5887 133.21 71.6801 134.208 69.8416 134.973C70.9506 133.875 72.0304 132.72 73.0634 131.506C81.1122 122.044 83.6803 112.478 79.7348 108.404L63.3979 91.5479C55.5184 83.6684 45.9229 80.0905 37.4772 80.0905C35.8722 80.0905 34.3079 80.2189 32.8079 80.4757C32.9713 80.1488 33.1406 79.8278 33.3215 79.501C36.7185 73.3725 43.8392 69.9872 52.0514 69.9872M52.0456 69.1117C43.2964 69.1117 36.0122 72.8355 32.5511 79.0749C32.3643 79.4134 32.1892 79.7578 32.0258 80.073C31.874 80.3706 31.9032 80.7208 32.1017 80.9893C32.2709 81.217 32.5336 81.3454 32.8079 81.3454C32.8546 81.3454 32.9071 81.3454 32.9538 81.3337C34.413 81.0886 35.9305 80.966 37.4772 80.966C46.4365 80.966 55.6585 85.0517 62.7792 92.1666L79.1044 109.017C82.7873 112.823 79.9682 122.039 72.3922 130.945C71.4117 132.095 70.3436 133.245 69.2229 134.36C68.9252 134.652 68.8785 135.119 69.112 135.469C69.2813 135.72 69.5556 135.86 69.8416 135.86C69.9525 135.86 70.0692 135.837 70.1743 135.796C72.0595 135.014 74.009 133.992 75.9643 132.766C76.3437 132.527 76.7114 132.288 77.0791 132.043L77.1783 131.973L77.225 131.938C77.5518 131.716 77.8729 131.494 78.1997 131.266L78.2347 131.237L78.3923 131.126C78.7133 130.899 79.0285 130.665 79.3495 130.426L79.4196 130.373L79.5246 130.298C79.8807 130.029 80.2425 129.749 80.5986 129.463L80.6394 129.434C81.3749 128.844 82.122 128.214 82.8515 127.566L83.0208 127.414L83.1259 127.321C83.3885 127.087 83.6453 126.848 83.9021 126.609C84.0014 126.515 84.1006 126.422 84.1998 126.329L84.2582 126.276C84.4858 126.06 84.7134 125.838 84.9411 125.617C85.0695 125.488 85.1979 125.366 85.3205 125.237C85.5423 125.015 85.7582 124.794 85.9742 124.572L86.0559 124.49C86.1551 124.391 86.2485 124.292 86.3477 124.187C86.5753 123.947 86.803 123.696 87.0306 123.451L87.1473 123.329C87.2174 123.253 87.2816 123.183 87.3516 123.107C87.6785 122.745 87.9995 122.377 88.3205 122.004C96.6203 112.245 99.3518 102.258 94.9568 97.7231L78.6199 80.8668C71.1607 73.4075 61.4835 69.135 52.0572 69.135L52.0456 69.1117Z" fill="#0000F4"/>
<path d="M42.2748 116.599C40.9791 116.599 39.8117 116.395 38.8078 115.992C36.8934 115.216 35.6152 113.716 35.1015 111.644C33.8642 106.612 37.086 98.797 43.5122 91.2443C51.1349 82.285 61.816 75.7888 68.9134 75.7888C70.1741 75.7888 71.3064 75.9873 72.2928 76.3842C74.2306 77.1663 75.5264 78.7072 76.0517 80.8376C77.3007 85.9271 74.0555 93.9759 67.7811 101.348C60.2634 110.184 49.5356 116.599 42.2748 116.599Z" fill="white"/>
<path d="M68.9135 76.2266C70.0983 76.2266 71.1781 76.4075 72.1295 76.7927C78.6491 79.4251 76.4136 90.5323 67.4485 101.067C59.8258 110.033 49.2672 116.167 42.2749 116.167C41.055 116.167 39.9402 115.98 38.9713 115.589C32.4518 112.957 34.8915 102.06 43.845 91.5362C51.5027 82.536 61.962 76.2324 68.9135 76.2324M68.9135 75.3511C61.5826 75.3511 51.0007 81.7714 43.1796 90.9642C36.6659 98.6219 33.409 106.583 34.6814 111.749C35.2242 113.961 36.5958 115.566 38.6445 116.395C39.7009 116.821 40.9208 117.037 42.2749 117.037C49.6525 117.037 60.5203 110.558 68.1139 101.634C74.5751 94.0401 77.7736 86.0322 76.472 80.7325C75.9117 78.462 74.5225 76.8161 72.4505 75.9815C71.4174 75.5612 70.2267 75.3511 68.9076 75.3511H68.9135Z" fill="#0000F4"/>
<path d="M42.2748 115.432C41.125 115.432 40.1094 115.256 39.2456 114.906C37.6697 114.27 36.66 113.079 36.2397 111.363C35.1074 106.758 38.3117 99.1589 44.4052 92.0031C51.8236 83.2831 62.1312 76.9562 68.9134 76.9562C70.0224 76.9562 71.0088 77.1313 71.8551 77.4698C73.4544 78.1177 74.4816 79.3434 74.9194 81.1177C76.0809 85.8513 72.9349 93.4973 66.8939 100.595C59.5806 109.192 49.2263 115.432 42.2748 115.432Z" fill="#C0E5F5"/>
<path d="M68.9134 77.3939C69.964 77.3939 70.8978 77.5573 71.6916 77.8725C73.1508 78.462 74.0905 79.5885 74.4932 81.2169C75.6255 85.8221 72.5088 93.3105 66.5612 100.309C59.3237 108.819 49.1095 114.994 42.2748 114.994C41.1833 114.994 40.2203 114.83 39.409 114.498C37.9732 113.92 37.051 112.828 36.6599 111.258C35.5626 106.787 38.7319 99.3398 44.732 92.2833C52.0746 83.6567 62.242 77.3939 68.9075 77.3939M68.9134 76.5184C62.0086 76.5184 51.5609 82.9096 44.0725 91.7171C37.8914 98.9779 34.6521 106.735 35.8194 111.468C36.2689 113.301 37.4012 114.632 39.088 115.309C40.0043 115.677 41.0783 115.863 42.2806 115.863C49.3488 115.863 59.8432 109.56 67.2324 100.869C73.3609 93.6666 76.5419 85.8688 75.3454 81.001C74.8784 79.1099 73.7286 77.7441 72.0185 77.0554C71.1255 76.6935 70.0807 76.5126 68.9134 76.5126V76.5184Z" fill="#0000F4"/>
<path d="M62.2773 137.173C60.929 137.173 59.715 136.957 58.6644 136.531C57.7772 136.169 57.0068 135.667 56.3881 135.025L38.4228 116.482C37.8158 115.875 37.2146 115.216 36.6309 114.527C36.4792 114.346 36.4967 114.077 36.6718 113.92C36.7535 113.844 36.8586 113.809 36.9636 113.809C37.0804 113.809 37.1971 113.856 37.2788 113.943C37.7808 114.468 38.4053 114.883 39.1349 115.181C40.0337 115.542 41.0902 115.729 42.275 115.729C49.3024 115.729 59.75 109.443 67.1159 100.787C72.9292 93.9526 76.0752 86.6626 75.3339 81.7597C75.0538 79.9095 74.225 78.5379 72.8767 77.6799C72.7658 77.6099 72.6899 77.4873 72.6783 77.3589C72.6666 77.2305 72.7133 77.0962 72.8067 77.0029C72.8942 76.9153 73.0168 76.8686 73.1335 76.8686C73.2211 76.8686 73.3086 76.892 73.3845 76.9503C75.1238 78.2286 76.7756 79.6469 78.2873 81.1586L94.6242 98.0207C98.8557 102.387 96.1183 112.128 87.9703 121.712C80.2192 130.823 69.6549 137.185 62.2715 137.185L62.2773 137.173Z" fill="#65A0F5"/>
<path d="M73.1218 77.2889C74.7911 78.5146 76.4195 79.8979 77.9779 81.4563L94.3148 98.3126C98.2604 102.387 95.6922 111.953 87.6435 121.414C79.8281 130.601 69.363 136.73 62.2773 136.73C61.0049 136.73 59.8434 136.531 58.8278 136.123C57.9815 135.778 57.2752 135.305 56.7032 134.716L38.7438 116.179C38.7438 116.179 38.7496 116.184 38.7555 116.19C38.1309 115.566 37.5356 114.912 36.9636 114.235C37.5006 114.795 38.166 115.251 38.9714 115.577C39.9403 115.969 41.0493 116.155 42.275 116.155C49.2673 116.155 59.8259 110.021 67.4486 101.056C75.9234 91.0984 78.3748 80.6333 73.116 77.2947L73.1276 77.283M73.1218 76.4134C72.8942 76.4134 72.6724 76.5009 72.5031 76.6702L72.4914 76.6819C72.3047 76.8686 72.2113 77.1313 72.2405 77.3998C72.2697 77.6682 72.4156 77.9017 72.6432 78.0418C73.8806 78.8297 74.6393 80.0963 74.902 81.8181C75.6257 86.6042 72.5148 93.76 66.7832 100.495C59.4932 109.064 49.1856 115.286 42.275 115.286C41.1485 115.286 40.1446 115.111 39.3041 114.772C38.6329 114.498 38.0551 114.118 37.5998 113.64C37.4305 113.459 37.1971 113.371 36.9694 113.371C36.7593 113.371 36.5492 113.447 36.3858 113.593C36.0356 113.908 35.9947 114.445 36.3041 114.807C36.8936 115.507 37.5064 116.173 38.1134 116.786C38.1134 116.786 38.1193 116.791 38.1251 116.797L56.0846 135.335C56.7499 136.017 57.5612 136.56 58.5068 136.94C59.6099 137.383 60.8823 137.611 62.2831 137.611C69.7832 137.611 80.4877 131.185 88.3147 121.986C96.6144 112.227 99.346 102.241 94.951 97.7056L78.6141 80.8492C77.0732 79.3084 75.4039 77.8784 73.6471 76.5826C73.4895 76.4659 73.3086 76.4134 73.1276 76.4134H73.1218Z" fill="#0000F4"/>
<path d="M73.5188 78.0301C73.4254 78.0301 73.332 78.0009 73.2561 77.9426L73.1977 77.8959C73.0927 77.82 72.9876 77.7441 72.8767 77.6741C72.7658 77.604 72.6899 77.4815 72.6783 77.3472C72.6666 77.213 72.7133 77.0846 72.8067 76.9912C72.8942 76.9036 73.0168 76.8569 73.1335 76.8569C73.2211 76.8569 73.3086 76.8803 73.3845 76.9387C73.4662 76.997 73.5421 77.0612 73.6238 77.1196L73.7872 77.2422C73.9799 77.3881 74.0149 77.6624 73.869 77.855C73.7814 77.9659 73.653 78.0301 73.5188 78.0301Z" fill="white"/>
<path d="M73.1219 77.2889C73.2328 77.3706 73.3379 77.4581 73.4488 77.5398C73.3379 77.4581 73.227 77.3764 73.1103 77.3005L73.1219 77.2889ZM73.4546 77.5398C73.4546 77.5398 73.5013 77.5749 73.5188 77.5924C73.4955 77.5749 73.4722 77.5574 73.4546 77.5398ZM73.1219 76.4134C72.9002 76.4134 72.6725 76.5009 72.5033 76.6702L72.4916 76.6819C72.3048 76.8686 72.2114 77.1313 72.2406 77.3998C72.2698 77.6624 72.4157 77.9017 72.6433 78.0418C72.7426 78.106 72.836 78.1702 72.9235 78.2402L72.9877 78.2928C73.1453 78.4095 73.3321 78.4679 73.513 78.4679C73.7757 78.4679 74.0383 78.3511 74.2134 78.1235C74.5052 77.7383 74.4294 77.1896 74.05 76.8978L73.9858 76.8453L73.8866 76.7694C73.8048 76.7052 73.7231 76.641 73.6414 76.5826C73.4838 76.4659 73.3029 76.4134 73.1219 76.4134Z" fill="#0000F4"/>
<path d="M73.6121 78.1002C73.5187 78.1002 73.4253 78.071 73.3494 78.0126L73.256 77.9426C73.0634 77.7967 73.0284 77.5223 73.1743 77.3297C73.2619 77.2188 73.3903 77.1546 73.5245 77.1546C73.6179 77.1546 73.7113 77.1838 73.7872 77.2422L73.8922 77.3181C74.079 77.4698 74.114 77.7383 73.9623 77.9309C73.8747 78.0418 73.7463 78.1002 73.6179 78.1002H73.6121Z" fill="white"/>
<path d="M73.5187 77.5865C73.5187 77.5865 73.5362 77.5982 73.5421 77.6041C73.5362 77.5982 73.5246 77.5924 73.5187 77.5865ZM73.5421 77.6099C73.5421 77.6099 73.5888 77.6449 73.6121 77.6624C73.5888 77.6449 73.5654 77.6274 73.5421 77.6099ZM73.5187 76.711C73.2561 76.711 72.9934 76.8278 72.8183 77.0554C72.5265 77.4406 72.6024 77.9893 72.9818 78.2811L73.0051 78.2986L73.0284 78.3161L73.0751 78.3511C73.2327 78.4737 73.4195 78.5262 73.6004 78.5262C73.8631 78.5262 74.1199 78.4095 74.2892 78.1877C74.581 77.8083 74.5226 77.2655 74.1432 76.9679C74.1141 76.9445 74.0907 76.927 74.0615 76.9037L74.0323 76.8803C73.8748 76.7636 73.688 76.7052 73.5071 76.7052L73.5187 76.711Z" fill="#0000F4"/>
<path d="M94.3148 98.3126L77.978 81.4563C76.5714 80.0496 75.1122 78.7947 73.6122 77.6624C77.7504 80.9835 76.0694 89.5225 69.6841 98.2309L85.198 114.247C86.9665 116.068 87.4217 118.998 86.6688 122.523C86.9957 122.161 87.3167 121.794 87.6377 121.42C95.6865 111.959 98.2546 102.392 94.309 98.3184L94.3148 98.3126Z" fill="#3072C1"/>
<path d="M69.7658 98.5635C69.6491 98.5635 69.5324 98.5168 69.4506 98.4293L63.0828 91.8572C59.7734 88.5478 56.0496 85.8921 52.0048 83.9602C51.8647 83.896 51.7714 83.7617 51.7597 83.61C51.7422 83.4582 51.8064 83.3123 51.9289 83.2189C58.0575 78.4971 64.2443 75.783 68.9137 75.783C70.1744 75.783 71.3067 75.9814 72.2873 76.3783C74.1317 77.1254 75.404 78.5613 75.9702 80.5399C77.2309 84.9524 75.0422 91.6179 70.116 98.3768C70.0401 98.4818 69.9234 98.546 69.795 98.5577C69.7833 98.5577 69.7775 98.5577 69.7658 98.5577V98.5635Z" fill="#B6FCE1"/>
<path d="M68.9137 76.2266C70.0985 76.2266 71.1783 76.4075 72.1239 76.7927C78.0364 79.1799 76.7465 88.542 69.76 98.1258L63.3922 91.5537C59.9135 88.075 56.0964 85.431 52.1916 83.5691C58.0808 79.0282 64.2735 76.2266 68.9079 76.2266M68.9137 75.3511C64.151 75.3511 57.8649 78.0943 51.6605 82.8746C51.4212 83.0613 51.2928 83.359 51.322 83.6625C51.3511 83.966 51.5379 84.2287 51.8181 84.3629C55.8104 86.2715 59.4991 88.898 62.7794 92.1782L69.1355 98.7386C69.2989 98.9079 69.5265 99.0071 69.7659 99.0071C69.7834 99.0071 69.8067 99.0071 69.8242 99.0071C70.081 98.9896 70.3203 98.8554 70.4721 98.6511C75.48 91.7813 77.6921 84.9699 76.3905 80.4348C75.7893 78.322 74.4235 76.7869 72.4507 75.9873C71.4176 75.567 70.2269 75.3569 68.9079 75.3569L68.9137 75.3511Z" fill="#0000F4"/>
<path d="M68.9371 97.7056C68.8204 97.7056 68.7036 97.6589 68.6219 97.5713L63.0829 91.8514C60.1062 88.8747 56.7618 86.4116 53.1547 84.5322C53.0205 84.4621 52.933 84.3279 52.9213 84.182C52.9096 84.0361 52.9738 83.8843 53.0964 83.7968C58.863 79.4426 64.6296 76.9445 68.9138 76.9445C70.0227 76.9445 71.0091 77.1196 71.8554 77.4581C73.4547 78.106 74.482 79.3317 74.9197 81.1061C75.9119 85.1392 73.8049 91.2735 69.2931 97.5188C69.2173 97.6238 69.1005 97.688 68.9721 97.6997C68.9605 97.6997 68.9488 97.6997 68.943 97.6997L68.9371 97.7056Z" fill="#93D1EE"/>
<path d="M68.9137 77.3939C69.9643 77.3939 70.8981 77.5574 71.6919 77.8725C73.1511 78.462 74.0908 79.5885 74.4935 81.217C75.4624 85.1567 73.3087 91.2152 68.937 97.2678L63.398 91.5479C60.2637 88.4136 56.8551 85.968 53.3589 84.147C58.8687 79.9912 64.6179 77.3881 68.9137 77.3881M68.9137 76.5184C64.5362 76.5184 58.6703 79.0457 52.8278 83.4582C52.5885 83.6392 52.4601 83.931 52.4834 84.2287C52.5068 84.5264 52.6877 84.7948 52.9504 84.9349C56.5224 86.791 59.826 89.2249 62.7735 92.1782L68.3008 97.8865C68.4642 98.0558 68.6919 98.155 68.9312 98.155C68.9545 98.155 68.972 98.155 68.9954 98.155C69.2522 98.1375 69.4915 98.0032 69.6433 97.7931C74.2309 91.4428 76.3613 85.1742 75.3398 81.0185C74.8729 79.1274 73.7231 77.7616 72.0129 77.0729C71.1199 76.711 70.0752 76.5301 68.9078 76.5301L68.9137 76.5184Z" fill="#0000F4"/>
<path d="M33.2863 85.5653C32.7435 85.5653 32.2474 85.4777 31.8155 85.3026C31.442 85.1509 31.1209 84.9407 30.8583 84.6723L25.471 79.1099C25.3018 78.9348 25.3076 78.6605 25.4827 78.4912C25.5703 78.4095 25.6753 78.3687 25.7862 78.3687C25.8971 78.3687 26.0139 78.4153 26.1014 78.5029C26.2765 78.6838 26.4983 78.8297 26.7551 78.9348C27.082 79.0691 27.4672 79.1333 27.8991 79.1333C30.4906 79.1333 34.3836 76.7577 37.1677 73.4892C39.9577 70.2148 41.0491 66.7011 39.7184 65.3237C39.5491 65.1486 39.5549 64.8743 39.73 64.705C39.8176 64.6233 39.9226 64.5824 40.0335 64.5824C40.1444 64.5824 40.2612 64.6291 40.3487 64.7167L45.736 70.279C47.4403 72.0359 46.4072 75.8764 43.2262 79.6177C40.2437 83.1197 36.158 85.5711 33.2922 85.5711L33.2863 85.5653Z" fill="#B6FCE1"/>
<path d="M40.0336 65.0202L45.4209 70.5825C46.9151 72.1234 45.9403 75.748 42.8878 79.3317C39.9286 82.8045 35.9655 85.1275 33.2864 85.1275C32.8078 85.1275 32.3642 85.0516 31.979 84.8999C31.658 84.7715 31.3895 84.5905 31.1736 84.3688L25.7863 78.8064C26.0023 79.0282 26.2707 79.2091 26.5918 79.3375C26.977 79.4951 27.4147 79.5652 27.8992 79.5652C30.584 79.5652 34.5471 77.2422 37.5005 73.7694C40.5472 70.1856 41.5278 66.5611 40.0336 65.0202ZM40.664 64.4073L40.0336 65.0143L39.4033 65.6214C40.4188 66.6661 39.7359 69.7887 36.8351 73.1974C34.1269 76.3783 30.3681 78.6897 27.8992 78.6897C27.5256 78.6897 27.1929 78.6313 26.9245 78.5204C26.726 78.4387 26.5567 78.3278 26.4225 78.1935C26.2532 78.0184 26.0198 77.9251 25.7921 77.9251C25.5703 77.9251 25.3544 78.0068 25.1851 78.1702C24.8408 78.5087 24.8291 79.0632 25.1676 79.4076L30.5549 84.9699C30.8584 85.2851 31.2319 85.5303 31.658 85.7054C32.1424 85.898 32.6911 85.9972 33.2923 85.9972C36.2806 85.9972 40.5006 83.4874 43.5648 79.892C46.8976 75.9756 47.9248 71.8899 46.0571 69.9638L40.6698 64.4015L40.664 64.4073Z" fill="#0000F4"/>
<path d="M28.2846 81.9874C27.6659 81.9874 27.1056 81.8882 26.6212 81.6897C26.2009 81.5205 25.8391 81.2812 25.5472 80.9776L19.3604 74.5923L19.9907 73.9853C20.2008 74.2013 20.4576 74.3705 20.767 74.4931C21.1464 74.6449 21.6016 74.7266 22.1036 74.7266C25.1445 74.7266 29.5395 72.0534 32.8022 68.2245C36.0241 64.4365 37.2789 60.3683 35.7264 58.7633C35.5571 58.5882 35.563 58.3138 35.7381 58.1446C35.8256 58.0629 35.9307 58.022 36.0416 58.022C36.1525 58.022 36.2692 58.0687 36.3567 58.1562L42.5436 64.5416C44.4756 66.5377 43.2907 70.9094 39.6603 75.1818C36.2459 79.1916 31.5765 81.9932 28.2963 81.9932L28.2846 81.9874Z" fill="#8359E8"/>
<path d="M36.0299 58.4539L42.2167 64.8393C43.9327 66.6136 42.8121 70.7752 39.3101 74.89C35.9131 78.8823 31.3605 81.5497 28.2788 81.5497C27.7243 81.5497 27.2223 81.4621 26.7787 81.287C26.411 81.1352 26.1017 80.931 25.8565 80.6742L19.6697 74.2888C19.9206 74.5456 20.2242 74.7499 20.5919 74.9017C21.0354 75.0826 21.5374 75.1643 22.0919 75.1643C25.1737 75.1643 29.7263 72.497 33.1232 68.5047C36.6252 64.3898 37.7458 60.2283 36.0299 58.4539ZM36.6602 57.8469L36.0299 58.4539L35.3995 59.0609C36.6077 60.3042 35.8373 63.9638 32.4578 67.9327C29.3294 71.6098 24.9694 74.283 22.0977 74.283C21.6483 74.283 21.2572 74.213 20.9246 74.0845C20.6794 73.9853 20.4693 73.8452 20.3 73.676L19.6697 74.283L19.0393 74.89L25.2262 81.2753C25.5647 81.6255 25.9733 81.8999 26.4519 82.0866C26.9889 82.3026 27.6075 82.4135 28.2788 82.4135C31.6757 82.4135 36.4851 79.5477 39.9755 75.4445C43.7576 70.9969 44.9366 66.3801 42.8413 64.2147L36.6544 57.8294L36.6602 57.8469Z" fill="#0000F4"/>
<path d="M22.0978 75.6021C21.4791 75.6021 20.9187 75.5028 20.4343 75.3044C19.4712 74.9133 18.8234 74.1604 18.5666 73.1156C17.9946 70.7985 19.407 67.2848 22.2378 63.9579C25.6523 59.9423 30.3275 57.1407 33.6077 57.1407C34.2264 57.1407 34.7867 57.2399 35.2711 57.4383C36.2342 57.8294 36.882 58.5823 37.1389 59.6271C37.7109 61.9442 36.2984 65.4579 33.4618 68.7907C30.0473 72.8005 25.378 75.6021 22.0978 75.6021Z" fill="#D5C5FA"/>
<path d="M33.6017 57.5784C34.1562 57.5784 34.6582 57.666 35.1017 57.8411C38.0142 59.0201 37.1329 63.7886 33.1231 68.5047C29.7262 72.497 25.1736 75.1643 22.0918 75.1643C21.5373 75.1643 21.0354 75.0768 20.5918 74.9017C17.6793 73.7227 18.5606 68.9541 22.5704 64.2439C25.9673 60.2458 30.52 57.5843 33.6017 57.5843M33.6017 56.7029C30.2048 56.7029 25.3954 59.5687 21.8992 63.6719C18.975 67.1097 17.5334 70.7693 18.1345 73.2207C18.4264 74.4056 19.1618 75.2635 20.2591 75.7071C20.7961 75.9231 21.4147 76.034 22.086 76.034C25.4829 76.034 30.2923 73.1682 33.7827 69.065C36.7068 65.6272 38.1543 61.9676 37.5473 59.5104C37.2555 58.3255 36.5201 57.4675 35.4228 57.0239C34.8858 56.808 34.2671 56.6971 33.5959 56.6971L33.6017 56.7029Z" fill="#0000F4"/>
</svg>
