<svg width="196" height="280" viewBox="0 0 196 280" fill="none" xmlns="http://www.w3.org/2000/svg">
<mask id="path-1-inside-1_174_67" fill="white">
<path d="M196 0L196 19.3103L196 252.966L144.017 237.517L98 280L53.687 237.517L1.94601e-05 252.966L1.44147e-05 19.3103L1.48367e-05 9.65516L1.52588e-05 -8.56743e-06L109.2 -3.79415e-06L196 0Z"/>
</mask>
<path d="M196 0L196 19.3103L196 252.966L144.017 237.517L98 280L53.687 237.517L1.94601e-05 252.966L1.44147e-05 19.3103L1.48367e-05 9.65516L1.52588e-05 -8.56743e-06L109.2 -3.79415e-06L196 0Z" fill="#A47CDB"/>
<path d="M196 17.8103L1.44803e-05 17.8103L1.43491e-05 20.8103L196 20.8103L196 17.8103ZM196 0L199 1.31134e-07L199 -3L196 -3L196 0ZM196 252.966L195.145 255.841L199 256.987L199 252.966L196 252.966ZM1.94601e-05 252.966L-2.99998 252.966L-2.99998 256.95L0.829594 255.849L1.94601e-05 252.966ZM1.52588e-05 -8.56743e-06L1.53899e-05 -3.00001L-2.99998 -3.00001L-2.99998 -8.69857e-06L1.52588e-05 -8.56743e-06ZM98 280L95.9239 282.166L97.9612 284.119L100.035 282.204L98 280ZM196 19.3103L193 19.3103L196 19.3103ZM1.44147e-05 19.3103L-2.99999 19.3103L1.44147e-05 19.3103ZM144.017 237.517L144.872 234.642L143.236 234.155L141.982 235.313L144.017 237.517ZM53.687 237.517L55.7631 235.352L54.5167 234.157L52.8574 234.634L53.687 237.517ZM1.51277e-05 2.99999L109.2 3L109.2 -3L1.53899e-05 -3.00001L1.51277e-05 2.99999ZM109.2 3L196 3L196 -3L109.2 -3L109.2 3ZM193 -1.31134e-07L193 19.3103L199 19.3103L199 1.31134e-07L193 -1.31134e-07ZM193 19.3103L193 252.966L199 252.966L199 19.3103L193 19.3103ZM3.00002 252.966L3.00001 19.3103L-2.99999 19.3103L-2.99998 252.966L3.00002 252.966ZM3.00001 19.3103L3.00001 9.65516L-2.99999 9.65516L-2.99999 19.3103L3.00001 19.3103ZM3.00001 9.65516L3.00002 -8.4363e-06L-2.99998 -8.69857e-06L-2.99999 9.65516L3.00001 9.65516ZM196.855 250.09L144.872 234.642L143.163 240.393L195.145 255.841L196.855 250.09ZM141.982 235.313L95.965 277.796L100.035 282.204L146.052 239.722L141.982 235.313ZM100.076 277.834L55.7631 235.352L51.6108 239.683L95.9239 282.166L100.076 277.834ZM52.8574 234.634L-0.82957 250.082L0.829594 255.849L54.5165 240.4L52.8574 234.634Z" fill="#D4BCFE" mask="url(#path-1-inside-1_174_67)"/>
<path d="M139.711 145.651C160.189 145.651 176.791 129.05 176.791 108.571C176.791 88.092 160.189 71.4906 139.711 71.4906C119.232 71.4906 102.63 88.092 102.63 108.571C102.63 129.05 119.232 145.651 139.711 145.651Z" fill="#65A0F5" stroke="#0000F4" stroke-width="1.5" stroke-linecap="round" stroke-linejoin="round"/>
<path d="M118.23 107.004C124.646 110.71 129.821 119.677 129.797 127.046C129.772 134.416 124.566 137.39 118.15 133.69C111.733 129.99 106.552 121.011 106.576 113.641C106.601 106.272 111.813 103.297 118.23 107.004Z" fill="#EB7956" stroke="#0000F4" stroke-width="1.5" stroke-linecap="round" stroke-linejoin="round"/>
<path d="M160.282 62.3327L122.692 40.6304C119.016 38.5099 115.132 38.5406 112.292 40.7226C109.103 43.1749 108.015 47.6801 109.385 52.7815L116.337 78.6202C116.423 78.9337 116.539 79.2348 116.681 79.5176C119.188 77.5262 121.954 75.8544 124.929 74.5637L118.414 50.3537C118.414 50.3537 118.414 50.3414 118.414 50.3353C118.254 49.7329 118.912 49.2474 119.453 49.5547L155.611 70.4334C158.684 72.2097 160.676 77.2558 159.999 78.9583L153.497 95.2581C152.593 97.5199 153.454 100.187 155.623 101.3C156.318 101.656 157.055 101.828 157.775 101.828C159.631 101.828 161.389 100.716 162.12 98.8843L168.684 82.4247C171.222 76.0572 167.141 66.297 160.288 62.3389L160.282 62.3327Z" fill="#AA51F6" stroke="#0000F4" stroke-width="1.5" stroke-linecap="round" stroke-linejoin="round"/>
<path d="M38.519 97.5014C35.3352 95.6514 30.9284 95.9096 26.0606 98.7184C16.3925 104.299 8.58069 117.833 8.61142 128.946C8.62986 134.465 10.5782 138.349 13.7189 140.175L22.2376 145.129C19.0969 143.303 17.1485 139.419 17.1301 133.899C17.0994 122.787 24.9112 109.253 34.5792 103.672C39.4471 100.863 43.8539 100.605 47.0377 102.455L38.519 97.5014Z" fill="#B6FCE1" stroke="#0000F4" stroke-width="1.5" stroke-linecap="round" stroke-linejoin="round"/>
<path d="M53.1657 94.6803C48.8203 92.1542 42.8031 92.5107 36.1652 96.346C22.9692 103.967 12.2994 122.443 12.3424 137.606C12.3609 145.141 15.0222 150.439 19.3122 152.928L30.9409 159.689C26.6508 157.194 23.9895 151.896 23.9711 144.366C23.9281 129.204 34.5918 110.728 47.7939 103.107C54.4318 99.2716 60.449 98.9151 64.7944 101.441L53.1657 94.6803Z" fill="#B6FCE1" stroke="#0000F4" stroke-width="1.5" stroke-linecap="round" stroke-linejoin="round"/>
<path d="M67.6886 93.5187C62.5012 90.5009 55.3101 90.9311 47.3815 95.5101C31.6164 104.613 18.8814 126.671 18.9367 144.784C18.9613 153.782 22.1389 160.113 27.2587 163.094L41.1492 171.164C36.0232 168.189 32.8518 161.859 32.8272 152.854C32.778 134.741 45.513 112.683 61.2719 103.58C69.2067 99.0011 76.3917 98.577 81.5791 101.589L67.6886 93.5187Z" fill="#B6FCE1" stroke="#0000F4" stroke-width="1.5" stroke-linecap="round" stroke-linejoin="round"/>
<path d="M61.2725 103.58C77.0376 94.4775 89.8525 101.785 89.9078 119.898C89.957 138.011 77.222 160.07 61.4631 169.173C45.698 178.275 32.8831 170.967 32.8278 152.854C32.7786 134.741 45.5136 112.683 61.2725 103.58Z" fill="#65A0F5" stroke="#0000F4" stroke-width="1.5" stroke-linecap="round" stroke-linejoin="round"/>
<path d="M61.2844 108.018C74.9167 100.15 85.9983 106.463 86.0414 122.123C86.0844 137.784 75.0765 156.856 61.4442 164.729C47.8118 172.602 36.7302 166.284 36.6871 150.623C36.6441 134.963 47.652 115.891 61.2844 108.018Z" fill="#1E49F1" stroke="#0000F4" stroke-width="1.5" stroke-linecap="round" stroke-linejoin="round"/>
<path d="M61.3337 126.18C66.2323 123.353 70.2212 125.62 70.2335 131.25C70.2457 136.88 66.2876 143.74 61.389 146.567C56.4905 149.394 52.5016 147.126 52.4893 141.496C52.477 135.866 56.4352 129.007 61.3337 126.18Z" fill="#AA51F6" stroke="#0000F4" stroke-width="1.5" stroke-linecap="round" stroke-linejoin="round"/>
<path d="M66.6201 128.386C65.3662 127.655 63.6268 127.759 61.7092 128.866C57.8985 131.066 54.8193 136.395 54.8316 140.783C54.8377 142.959 55.606 144.489 56.8414 145.209L121.819 182.971C120.584 182.252 119.816 180.721 119.81 178.546C119.797 174.163 122.877 168.828 126.687 166.628C128.605 165.522 130.338 165.417 131.598 166.149L66.6201 128.386Z" fill="#8359E8" stroke="#0000F4" stroke-width="1.5" stroke-linecap="round" stroke-linejoin="round"/>
<path d="M126.693 166.628C130.503 164.428 133.601 166.192 133.613 170.574C133.626 174.956 130.546 180.285 126.736 182.485C122.925 184.686 119.827 182.922 119.815 178.54C119.803 174.157 122.882 168.822 126.693 166.622V166.628Z" fill="white" stroke="#0000F4" stroke-width="1.5" stroke-linecap="round" stroke-linejoin="round"/>
<path d="M148.346 140.285C143.158 137.268 135.967 137.698 128.039 142.277C112.274 151.379 99.5386 173.438 99.5939 191.551C99.6185 200.549 102.796 206.88 107.916 209.861L121.806 217.931C116.68 214.956 113.509 208.625 113.484 199.621C113.435 181.508 126.17 159.449 141.929 150.347C149.864 145.768 157.049 145.344 162.236 148.355L148.346 140.285Z" fill="#B6FCE1" stroke="#0000F4" stroke-width="1.5" stroke-linecap="round" stroke-linejoin="round"/>
<path d="M141.929 150.353C157.694 141.25 170.509 148.558 170.565 166.671C170.614 184.784 157.879 206.843 142.12 215.945C126.355 225.048 113.54 217.74 113.485 199.627C113.435 181.514 126.17 159.455 141.929 150.353Z" fill="#65A0F5" stroke="#0000F4" stroke-width="1.5" stroke-linecap="round" stroke-linejoin="round"/>
<path d="M160.404 155.46C156.059 152.934 150.042 153.291 143.404 157.126C130.208 164.747 119.538 183.223 119.581 198.386C119.6 205.921 122.261 211.219 126.551 213.708L138.18 220.469C133.89 217.974 131.228 212.676 131.21 205.147C131.167 189.984 141.831 171.508 155.033 163.887C161.671 160.052 167.688 159.695 172.033 162.221L160.404 155.46Z" fill="#B6FCE1" stroke="#0000F4" stroke-width="1.5" stroke-linecap="round" stroke-linejoin="round"/>
<path d="M155.039 163.887C168.235 156.266 178.967 162.387 179.01 177.55C179.053 192.713 168.389 211.182 155.193 218.803C141.997 226.425 131.259 220.309 131.216 205.147C131.173 189.984 141.837 171.508 155.039 163.887Z" fill="#65A0F5" stroke="#0000F4" stroke-width="1.5" stroke-linecap="round" stroke-linejoin="round"/>
<path d="M155.051 169.289C165.647 163.168 174.27 168.085 174.307 180.267C174.344 192.448 165.776 207.279 155.18 213.395C144.584 219.516 135.961 214.606 135.924 202.424C135.887 190.242 144.455 175.405 155.057 169.289H155.051Z" fill="#1E49F1" stroke="#0000F4" stroke-width="1.5" stroke-linecap="round" stroke-linejoin="round"/>
<path d="M170.374 173.272C167.19 171.422 162.783 171.68 157.916 174.489C148.248 180.07 140.436 193.604 140.466 204.716C140.485 210.236 142.433 214.12 145.574 215.945L154.093 220.899C150.952 219.074 149.004 215.189 148.985 209.67C148.954 198.558 156.766 185.024 166.434 179.443C171.302 176.634 175.709 176.376 178.893 178.226L170.374 173.272Z" fill="#B6FCE1" stroke="#0000F4" stroke-width="1.5" stroke-linecap="round" stroke-linejoin="round"/>
<path d="M166.434 179.443C176.102 173.862 183.969 178.343 184 189.455C184.031 200.568 176.219 214.095 166.545 219.682C156.877 225.263 149.016 220.783 148.985 209.676C148.954 198.57 156.766 185.03 166.434 179.449V179.443Z" fill="#65A0F5" stroke="#0000F4" stroke-width="1.5" stroke-linecap="round" stroke-linejoin="round"/>
<path d="M166.453 184.163C173.853 179.892 179.876 183.321 179.9 191.828C179.925 200.334 173.945 210.69 166.539 214.962C159.138 219.234 153.121 215.804 153.097 207.304C153.072 198.804 159.052 188.441 166.453 184.169V184.163Z" fill="#1E49F1" stroke="#0000F4" stroke-width="1.5" stroke-linecap="round" stroke-linejoin="round"/>
<path d="M166.483 194.888C168.727 193.592 170.552 194.63 170.564 197.212C170.577 199.793 168.757 202.934 166.514 204.231C164.271 205.528 162.445 204.489 162.439 201.907C162.433 199.326 164.246 196.185 166.489 194.888H166.483Z" fill="#AA51F6" stroke="#0000F4" stroke-width="1.5" stroke-linecap="round" stroke-linejoin="round"/>
</svg>
