<?xml version="1.0" encoding="utf-8"?>
<!-- Generator: Adobe Illustrator 26.0.3, SVG Export Plug-In . SVG Version: 6.00 Build 0)  -->
<svg version="1.1" id="Layer_1" xmlns="http://www.w3.org/2000/svg" xmlns:xlink="http://www.w3.org/1999/xlink" x="0px" y="0px"
	 viewBox="0 0 612 792" style="enable-background:new 0 0 612 792;" xml:space="preserve">
<style type="text/css">
	.st0{fill:#607EEB;}
</style>
<path class="st0" d="M435.6,345.7c-9.5-47-37.7-79.9-68.4-79.9c-13.8,0-22.5,3.4-30.9,6.6c-8.4,3.2-16.4,6.3-30.4,6.6
	c-14-0.3-21.9-3.4-30.4-6.6c-8.4-3.2-17.1-6.6-30.9-6.6c-30.7,0-58.8,32.9-68.4,79.9c-9.6,47.5-17.1,99.1,16.3,108.6
	c22.8,6.5,38.2-13.4,53.1-32.6c1.9-2.4,3.7-4.8,5.6-7.2c15.9-24,48.9-81.1,49.3-81.7c1-1.8,2.9-2.9,4.9-3c2.1-0.1,4,0.8,5.3,2.4
	l16.3,21c1.6,2.1,4.8,2,6.4-0.2l26.1-37.6c0.8-1.2-0.1-2.8-1.6-2.6l-15,1.8c-2.5,0.3-4.7-1.5-5-3.9c-0.3-2.3,1.3-4.4,3.5-4.9l31.1-7
	c2.8-0.6,5.5,0.9,6.6,3.4l0,0l10.9,26.2c0.8,2,0.4,4.4-1.3,5.7c-2.5,2-5.9,1.1-7.3-1.5l-6.2-11.6c-0.9-1.7-3.4-1.9-4.5-0.3
	l-35.1,50.5c-1,1.5-2.6,2.5-4.3,2.7c-2.3,0.3-4.3-0.7-5.6-2.3L309.2,350c-1.2-1.5-3.5-1.4-4.5,0.3c-5.7,9.7-14.2,24.2-22.7,38.3
	c-1.2,1.9,0.5,4.3,2.7,3.9c5.6-1,12.6-1.7,21.2-1.7h0.4c27.3,0,38.8,7.2,40,8c7,6,13.6,14.6,20,22.9c12.9,16.7,26.2,33.9,44.4,33.9
	c2.8,0,5.7-0.4,8.7-1.3C452.8,444.8,445.3,393.3,435.6,345.7z"/>
</svg>
