<svg width="270" height="196" viewBox="0 0 270 196" fill="none" xmlns="http://www.w3.org/2000/svg">
<path d="M89.084 140.324C87.98 140.324 87.056 140.132 86.312 139.748C85.592 139.34 85.052 138.788 84.692 138.092C84.332 137.396 84.152 136.604 84.152 135.716C84.152 135.164 84.212 134.576 84.332 133.952C84.476 133.328 84.728 132.752 85.088 132.224L87.608 133.52C87.536 133.76 87.476 134.06 87.428 134.42C87.38 134.756 87.356 135.104 87.356 135.464C87.356 136.16 87.476 136.7 87.716 137.084C87.956 137.468 88.484 137.66 89.3 137.66C89.42 137.66 89.684 137.576 90.092 137.408C90.5 137.216 90.98 136.988 91.532 136.724C92.108 136.436 92.672 136.16 93.224 135.896V137.372C92.648 137.804 92.048 138.248 91.424 138.704C90.824 139.16 90.308 139.544 89.876 139.856C89.444 140.168 89.18 140.324 89.084 140.324ZM85.088 132.224L92.864 131.072V132.656L87.176 133.844L85.088 132.224ZM85.34 125.852L85.844 123.656C86.708 123.608 87.476 123.584 88.148 123.584C88.82 123.56 89.456 123.56 90.056 123.584C90.656 123.584 91.268 123.608 91.892 123.656C92.252 123.68 92.648 123.86 93.08 124.196C93.536 124.508 93.968 124.904 94.376 125.384C94.808 125.84 95.156 126.32 95.42 126.824C95.708 127.304 95.852 127.724 95.852 128.084V137.876L97.112 138.416V139.748C96.632 139.844 96.152 139.928 95.672 140C95.216 140.096 94.82 140.168 94.484 140.216C94.148 140.288 93.932 140.324 93.836 140.324C93.764 140.324 93.632 140.24 93.44 140.072C93.248 139.928 93.068 139.76 92.9 139.568C92.756 139.376 92.684 139.232 92.684 139.136V137.372L92.576 136.94V128.804C92.576 128.012 92.42 127.424 92.108 127.04C91.82 126.656 91.364 126.44 90.74 126.392C90.5 126.368 90.104 126.356 89.552 126.356C89 126.356 88.388 126.368 87.716 126.392C87.044 126.392 86.408 126.404 85.808 126.428L85.34 125.852ZM101.649 140.324C101.577 140.324 101.445 140.24 101.253 140.072C101.061 139.904 100.869 139.724 100.677 139.532C100.509 139.34 100.425 139.208 100.425 139.136V125.996L99.1654 125.456V124.124C99.1654 124.124 99.3094 124.1 99.5974 124.052C99.9094 123.98 100.269 123.908 100.677 123.836C101.085 123.764 101.457 123.704 101.793 123.656C102.153 123.584 102.369 123.548 102.441 123.548C102.513 123.548 102.645 123.632 102.837 123.8C103.029 123.968 103.197 124.148 103.341 124.34C103.509 124.532 103.593 124.664 103.593 124.736V126.104C103.857 125.864 104.157 125.6 104.493 125.312C104.853 125.024 105.201 124.748 105.537 124.484C105.873 124.22 106.161 124.004 106.401 123.836C106.641 123.644 106.773 123.548 106.797 123.548C107.925 123.548 108.897 123.74 109.713 124.124C110.553 124.484 111.165 125.144 111.549 126.104C111.813 125.864 112.101 125.6 112.413 125.312C112.749 125.024 113.061 124.748 113.349 124.484C113.661 124.22 113.925 124.004 114.141 123.836C114.381 123.644 114.513 123.548 114.537 123.548C115.737 123.548 116.757 123.728 117.597 124.088C118.461 124.448 119.121 125.072 119.577 125.96C120.033 126.848 120.261 128.072 120.261 129.632V137.876L121.485 138.416V139.748C121.485 139.748 121.329 139.784 121.017 139.856C120.729 139.904 120.381 139.964 119.973 140.036C119.565 140.108 119.193 140.168 118.857 140.216C118.521 140.288 118.317 140.324 118.245 140.324C118.173 140.324 118.029 140.24 117.813 140.072C117.621 139.904 117.429 139.724 117.237 139.532C117.069 139.34 116.985 139.208 116.985 139.136V129.632C116.985 128.768 116.889 128.108 116.697 127.652C116.529 127.172 116.313 126.836 116.049 126.644C115.785 126.452 115.533 126.344 115.293 126.32C115.053 126.272 114.861 126.248 114.717 126.248C114.645 126.248 114.465 126.32 114.177 126.464C113.889 126.584 113.577 126.74 113.241 126.932C112.905 127.124 112.605 127.292 112.341 127.436C112.101 127.556 111.981 127.616 111.981 127.616V137.876L113.205 138.416V139.748C113.205 139.748 113.049 139.784 112.737 139.856C112.449 139.904 112.101 139.964 111.693 140.036C111.285 140.108 110.913 140.168 110.577 140.216C110.241 140.288 110.037 140.324 109.965 140.324C109.893 140.324 109.749 140.24 109.533 140.072C109.341 139.904 109.149 139.724 108.957 139.532C108.789 139.34 108.705 139.208 108.705 139.136V129.632C108.705 128.48 108.561 127.676 108.273 127.22C108.009 126.74 107.709 126.464 107.373 126.392C107.037 126.296 106.785 126.248 106.617 126.248C106.521 126.248 106.317 126.32 106.005 126.464C105.717 126.584 105.393 126.74 105.033 126.932C104.673 127.124 104.361 127.292 104.097 127.436C103.833 127.556 103.701 127.616 103.701 127.616V137.876L104.925 138.416V139.748C104.925 139.748 104.769 139.784 104.457 139.856C104.169 139.904 103.821 139.964 103.413 140.036C103.005 140.108 102.621 140.168 102.261 140.216C101.925 140.288 101.721 140.324 101.649 140.324ZM131.978 123.548C132.89 123.548 133.778 123.824 134.642 124.376C135.506 124.904 136.214 125.732 136.766 126.86C137.318 127.964 137.594 129.404 137.594 131.18C137.594 132.428 137.51 133.544 137.342 134.528C137.198 135.512 136.994 136.256 136.73 136.76C136.538 137.024 136.202 137.36 135.722 137.768C135.242 138.152 134.714 138.548 134.138 138.956C133.586 139.34 133.058 139.664 132.554 139.928C132.074 140.192 131.726 140.324 131.51 140.324C131.27 140.324 130.85 140.276 130.25 140.18C129.674 140.108 129.026 140.024 128.306 139.928V143.924L129.746 144.5V145.94C129.554 145.988 129.278 146.036 128.918 146.084C128.582 146.156 128.222 146.216 127.838 146.264C127.454 146.336 127.118 146.396 126.83 146.444C126.542 146.492 126.362 146.516 126.29 146.516C126.218 146.516 126.074 146.432 125.858 146.264C125.666 146.096 125.474 145.916 125.282 145.724C125.114 145.532 125.03 145.4 125.03 145.328L125.21 139.532V125.96L123.986 125.456V124.124C124.178 124.076 124.43 124.028 124.742 123.98C125.078 123.908 125.414 123.848 125.75 123.8C126.086 123.728 126.386 123.668 126.65 123.62C126.914 123.572 127.082 123.548 127.154 123.548C127.226 123.548 127.358 123.632 127.55 123.8C127.742 123.968 127.922 124.148 128.09 124.34C128.282 124.508 128.378 124.64 128.378 124.736V126.14C128.81 125.828 129.29 125.468 129.818 125.06C130.346 124.652 130.814 124.304 131.222 124.016C131.654 123.704 131.906 123.548 131.978 123.548ZM131.762 126.212C131.69 126.212 131.45 126.296 131.042 126.464C130.658 126.632 130.226 126.836 129.746 127.076C129.266 127.292 128.846 127.484 128.486 127.652V137.552C128.87 137.672 129.35 137.792 129.926 137.912C130.526 138.032 131.09 138.128 131.618 138.2C132.17 138.248 132.554 138.26 132.77 138.236C133.058 138.188 133.298 137.972 133.49 137.588C133.706 137.204 133.862 136.544 133.958 135.608C134.078 134.648 134.138 133.328 134.138 131.648C134.138 130.304 133.982 129.236 133.67 128.444C133.382 127.652 133.046 127.088 132.662 126.752C132.302 126.392 132.002 126.212 131.762 126.212ZM145.053 140.324C143.949 140.324 143.025 140.132 142.281 139.748C141.561 139.34 141.021 138.788 140.661 138.092C140.301 137.396 140.121 136.604 140.121 135.716C140.121 135.164 140.181 134.576 140.301 133.952C140.445 133.328 140.697 132.752 141.057 132.224L143.577 133.52C143.505 133.76 143.445 134.06 143.397 134.42C143.349 134.756 143.325 135.104 143.325 135.464C143.325 136.16 143.445 136.7 143.685 137.084C143.925 137.468 144.453 137.66 145.269 137.66C145.389 137.66 145.653 137.576 146.061 137.408C146.469 137.216 146.949 136.988 147.501 136.724C148.077 136.436 148.641 136.16 149.193 135.896V137.372C148.617 137.804 148.017 138.248 147.393 138.704C146.793 139.16 146.277 139.544 145.845 139.856C145.413 140.168 145.149 140.324 145.053 140.324ZM141.057 132.224L148.833 131.072V132.656L143.145 133.844L141.057 132.224ZM141.309 125.852L141.813 123.656C142.677 123.608 143.445 123.584 144.117 123.584C144.789 123.56 145.425 123.56 146.025 123.584C146.625 123.584 147.237 123.608 147.861 123.656C148.221 123.68 148.617 123.86 149.049 124.196C149.505 124.508 149.937 124.904 150.345 125.384C150.777 125.84 151.125 126.32 151.389 126.824C151.677 127.304 151.821 127.724 151.821 128.084V137.876L153.081 138.416V139.748C152.601 139.844 152.121 139.928 151.641 140C151.185 140.096 150.789 140.168 150.453 140.216C150.117 140.288 149.901 140.324 149.805 140.324C149.733 140.324 149.601 140.24 149.409 140.072C149.217 139.928 149.037 139.76 148.869 139.568C148.725 139.376 148.653 139.232 148.653 139.136V137.372L148.545 136.94V128.804C148.545 128.012 148.389 127.424 148.077 127.04C147.789 126.656 147.333 126.44 146.709 126.392C146.469 126.368 146.073 126.356 145.521 126.356C144.969 126.356 144.357 126.368 143.685 126.392C143.013 126.392 142.377 126.404 141.777 126.428L141.309 125.852ZM157.834 140.324C157.762 140.324 157.606 140.228 157.366 140.036C157.126 139.844 156.898 139.64 156.682 139.424C156.49 139.208 156.394 139.064 156.394 138.992V125.852L155.134 125.456V124.124C155.134 124.124 155.266 124.1 155.53 124.052C155.818 123.98 156.154 123.908 156.538 123.836C156.922 123.764 157.27 123.704 157.582 123.656C157.918 123.584 158.122 123.548 158.194 123.548C158.29 123.548 158.446 123.644 158.662 123.836C158.902 124.004 159.118 124.196 159.31 124.412C159.526 124.628 159.634 124.796 159.634 124.916V138.056L160.894 138.416V139.748C160.894 139.748 160.75 139.784 160.462 139.856C160.198 139.904 159.874 139.964 159.49 140.036C159.106 140.108 158.746 140.168 158.41 140.216C158.098 140.288 157.906 140.324 157.834 140.324ZM156.034 118.004C156.034 117.956 156.13 117.86 156.322 117.716C156.538 117.548 156.778 117.368 157.042 117.176C157.306 116.984 157.546 116.828 157.762 116.708C157.978 116.564 158.11 116.492 158.158 116.492C158.254 116.492 158.41 116.576 158.626 116.744C158.842 116.912 159.058 117.116 159.274 117.356C159.514 117.596 159.718 117.824 159.886 118.04C160.054 118.256 160.126 118.424 160.102 118.544L159.958 119.264C159.934 119.336 159.826 119.456 159.634 119.624C159.442 119.768 159.214 119.936 158.95 120.128C158.71 120.296 158.482 120.452 158.266 120.596C158.05 120.716 157.906 120.776 157.834 120.776C157.738 120.776 157.582 120.692 157.366 120.524C157.15 120.332 156.934 120.116 156.718 119.876C156.502 119.636 156.31 119.408 156.142 119.192C155.998 118.976 155.926 118.832 155.926 118.76L156.034 118.004ZM170.382 146.516C169.902 146.516 169.29 146.48 168.546 146.408C167.826 146.336 167.07 146.24 166.278 146.12C165.51 146 164.814 145.892 164.19 145.796L163.326 142.7L167.79 138.92C167.19 138.92 166.554 138.644 165.882 138.092C165.234 137.54 164.682 136.736 164.226 135.68C163.77 134.6 163.542 133.292 163.542 131.756C163.542 131.06 163.602 130.256 163.722 129.344C163.866 128.432 164.058 127.688 164.298 127.112C164.49 126.848 164.826 126.524 165.306 126.14C165.786 125.756 166.314 125.36 166.89 124.952C167.49 124.544 168.03 124.208 168.51 123.944C169.014 123.68 169.374 123.548 169.59 123.548C169.71 123.548 169.95 123.572 170.31 123.62C170.694 123.668 171.138 123.728 171.642 123.8C172.17 123.872 172.698 123.944 173.226 124.016C173.754 124.088 174.222 124.16 174.63 124.232C175.062 124.304 175.362 124.352 175.53 124.376V140.756C175.53 141.356 175.338 141.98 174.954 142.628C174.57 143.3 174.09 143.924 173.514 144.5C172.938 145.1 172.362 145.58 171.786 145.94C171.21 146.324 170.742 146.516 170.382 146.516ZM171.462 144.86C171.654 144.86 171.81 144.572 171.93 143.996C172.074 143.42 172.182 142.712 172.254 141.872C172.326 141.056 172.362 140.252 172.362 139.46V137.66L172.182 137.588C171.798 137.948 171.318 138.392 170.742 138.92C170.19 139.424 169.614 139.952 169.014 140.504C168.438 141.08 167.898 141.596 167.394 142.052C166.89 142.532 166.506 142.904 166.242 143.168V143.384C166.434 143.48 166.758 143.612 167.214 143.78C167.67 143.948 168.174 144.116 168.726 144.284C169.302 144.452 169.83 144.584 170.31 144.68C170.814 144.8 171.198 144.86 171.462 144.86ZM169.626 137.264C169.722 137.264 169.902 137.192 170.166 137.048C170.454 136.88 170.754 136.688 171.066 136.472C171.402 136.256 171.678 136.076 171.894 135.932C172.134 135.764 172.254 135.68 172.254 135.68V126.32C171.918 126.2 171.474 126.08 170.922 125.96C170.394 125.84 169.89 125.744 169.41 125.672C168.93 125.6 168.594 125.6 168.402 125.672C168.162 125.768 167.946 125.972 167.754 126.284C167.562 126.596 167.406 127.016 167.286 127.544C167.19 128.048 167.106 128.66 167.034 129.38C166.986 130.076 166.962 130.88 166.962 131.792C166.962 133.208 167.13 134.324 167.466 135.14C167.802 135.932 168.186 136.484 168.618 136.796C169.05 137.108 169.386 137.264 169.626 137.264ZM181.208 140.324C181.136 140.324 181.004 140.24 180.812 140.072C180.62 139.904 180.428 139.724 180.236 139.532C180.068 139.34 179.984 139.208 179.984 139.136V125.996L178.724 125.456V124.124C178.724 124.124 178.868 124.1 179.156 124.052C179.468 123.98 179.828 123.92 180.236 123.872C180.644 123.8 181.016 123.74 181.352 123.692C181.712 123.62 181.928 123.584 182 123.584C182.072 123.584 182.204 123.668 182.396 123.836C182.588 123.98 182.756 124.148 182.9 124.34C183.068 124.532 183.152 124.664 183.152 124.736V126.104C183.464 125.864 183.812 125.6 184.196 125.312C184.604 125.024 185 124.748 185.384 124.484C185.768 124.22 186.092 124.004 186.356 123.836C186.644 123.644 186.812 123.548 186.86 123.548C187.94 123.548 188.864 123.728 189.632 124.088C190.4 124.448 190.988 125.072 191.396 125.96C191.828 126.848 192.044 128.072 192.044 129.632V137.876L193.304 138.416V139.748C193.304 139.748 193.148 139.784 192.836 139.856C192.548 139.904 192.188 139.964 191.756 140.036C191.348 140.108 190.976 140.168 190.64 140.216C190.304 140.288 190.1 140.324 190.028 140.324C189.956 140.324 189.812 140.24 189.596 140.072C189.404 139.904 189.212 139.724 189.02 139.532C188.852 139.34 188.768 139.208 188.768 139.136V129.632C188.768 128.48 188.624 127.676 188.336 127.22C188.072 126.74 187.772 126.464 187.436 126.392C187.1 126.296 186.848 126.248 186.68 126.248C186.536 126.248 186.272 126.32 185.888 126.464C185.528 126.608 185.108 126.788 184.628 127.004C184.172 127.196 183.716 127.4 183.26 127.616V137.876L184.484 138.416V139.748C184.484 139.748 184.328 139.784 184.016 139.856C183.728 139.904 183.38 139.964 182.972 140.036C182.564 140.108 182.18 140.168 181.82 140.216C181.484 140.288 181.28 140.324 181.208 140.324Z" fill="#DC4F2C"/>
<path d="M73.9014 74.3857C68.335 69.6494 62.6709 66.3535 56.9092 64.498C56.5674 69.0879 56.3965 74.874 56.3965 81.8564C56.3965 88.8389 57.1533 96.8955 58.667 106.026L35.5225 116.354C39.4287 120.406 44.6289 123.458 51.123 125.509C54.6875 126.632 58.5205 127.193 62.6221 127.193C66.7725 127.193 71.0205 126.827 75.3662 126.095L62.6221 152.901C48.4131 148.263 37.1826 143.771 28.9307 139.425C20.6787 135.03 14.502 129.879 10.4004 123.971C6.34766 118.062 3.90625 110.934 3.07617 102.584C2.53906 97.3594 2.27051 92.0127 2.27051 86.5439C2.27051 81.0264 2.36816 75.9238 2.56348 71.2363L62.7686 41.5732L80.3467 54.3174L73.9014 74.3857ZM36.4014 65.2305C28.3447 69.0879 24.3164 76.168 24.3164 86.4707C24.3164 95.7969 26.6113 103.976 31.2012 111.007C34.3262 108.956 36.2549 104.879 36.9873 98.7754C37.2803 96.3828 37.4268 92.6719 37.4268 87.6426C37.4268 82.5645 37.085 75.0938 36.4014 65.2305Z" fill="#DC4F2C"/>
</svg>
