<svg width="974" height="1624" viewBox="0 0 974 1624" fill="none" xmlns="http://www.w3.org/2000/svg">
<path d="M613.49 1018.87L802.44 1081.8L917.835 1197.2V1231.26L899.733 1249.41L802.391 1346.65L602.419 1413.43H371.48L171.509 1346.65L74.2166 1249.41L56.0146 1231.26V1197.25L171.509 1081.8L360.36 1018.87H426.684L360.36 1031.29L329.242 1038.72L263.915 1129.78V1263.97L329.242 1354.98L486.975 1392.73L644.708 1354.98L710.035 1263.97V1129.78L644.708 1038.72L613.49 1031.29L540.034 1018.87H613.49Z" fill="#B7E6F7"/>
<path d="M968.949 1239.14V1414.67L839.791 1543.83V1368.24L968.949 1239.14Z" fill="#044AFB"/>
<path d="M968.95 1090.03V1239.14L839.792 1368.29L616.133 1442.85H357.867L134.158 1368.29L5 1239.14V1090.03L134.158 960.872L357.867 886.319H616.133L839.792 960.872L969 1090.03H968.95ZM917.935 1197.3V1097.96L802.49 982.465L694.526 946.51L613.59 919.482H360.46L284.96 944.715L171.609 982.465L56.1148 1097.96V1231.31L74.2668 1249.46L171.56 1346.7L371.53 1413.43H602.47L802.44 1346.7L899.783 1249.46L917.885 1231.31V1197.3H917.935Z" fill="white"/>
<path d="M917.884 1097.91V1197.25L917.834 1197.2V1097.91H917.884Z" fill="#D0C3F6"/>
<path d="M802.44 982.415L917.834 1097.91L802.44 982.515V982.415Z" fill="#D0C3F6"/>
<path d="M917.834 1097.91V1197.2L802.44 1081.8V982.515L917.834 1097.91Z" fill="#044AFB"/>
<path d="M839.791 1368.24V1543.83L616.083 1618.38V1442.85L839.741 1368.24H839.791Z" fill="#044AFB"/>
<path d="M802.44 982.414V982.514L802.39 982.464L694.476 946.46L802.44 982.414Z" fill="#D0C3F6"/>
<path d="M710.036 1129.77V1263.97L644.709 1354.98V1220.88L710.036 1129.77Z" fill="#18C9D4"/>
<path d="M644.708 1220.88V1354.98L486.975 1392.73V1258.58L644.708 1220.88Z" fill="#18C9D4"/>
<path d="M616.085 1442.85H357.818V1618.38H616.085V1442.85Z" fill="#50A2FC"/>
<path d="M613.49 919.432V919.482L694.475 946.46L802.39 982.465L802.44 982.515V1081.8L613.49 1018.87H540.034H539.984L480.491 1008.75L426.784 1018.87H426.684H360.359L171.509 1081.8V982.465L284.859 944.665L360.359 919.482L613.49 919.432Z" fill="#044AFB"/>
<path d="M644.707 1038.71L613.49 1031.28L540.034 1018.87H539.984L480.491 1008.74L426.784 1018.87H426.684L360.359 1031.28L329.242 1038.71L263.914 1129.77L329.242 1220.88L486.974 1258.58L644.707 1220.88L710.034 1129.77L644.707 1038.71Z" fill="#A0FEDF"/>
<g style="mix-blend-mode:overlay" opacity="0.8">
<path d="M644.707 1038.71L613.49 1031.28L540.034 1018.87H539.984L480.491 1008.74L426.784 1018.87H426.684L360.359 1031.28L329.242 1038.71L263.914 1129.77L329.242 1220.88L486.974 1258.58L644.707 1220.88L710.034 1129.77L644.707 1038.71Z" stroke="#0000FF" stroke-width="10" stroke-linecap="round" stroke-linejoin="round"/>
</g>
<path d="M486.975 1258.58V1392.73L329.242 1354.98V1220.88L486.975 1258.58Z" fill="#46F2FB"/>
<path d="M357.818 1442.85V1618.38L134.159 1543.83V1368.24L357.818 1442.85Z" fill="#5FBDFF"/>
<path d="M329.242 1220.88V1354.98L263.914 1263.97V1129.77L329.242 1220.88Z" fill="#46F2FB"/>
<path d="M284.859 944.665L171.509 982.465V982.415L284.859 944.665Z" fill="#D0C3F6"/>
<path d="M171.509 982.463V1081.8L56.0146 1197.25V1097.91L171.509 982.463Z" fill="#044AFB"/>
<path d="M134.158 1368.24V1543.83L5 1414.67V1239.14L134.158 1368.24Z" fill="#5FBDFF"/>
<path d="M360.359 919.482L360.409 919.432" stroke="#0000FF" stroke-width="10" stroke-linecap="round" stroke-linejoin="round"/>
<path d="M917.835 1197.2V1231.26L899.733 1249.41L802.391 1346.65L602.419 1413.42H371.48L171.509 1346.65L74.2166 1249.41L56.0146 1231.26V1197.25" stroke="#0000FF" stroke-width="10" stroke-linecap="round" stroke-linejoin="round"/>
<path d="M613.49 919.431L694.476 946.46" stroke="#0000FF" stroke-width="10" stroke-linecap="round" stroke-linejoin="round"/>
<path d="M134.159 1368.24L357.818 1442.8H616.084L839.743 1368.24" stroke="#0000FF" stroke-width="10" stroke-linecap="round" stroke-linejoin="round"/>
<path d="M968.95 1239.14V1090.03L839.742 960.872L616.083 886.319H357.817L134.158 960.872L5 1090.03V1239.14" stroke="#0000FF" stroke-width="10" stroke-linecap="round" stroke-linejoin="round"/>
<path d="M839.791 1368.24L968.949 1239.14V1414.67L839.791 1543.83" stroke="#0000FF" stroke-width="10" stroke-linecap="round" stroke-linejoin="round"/>
<path d="M616.083 1442.85L839.741 1368.24H839.791V1543.83L616.083 1618.38" stroke="#0000FF" stroke-width="10" stroke-linecap="round" stroke-linejoin="round"/>
<path d="M357.818 1442.85H616.085V1618.38H357.818" stroke="#0000FF" stroke-width="10" stroke-linecap="round" stroke-linejoin="round"/>
<path d="M134.159 1368.24L357.818 1442.85V1618.38L134.159 1543.83" stroke="#0000FF" stroke-width="10" stroke-linecap="round" stroke-linejoin="round"/>
<path d="M5 1239.14L134.158 1368.24V1543.83L5 1414.67V1239.14Z" stroke="#0000FF" stroke-width="10" stroke-linecap="round" stroke-linejoin="round"/>
<path d="M171.509 1081.8L56.0146 1197.25V1097.91L171.509 982.463" stroke="#0000FF" stroke-width="10" stroke-linecap="round" stroke-linejoin="round"/>
<path d="M426.684 1018.87H360.359L171.509 1081.8V982.465V982.415L284.859 944.665L360.359 919.482L613.49 919.432" stroke="#0000FF" stroke-width="10" stroke-linecap="round" stroke-linejoin="round"/>
<path d="M802.44 1081.8L613.49 1018.87H540.034" stroke="#0000FF" stroke-width="10" stroke-linecap="round" stroke-linejoin="round"/>
<path d="M613.49 919.481L694.476 946.46L802.44 982.415" stroke="#0000FF" stroke-width="10" stroke-linecap="round" stroke-linejoin="round"/>
<path d="M802.44 982.415L917.834 1097.91H917.884V1197.25L917.834 1197.2L802.44 1081.8V982.515V982.415Z" stroke="#0000FF" stroke-width="10" stroke-linecap="round" stroke-linejoin="round"/>
<path d="M540.034 1018.87L613.49 1031.28L644.707 1038.71L710.034 1129.77V1263.97L644.707 1354.98L486.974 1392.73L329.242 1354.98L263.914 1263.97V1129.77L329.242 1038.71L360.359 1031.28L426.684 1018.87H426.784L480.491 1008.74L539.984 1018.87H540.034Z" stroke="#0000FF" stroke-width="10" stroke-linecap="round" stroke-linejoin="round"/>
<path d="M486.975 1258.58L644.708 1220.88" stroke="#0000FF" stroke-width="10" stroke-linecap="round" stroke-linejoin="round"/>
<path d="M329.242 1220.88L486.975 1258.58V1392.73" stroke="#0000FF" stroke-width="10" stroke-linecap="round" stroke-linejoin="round"/>
<path d="M263.914 1129.77L329.242 1220.88V1354.98" stroke="#0000FF" stroke-width="10" stroke-linecap="round" stroke-linejoin="round"/>
<path d="M644.709 1354.98V1220.88L710.036 1129.77" stroke="#0000FF" stroke-width="10" stroke-linecap="round" stroke-linejoin="round"/>
<path d="M571.204 765.589L644.909 691.036L626.109 678.818L553.251 732.476L571.204 765.589Z" fill="#D9C4FE" stroke="#0000FF" stroke-width="10" stroke-linecap="round" stroke-linejoin="round"/>
<path d="M626.109 678.818L644.909 591.349H655.032L644.909 691.036L626.109 678.818Z" fill="#D9C4FE" stroke="#0000FF" stroke-width="10" stroke-linecap="round" stroke-linejoin="round"/>
<path d="M655.032 591.349H663.71L655.032 697.618L583.622 787.979L571.204 765.589L644.909 691.036L655.032 591.349Z" fill="#AE87E0" stroke="#0000FF" stroke-width="10" stroke-linecap="round" stroke-linejoin="round"/>
<path d="M467.925 285.559L484.032 359.813L467.925 621.969L538.288 800.447L484.032 1179.1L584.217 1133.67L583.619 787.98L484.88 609.951L501.685 359.813L476.602 285.559H467.925Z" fill="#AE87E0" stroke="#0000FF" stroke-width="10" stroke-linecap="round" stroke-linejoin="round"/>
<path d="M467.926 285.559L456.606 287.953L467.926 359.813H484.033L467.926 285.559Z" fill="white" stroke="#0000FF" stroke-width="10" stroke-linecap="round" stroke-linejoin="round"/>
<path d="M467.926 359.813L435.661 621.969H467.926L484.033 359.813H467.926Z" fill="#D9C4FE" stroke="#0000FF" stroke-width="10" stroke-linecap="round" stroke-linejoin="round"/>
<path d="M435.661 621.969L506.225 787.98L538.29 800.447L467.926 621.969H435.661Z" fill="#D9C4FE" stroke="#0000FF" stroke-width="10" stroke-linecap="round" stroke-linejoin="round"/>
<path d="M506.225 787.98L414.168 1140.6L484.033 1179.1L538.29 800.447L506.225 787.98Z" fill="#D9C4FE" stroke="#0000FF" stroke-width="10" stroke-linecap="round" stroke-linejoin="round"/>
<path d="M313.288 490.866L327.65 548.064L471.32 566.366L473.115 537.143H336.277L319.421 489.719L313.288 490.866Z" fill="#AE87E0" stroke="#0000FF" stroke-width="10" stroke-linecap="round" stroke-linejoin="round"/>
<path d="M327.647 548.064L319.169 555.145L303.86 493.458L313.285 490.865L327.647 548.064Z" fill="#D9C4FE" stroke="#0000FF" stroke-width="10" stroke-linecap="round" stroke-linejoin="round"/>
<path d="M319.17 555.147L440.25 584.569L470.32 562.826L327.648 548.065L319.17 555.147Z" fill="#D9C4FE" stroke="#0000FF" stroke-width="10" stroke-linecap="round" stroke-linejoin="round"/>
<path d="M382.152 737.764C387.637 798.902 379.808 869.715 392.574 928.11C405.29 986.506 448.975 1018.97 475.704 1068.09C464.634 1071.18 452.964 1074.77 440.946 1078.66C418.655 1026.6 382.301 990.046 373.674 930.404C365.047 870.762 374.572 800.647 372.926 738.761C376.517 737.963 379.708 737.564 382.152 737.764Z" fill="#D9C4FE" stroke="#0000FF" stroke-width="10" stroke-linecap="round" stroke-linejoin="round"/>
<path d="M382.5 737.463C385.492 737.114 388.484 736.815 391.476 736.466C396.164 797.953 399.455 858.991 408.132 920.13C402.397 923.471 396.513 926.563 390.628 929.655C384.744 865.474 384.195 801.793 382.45 737.413L382.5 737.463Z" fill="#AE87E0" stroke="#0000FF" stroke-width="10" stroke-linecap="round" stroke-linejoin="round"/>
<path d="M408.186 920.13C431.374 966.807 463.938 1003.86 497.051 1043.6C490.019 1051.68 483.038 1059.71 476.006 1067.79C444.49 1022.71 411.677 981.019 390.682 929.705C396.567 926.563 402.401 923.472 408.186 920.18V920.13Z" fill="#AE87E0" stroke="#0000FF" stroke-width="10" stroke-linecap="round" stroke-linejoin="round"/>
<path d="M654.184 628.551L584.219 588.158L653.785 548.014L723.75 588.407L654.184 628.551Z" fill="white" stroke="#0000FF" stroke-width="10" stroke-linecap="round" stroke-linejoin="round"/>
<path d="M654.184 548.114L584.219 507.721L653.785 467.577L723.75 507.97L654.184 548.114Z" fill="#A0FEDF" stroke="#0000FF" stroke-width="10" stroke-linecap="round" stroke-linejoin="round"/>
<path d="M584.219 507.721V588.158L654.184 628.551V548.114L584.219 507.721Z" fill="#46F2FB" stroke="#0000FF" stroke-width="10" stroke-linecap="round" stroke-linejoin="round"/>
<path d="M654.184 548.113L723.75 507.969V588.406L654.184 628.55V548.113Z" fill="#18C9D4" stroke="#0000FF" stroke-width="10" stroke-linecap="round" stroke-linejoin="round"/>
<path d="M382.75 787.382L312.785 746.988L382.302 706.845L452.267 747.238L382.75 787.382Z" fill="white" stroke="#0000FF" stroke-width="10" stroke-linecap="round" stroke-linejoin="round"/>
<path d="M382.75 706.942L312.785 666.549L382.302 626.405L452.267 666.798L382.75 706.942Z" fill="#A0FEDF" stroke="#0000FF" stroke-width="10" stroke-linecap="round" stroke-linejoin="round"/>
<path d="M312.785 666.551V746.988L382.75 787.381V706.944L312.785 666.551Z" fill="#46F2FB" stroke="#0000FF" stroke-width="10" stroke-linecap="round" stroke-linejoin="round"/>
<path d="M382.75 706.944L452.266 666.8V747.237L382.75 787.381V706.944Z" fill="#18C9D4" stroke="#0000FF" stroke-width="10" stroke-linecap="round" stroke-linejoin="round"/>
<path d="M315.978 526.97L246.014 486.577L315.53 446.433L385.495 486.826L315.978 526.97Z" fill="white" stroke="#0000FF" stroke-width="10" stroke-linecap="round" stroke-linejoin="round"/>
<path d="M315.978 446.533L246.014 406.139L315.53 365.996L385.495 406.389L315.978 446.533Z" fill="#A0FEDF" stroke="#0000FF" stroke-width="10" stroke-linecap="round" stroke-linejoin="round"/>
<path d="M246.014 406.139V486.576L315.978 526.97V446.532L246.014 406.139Z" fill="#46F2FB" stroke="#0000FF" stroke-width="10" stroke-linecap="round" stroke-linejoin="round"/>
<path d="M315.979 446.532L385.495 406.389V486.826L315.979 526.97V446.532Z" fill="#18C9D4" stroke="#0000FF" stroke-width="10" stroke-linecap="round" stroke-linejoin="round"/>
<path d="M473.662 386.342L307.9 290.596L472.615 195.497L638.376 291.194L473.662 386.342Z" fill="white" stroke="#0000FF" stroke-width="10" stroke-linecap="round" stroke-linejoin="round"/>
<path d="M473.662 195.795L307.9 100.098L472.615 5L638.376 100.697L473.662 195.795Z" fill="#A0FEDF" stroke="#0000FF" stroke-width="10" stroke-linecap="round" stroke-linejoin="round"/>
<path d="M307.9 100.098V290.594L473.662 386.34V195.794L307.9 100.098Z" fill="#46F2FB" stroke="#0000FF" stroke-width="10" stroke-linecap="round" stroke-linejoin="round"/>
<path d="M473.66 195.796L638.374 100.697V291.193L473.66 386.342V195.796Z" fill="#18C9D4" stroke="#0000FF" stroke-width="10" stroke-linecap="round" stroke-linejoin="round"/>
<path d="M543.925 237.086L473.96 196.693L543.476 156.55L613.491 196.943L543.925 237.086Z" fill="#A0FEDF" stroke="#0000FF" stroke-width="10" stroke-linecap="round" stroke-linejoin="round"/>
<path d="M473.96 196.693V277.081L543.925 317.474V237.087L473.96 196.693Z" fill="#46F2FB" stroke="#0000FF" stroke-width="10" stroke-linecap="round" stroke-linejoin="round"/>
<path d="M543.925 237.086L613.491 196.943V277.33L543.925 317.474V237.086Z" fill="#18C9D4" stroke="#0000FF" stroke-width="10" stroke-linecap="round" stroke-linejoin="round"/>
<path d="M435.862 93.1656L365.897 52.7726L435.413 12.6287L505.378 53.0219L435.862 93.1656Z" fill="#A0FEDF" stroke="#0000FF" stroke-width="10" stroke-linecap="round" stroke-linejoin="round"/>
<path d="M365.897 52.7742V133.211L435.862 173.604V93.1672L365.897 52.7742Z" fill="#46F2FB" stroke="#0000FF" stroke-width="10" stroke-linecap="round" stroke-linejoin="round"/>
<path d="M435.861 93.1672L505.377 53.0234V133.461L435.861 173.604V93.1672Z" fill="#18C9D4" stroke="#0000FF" stroke-width="10" stroke-linecap="round" stroke-linejoin="round"/>
<path d="M358.166 254.34L288.151 213.897L357.717 173.753L427.682 214.196L358.166 254.34Z" fill="#A0FEDF" stroke="#0000FF" stroke-width="10" stroke-linecap="round" stroke-linejoin="round"/>
<path d="M288.151 213.898V294.335L358.166 334.728V254.341L288.151 213.898Z" fill="#46F2FB" stroke="#0000FF" stroke-width="10" stroke-linecap="round" stroke-linejoin="round"/>
<path d="M358.166 254.341L427.682 214.197V294.584L358.166 334.728V254.341Z" fill="#18C9D4" stroke="#0000FF" stroke-width="10" stroke-linecap="round" stroke-linejoin="round"/>
<path d="M772.071 1002.41H720.856V1053.63H772.071V1002.41Z" fill="#F0FD9B" stroke="#0000FF" stroke-width="10" stroke-linecap="round" stroke-linejoin="round"/>
<path d="M250.801 1028.04H199.586V1079.26H250.801V1028.04Z" fill="#F0FD9B" stroke="#0000FF" stroke-width="10" stroke-linecap="round" stroke-linejoin="round"/>
<path d="M240.725 1217.34H205.568V1252.5H240.725V1217.34Z" fill="#F0FD9B" stroke="#0000FF" stroke-width="10" stroke-linecap="round" stroke-linejoin="round"/>
<path d="M381.952 1094.47H346.795V1129.63H381.952V1094.47Z" fill="#F0FD9B" stroke="#0000FF" stroke-width="10" stroke-linecap="round" stroke-linejoin="round"/>
<path d="M621.321 1286.01H586.164V1321.17H621.321V1286.01Z" fill="#F0FD9B" stroke="#0000FF" stroke-width="10" stroke-linecap="round" stroke-linejoin="round"/>
<path d="M675.824 901.13H640.667V936.287H675.824V901.13Z" fill="#F0FD9B" stroke="#0000FF" stroke-width="10" stroke-linecap="round" stroke-linejoin="round"/>
</svg>
