<svg width="185" height="196" viewBox="0 0 185 196" fill="none" xmlns="http://www.w3.org/2000/svg">
<path d="M115.56 137.324C114.48 137.324 113.544 137.144 112.752 136.784C111.984 136.424 111.396 135.8 110.988 134.912C110.58 134.024 110.376 132.8 110.376 131.24V122.996L109.152 122.456V121.124C109.152 121.124 109.296 121.1 109.584 121.052C109.896 120.98 110.256 120.908 110.664 120.836C111.072 120.764 111.444 120.704 111.78 120.656C112.116 120.584 112.32 120.548 112.392 120.548C112.464 120.548 112.596 120.632 112.788 120.8C113.004 120.968 113.196 121.148 113.364 121.34C113.556 121.532 113.652 121.664 113.652 121.736V131.24C113.652 132.392 113.784 133.208 114.048 133.688C114.336 134.168 114.648 134.456 114.984 134.552C115.32 134.624 115.572 134.66 115.74 134.66C115.884 134.66 116.136 134.588 116.496 134.444C116.88 134.276 117.3 134.084 117.756 133.868C118.212 133.652 118.632 133.46 119.016 133.292V122.996L117.792 122.456V121.124C117.792 121.124 117.936 121.1 118.224 121.052C118.536 120.98 118.896 120.908 119.304 120.836C119.712 120.764 120.084 120.704 120.42 120.656C120.78 120.584 120.996 120.548 121.068 120.548C121.14 120.548 121.272 120.632 121.464 120.8C121.656 120.968 121.836 121.148 122.004 121.34C122.196 121.532 122.292 121.664 122.292 121.736V134.876L123.516 135.416V136.748C123.516 136.748 123.36 136.784 123.048 136.856C122.76 136.904 122.412 136.964 122.004 137.036C121.62 137.108 121.248 137.168 120.888 137.216C120.552 137.288 120.348 137.324 120.276 137.324C120.204 137.324 120.072 137.24 119.88 137.072C119.688 136.904 119.508 136.724 119.34 136.532C119.196 136.34 119.124 136.208 119.124 136.136V134.768C118.836 135.008 118.488 135.272 118.08 135.56C117.696 135.848 117.324 136.124 116.964 136.388C116.604 136.652 116.292 136.868 116.028 137.036C115.764 137.228 115.608 137.324 115.56 137.324ZM128.658 137.324C128.586 137.324 128.43 137.228 128.19 137.036C127.95 136.844 127.722 136.64 127.506 136.424C127.314 136.208 127.218 136.064 127.218 135.992V122.852L125.958 122.456V121.124C125.958 121.124 126.09 121.1 126.354 121.052C126.642 120.98 126.978 120.908 127.362 120.836C127.746 120.764 128.094 120.704 128.406 120.656C128.742 120.584 128.946 120.548 129.018 120.548C129.114 120.548 129.27 120.644 129.486 120.836C129.726 121.004 129.942 121.196 130.134 121.412C130.35 121.628 130.458 121.796 130.458 121.916V135.056L131.718 135.416V136.748C131.718 136.748 131.574 136.784 131.286 136.856C131.022 136.904 130.698 136.964 130.314 137.036C129.93 137.108 129.57 137.168 129.234 137.216C128.922 137.288 128.73 137.324 128.658 137.324ZM126.858 115.004C126.858 114.956 126.954 114.86 127.146 114.716C127.362 114.548 127.602 114.368 127.866 114.176C128.13 113.984 128.37 113.828 128.586 113.708C128.802 113.564 128.934 113.492 128.982 113.492C129.078 113.492 129.234 113.576 129.45 113.744C129.666 113.912 129.882 114.116 130.098 114.356C130.338 114.596 130.542 114.824 130.71 115.04C130.878 115.256 130.95 115.424 130.926 115.544L130.782 116.264C130.758 116.336 130.65 116.456 130.458 116.624C130.266 116.768 130.038 116.936 129.774 117.128C129.534 117.296 129.306 117.452 129.09 117.596C128.874 117.716 128.73 117.776 128.658 117.776C128.562 117.776 128.406 117.692 128.19 117.524C127.974 117.332 127.758 117.116 127.542 116.876C127.326 116.636 127.134 116.408 126.966 116.192C126.822 115.976 126.75 115.832 126.75 115.76L126.858 115.004ZM140.378 120.548C140.618 120.548 141.026 120.584 141.602 120.656C142.202 120.728 142.862 120.824 143.582 120.944V116.156L142.322 115.652V114.32C142.322 114.32 142.418 114.308 142.61 114.284C142.826 114.236 143.078 114.188 143.366 114.14C143.678 114.068 143.99 114.008 144.302 113.96C144.638 113.888 144.926 113.84 145.166 113.816C145.406 113.768 145.55 113.744 145.598 113.744C145.67 113.744 145.802 113.828 145.994 113.996C146.21 114.164 146.402 114.344 146.57 114.536C146.762 114.704 146.858 114.836 146.858 114.932L146.678 121.628V134.912L147.902 135.416V136.748C147.902 136.748 147.758 136.784 147.47 136.856C147.182 136.904 146.834 136.964 146.426 137.036C146.042 137.108 145.682 137.168 145.346 137.216C145.01 137.288 144.806 137.324 144.734 137.324C144.686 137.324 144.554 137.24 144.338 137.072C144.146 136.904 143.954 136.724 143.762 136.532C143.594 136.34 143.51 136.208 143.51 136.136V134.732C143.102 135.044 142.622 135.404 142.07 135.812C141.542 136.22 141.074 136.58 140.666 136.892C140.258 137.18 140.006 137.324 139.91 137.324C138.998 137.324 138.11 137.06 137.246 136.532C136.382 135.98 135.674 135.14 135.122 134.012C134.57 132.884 134.294 131.444 134.294 129.692C134.294 128.42 134.378 127.304 134.546 126.344C134.714 125.36 134.918 124.616 135.158 124.112C135.35 123.848 135.686 123.524 136.166 123.14C136.646 122.732 137.162 122.336 137.714 121.952C138.29 121.544 138.818 121.208 139.298 120.944C139.802 120.68 140.162 120.548 140.378 120.548ZM139.118 122.636C138.854 122.684 138.614 122.9 138.398 123.284C138.182 123.668 138.014 124.328 137.894 125.264C137.798 126.2 137.75 127.52 137.75 129.224C137.75 130.568 137.894 131.636 138.182 132.428C138.494 133.22 138.83 133.796 139.19 134.156C139.574 134.492 139.886 134.66 140.126 134.66C140.222 134.66 140.438 134.588 140.774 134.444C141.11 134.3 141.482 134.132 141.89 133.94C142.298 133.748 142.646 133.58 142.934 133.436C143.246 133.292 143.402 133.22 143.402 133.22V123.32C142.994 123.2 142.49 123.08 141.89 122.96C141.314 122.84 140.762 122.744 140.234 122.672C139.73 122.6 139.358 122.588 139.118 122.636ZM153.887 129.116C153.887 130.676 154.091 131.864 154.499 132.68C154.931 133.496 155.411 134.048 155.939 134.336C156.467 134.624 156.899 134.768 157.235 134.768C157.331 134.768 157.559 134.768 157.919 134.768C158.279 134.744 158.699 134.72 159.179 134.696C159.659 134.672 160.139 134.648 160.619 134.624C161.099 134.6 161.519 134.588 161.879 134.588V136.064C161.447 136.208 160.955 136.352 160.403 136.496C159.851 136.64 159.299 136.772 158.747 136.892C158.195 137.012 157.703 137.108 157.271 137.18C156.863 137.276 156.575 137.324 156.407 137.324C155.423 137.324 154.475 137.06 153.562 136.532C152.651 135.98 151.895 135.152 151.295 134.048C150.719 132.92 150.431 131.492 150.431 129.764C150.431 128.564 150.515 127.46 150.683 126.452C150.851 125.444 151.055 124.712 151.295 124.256C151.487 123.968 151.823 123.62 152.303 123.212C152.807 122.78 153.347 122.372 153.923 121.988C154.523 121.58 155.075 121.244 155.579 120.98C156.083 120.692 156.455 120.548 156.695 120.548C158.015 120.548 159.083 120.764 159.899 121.196C160.739 121.628 161.363 122.444 161.771 123.644C162.179 124.82 162.383 126.56 162.383 128.864L152.303 129.908V128.54L158.891 127.46C158.891 125.996 158.735 124.844 158.423 124.004C158.111 123.14 157.439 122.708 156.407 122.708C156.215 122.708 155.999 122.72 155.759 122.744C155.543 122.768 155.303 122.84 155.039 122.96C154.703 123.128 154.427 123.776 154.211 124.904C153.995 126.008 153.887 127.412 153.887 129.116Z" fill="#DC4F2C"/>
<path d="M81.5918 74.8252C92.041 83.1748 100.122 92.1348 105.835 101.705C94.7021 124.41 77.6123 141.085 54.5654 151.729C21.8506 138.546 5.49316 118.6 5.49316 91.8906C5.49316 89.9375 5.59082 87.96 5.78613 85.958C21.0205 63.8877 37.915 49.0928 56.4697 41.5732C66.626 48.6533 80.5176 54.4639 98.1445 59.0049L81.5918 74.8252ZM55.0049 62.5205C54.5654 67.4521 54.3457 71.8223 54.3457 75.6309C54.3457 79.4395 54.3945 82.6377 54.4922 85.2256C57.1777 82.7354 59.9365 80.2451 62.7686 77.7549C65.6006 75.2646 68.3594 72.7256 71.0449 70.1377C66.8457 66.8662 61.499 64.3271 55.0049 62.5205ZM54.6387 88.8145C54.8828 94.7227 55.3467 100.606 56.0303 106.466C50.9521 107.394 44.9707 110.738 38.0859 116.5C42.0898 120.162 46.6553 123.507 51.7822 126.534C56.958 129.562 61.792 131.075 66.2842 131.075C67.5537 131.075 68.8232 130.978 70.0928 130.782C78.1494 129.464 82.666 125.875 83.6426 120.016C83.8867 118.453 84.0088 116.939 84.0088 115.475C84.0088 111.373 83.0566 107.735 81.1523 104.562C79.248 101.339 76.123 98.2139 71.7773 95.1865C67.4316 92.1104 61.7188 89.9863 54.6387 88.8145ZM32.666 111.153C33.9355 108.37 34.668 105.172 34.8633 101.559L35.5225 76.0703C35.5713 73.873 34.8389 71.041 33.3252 67.5742C32.5439 68.2578 31.8359 69.0635 31.2012 69.9912C26.7578 75.9482 24.5361 82.6377 24.5361 90.0596C24.5361 98.1162 27.2461 105.147 32.666 111.153Z" fill="#DC4F2C"/>
</svg>
