<svg width="341" height="615" viewBox="0 0 341 615" fill="none" xmlns="http://www.w3.org/2000/svg">
<path d="M84.25 141H319.75C323.202 141 326 143.798 326 147.25C326 150.702 323.202 153.5 319.75 153.5H84.25C80.7982 153.5 78 150.702 78 147.25C78 143.798 80.7982 141 84.25 141Z" fill="#FCC036" stroke="#EEFD90" stroke-width="2"/>
<g filter="url(#filter0_d_44_368)">
<path d="M319 603V155V139H293.5V155H214.5V139H186.5V155H109.5V139H84V155V603L199 491.5L319 603Z" fill="#D4BCFE"/>
<path d="M319 603V155V139H293.5V155H214.5V139H186.5V155H109.5V139H84V155V603L199 491.5L319 603Z" stroke="#A47CDB" stroke-width="3"/>
</g>
<path d="M277.514 120.448L284.486 135.552C285.66 138.096 283.802 141 281 141V141C278.198 141 276.34 138.096 277.514 135.552L284.486 120.448C285.66 117.904 283.802 115 281 115V115C278.198 115 276.34 117.904 277.514 120.448Z" stroke="#FCC036" stroke-width="2"/>
<path d="M277.514 28.4478L284.486 43.5522C285.66 46.096 283.802 49 281 49V49C278.198 49 276.34 46.096 277.514 43.5522L284.486 28.4478C285.66 25.904 283.802 23 281 23V23C278.198 23 276.34 25.904 277.514 28.4478Z" stroke="#FCC036" stroke-width="2"/>
<path d="M120.514 120.448L127.486 135.552C128.66 138.096 126.802 141 124 141V141C121.198 141 119.34 138.096 120.514 135.552L127.486 120.448C128.66 117.904 126.802 115 124 115V115C121.198 115 119.34 117.904 120.514 120.448Z" stroke="#FCC036" stroke-width="2"/>
<path d="M120.514 28.4478L127.486 43.5522C128.66 46.096 126.802 49 124 49V49C121.198 49 119.34 46.096 120.514 43.5522L127.486 28.4478C128.66 25.904 126.802 23 124 23V23C121.198 23 119.34 25.904 120.514 28.4478Z" stroke="#FCC036" stroke-width="2"/>
<rect x="-1.5" y="1.5" width="233" height="63" transform="matrix(-1 0 0 1 317 49)" fill="#603BB1" stroke="#D4BCFE" stroke-width="3"/>
<rect x="-1.5" y="1.5" width="338" height="20" transform="matrix(-1 0 0 1 338 0)" fill="#815F5F" stroke="#644545" stroke-width="3"/>
<defs>
<filter id="filter0_d_44_368" x="78.5" y="137.5" width="246" height="477.044" filterUnits="userSpaceOnUse" color-interpolation-filters="sRGB">
<feFlood flood-opacity="0" result="BackgroundImageFix"/>
<feColorMatrix in="SourceAlpha" type="matrix" values="0 0 0 0 0 0 0 0 0 0 0 0 0 0 0 0 0 0 127 0" result="hardAlpha"/>
<feOffset dy="4"/>
<feGaussianBlur stdDeviation="2"/>
<feComposite in2="hardAlpha" operator="out"/>
<feColorMatrix type="matrix" values="0 0 0 0 0 0 0 0 0 0 0 0 0 0 0 0 0 0 0.25 0"/>
<feBlend mode="normal" in2="BackgroundImageFix" result="effect1_dropShadow_44_368"/>
<feBlend mode="normal" in="SourceGraphic" in2="effect1_dropShadow_44_368" result="shape"/>
</filter>
</defs>
</svg>
