<svg width="300" height="615" viewBox="0 0 300 615" fill="none" xmlns="http://www.w3.org/2000/svg">
<g id="leaderboard-text">
<path id="Vector 8" d="M43.25 141H278.75C282.202 141 285 143.798 285 147.25C285 150.702 282.202 153.5 278.75 153.5H43.25C39.7982 153.5 37 150.702 37 147.25C37 143.798 39.7982 141 43.25 141Z" fill="#FCC036" stroke="#FFFBC7" stroke-width="2"/>
<g id="Vector 9" filter="url(#filter0_d_63_186)">
<path d="M278 603V155V139H252.5V155H173.5V139H145.5V155H68.5V139H43V155V603L158 491.5L278 603Z" fill="#D4BCFE"/>
<path d="M278 603V155V139H252.5V155H173.5V139H145.5V155H68.5V139H43V155V603L158 491.5L278 603Z" stroke="#A47CDB" stroke-width="3"/>
</g>
<path id="Vector 10" d="M236.514 120.448L243.486 135.552C244.66 138.096 242.802 141 240 141V141C237.198 141 235.34 138.096 236.514 135.552L243.486 120.448C244.66 117.904 242.802 115 240 115V115C237.198 115 235.34 117.904 236.514 120.448Z" stroke="#FCC036" stroke-width="2"/>
<path id="Vector 11" d="M236.514 28.4478L243.486 43.5522C244.66 46.096 242.802 49 240 49V49C237.198 49 235.34 46.096 236.514 43.5522L243.486 28.4478C244.66 25.904 242.802 23 240 23V23C237.198 23 235.34 25.904 236.514 28.4478Z" stroke="#FCC036" stroke-width="2"/>
<path id="Vector 12" d="M79.5144 120.448L86.4857 135.552C87.6597 138.096 85.8017 141 83 141V141C80.1983 141 78.3403 138.096 79.5144 135.552L86.4857 120.448C87.6597 117.904 85.8017 115 83 115V115C80.1983 115 78.3403 117.904 79.5144 120.448Z" stroke="#FCC036" stroke-width="2"/>
<path id="Vector 13" d="M79.5144 28.4478L86.4857 43.5522C87.6597 46.096 85.8017 49 83 49V49C80.1983 49 78.3403 46.096 79.5144 43.5522L86.4857 28.4478C87.6597 25.904 85.8017 23 83 23V23C80.1983 23 78.3403 25.904 79.5144 28.4478Z" stroke="#FCC036" stroke-width="2"/>
<rect id="Rectangle 126" x="-1.5" y="1.5" width="233" height="63" transform="matrix(-1 0 0 1 276 49)" fill="#603BB1" stroke="#D4BCFE" stroke-width="3"/>
<rect id="Rectangle 127" x="-1.5" y="1.5" width="297" height="20" transform="matrix(-1 0 0 1 297 0)" fill="#815F5F" stroke="#644545" stroke-width="3"/>
<path id="rank-1" d="M91.0172 189.5V231.5H85.7586H80.5V207.929V189.5H91.0172ZM94.0172 231.5V189.5L271.173 189.5L248.298 210.685L247.04 211.85L248.362 212.942L270.829 231.5L94.0172 231.5Z" fill="#FFFBC7" stroke="#FCC036" stroke-width="3"/>
<path id="rank-1-text" d="M101.66 218V208.22H103.2V209.42H103.48C103.653 208.993 103.92 208.68 104.28 208.48C104.64 208.28 105.113 208.18 105.7 208.18H106.86V209.62H105.6C104.893 209.62 104.32 209.82 103.88 210.22C103.453 210.607 103.24 211.213 103.24 212.04V218H101.66ZM111.867 218.28C111.187 218.28 110.567 218.16 110.007 217.92C109.447 217.68 109.007 217.333 108.687 216.88C108.367 216.427 108.207 215.873 108.207 215.22C108.207 214.553 108.367 214.007 108.687 213.58C109.007 213.14 109.447 212.813 110.007 212.6C110.567 212.373 111.194 212.26 111.887 212.26H115.187V211.54C115.187 210.847 114.98 210.3 114.567 209.9C114.167 209.5 113.567 209.3 112.767 209.3C111.98 209.3 111.367 209.493 110.927 209.88C110.487 210.253 110.187 210.76 110.027 211.4L108.547 210.92C108.707 210.373 108.96 209.88 109.307 209.44C109.654 208.987 110.114 208.627 110.687 208.36C111.274 208.08 111.974 207.94 112.787 207.94C114.04 207.94 115.014 208.267 115.707 208.92C116.4 209.56 116.747 210.467 116.747 211.64V216.06C116.747 216.46 116.934 216.66 117.307 216.66H118.207V218H116.827C116.387 218 116.034 217.88 115.767 217.64C115.5 217.387 115.367 217.053 115.367 216.64V216.54H115.127C114.98 216.793 114.78 217.06 114.527 217.34C114.287 217.607 113.954 217.827 113.527 218C113.1 218.187 112.547 218.28 111.867 218.28ZM112.047 216.92C112.98 216.92 113.734 216.647 114.307 216.1C114.894 215.54 115.187 214.76 115.187 213.76V213.54H111.947C111.32 213.54 110.8 213.68 110.387 213.96C109.987 214.227 109.787 214.633 109.787 215.18C109.787 215.727 109.994 216.153 110.407 216.46C110.834 216.767 111.38 216.92 112.047 216.92ZM120.371 218V208.22H121.911V209.88H122.191C122.404 209.413 122.764 208.993 123.271 208.62C123.791 208.233 124.551 208.04 125.551 208.04C126.284 208.04 126.938 208.193 127.511 208.5C128.098 208.807 128.564 209.26 128.911 209.86C129.258 210.46 129.431 211.2 129.431 212.08V218H127.851V212.2C127.851 211.227 127.604 210.52 127.111 210.08C126.631 209.64 125.978 209.42 125.151 209.42C124.204 209.42 123.431 209.727 122.831 210.34C122.244 210.953 121.951 211.867 121.951 213.08V218H120.371ZM132.637 218V204H134.217V212.24H134.497L138.977 208.22H141.177L135.757 212.98L141.337 218H139.157L134.497 213.74H134.217V218H132.637ZM142.713 213.58V212.12H148.633V213.58H142.713ZM155.374 218V205.08H155.074L152.354 210.06H150.594L153.934 204H156.994V218H155.374ZM160.174 213.58V212.12H166.094V213.58H160.174ZM172.408 218C171.848 218 171.415 217.847 171.108 217.54C170.815 217.233 170.668 216.813 170.668 216.28V209.6H167.728V208.22H170.668V204.74H172.248V208.22H175.448V209.6H172.248V216.04C172.248 216.44 172.442 216.64 172.828 216.64H175.008V218H172.408ZM182.136 218.28C181.149 218.28 180.283 218.073 179.536 217.66C178.789 217.233 178.209 216.64 177.796 215.88C177.383 215.12 177.176 214.24 177.176 213.24V213C177.176 211.987 177.383 211.1 177.796 210.34C178.209 209.58 178.783 208.993 179.516 208.58C180.249 208.153 181.089 207.94 182.036 207.94C182.956 207.94 183.769 208.14 184.476 208.54C185.183 208.927 185.736 209.487 186.136 210.22C186.536 210.953 186.736 211.813 186.736 212.8V213.52H178.756C178.796 214.573 179.136 215.4 179.776 216C180.416 216.587 181.216 216.88 182.176 216.88C183.016 216.88 183.663 216.687 184.116 216.3C184.569 215.913 184.916 215.453 185.156 214.92L186.516 215.58C186.316 215.993 186.036 216.407 185.676 216.82C185.329 217.233 184.869 217.58 184.296 217.86C183.736 218.14 183.016 218.28 182.136 218.28ZM178.776 212.22H185.136C185.083 211.313 184.769 210.607 184.196 210.1C183.636 209.593 182.916 209.34 182.036 209.34C181.143 209.34 180.409 209.593 179.836 210.1C179.263 210.607 178.909 211.313 178.776 212.22ZM188.028 218L191.948 213.04L188.148 208.22H190.048L192.968 212H193.248L196.148 208.22H198.068L194.248 213.04L198.168 218H196.248L193.248 214.1H192.968L189.968 218H188.028ZM204.283 218C203.723 218 203.29 217.847 202.983 217.54C202.69 217.233 202.543 216.813 202.543 216.28V209.6H199.603V208.22H202.543V204.74H204.123V208.22H207.323V209.6H204.123V216.04C204.123 216.44 204.317 216.64 204.703 216.64H206.883V218H204.283Z" fill="#603BB1"/>
<path id="rank-2" d="M91.0172 249.5V291.5H85.7586H80.5V267.929V249.5H91.0172ZM94.0172 291.5V249.5L271.173 249.5L248.298 270.685L247.04 271.85L248.362 272.942L270.829 291.5H94.0172Z" fill="#FFFBC7" stroke="#FCC036" stroke-width="3"/>
<path id="rank-3" d="M91.0172 307.5V349.5H85.7586H80.5V325.929V307.5H91.0172ZM94.0172 349.5V307.5L271.173 307.5L248.298 328.685L247.04 329.85L248.362 330.942L270.829 349.5H94.0172Z" fill="#FFFBC7" stroke="#FCC036" stroke-width="3"/>
<path id="rank-4" d="M91.0172 367.5V409.5H85.7586H80.5V385.929V367.5H91.0172ZM94.0172 409.5V367.5L271.173 367.5L248.298 388.685L247.04 389.85L248.362 390.942L270.829 409.5H94.0172Z" fill="#FFFBC7" stroke="#FCC036" stroke-width="3"/>
<path id="rank-5" d="M91.0172 427.5V469.5H85.7586H80.5V445.929V427.5H91.0172ZM94.0172 469.5V427.5L271.173 427.5L248.298 448.685L247.04 449.85L248.362 450.942L270.829 469.5H94.0172Z" fill="#FFFBC7" stroke="#FCC036" stroke-width="3"/>
<path id="1" d="M68.4062 197.844L68.1016 230.211C64.7109 230.32 60.9141 231.391 56.7109 233.422L55.3281 231.5C57.7969 231.266 59.5 228.961 60.4375 224.586C61.0156 221.914 61.3047 219.039 61.3047 215.961C61.3047 212.883 61.1875 209.938 60.9531 207.125L52.375 207.055L52.0234 205.109C58.0859 203.922 63.5469 201.5 68.4062 197.844Z" fill="#603BB1"/>
<path id="2" d="M75.7188 280.938L73.9141 291.273C70.6016 290.789 67.3594 290.547 64.1875 290.547C60.5 290.547 56.5938 290.789 52.4688 291.273C54.4062 289.477 56.3047 287.648 58.1641 285.789C60.0234 283.93 61.8359 281.852 63.6016 279.555C66.1016 276.273 67.3516 273.516 67.3516 271.281C67.3516 268.906 65.6094 266.758 62.125 264.836C61.625 264.57 61.1953 264.438 60.8359 264.438C60.4922 264.438 60.1797 264.539 59.8984 264.742C59.6172 264.93 59.4766 265.203 59.4766 265.562C59.4766 265.922 59.5625 266.297 59.7344 266.688C60.1562 267.688 60.8203 268.5 61.7266 269.125C62.6484 269.75 63.5469 270.312 64.4219 270.812C63.625 271.938 62.8203 273.055 62.0078 274.164C61.2109 275.258 60.4219 276.352 59.6406 277.445C56.0156 274.273 54.2031 271.711 54.2031 269.758C54.2031 267.789 55.5312 265.414 58.1875 262.633C60.8438 259.852 63.0391 258.461 64.7734 258.461C66.5547 258.461 68.6875 259.617 71.1719 261.93C73.6719 264.242 74.9219 266.523 74.9219 268.773C74.9219 270.055 74.4922 271.305 73.6328 272.523C71.2578 275.867 68.1562 279.531 64.3281 283.516L68.5703 283.539C69.2734 283.539 69.9766 283.531 70.6797 283.516C72.6328 283.484 74.0156 282.406 74.8281 280.281C75.0312 280.438 75.3281 280.656 75.7188 280.938Z" fill="#603BB1"/>
<path id="3" d="M68.7578 325.984C72.9297 329.688 75.0156 333.305 75.0156 336.836C75.0156 339.805 73.5703 342.445 70.6797 344.758C67.4141 347.32 64.4531 348.602 61.7969 348.602C61.125 348.602 60.4688 348.516 59.8281 348.344C56.7031 347.531 54.25 345.234 52.4688 341.453C53.5 340.312 54.5312 339.18 55.5625 338.055C56.6094 336.914 57.6562 335.766 58.7031 334.609C59.4062 339.125 60.625 342.203 62.3594 343.844C63.125 344.578 63.9766 344.945 64.9141 344.945C65.8516 344.945 66.8672 344.375 67.9609 343.234C69.0547 342.078 69.6016 340.977 69.6016 339.93C69.6016 338.883 69.1797 337.859 68.3359 336.859C66.5391 334.781 63.7266 332.992 59.8984 331.492C61.9141 329.07 64.1719 326.312 66.6719 323.219C64.7656 322.969 63.2031 322.844 61.9844 322.844C60.7656 322.844 59.7734 322.906 59.0078 323.031C57.0859 323.297 56.1328 324.25 56.1484 325.891C55.8828 325.766 55.6172 325.641 55.3516 325.516C55.0859 325.391 54.8281 325.273 54.5781 325.164C55.125 323.148 55.625 321.281 56.0781 319.562C56.5469 317.844 57.0625 315.969 57.625 313.938C60.0781 315.875 62.8828 316.898 66.0391 317.008C69.2109 317.102 72.4141 317.18 75.6484 317.242L68.7578 325.984Z" fill="#603BB1"/>
<path id="4" d="M64.2109 395.766C64.2109 395.516 64.2109 394.938 64.2109 394.031C64.2109 393.125 64.1016 391.477 63.8828 389.086L71.1484 381.07C70.7422 386.617 70.5 391.383 70.4219 395.367C71.7188 395.242 73.0938 395.047 74.5469 394.781L74.3828 401.859L70.4922 401.812C70.6016 404.656 70.8203 406.977 71.1484 408.773C68.3984 409.039 64.9062 409.742 60.6719 410.883C62.1094 408.148 63.1172 405.086 63.6953 401.695L52.2109 401.508L62.7812 376.664L71.8984 376.383C66.0859 382.352 61.5703 388.766 58.3516 395.625C59.9766 395.734 61.25 395.789 62.1719 395.789C63.0938 395.789 63.7734 395.781 64.2109 395.766Z" fill="#603BB1"/>
<path id="5" d="M55.1406 453.141C57.4062 446.969 58.5938 441.352 58.7031 436.289C62.0625 437.086 66.5781 437.484 72.25 437.484C71.5938 438.562 70.9531 439.648 70.3281 440.742C69.7031 441.82 69.0781 442.883 68.4531 443.93C67.9688 443.961 67.1562 443.977 66.0156 443.977C64.8906 443.977 62.9531 443.719 60.2031 443.203C60.1406 444.828 60.1094 445.656 60.1094 445.688C66.9531 446.719 71.1094 449.078 72.5781 452.766C72.9531 453.688 73.1406 454.656 73.1406 455.672C73.1406 458.672 71.4922 462.055 68.1953 465.82C65.4766 468.898 62.8984 470.438 60.4609 470.438C60.1016 470.438 59.75 470.406 59.4062 470.344C56.6562 469.812 54.3438 468.398 52.4688 466.102C53.1562 462.523 53.7109 459.766 54.1328 457.828C56.3828 460.562 58.75 462.695 61.2344 464.227C62.1719 464.805 63.0078 465.094 63.7422 465.094C64.9453 465.094 65.8672 464.352 66.5078 462.867C67.1484 461.367 67.4688 460.062 67.4688 458.953C67.4688 457.109 66.6172 455.719 64.9141 454.781C62.7734 453.594 60.3203 453 57.5547 453C56.7734 453 55.9688 453.047 55.1406 453.141Z" fill="#603BB1"/>
<path id="eaderboard" d="M102.36 86.24C102.36 87.9733 102.587 89.2933 103.04 90.2C103.52 91.1067 104.053 91.72 104.64 92.04C105.227 92.36 105.707 92.52 106.08 92.52C106.187 92.52 106.44 92.52 106.84 92.52C107.24 92.4933 107.707 92.4667 108.24 92.44C108.773 92.4133 109.307 92.3867 109.84 92.36C110.373 92.3333 110.84 92.32 111.24 92.32V93.96C110.76 94.12 110.213 94.28 109.6 94.44C108.987 94.6 108.373 94.7467 107.76 94.88C107.147 95.0133 106.6 95.12 106.12 95.2C105.667 95.3067 105.347 95.36 105.16 95.36C104.067 95.36 103.013 95.0667 102 94.48C100.987 93.8667 100.147 92.9467 99.48 91.72C98.84 90.4667 98.52 88.88 98.52 86.96C98.52 85.6267 98.6133 84.4 98.8 83.28C98.9867 82.16 99.2133 81.3467 99.48 80.84C99.6933 80.52 100.067 80.1333 100.6 79.68C101.16 79.2 101.76 78.7467 102.4 78.32C103.067 77.8667 103.68 77.4933 104.24 77.2C104.8 76.88 105.213 76.72 105.48 76.72C106.947 76.72 108.133 76.96 109.04 77.44C109.973 77.92 110.667 78.8267 111.12 80.16C111.573 81.4667 111.8 83.4 111.8 85.96L100.6 87.12V85.6L107.92 84.4C107.92 82.7733 107.747 81.4933 107.4 80.56C107.053 79.6 106.307 79.12 105.16 79.12C104.947 79.12 104.707 79.1333 104.44 79.16C104.2 79.1867 103.933 79.2667 103.64 79.4C103.267 79.5867 102.96 80.3067 102.72 81.56C102.48 82.7867 102.36 84.3467 102.36 86.24ZM119.971 95.36C118.744 95.36 117.718 95.1467 116.891 94.72C116.091 94.2667 115.491 93.6533 115.091 92.88C114.691 92.1067 114.491 91.2267 114.491 90.24C114.491 89.6267 114.558 88.9733 114.691 88.28C114.851 87.5867 115.131 86.9467 115.531 86.36L118.331 87.8C118.251 88.0667 118.184 88.4 118.131 88.8C118.078 89.1733 118.051 89.56 118.051 89.96C118.051 90.7333 118.184 91.3333 118.451 91.76C118.718 92.1867 119.304 92.4 120.211 92.4C120.344 92.4 120.638 92.3067 121.091 92.12C121.544 91.9067 122.078 91.6533 122.691 91.36C123.331 91.04 123.958 90.7333 124.571 90.44V92.08C123.931 92.56 123.264 93.0533 122.571 93.56C121.904 94.0667 121.331 94.4933 120.851 94.84C120.371 95.1867 120.078 95.36 119.971 95.36ZM115.531 86.36L124.171 85.08V86.84L117.851 88.16L115.531 86.36ZM115.811 79.28L116.371 76.84C117.331 76.7867 118.184 76.76 118.931 76.76C119.678 76.7333 120.384 76.7333 121.051 76.76C121.718 76.76 122.398 76.7867 123.091 76.84C123.491 76.8667 123.931 77.0667 124.411 77.44C124.918 77.7867 125.398 78.2267 125.851 78.76C126.331 79.2667 126.718 79.8 127.011 80.36C127.331 80.8933 127.491 81.36 127.491 81.76V92.64L128.891 93.24V94.72C128.358 94.8267 127.824 94.92 127.291 95C126.784 95.1067 126.344 95.1867 125.971 95.24C125.598 95.32 125.358 95.36 125.251 95.36C125.171 95.36 125.024 95.2667 124.811 95.08C124.598 94.92 124.398 94.7333 124.211 94.52C124.051 94.3067 123.971 94.1467 123.971 94.04V92.08L123.851 91.6V82.56C123.851 81.68 123.678 81.0267 123.331 80.6C123.011 80.1733 122.504 79.9333 121.811 79.88C121.544 79.8533 121.104 79.84 120.491 79.84C119.878 79.84 119.198 79.8533 118.451 79.88C117.704 79.88 116.998 79.8933 116.331 79.92L115.811 79.28ZM138.093 76.72C138.359 76.72 138.813 76.76 139.453 76.84C140.119 76.92 140.853 77.0267 141.653 77.16V71.84L140.253 71.28V69.8C140.253 69.8 140.359 69.7867 140.573 69.76C140.813 69.7067 141.093 69.6533 141.413 69.6C141.759 69.52 142.106 69.4533 142.453 69.4C142.826 69.32 143.146 69.2667 143.413 69.24C143.679 69.1867 143.839 69.16 143.893 69.16C143.973 69.16 144.119 69.2533 144.333 69.44C144.573 69.6267 144.786 69.8267 144.973 70.04C145.186 70.2267 145.293 70.3733 145.293 70.48L145.093 77.92V92.68L146.453 93.24V94.72C146.453 94.72 146.293 94.76 145.973 94.84C145.653 94.8933 145.266 94.96 144.813 95.04C144.386 95.12 143.986 95.1867 143.613 95.24C143.239 95.32 143.013 95.36 142.933 95.36C142.879 95.36 142.733 95.2667 142.493 95.08C142.279 94.8933 142.066 94.6933 141.853 94.48C141.666 94.2667 141.572 94.12 141.572 94.04V92.48C141.119 92.8267 140.586 93.2267 139.973 93.68C139.386 94.1333 138.866 94.5333 138.413 94.88C137.959 95.2 137.679 95.36 137.573 95.36C136.559 95.36 135.573 95.0667 134.613 94.48C133.653 93.8667 132.866 92.9333 132.253 91.68C131.639 90.4267 131.333 88.8267 131.333 86.88C131.333 85.4667 131.426 84.2267 131.613 83.16C131.799 82.0667 132.026 81.24 132.293 80.68C132.506 80.3867 132.879 80.0267 133.413 79.6C133.946 79.1467 134.519 78.7067 135.133 78.28C135.773 77.8267 136.359 77.4533 136.893 77.16C137.453 76.8667 137.853 76.72 138.093 76.72ZM136.693 79.04C136.399 79.0933 136.133 79.3333 135.893 79.76C135.653 80.1867 135.466 80.92 135.333 81.96C135.226 83 135.173 84.4667 135.173 86.36C135.173 87.8533 135.333 89.04 135.653 89.92C135.999 90.8 136.373 91.44 136.773 91.84C137.199 92.2133 137.546 92.4 137.813 92.4C137.919 92.4 138.159 92.32 138.533 92.16C138.906 92 139.319 91.8133 139.773 91.6C140.226 91.3867 140.613 91.2 140.933 91.04C141.279 90.88 141.453 90.8 141.453 90.8V79.8C140.999 79.6667 140.439 79.5333 139.773 79.4C139.133 79.2667 138.519 79.16 137.933 79.08C137.373 79 136.959 78.9867 136.693 79.04ZM153.102 86.24C153.102 87.9733 153.329 89.2933 153.782 90.2C154.262 91.1067 154.796 91.72 155.382 92.04C155.969 92.36 156.449 92.52 156.822 92.52C156.929 92.52 157.182 92.52 157.582 92.52C157.982 92.4933 158.449 92.4667 158.982 92.44C159.516 92.4133 160.049 92.3867 160.582 92.36C161.116 92.3333 161.582 92.32 161.982 92.32V93.96C161.502 94.12 160.956 94.28 160.342 94.44C159.729 94.6 159.116 94.7467 158.502 94.88C157.889 95.0133 157.342 95.12 156.862 95.2C156.409 95.3067 156.089 95.36 155.902 95.36C154.809 95.36 153.756 95.0667 152.742 94.48C151.729 93.8667 150.889 92.9467 150.222 91.72C149.582 90.4667 149.262 88.88 149.262 86.96C149.262 85.6267 149.356 84.4 149.542 83.28C149.729 82.16 149.956 81.3467 150.222 80.84C150.436 80.52 150.809 80.1333 151.342 79.68C151.902 79.2 152.502 78.7467 153.142 78.32C153.809 77.8667 154.422 77.4933 154.982 77.2C155.542 76.88 155.956 76.72 156.222 76.72C157.689 76.72 158.876 76.96 159.782 77.44C160.716 77.92 161.409 78.8267 161.862 80.16C162.316 81.4667 162.542 83.4 162.542 85.96L151.342 87.12V85.6L158.662 84.4C158.662 82.7733 158.489 81.4933 158.142 80.56C157.796 79.6 157.049 79.12 155.902 79.12C155.689 79.12 155.449 79.1333 155.182 79.16C154.942 79.1867 154.676 79.2667 154.382 79.4C154.009 79.5867 153.702 80.3067 153.462 81.56C153.222 82.7867 153.102 84.3467 153.102 86.24ZM168.073 95.36C167.993 95.36 167.846 95.2667 167.633 95.08C167.42 94.8933 167.206 94.6933 166.993 94.48C166.806 94.2667 166.713 94.12 166.713 94.04V79.32L165.313 78.84V77.36C165.313 77.36 165.46 77.3333 165.753 77.28C166.073 77.2 166.446 77.12 166.873 77.04C167.3 76.96 167.686 76.8933 168.033 76.84C168.406 76.76 168.633 76.72 168.713 76.72C168.793 76.72 168.966 76.8267 169.233 77.04C169.5 77.2533 169.74 77.48 169.953 77.72C170.193 77.96 170.313 78.12 170.313 78.2L170.233 79.76C170.606 79.3867 170.953 79.0267 171.273 78.68C171.62 78.3067 171.94 77.9733 172.233 77.68C172.526 77.3867 172.766 77.16 172.953 77C173.166 76.8133 173.3 76.72 173.353 76.72C173.646 76.72 174.086 76.8 174.673 76.96C175.26 77.12 175.713 77.2533 176.033 77.36C176.086 77.52 176.14 77.7333 176.193 78C176.246 78.2667 176.273 78.4667 176.273 78.6C176.273 78.68 176.22 78.8267 176.113 79.04C176.033 79.2533 175.926 79.48 175.793 79.72C175.686 79.96 175.566 80.1733 175.433 80.36C175.326 80.5467 175.246 80.6533 175.193 80.68C175.006 80.6 174.793 80.52 174.553 80.44C174.313 80.36 174.06 80.2933 173.793 80.24C173.553 80.1867 173.313 80.16 173.073 80.16C172.993 80.16 172.86 80.2 172.673 80.28C172.486 80.3333 172.273 80.4267 172.033 80.56C171.793 80.6667 171.526 80.8 171.233 80.96C170.966 81.0933 170.673 81.2533 170.353 81.44V92.48L172.393 93.08V94.72C172.393 94.72 172.26 94.7467 171.993 94.8C171.726 94.8267 171.393 94.88 170.993 94.96C170.593 95.0133 170.18 95.0667 169.753 95.12C169.326 95.2 168.953 95.2533 168.633 95.28C168.34 95.3333 168.153 95.36 168.073 95.36ZM186.456 76.72C187.229 76.72 187.976 76.8933 188.696 77.24C189.443 77.56 190.109 78.0667 190.696 78.76C191.309 79.4533 191.789 80.3333 192.136 81.4C192.509 82.4667 192.696 83.7333 192.696 85.2C192.696 86.5867 192.603 87.8267 192.416 88.92C192.256 90.0133 192.029 90.84 191.736 91.4C191.523 91.6933 191.149 92.0667 190.616 92.52C190.083 92.9467 189.496 93.3867 188.856 93.84C188.243 94.2667 187.656 94.6267 187.096 94.92C186.563 95.2133 186.176 95.36 185.936 95.36C185.803 95.36 185.429 95.3333 184.816 95.28C184.229 95.2267 183.549 95.1467 182.776 95.04C182.003 94.96 181.256 94.88 180.536 94.8C179.843 94.6933 179.309 94.6 178.936 94.52V71.84L177.536 71.28V69.8C177.749 69.7467 178.043 69.6933 178.416 69.64C178.789 69.56 179.176 69.4933 179.576 69.44C179.976 69.36 180.323 69.2933 180.616 69.24C180.909 69.1867 181.096 69.16 181.176 69.16C181.256 69.16 181.403 69.2533 181.616 69.44C181.856 69.6267 182.069 69.8267 182.256 70.04C182.469 70.2267 182.576 70.3733 182.576 70.48L182.376 79.44L182.576 79.48C183.029 79.1333 183.536 78.7467 184.096 78.32C184.683 77.8933 185.203 77.52 185.656 77.2C186.109 76.88 186.376 76.72 186.456 76.72ZM186.216 79.68C186.136 79.68 185.869 79.7733 185.416 79.96C184.989 80.1467 184.509 80.36 183.976 80.6C183.443 80.84 182.976 81.0667 182.576 81.28V92.28C183.003 92.4133 183.536 92.5467 184.176 92.68C184.843 92.8133 185.469 92.92 186.056 93C186.669 93.0533 187.096 93.0667 187.336 93.04C187.656 92.9867 187.923 92.7467 188.136 92.32C188.376 91.8933 188.549 91.16 188.656 90.12C188.789 89.0533 188.856 87.5867 188.856 85.72C188.856 84.2533 188.683 83.08 188.336 82.2C188.016 81.32 187.643 80.68 187.216 80.28C186.816 79.88 186.483 79.68 186.216 79.68ZM204.067 95.36C201.32 95.36 199.24 94.6667 197.827 93.28C196.44 91.8933 195.747 89.7067 195.747 86.72C195.747 85.52 195.84 84.3733 196.027 83.28C196.213 82.16 196.44 81.3467 196.707 80.84C196.92 80.52 197.293 80.1333 197.827 79.68C198.387 79.2 198.987 78.7467 199.627 78.32C200.293 77.8667 200.907 77.4933 201.467 77.2C202.027 76.88 202.427 76.72 202.667 76.72C205.36 76.72 207.387 77.4533 208.747 78.92C210.133 80.36 210.827 82.4267 210.827 85.12C210.827 86.4267 210.733 87.64 210.547 88.76C210.36 89.88 210.16 90.76 209.947 91.4C209.733 91.6667 209.36 92.0267 208.827 92.48C208.293 92.9067 207.693 93.3467 207.027 93.8C206.387 94.2533 205.787 94.6267 205.227 94.92C204.693 95.2133 204.307 95.36 204.067 95.36ZM204.267 93.08C204.373 93.0533 204.587 92.96 204.907 92.8C205.227 92.64 205.533 92.48 205.827 92.32C206.147 92.16 206.307 92.08 206.307 92.08C206.44 91.4667 206.587 90.6533 206.747 89.64C206.907 88.6267 206.987 87.2933 206.987 85.64C206.987 84.3067 206.813 83.16 206.467 82.2C206.147 81.2133 205.653 80.4533 204.987 79.92C204.32 79.36 203.48 79.08 202.467 79.08C202.2 79.08 201.933 79.1067 201.667 79.16C201.4 79.1867 201.133 79.2667 200.867 79.4C200.52 79.5867 200.213 80.2667 199.947 81.44C199.707 82.6133 199.587 84.1867 199.587 86.16C199.587 88.0533 199.827 89.5067 200.307 90.52C200.787 91.5067 201.387 92.1867 202.107 92.56C202.827 92.9067 203.547 93.08 204.267 93.08ZM219.112 95.36C217.885 95.36 216.858 95.1467 216.032 94.72C215.232 94.2667 214.632 93.6533 214.232 92.88C213.832 92.1067 213.632 91.2267 213.632 90.24C213.632 89.6267 213.698 88.9733 213.832 88.28C213.992 87.5867 214.272 86.9467 214.672 86.36L217.472 87.8C217.392 88.0667 217.325 88.4 217.272 88.8C217.218 89.1733 217.192 89.56 217.192 89.96C217.192 90.7333 217.325 91.3333 217.592 91.76C217.858 92.1867 218.445 92.4 219.352 92.4C219.485 92.4 219.778 92.3067 220.232 92.12C220.685 91.9067 221.218 91.6533 221.832 91.36C222.472 91.04 223.098 90.7333 223.712 90.44V92.08C223.072 92.56 222.405 93.0533 221.712 93.56C221.045 94.0667 220.472 94.4933 219.992 94.84C219.512 95.1867 219.218 95.36 219.112 95.36ZM214.672 86.36L223.312 85.08V86.84L216.992 88.16L214.672 86.36ZM214.952 79.28L215.512 76.84C216.472 76.7867 217.325 76.76 218.072 76.76C218.818 76.7333 219.525 76.7333 220.192 76.76C220.858 76.76 221.538 76.7867 222.232 76.84C222.632 76.8667 223.072 77.0667 223.552 77.44C224.058 77.7867 224.538 78.2267 224.992 78.76C225.472 79.2667 225.858 79.8 226.152 80.36C226.472 80.8933 226.632 81.36 226.632 81.76V92.64L228.032 93.24V94.72C227.498 94.8267 226.965 94.92 226.432 95C225.925 95.1067 225.485 95.1867 225.112 95.24C224.738 95.32 224.498 95.36 224.392 95.36C224.312 95.36 224.165 95.2667 223.952 95.08C223.738 94.92 223.538 94.7333 223.352 94.52C223.192 94.3067 223.112 94.1467 223.112 94.04V92.08L222.992 91.6V82.56C222.992 81.68 222.818 81.0267 222.472 80.6C222.152 80.1733 221.645 79.9333 220.952 79.88C220.685 79.8533 220.245 79.84 219.632 79.84C219.018 79.84 218.338 79.8533 217.592 79.88C216.845 79.88 216.138 79.8933 215.472 79.92L214.952 79.28ZM233.073 95.36C232.993 95.36 232.846 95.2667 232.633 95.08C232.42 94.8933 232.206 94.6933 231.993 94.48C231.806 94.2667 231.713 94.12 231.713 94.04V79.32L230.313 78.84V77.36C230.313 77.36 230.46 77.3333 230.753 77.28C231.073 77.2 231.446 77.12 231.873 77.04C232.3 76.96 232.686 76.8933 233.033 76.84C233.406 76.76 233.633 76.72 233.713 76.72C233.793 76.72 233.966 76.8267 234.233 77.04C234.5 77.2533 234.74 77.48 234.953 77.72C235.193 77.96 235.313 78.12 235.313 78.2L235.233 79.76C235.606 79.3867 235.953 79.0267 236.273 78.68C236.62 78.3067 236.94 77.9733 237.233 77.68C237.526 77.3867 237.766 77.16 237.953 77C238.166 76.8133 238.3 76.72 238.353 76.72C238.646 76.72 239.086 76.8 239.673 76.96C240.26 77.12 240.713 77.2533 241.033 77.36C241.086 77.52 241.14 77.7333 241.193 78C241.246 78.2667 241.273 78.4667 241.273 78.6C241.273 78.68 241.22 78.8267 241.113 79.04C241.033 79.2533 240.926 79.48 240.793 79.72C240.686 79.96 240.566 80.1733 240.433 80.36C240.326 80.5467 240.246 80.6533 240.193 80.68C240.006 80.6 239.793 80.52 239.553 80.44C239.313 80.36 239.06 80.2933 238.793 80.24C238.553 80.1867 238.313 80.16 238.073 80.16C237.993 80.16 237.86 80.2 237.673 80.28C237.486 80.3333 237.273 80.4267 237.033 80.56C236.793 80.6667 236.526 80.8 236.233 80.96C235.966 81.0933 235.673 81.2533 235.353 81.44V92.48L237.393 93.08V94.72C237.393 94.72 237.26 94.7467 236.993 94.8C236.726 94.8267 236.393 94.88 235.993 94.96C235.593 95.0133 235.18 95.0667 234.753 95.12C234.326 95.2 233.953 95.2533 233.633 95.28C233.34 95.3333 233.153 95.36 233.073 95.36ZM249.225 76.72C249.492 76.72 249.945 76.76 250.585 76.84C251.252 76.92 251.985 77.0267 252.785 77.16V71.84L251.385 71.28V69.8C251.385 69.8 251.492 69.7867 251.705 69.76C251.945 69.7067 252.225 69.6533 252.545 69.6C252.892 69.52 253.239 69.4533 253.585 69.4C253.959 69.32 254.279 69.2667 254.545 69.24C254.812 69.1867 254.972 69.16 255.025 69.16C255.105 69.16 255.252 69.2533 255.465 69.44C255.705 69.6267 255.919 69.8267 256.105 70.04C256.319 70.2267 256.425 70.3733 256.425 70.48L256.225 77.92V92.68L257.585 93.24V94.72C257.585 94.72 257.425 94.76 257.105 94.84C256.785 94.8933 256.399 94.96 255.945 95.04C255.519 95.12 255.119 95.1867 254.745 95.24C254.372 95.32 254.145 95.36 254.065 95.36C254.012 95.36 253.865 95.2667 253.625 95.08C253.412 94.8933 253.199 94.6933 252.985 94.48C252.799 94.2667 252.705 94.12 252.705 94.04V92.48C252.252 92.8267 251.719 93.2267 251.105 93.68C250.519 94.1333 249.999 94.5333 249.545 94.88C249.092 95.2 248.812 95.36 248.705 95.36C247.692 95.36 246.705 95.0667 245.745 94.48C244.785 93.8667 243.999 92.9333 243.385 91.68C242.772 90.4267 242.465 88.8267 242.465 86.88C242.465 85.4667 242.559 84.2267 242.745 83.16C242.932 82.0667 243.159 81.24 243.425 80.68C243.639 80.3867 244.012 80.0267 244.545 79.6C245.079 79.1467 245.652 78.7067 246.265 78.28C246.905 77.8267 247.492 77.4533 248.025 77.16C248.585 76.8667 248.985 76.72 249.225 76.72ZM247.825 79.04C247.532 79.0933 247.265 79.3333 247.025 79.76C246.785 80.1867 246.599 80.92 246.465 81.96C246.359 83 246.305 84.4667 246.305 86.36C246.305 87.8533 246.465 89.04 246.785 89.92C247.132 90.8 247.505 91.44 247.905 91.84C248.332 92.2133 248.679 92.4 248.945 92.4C249.052 92.4 249.292 92.32 249.665 92.16C250.039 92 250.452 91.8133 250.905 91.6C251.359 91.3867 251.745 91.2 252.065 91.04C252.412 90.88 252.585 90.8 252.585 90.8V79.8C252.132 79.6667 251.572 79.5333 250.905 79.4C250.265 79.2667 249.652 79.16 249.065 79.08C248.505 79 248.092 78.9867 247.825 79.04Z" fill="#D4BCFE"/>
<path id="L" d="M96.2539 61.3457C93.1107 61.4121 90.0449 61.7773 87.0566 62.4414C86.8353 64.0352 86.7246 66.0163 86.7246 68.3848C86.7246 70.7533 86.9238 73.0111 87.3223 75.1582C87.7207 77.3053 87.9199 78.9102 87.9199 79.9727C87.9199 81.7878 86.5697 83.7578 83.8691 85.8828C82.209 87.2995 80.5378 88.6829 78.8555 90.0332C77.1732 91.3835 75.502 92.7337 73.8418 94.084C80.6374 95.9212 87.8203 96.8398 95.3906 96.8398C95.8112 96.8398 96.2428 96.8398 96.6855 96.8398C95.6673 98.4779 94.8372 99.7396 94.1953 100.625C93.5755 101.51 92.7676 102.75 91.7715 104.344C91.041 105.428 89.9342 105.971 88.4512 105.971C87.8092 105.971 86.1712 105.694 83.5371 105.141C80.9251 104.587 77.3945 103.868 72.9453 102.982C68.5182 102.075 64.1022 101.156 59.6973 100.227C63.416 95.7331 65.7181 91.9479 66.6035 88.8711C66.9577 87.6094 67.1348 86.2148 67.1348 84.6875C67.1348 83.1602 66.6035 81.1901 65.541 78.7773C64.5007 76.3646 63.7591 74.2839 63.3164 72.5352C62.8958 70.7865 62.6855 69.6022 62.6855 68.9824C62.6855 67.4329 63.2832 66.3926 64.4785 65.8613C68.153 64.2454 71.9714 62.7624 75.9336 61.4121C79.8958 60.0397 83.2051 58.8001 85.8613 57.6934C88.5176 56.5645 90.3216 56 91.2734 56C92.2253 56 92.9779 56.1992 93.5312 56.5977C94.7487 57.5052 95.6562 59.0879 96.2539 61.3457ZM79.1875 77.1836L78.6895 69.4473C78.6895 68.0749 78.7891 66.6803 78.9883 65.2637C78.5013 65.5072 77.7819 65.9056 76.8301 66.459C74.9486 67.5879 74.0078 68.9935 74.0078 70.6758C74.0078 71.2513 74.5501 73.819 75.6348 78.3789C76.0553 80.2383 76.2656 81.8542 76.2656 83.2266C76.2656 84.599 76.1992 85.75 76.0664 86.6797C77.1953 85.8607 77.9922 84.3776 78.457 82.2305C78.944 80.0612 79.1875 78.3789 79.1875 77.1836Z" fill="#D4BCFE"/>
<path id="rank-2-text" d="M102.66 277V267.22H104.2V268.42H104.48C104.653 267.993 104.92 267.68 105.28 267.48C105.64 267.28 106.113 267.18 106.7 267.18H107.86V268.62H106.6C105.893 268.62 105.32 268.82 104.88 269.22C104.453 269.607 104.24 270.213 104.24 271.04V277H102.66ZM112.867 277.28C112.187 277.28 111.567 277.16 111.007 276.92C110.447 276.68 110.007 276.333 109.687 275.88C109.367 275.427 109.207 274.873 109.207 274.22C109.207 273.553 109.367 273.007 109.687 272.58C110.007 272.14 110.447 271.813 111.007 271.6C111.567 271.373 112.194 271.26 112.887 271.26H116.187V270.54C116.187 269.847 115.98 269.3 115.567 268.9C115.167 268.5 114.567 268.3 113.767 268.3C112.98 268.3 112.367 268.493 111.927 268.88C111.487 269.253 111.187 269.76 111.027 270.4L109.547 269.92C109.707 269.373 109.96 268.88 110.307 268.44C110.654 267.987 111.114 267.627 111.687 267.36C112.274 267.08 112.974 266.94 113.787 266.94C115.04 266.94 116.014 267.267 116.707 267.92C117.4 268.56 117.747 269.467 117.747 270.64V275.06C117.747 275.46 117.934 275.66 118.307 275.66H119.207V277H117.827C117.387 277 117.034 276.88 116.767 276.64C116.5 276.387 116.367 276.053 116.367 275.64V275.54H116.127C115.98 275.793 115.78 276.06 115.527 276.34C115.287 276.607 114.954 276.827 114.527 277C114.1 277.187 113.547 277.28 112.867 277.28ZM113.047 275.92C113.98 275.92 114.734 275.647 115.307 275.1C115.894 274.54 116.187 273.76 116.187 272.76V272.54H112.947C112.32 272.54 111.8 272.68 111.387 272.96C110.987 273.227 110.787 273.633 110.787 274.18C110.787 274.727 110.994 275.153 111.407 275.46C111.834 275.767 112.38 275.92 113.047 275.92ZM121.371 277V267.22H122.911V268.88H123.191C123.404 268.413 123.764 267.993 124.271 267.62C124.791 267.233 125.551 267.04 126.551 267.04C127.284 267.04 127.938 267.193 128.511 267.5C129.098 267.807 129.564 268.26 129.911 268.86C130.258 269.46 130.431 270.2 130.431 271.08V277H128.851V271.2C128.851 270.227 128.604 269.52 128.111 269.08C127.631 268.64 126.978 268.42 126.151 268.42C125.204 268.42 124.431 268.727 123.831 269.34C123.244 269.953 122.951 270.867 122.951 272.08V277H121.371ZM133.637 277V263H135.217V271.24H135.497L139.977 267.22H142.177L136.757 271.98L142.337 277H140.157L135.497 272.74H135.217V277H133.637ZM143.713 272.58V271.12H149.633V272.58H143.713ZM152.294 277V275.54C152.294 274.54 152.468 273.74 152.814 273.14C153.174 272.54 153.668 272.06 154.294 271.7C154.934 271.327 155.694 271.007 156.574 270.74L157.674 270.4C158.274 270.213 158.801 269.987 159.254 269.72C159.708 269.44 160.061 269.093 160.314 268.68C160.568 268.253 160.694 267.733 160.694 267.12V267.04C160.694 266.16 160.388 265.467 159.774 264.96C159.161 264.44 158.374 264.18 157.414 264.18C156.401 264.18 155.574 264.453 154.934 265C154.294 265.533 153.974 266.347 153.974 267.44V267.72H152.374V267.46C152.374 266.447 152.594 265.587 153.034 264.88C153.474 264.173 154.074 263.64 154.834 263.28C155.594 262.907 156.454 262.72 157.414 262.72C158.374 262.72 159.221 262.9 159.954 263.26C160.701 263.62 161.281 264.12 161.694 264.76C162.108 265.4 162.314 266.147 162.314 267V267.18C162.314 268.087 162.134 268.84 161.774 269.44C161.414 270.027 160.914 270.507 160.274 270.88C159.648 271.253 158.908 271.573 158.054 271.84L156.974 272.18C156.294 272.393 155.728 272.62 155.274 272.86C154.834 273.087 154.501 273.38 154.274 273.74C154.048 274.1 153.934 274.587 153.934 275.2V275.54H162.194V277H152.294ZM164.768 272.58V271.12H170.688V272.58H164.768ZM177.002 277C176.442 277 176.009 276.847 175.702 276.54C175.409 276.233 175.262 275.813 175.262 275.28V268.6H172.322V267.22H175.262V263.74H176.842V267.22H180.042V268.6H176.842V275.04C176.842 275.44 177.036 275.64 177.422 275.64H179.602V277H177.002ZM186.73 277.28C185.743 277.28 184.877 277.073 184.13 276.66C183.383 276.233 182.803 275.64 182.39 274.88C181.977 274.12 181.77 273.24 181.77 272.24V272C181.77 270.987 181.977 270.1 182.39 269.34C182.803 268.58 183.377 267.993 184.11 267.58C184.843 267.153 185.683 266.94 186.63 266.94C187.55 266.94 188.363 267.14 189.07 267.54C189.777 267.927 190.33 268.487 190.73 269.22C191.13 269.953 191.33 270.813 191.33 271.8V272.52H183.35C183.39 273.573 183.73 274.4 184.37 275C185.01 275.587 185.81 275.88 186.77 275.88C187.61 275.88 188.257 275.687 188.71 275.3C189.163 274.913 189.51 274.453 189.75 273.92L191.11 274.58C190.91 274.993 190.63 275.407 190.27 275.82C189.923 276.233 189.463 276.58 188.89 276.86C188.33 277.14 187.61 277.28 186.73 277.28ZM183.37 271.22H189.73C189.677 270.313 189.363 269.607 188.79 269.1C188.23 268.593 187.51 268.34 186.63 268.34C185.737 268.34 185.003 268.593 184.43 269.1C183.857 269.607 183.503 270.313 183.37 271.22ZM192.622 277L196.542 272.04L192.742 267.22H194.642L197.562 271H197.842L200.742 267.22H202.662L198.842 272.04L202.762 277H200.842L197.842 273.1H197.562L194.562 277H192.622ZM208.877 277C208.317 277 207.884 276.847 207.577 276.54C207.284 276.233 207.137 275.813 207.137 275.28V268.6H204.197V267.22H207.137V263.74H208.717V267.22H211.917V268.6H208.717V275.04C208.717 275.44 208.911 275.64 209.297 275.64H211.477V277H208.877Z" fill="#603BB1"/>
<path id="rank-3-text" d="M101.66 336V326.22H103.2V327.42H103.48C103.653 326.993 103.92 326.68 104.28 326.48C104.64 326.28 105.113 326.18 105.7 326.18H106.86V327.62H105.6C104.893 327.62 104.32 327.82 103.88 328.22C103.453 328.607 103.24 329.213 103.24 330.04V336H101.66ZM111.867 336.28C111.187 336.28 110.567 336.16 110.007 335.92C109.447 335.68 109.007 335.333 108.687 334.88C108.367 334.427 108.207 333.873 108.207 333.22C108.207 332.553 108.367 332.007 108.687 331.58C109.007 331.14 109.447 330.813 110.007 330.6C110.567 330.373 111.194 330.26 111.887 330.26H115.187V329.54C115.187 328.847 114.98 328.3 114.567 327.9C114.167 327.5 113.567 327.3 112.767 327.3C111.98 327.3 111.367 327.493 110.927 327.88C110.487 328.253 110.187 328.76 110.027 329.4L108.547 328.92C108.707 328.373 108.96 327.88 109.307 327.44C109.654 326.987 110.114 326.627 110.687 326.36C111.274 326.08 111.974 325.94 112.787 325.94C114.04 325.94 115.014 326.267 115.707 326.92C116.4 327.56 116.747 328.467 116.747 329.64V334.06C116.747 334.46 116.934 334.66 117.307 334.66H118.207V336H116.827C116.387 336 116.034 335.88 115.767 335.64C115.5 335.387 115.367 335.053 115.367 334.64V334.54H115.127C114.98 334.793 114.78 335.06 114.527 335.34C114.287 335.607 113.954 335.827 113.527 336C113.1 336.187 112.547 336.28 111.867 336.28ZM112.047 334.92C112.98 334.92 113.734 334.647 114.307 334.1C114.894 333.54 115.187 332.76 115.187 331.76V331.54H111.947C111.32 331.54 110.8 331.68 110.387 331.96C109.987 332.227 109.787 332.633 109.787 333.18C109.787 333.727 109.994 334.153 110.407 334.46C110.834 334.767 111.38 334.92 112.047 334.92ZM120.371 336V326.22H121.911V327.88H122.191C122.404 327.413 122.764 326.993 123.271 326.62C123.791 326.233 124.551 326.04 125.551 326.04C126.284 326.04 126.938 326.193 127.511 326.5C128.098 326.807 128.564 327.26 128.911 327.86C129.258 328.46 129.431 329.2 129.431 330.08V336H127.851V330.2C127.851 329.227 127.604 328.52 127.111 328.08C126.631 327.64 125.978 327.42 125.151 327.42C124.204 327.42 123.431 327.727 122.831 328.34C122.244 328.953 121.951 329.867 121.951 331.08V336H120.371ZM132.637 336V322H134.217V330.24H134.497L138.977 326.22H141.177L135.757 330.98L141.337 336H139.157L134.497 331.74H134.217V336H132.637ZM142.713 331.58V330.12H148.633V331.58H142.713ZM156.294 336.28C155.308 336.28 154.421 336.093 153.634 335.72C152.861 335.347 152.248 334.807 151.794 334.1C151.354 333.393 151.134 332.54 151.134 331.54V331.16H152.754V331.52C152.754 332.547 153.081 333.353 153.734 333.94C154.388 334.527 155.241 334.82 156.294 334.82C157.361 334.82 158.188 334.547 158.774 334C159.374 333.44 159.674 332.74 159.674 331.9V331.74C159.674 331.127 159.528 330.633 159.234 330.26C158.941 329.873 158.541 329.593 158.034 329.42C157.541 329.233 156.994 329.14 156.394 329.14H154.114V327.12L159.454 323.7V323.46H151.474V322H161.174V324.26L155.954 327.62V327.86H156.954C157.741 327.86 158.461 328.007 159.114 328.3C159.781 328.58 160.308 329.007 160.694 329.58C161.094 330.14 161.294 330.847 161.294 331.7V331.92C161.294 332.8 161.088 333.567 160.674 334.22C160.261 334.873 159.681 335.38 158.934 335.74C158.188 336.1 157.308 336.28 156.294 336.28ZM163.885 331.58V330.12H169.805V331.58H163.885ZM176.119 336C175.559 336 175.126 335.847 174.819 335.54C174.526 335.233 174.379 334.813 174.379 334.28V327.6H171.439V326.22H174.379V322.74H175.959V326.22H179.159V327.6H175.959V334.04C175.959 334.44 176.153 334.64 176.539 334.64H178.719V336H176.119ZM185.847 336.28C184.86 336.28 183.994 336.073 183.247 335.66C182.5 335.233 181.92 334.64 181.507 333.88C181.094 333.12 180.887 332.24 180.887 331.24V331C180.887 329.987 181.094 329.1 181.507 328.34C181.92 327.58 182.494 326.993 183.227 326.58C183.96 326.153 184.8 325.94 185.747 325.94C186.667 325.94 187.48 326.14 188.187 326.54C188.894 326.927 189.447 327.487 189.847 328.22C190.247 328.953 190.447 329.813 190.447 330.8V331.52H182.467C182.507 332.573 182.847 333.4 183.487 334C184.127 334.587 184.927 334.88 185.887 334.88C186.727 334.88 187.374 334.687 187.827 334.3C188.28 333.913 188.627 333.453 188.867 332.92L190.227 333.58C190.027 333.993 189.747 334.407 189.387 334.82C189.04 335.233 188.58 335.58 188.007 335.86C187.447 336.14 186.727 336.28 185.847 336.28ZM182.487 330.22H188.847C188.794 329.313 188.48 328.607 187.907 328.1C187.347 327.593 186.627 327.34 185.747 327.34C184.854 327.34 184.12 327.593 183.547 328.1C182.974 328.607 182.62 329.313 182.487 330.22ZM191.739 336L195.659 331.04L191.859 326.22H193.759L196.679 330H196.959L199.859 326.22H201.779L197.959 331.04L201.879 336H199.959L196.959 332.1H196.679L193.679 336H191.739ZM207.994 336C207.434 336 207.001 335.847 206.694 335.54C206.401 335.233 206.254 334.813 206.254 334.28V327.6H203.314V326.22H206.254V322.74H207.834V326.22H211.034V327.6H207.834V334.04C207.834 334.44 208.028 334.64 208.414 334.64H210.594V336H207.994Z" fill="#603BB1"/>
<path id="rank-4-text" d="M101.66 396V386.22H103.2V387.42H103.48C103.653 386.993 103.92 386.68 104.28 386.48C104.64 386.28 105.113 386.18 105.7 386.18H106.86V387.62H105.6C104.893 387.62 104.32 387.82 103.88 388.22C103.453 388.607 103.24 389.213 103.24 390.04V396H101.66ZM111.867 396.28C111.187 396.28 110.567 396.16 110.007 395.92C109.447 395.68 109.007 395.333 108.687 394.88C108.367 394.427 108.207 393.873 108.207 393.22C108.207 392.553 108.367 392.007 108.687 391.58C109.007 391.14 109.447 390.813 110.007 390.6C110.567 390.373 111.194 390.26 111.887 390.26H115.187V389.54C115.187 388.847 114.98 388.3 114.567 387.9C114.167 387.5 113.567 387.3 112.767 387.3C111.98 387.3 111.367 387.493 110.927 387.88C110.487 388.253 110.187 388.76 110.027 389.4L108.547 388.92C108.707 388.373 108.96 387.88 109.307 387.44C109.654 386.987 110.114 386.627 110.687 386.36C111.274 386.08 111.974 385.94 112.787 385.94C114.04 385.94 115.014 386.267 115.707 386.92C116.4 387.56 116.747 388.467 116.747 389.64V394.06C116.747 394.46 116.934 394.66 117.307 394.66H118.207V396H116.827C116.387 396 116.034 395.88 115.767 395.64C115.5 395.387 115.367 395.053 115.367 394.64V394.54H115.127C114.98 394.793 114.78 395.06 114.527 395.34C114.287 395.607 113.954 395.827 113.527 396C113.1 396.187 112.547 396.28 111.867 396.28ZM112.047 394.92C112.98 394.92 113.734 394.647 114.307 394.1C114.894 393.54 115.187 392.76 115.187 391.76V391.54H111.947C111.32 391.54 110.8 391.68 110.387 391.96C109.987 392.227 109.787 392.633 109.787 393.18C109.787 393.727 109.994 394.153 110.407 394.46C110.834 394.767 111.38 394.92 112.047 394.92ZM120.371 396V386.22H121.911V387.88H122.191C122.404 387.413 122.764 386.993 123.271 386.62C123.791 386.233 124.551 386.04 125.551 386.04C126.284 386.04 126.938 386.193 127.511 386.5C128.098 386.807 128.564 387.26 128.911 387.86C129.258 388.46 129.431 389.2 129.431 390.08V396H127.851V390.2C127.851 389.227 127.604 388.52 127.111 388.08C126.631 387.64 125.978 387.42 125.151 387.42C124.204 387.42 123.431 387.727 122.831 388.34C122.244 388.953 121.951 389.867 121.951 391.08V396H120.371ZM132.637 396V382H134.217V390.24H134.497L138.977 386.22H141.177L135.757 390.98L141.337 396H139.157L134.497 391.74H134.217V396H132.637ZM142.713 391.58V390.12H148.633V391.58H142.713ZM158.174 396V393.14H150.874V391.22L156.754 382H159.794V391.68H162.194V393.14H159.794V396H158.174ZM152.494 391.68H158.174V382.98H157.894L152.494 391.44V391.68ZM164.314 391.58V390.12H170.234V391.58H164.314ZM176.549 396C175.989 396 175.556 395.847 175.249 395.54C174.956 395.233 174.809 394.813 174.809 394.28V387.6H171.869V386.22H174.809V382.74H176.389V386.22H179.589V387.6H176.389V394.04C176.389 394.44 176.582 394.64 176.969 394.64H179.149V396H176.549ZM186.277 396.28C185.29 396.28 184.423 396.073 183.677 395.66C182.93 395.233 182.35 394.64 181.937 393.88C181.523 393.12 181.317 392.24 181.317 391.24V391C181.317 389.987 181.523 389.1 181.937 388.34C182.35 387.58 182.923 386.993 183.657 386.58C184.39 386.153 185.23 385.94 186.177 385.94C187.097 385.94 187.91 386.14 188.617 386.54C189.323 386.927 189.877 387.487 190.277 388.22C190.677 388.953 190.877 389.813 190.877 390.8V391.52H182.897C182.937 392.573 183.277 393.4 183.917 394C184.557 394.587 185.357 394.88 186.317 394.88C187.157 394.88 187.803 394.687 188.257 394.3C188.71 393.913 189.057 393.453 189.297 392.92L190.657 393.58C190.457 393.993 190.177 394.407 189.817 394.82C189.47 395.233 189.01 395.58 188.437 395.86C187.877 396.14 187.157 396.28 186.277 396.28ZM182.917 390.22H189.277C189.223 389.313 188.91 388.607 188.337 388.1C187.777 387.593 187.057 387.34 186.177 387.34C185.283 387.34 184.55 387.593 183.977 388.1C183.403 388.607 183.05 389.313 182.917 390.22ZM192.169 396L196.089 391.04L192.289 386.22H194.189L197.109 390H197.389L200.289 386.22H202.209L198.389 391.04L202.309 396H200.389L197.389 392.1H197.109L194.109 396H192.169ZM208.424 396C207.864 396 207.431 395.847 207.124 395.54C206.831 395.233 206.684 394.813 206.684 394.28V387.6H203.744V386.22H206.684V382.74H208.264V386.22H211.464V387.6H208.264V394.04C208.264 394.44 208.457 394.64 208.844 394.64H211.024V396H208.424Z" fill="#603BB1"/>
<path id="rank-5-text" d="M101.66 456V446.22H103.2V447.42H103.48C103.653 446.993 103.92 446.68 104.28 446.48C104.64 446.28 105.113 446.18 105.7 446.18H106.86V447.62H105.6C104.893 447.62 104.32 447.82 103.88 448.22C103.453 448.607 103.24 449.213 103.24 450.04V456H101.66ZM111.867 456.28C111.187 456.28 110.567 456.16 110.007 455.92C109.447 455.68 109.007 455.333 108.687 454.88C108.367 454.427 108.207 453.873 108.207 453.22C108.207 452.553 108.367 452.007 108.687 451.58C109.007 451.14 109.447 450.813 110.007 450.6C110.567 450.373 111.194 450.26 111.887 450.26H115.187V449.54C115.187 448.847 114.98 448.3 114.567 447.9C114.167 447.5 113.567 447.3 112.767 447.3C111.98 447.3 111.367 447.493 110.927 447.88C110.487 448.253 110.187 448.76 110.027 449.4L108.547 448.92C108.707 448.373 108.96 447.88 109.307 447.44C109.654 446.987 110.114 446.627 110.687 446.36C111.274 446.08 111.974 445.94 112.787 445.94C114.04 445.94 115.014 446.267 115.707 446.92C116.4 447.56 116.747 448.467 116.747 449.64V454.06C116.747 454.46 116.934 454.66 117.307 454.66H118.207V456H116.827C116.387 456 116.034 455.88 115.767 455.64C115.5 455.387 115.367 455.053 115.367 454.64V454.54H115.127C114.98 454.793 114.78 455.06 114.527 455.34C114.287 455.607 113.954 455.827 113.527 456C113.1 456.187 112.547 456.28 111.867 456.28ZM112.047 454.92C112.98 454.92 113.734 454.647 114.307 454.1C114.894 453.54 115.187 452.76 115.187 451.76V451.54H111.947C111.32 451.54 110.8 451.68 110.387 451.96C109.987 452.227 109.787 452.633 109.787 453.18C109.787 453.727 109.994 454.153 110.407 454.46C110.834 454.767 111.38 454.92 112.047 454.92ZM120.371 456V446.22H121.911V447.88H122.191C122.404 447.413 122.764 446.993 123.271 446.62C123.791 446.233 124.551 446.04 125.551 446.04C126.284 446.04 126.938 446.193 127.511 446.5C128.098 446.807 128.564 447.26 128.911 447.86C129.258 448.46 129.431 449.2 129.431 450.08V456H127.851V450.2C127.851 449.227 127.604 448.52 127.111 448.08C126.631 447.64 125.978 447.42 125.151 447.42C124.204 447.42 123.431 447.727 122.831 448.34C122.244 448.953 121.951 449.867 121.951 451.08V456H120.371ZM132.637 456V442H134.217V450.24H134.497L138.977 446.22H141.177L135.757 450.98L141.337 456H139.157L134.497 451.74H134.217V456H132.637ZM142.713 451.58V450.12H148.633V451.58H142.713ZM156.274 456.28C155.248 456.28 154.361 456.087 153.614 455.7C152.868 455.3 152.288 454.753 151.874 454.06C151.461 453.353 151.254 452.54 151.254 451.62V451.38H152.874V451.56C152.874 452.613 153.181 453.42 153.794 453.98C154.408 454.54 155.221 454.82 156.234 454.82C157.301 454.82 158.134 454.52 158.734 453.92C159.334 453.32 159.634 452.5 159.634 451.46V451.28C159.634 450.28 159.341 449.487 158.754 448.9C158.181 448.3 157.434 448 156.514 448C155.981 448 155.541 448.087 155.194 448.26C154.848 448.42 154.574 448.627 154.374 448.88C154.174 449.12 154.008 449.353 153.874 449.58H151.674V442H160.874V443.46H153.294V448.3H153.574C153.721 448.033 153.921 447.773 154.174 447.52C154.441 447.267 154.794 447.053 155.234 446.88C155.674 446.707 156.221 446.62 156.874 446.62C157.688 446.62 158.421 446.807 159.074 447.18C159.741 447.553 160.268 448.087 160.654 448.78C161.054 449.473 161.254 450.3 161.254 451.26V451.48C161.254 452.427 161.054 453.26 160.654 453.98C160.254 454.7 159.681 455.267 158.934 455.68C158.188 456.08 157.301 456.28 156.274 456.28ZM163.787 451.58V450.12H169.707V451.58H163.787ZM176.022 456C175.462 456 175.028 455.847 174.722 455.54C174.428 455.233 174.282 454.813 174.282 454.28V447.6H171.342V446.22H174.282V442.74H175.862V446.22H179.062V447.6H175.862V454.04C175.862 454.44 176.055 454.64 176.442 454.64H178.622V456H176.022ZM185.749 456.28C184.763 456.28 183.896 456.073 183.149 455.66C182.403 455.233 181.823 454.64 181.409 453.88C180.996 453.12 180.789 452.24 180.789 451.24V451C180.789 449.987 180.996 449.1 181.409 448.34C181.823 447.58 182.396 446.993 183.129 446.58C183.863 446.153 184.703 445.94 185.649 445.94C186.569 445.94 187.383 446.14 188.089 446.54C188.796 446.927 189.349 447.487 189.749 448.22C190.149 448.953 190.349 449.813 190.349 450.8V451.52H182.369C182.409 452.573 182.749 453.4 183.389 454C184.029 454.587 184.829 454.88 185.789 454.88C186.629 454.88 187.276 454.687 187.729 454.3C188.183 453.913 188.529 453.453 188.769 452.92L190.129 453.58C189.929 453.993 189.649 454.407 189.289 454.82C188.943 455.233 188.483 455.58 187.909 455.86C187.349 456.14 186.629 456.28 185.749 456.28ZM182.389 450.22H188.749C188.696 449.313 188.383 448.607 187.809 448.1C187.249 447.593 186.529 447.34 185.649 447.34C184.756 447.34 184.023 447.593 183.449 448.1C182.876 448.607 182.523 449.313 182.389 450.22ZM191.641 456L195.561 451.04L191.761 446.22H193.661L196.581 450H196.861L199.761 446.22H201.681L197.861 451.04L201.781 456H199.861L196.861 452.1H196.581L193.581 456H191.641ZM207.897 456C207.337 456 206.903 455.847 206.597 455.54C206.303 455.233 206.157 454.813 206.157 454.28V447.6H203.217V446.22H206.157V442.74H207.737V446.22H210.937V447.6H207.737V454.04C207.737 454.44 207.93 454.64 208.317 454.64H210.497V456H207.897Z" fill="#603BB1"/>
</g>
<defs>
<filter id="filter0_d_63_186" x="37.5" y="137.5" width="246" height="477.044" filterUnits="userSpaceOnUse" color-interpolation-filters="sRGB">
<feFlood flood-opacity="0" result="BackgroundImageFix"/>
<feColorMatrix in="SourceAlpha" type="matrix" values="0 0 0 0 0 0 0 0 0 0 0 0 0 0 0 0 0 0 127 0" result="hardAlpha"/>
<feOffset dy="4"/>
<feGaussianBlur stdDeviation="2"/>
<feComposite in2="hardAlpha" operator="out"/>
<feColorMatrix type="matrix" values="0 0 0 0 0 0 0 0 0 0 0 0 0 0 0 0 0 0 0.25 0"/>
<feBlend mode="normal" in2="BackgroundImageFix" result="effect1_dropShadow_63_186"/>
<feBlend mode="normal" in="SourceGraphic" in2="effect1_dropShadow_63_186" result="shape"/>
</filter>
</defs>
</svg>
