<svg width="216" height="196" viewBox="0 0 216 196" fill="none" xmlns="http://www.w3.org/2000/svg">
<path d="M145.084 137.324C143.98 137.324 143.056 137.132 142.312 136.748C141.592 136.34 141.052 135.788 140.692 135.092C140.332 134.396 140.152 133.604 140.152 132.716C140.152 132.164 140.212 131.576 140.332 130.952C140.476 130.328 140.728 129.752 141.088 129.224L143.608 130.52C143.536 130.76 143.476 131.06 143.428 131.42C143.38 131.756 143.356 132.104 143.356 132.464C143.356 133.16 143.476 133.7 143.716 134.084C143.956 134.468 144.484 134.66 145.3 134.66C145.42 134.66 145.684 134.576 146.092 134.408C146.5 134.216 146.98 133.988 147.532 133.724C148.108 133.436 148.672 133.16 149.224 132.896V134.372C148.648 134.804 148.048 135.248 147.424 135.704C146.824 136.16 146.308 136.544 145.876 136.856C145.444 137.168 145.18 137.324 145.084 137.324ZM141.088 129.224L148.864 128.072V129.656L143.176 130.844L141.088 129.224ZM141.34 122.852L141.844 120.656C142.708 120.608 143.476 120.584 144.148 120.584C144.82 120.56 145.456 120.56 146.056 120.584C146.656 120.584 147.268 120.608 147.892 120.656C148.252 120.68 148.648 120.86 149.08 121.196C149.536 121.508 149.968 121.904 150.376 122.384C150.808 122.84 151.156 123.32 151.42 123.824C151.708 124.304 151.852 124.724 151.852 125.084V134.876L153.112 135.416V136.748C152.632 136.844 152.152 136.928 151.672 137C151.216 137.096 150.82 137.168 150.484 137.216C150.148 137.288 149.932 137.324 149.836 137.324C149.764 137.324 149.632 137.24 149.44 137.072C149.248 136.928 149.068 136.76 148.9 136.568C148.756 136.376 148.684 136.232 148.684 136.136V134.372L148.576 133.94V125.804C148.576 125.012 148.42 124.424 148.108 124.04C147.82 123.656 147.364 123.44 146.74 123.392C146.5 123.368 146.104 123.356 145.552 123.356C145 123.356 144.388 123.368 143.716 123.392C143.044 123.392 142.408 123.404 141.808 123.428L141.34 122.852ZM163.157 120.548C164.069 120.548 164.957 120.824 165.821 121.376C166.685 121.904 167.393 122.732 167.945 123.86C168.497 124.964 168.773 126.404 168.773 128.18C168.773 129.428 168.689 130.544 168.521 131.528C168.377 132.512 168.173 133.256 167.909 133.76C167.717 134.024 167.381 134.36 166.901 134.768C166.421 135.152 165.893 135.548 165.317 135.956C164.765 136.34 164.237 136.664 163.733 136.928C163.253 137.192 162.905 137.324 162.689 137.324C162.449 137.324 162.029 137.276 161.429 137.18C160.853 137.108 160.205 137.024 159.485 136.928V140.924L160.925 141.5V142.94C160.733 142.988 160.457 143.036 160.097 143.084C159.761 143.156 159.401 143.216 159.017 143.264C158.633 143.336 158.297 143.396 158.009 143.444C157.721 143.492 157.541 143.516 157.469 143.516C157.397 143.516 157.253 143.432 157.037 143.264C156.845 143.096 156.653 142.916 156.461 142.724C156.293 142.532 156.209 142.4 156.209 142.328L156.389 136.532V122.96L155.165 122.456V121.124C155.357 121.076 155.609 121.028 155.921 120.98C156.257 120.908 156.593 120.848 156.929 120.8C157.265 120.728 157.565 120.668 157.829 120.62C158.093 120.572 158.261 120.548 158.333 120.548C158.405 120.548 158.537 120.632 158.729 120.8C158.921 120.968 159.101 121.148 159.269 121.34C159.461 121.508 159.557 121.64 159.557 121.736V123.14C159.989 122.828 160.469 122.468 160.997 122.06C161.525 121.652 161.993 121.304 162.401 121.016C162.833 120.704 163.085 120.548 163.157 120.548ZM162.941 123.212C162.869 123.212 162.629 123.296 162.221 123.464C161.837 123.632 161.405 123.836 160.925 124.076C160.445 124.292 160.025 124.484 159.665 124.652V134.552C160.049 134.672 160.529 134.792 161.105 134.912C161.705 135.032 162.269 135.128 162.797 135.2C163.349 135.248 163.733 135.26 163.949 135.236C164.237 135.188 164.477 134.972 164.669 134.588C164.885 134.204 165.041 133.544 165.137 132.608C165.257 131.648 165.317 130.328 165.317 128.648C165.317 127.304 165.161 126.236 164.849 125.444C164.561 124.652 164.225 124.088 163.841 123.752C163.481 123.392 163.181 123.212 162.941 123.212Z" fill="#DC4F2C"/>
<path d="M49.1455 129.757L36.9141 151.729C22.8027 144.601 11.5234 138.839 3.07617 134.444C13.916 124.337 19.9463 117.232 21.167 113.131C21.3623 112.398 21.46 111.544 21.46 110.567C21.46 105.929 19.4336 99.1416 15.3809 90.2061C11.3281 81.2705 8.61816 75.1426 7.25098 71.8223C5.93262 68.4531 5.27344 65.8652 5.27344 64.0586C5.27344 62.252 5.56641 60.6895 6.15234 59.3711C7.51953 56.3438 10.7422 53.585 15.8203 51.0947C20.8984 48.5557 28.6133 45.3818 38.9648 41.5732C40.4297 44.9912 41.5039 47.5547 42.1875 49.2637C35.6445 51.4121 32.0557 54.0977 31.4209 57.3203C31.2744 58.0039 31.2012 58.7363 31.2012 59.5176C31.2012 62.3008 32.1289 65.5967 33.9844 69.4053C51.2207 52.5107 60.6445 43.2334 62.2559 41.5732C66.6016 44.4541 70.2881 47.2129 73.3154 49.8496C76.3916 52.4375 80.0781 54.8057 84.375 56.9541L99.0234 41.5732C104.883 44.7471 110.767 47.9209 116.675 51.0947C122.583 54.2197 128.735 56.9053 135.132 59.1514C127.271 64.5225 123.12 73.6289 122.681 86.4707L121.875 113.717C121.875 114.254 121.875 114.791 121.875 115.328C121.875 123.238 124.683 128.048 130.298 129.757L118.652 151.729C111.572 149.142 106.665 145.138 103.931 139.718C101.245 134.249 99.9023 126.705 99.9023 117.086C99.9023 116.402 99.9023 115.719 99.9023 115.035L100.049 96.5781C100.049 92.1348 100.854 88.2529 102.466 84.9326C104.077 81.6123 106.177 78.2676 108.765 74.8984C98.9502 67.7207 91.6016 63.8389 86.7188 63.2529C84.8633 66.0361 83.9111 69.332 83.8623 73.1406C83.8623 76.9492 83.7646 81.3926 83.5693 86.4707L82.7637 113.717C82.7637 114.254 82.7637 114.791 82.7637 115.328C82.7637 124.166 85.083 129.342 89.7217 130.855L72.583 151.729C69.9463 148.409 66.9678 145.26 63.6475 142.281C60.3271 139.303 57.2021 136.568 54.2725 134.078C55.7373 132.369 57.1777 129.684 58.5938 126.021C60.0098 122.359 60.7422 118.697 60.791 115.035L63.3545 69.6982C59.1064 66.5244 55.8105 64.9375 53.4668 64.9375C52.8809 64.9375 52.3438 65.0352 51.8555 65.2305C49.5605 66.2559 44.8975 70.1621 37.8662 76.9492L38.8184 78.6338C42.4805 85.4697 44.3115 91.1338 44.3115 95.626C44.3115 96.8467 44.165 97.9941 43.8721 99.0684C42.5537 104 37.915 111.642 29.9561 121.993C34.5459 125.313 40.9424 127.901 49.1455 129.757Z" fill="#DC4F2C"/>
</svg>
