<svg viewBox="0 0 1037 1027" fill="none" xmlns="http://www.w3.org/2000/svg" preserveAspectRatio="none">
<path d="M824.652 36.2753L1032.88 27.0956L1017.93 284.973L1017.92 285.061L1017.92 285.149L1026 552.092L1026 552.122L1026 858.288L1011.58 866.096L1008.92 867.535L1011.28 869.419L1026.05 881.18L1034.63 1021.23L771.344 1022.96L634.692 1013.92L634.402 1013.9L634.118 1013.97L594.417 1022.97L372.147 1022.97L357.655 1014.21L356.664 1013.61L355.651 1014.18L339.769 1022.97L32.774 1022.98L31.0301 28.9063L246.303 43.609L290.613 50.3485L290.944 50.3988L291.274 50.3386L328.809 43.4749L573.466 43.0457L573.497 43.0456L573.528 43.0446L776.044 36.3999L803.118 49.2773L804.134 49.7609L805.075 49.1425L824.652 36.2753Z" fill="#F7E7D4" stroke="#959595" stroke-width="4"/>
<path d="M35.349 353.443L35.5357 352.837L35.3401 352.235L26.446 324.848L18.0558 20H1017.85L1002.69 231.787L995.831 275.38L995.777 275.719L995.84 276.055L1002.68 313V553.765V553.798L1002.68 553.832L1017.93 1005.95L897.682 1003.07L842.313 994.286L841.985 994.233L841.657 994.29L791.183 1003.07L467.825 1006L213.569 997.197L213.49 997.194L213.411 997.198L18 1005.91V793.278V793.257L26.4485 382.292L35.349 353.443Z" fill="#F7E7D4" stroke="#959595" stroke-width="4"/>
<path d="M989.078 790.89L997.907 997.872L739.592 982.562L739.476 982.555L739.36 982.562L468.415 997.997L166.358 982.612L154.812 965.64L153.04 963.036L151.437 965.747L141.42 982.678L2 997.772V783.109V783.088L10.415 367.964L19.2818 338.817L19.4636 338.22L19.2731 337.625L10.4126 309.955L2.05789 2.10596L131.873 8.63107L161.059 18.1496L161.779 18.3842L162.473 18.0838L184.302 8.6436L997.915 2.01705L989.059 215.469L982.758 258.202L982.714 258.501L982.761 258.801L989.049 299.243L982.738 541.124L982.736 541.182L982.738 541.239L989.038 742.557L976.093 769.443L975.601 770.465L976.225 771.412L989.078 790.89Z" fill="#F7E7D4" stroke="#A59696" stroke-width="4"/>
</svg>
