<svg viewBox="0 0 1000 1000" fill="none" xmlns="http://www.w3.org/2000/svg" preserveAspectRatio='none'>
<path d="M989.078 790.89L997.907 997.872L739.592 982.562L739.476 982.555L739.36 982.562L468.415 997.997L166.358 982.612L154.812 965.64L153.04 963.036L151.437 965.747L141.42 982.678L2 997.772V783.109V783.088L10.415 367.964L19.2818 338.817L19.4636 338.22L19.2731 337.625L10.4126 309.955L2.05789 2.10596L131.873 8.63107L161.059 18.1496L161.779 18.3842L162.473 18.0838L184.302 8.6436L997.915 2.01705L989.059 215.469L982.758 258.202L982.714 258.501L982.761 258.801L989.049 299.243L982.738 541.124L982.736 541.182L982.738 541.239L989.038 742.557L976.093 769.443L975.601 770.465L976.225 771.412L989.078 790.89Z" fill="#F7E7D4" stroke="#A59696" stroke-width="4"/>
</svg>
