<svg width="172" height="196" viewBox="0 0 172 196" fill="none" xmlns="http://www.w3.org/2000/svg">
<path d="M98.708 145.324C98.636 145.324 98.504 145.24 98.312 145.072C98.12 144.904 97.94 144.724 97.772 144.532C97.604 144.34 97.52 144.208 97.52 144.136V124.156L96.224 123.652V122.32C96.224 122.32 96.32 122.308 96.512 122.284C96.728 122.236 96.992 122.188 97.304 122.14C97.616 122.068 97.928 122.008 98.24 121.96C98.576 121.888 98.864 121.84 99.104 121.816C99.344 121.768 99.5 121.744 99.572 121.744C99.644 121.744 99.776 121.828 99.968 121.996C100.16 122.164 100.34 122.344 100.508 122.536C100.676 122.704 100.76 122.836 100.76 122.932V142.876L101.984 143.416V144.748C101.984 144.748 101.828 144.784 101.516 144.856C101.228 144.904 100.88 144.964 100.472 145.036C100.064 145.108 99.68 145.168 99.32 145.216C98.984 145.288 98.78 145.324 98.708 145.324ZM109.346 145.324C108.242 145.324 107.318 145.132 106.574 144.748C105.854 144.34 105.314 143.788 104.954 143.092C104.594 142.396 104.414 141.604 104.414 140.716C104.414 140.164 104.474 139.576 104.594 138.952C104.738 138.328 104.99 137.752 105.35 137.224L107.87 138.52C107.798 138.76 107.738 139.06 107.69 139.42C107.642 139.756 107.618 140.104 107.618 140.464C107.618 141.16 107.738 141.7 107.978 142.084C108.218 142.468 108.746 142.66 109.562 142.66C109.682 142.66 109.946 142.576 110.354 142.408C110.762 142.216 111.242 141.988 111.794 141.724C112.37 141.436 112.934 141.16 113.486 140.896V142.372C112.91 142.804 112.31 143.248 111.686 143.704C111.086 144.16 110.57 144.544 110.138 144.856C109.706 145.168 109.442 145.324 109.346 145.324ZM105.35 137.224L113.126 136.072V137.656L107.438 138.844L105.35 137.224ZM105.602 130.852L106.106 128.656C106.97 128.608 107.738 128.584 108.41 128.584C109.082 128.56 109.718 128.56 110.318 128.584C110.918 128.584 111.53 128.608 112.154 128.656C112.514 128.68 112.91 128.86 113.342 129.196C113.798 129.508 114.23 129.904 114.638 130.384C115.07 130.84 115.418 131.32 115.682 131.824C115.97 132.304 116.114 132.724 116.114 133.084V142.876L117.374 143.416V144.748C116.894 144.844 116.414 144.928 115.934 145C115.478 145.096 115.082 145.168 114.746 145.216C114.41 145.288 114.194 145.324 114.098 145.324C114.026 145.324 113.894 145.24 113.702 145.072C113.51 144.928 113.33 144.76 113.162 144.568C113.018 144.376 112.946 144.232 112.946 144.136V142.372L112.838 141.94V133.804C112.838 133.012 112.682 132.424 112.37 132.04C112.082 131.656 111.626 131.44 111.002 131.392C110.762 131.368 110.366 131.356 109.814 131.356C109.262 131.356 108.65 131.368 107.978 131.392C107.306 131.392 106.67 131.404 106.07 131.428L105.602 130.852ZM123.927 151.516C123.855 151.516 123.747 151.408 123.603 151.192C123.483 151 123.375 150.784 123.279 150.544C123.183 150.304 123.135 150.148 123.135 150.076L124.827 144.964C124.659 144.988 124.479 145.012 124.287 145.036C124.095 145.084 123.963 145.108 123.891 145.108C123.843 145.108 123.735 145.06 123.567 144.964C123.423 144.868 123.351 144.82 123.351 144.82L119.535 130.852L118.131 130.456V128.98C118.131 128.98 118.263 128.956 118.527 128.908C118.815 128.86 119.151 128.812 119.535 128.764C119.919 128.716 120.267 128.668 120.579 128.62C120.915 128.572 121.119 128.548 121.191 128.548C121.263 128.548 121.407 128.62 121.623 128.764C121.863 128.884 122.079 129.028 122.271 129.196C122.487 129.364 122.607 129.508 122.631 129.628L124.719 138.088L125.547 141.94H125.907L128.931 130.78L126.771 130.528V128.8C126.771 128.8 126.903 128.8 127.167 128.8C127.431 128.776 127.755 128.752 128.139 128.728C128.523 128.68 128.919 128.644 129.327 128.62C129.735 128.596 130.083 128.584 130.371 128.584C130.683 128.56 130.863 128.548 130.911 128.548C130.983 128.548 131.103 128.632 131.271 128.8C131.439 128.944 131.595 129.124 131.739 129.34C131.907 129.532 131.979 129.688 131.955 129.808L127.167 145L126.123 149.104L127.527 149.752V151.084C127.527 151.084 127.359 151.108 127.023 151.156C126.687 151.204 126.291 151.252 125.835 151.3C125.379 151.348 124.959 151.396 124.575 151.444C124.215 151.492 123.999 151.516 123.927 151.516ZM137.265 137.116C137.265 138.676 137.469 139.864 137.877 140.68C138.309 141.496 138.789 142.048 139.317 142.336C139.845 142.624 140.277 142.768 140.613 142.768C140.709 142.768 140.937 142.768 141.297 142.768C141.657 142.744 142.077 142.72 142.557 142.696C143.037 142.672 143.517 142.648 143.997 142.624C144.477 142.6 144.897 142.588 145.257 142.588V144.064C144.825 144.208 144.333 144.352 143.781 144.496C143.229 144.64 142.677 144.772 142.125 144.892C141.573 145.012 141.081 145.108 140.649 145.18C140.241 145.276 139.953 145.324 139.785 145.324C138.801 145.324 137.853 145.06 136.941 144.532C136.029 143.98 135.273 143.152 134.673 142.048C134.097 140.92 133.809 139.492 133.809 137.764C133.809 136.564 133.893 135.46 134.061 134.452C134.229 133.444 134.433 132.712 134.673 132.256C134.865 131.968 135.201 131.62 135.681 131.212C136.185 130.78 136.725 130.372 137.301 129.988C137.901 129.58 138.453 129.244 138.957 128.98C139.461 128.692 139.833 128.548 140.073 128.548C141.393 128.548 142.461 128.764 143.277 129.196C144.117 129.628 144.741 130.444 145.149 131.644C145.557 132.82 145.761 134.56 145.761 136.864L135.681 137.908V136.54L142.269 135.46C142.269 133.996 142.113 132.844 141.801 132.004C141.489 131.14 140.817 130.708 139.785 130.708C139.593 130.708 139.377 130.72 139.137 130.744C138.921 130.768 138.681 130.84 138.417 130.96C138.081 131.128 137.805 131.776 137.589 132.904C137.373 134.008 137.265 135.412 137.265 137.116ZM150.739 145.324C150.667 145.324 150.535 145.24 150.343 145.072C150.151 144.904 149.959 144.724 149.767 144.532C149.599 144.34 149.515 144.208 149.515 144.136V130.888L148.255 130.456V129.124C148.255 129.124 148.387 129.1 148.651 129.052C148.939 128.98 149.275 128.908 149.659 128.836C150.043 128.764 150.391 128.704 150.703 128.656C151.039 128.584 151.243 128.548 151.315 128.548C151.387 128.548 151.543 128.644 151.783 128.836C152.023 129.028 152.239 129.232 152.431 129.448C152.647 129.664 152.755 129.808 152.755 129.88L152.683 131.284C153.019 130.948 153.331 130.624 153.619 130.312C153.931 129.976 154.219 129.676 154.483 129.412C154.747 129.148 154.963 128.944 155.131 128.8C155.323 128.632 155.443 128.548 155.491 128.548C155.755 128.548 156.151 128.62 156.679 128.764C157.207 128.908 157.615 129.028 157.903 129.124C157.951 129.268 157.999 129.46 158.047 129.7C158.095 129.94 158.119 130.12 158.119 130.24C158.119 130.312 158.071 130.444 157.975 130.636C157.903 130.828 157.807 131.032 157.687 131.248C157.591 131.464 157.483 131.656 157.363 131.824C157.267 131.992 157.195 132.088 157.147 132.112C156.979 132.04 156.787 131.968 156.571 131.896C156.355 131.824 156.127 131.764 155.887 131.716C155.671 131.668 155.455 131.644 155.239 131.644C155.167 131.644 155.047 131.68 154.879 131.752C154.711 131.8 154.519 131.884 154.303 132.004C154.087 132.1 153.847 132.22 153.583 132.364C153.343 132.484 153.079 132.628 152.791 132.796V142.732L154.627 143.272V144.748C154.627 144.748 154.507 144.772 154.267 144.82C154.027 144.844 153.727 144.892 153.367 144.964C153.007 145.012 152.635 145.06 152.251 145.108C151.867 145.18 151.531 145.228 151.243 145.252C150.979 145.3 150.811 145.324 150.739 145.324ZM166.096 145.324C165.856 145.324 165.472 145.312 164.944 145.288C164.416 145.264 163.816 145.228 163.144 145.18C162.472 145.132 161.824 145.072 161.2 145C160.576 144.952 160.048 144.904 159.616 144.856L159.688 139.672L161.488 139.636L162.244 142.372C162.628 142.492 163.06 142.612 163.54 142.732C164.02 142.852 164.476 142.948 164.908 143.02C165.34 143.092 165.664 143.128 165.88 143.128C166.024 143.128 166.18 143.02 166.348 142.804C166.516 142.588 166.66 142.324 166.78 142.012C166.924 141.676 166.996 141.376 166.996 141.112C166.996 140.656 166.888 140.284 166.672 139.996C166.456 139.684 166.096 139.372 165.592 139.06C165.088 138.748 164.404 138.364 163.54 137.908C162.604 137.38 161.848 136.912 161.272 136.504C160.72 136.072 160.312 135.616 160.048 135.136C159.808 134.656 159.688 134.104 159.688 133.48C159.688 133.168 159.7 132.856 159.724 132.544C159.748 132.208 159.796 131.932 159.868 131.716C160.06 131.428 160.324 131.104 160.66 130.744C161.02 130.36 161.392 130.012 161.776 129.7C162.184 129.364 162.556 129.088 162.892 128.872C163.252 128.656 163.528 128.548 163.72 128.548C164.008 128.548 164.404 128.56 164.908 128.584C165.436 128.608 166 128.632 166.6 128.656C167.2 128.68 167.776 128.716 168.328 128.764C168.88 128.788 169.336 128.824 169.696 128.872L169.588 133.264H167.572L167.32 131.356C167.224 131.308 166.996 131.26 166.636 131.212C166.276 131.14 165.868 131.08 165.412 131.032C164.98 130.96 164.572 130.9 164.188 130.852C163.828 130.804 163.588 130.78 163.468 130.78C163.324 130.78 163.192 130.828 163.072 130.924C162.952 131.02 162.856 131.176 162.784 131.392C162.712 131.608 162.676 131.908 162.676 132.292C162.676 132.748 162.808 133.144 163.072 133.48C163.336 133.792 163.66 134.068 164.044 134.308C164.452 134.548 164.86 134.8 165.268 135.064C165.7 135.328 166.204 135.628 166.78 135.964C167.38 136.3 167.956 136.66 168.508 137.044C169.084 137.428 169.552 137.86 169.912 138.34C170.272 138.796 170.452 139.3 170.452 139.852C170.452 140.092 170.44 140.368 170.416 140.68C170.392 140.992 170.32 141.328 170.2 141.688C170.032 142 169.78 142.36 169.444 142.768C169.108 143.176 168.736 143.584 168.328 143.992C167.92 144.376 167.512 144.7 167.104 144.964C166.72 145.204 166.384 145.324 166.096 145.324Z" fill="#DC4F2C"/>
<path d="M11.1328 179.635C14.9414 168.6 17.4316 153.829 18.6035 135.323L3.58887 129.903L19.3359 114.889C19.3359 112.643 19.3359 107.76 19.3359 100.24C19.3359 92.7207 19.0186 80.9287 18.3838 64.8643C15.8447 63.6924 13.2568 62.5205 10.6201 61.3486C8.03223 60.1279 5.46875 58.8828 2.92969 57.6133L15.5273 41.5732C28.9062 45.4795 38.5498 48.3604 44.458 50.2158C44.3115 51.7783 44.1895 53.3408 44.0918 54.9033C43.9941 56.4658 43.8721 57.9795 43.7256 59.4443L65.9912 41.5732C82.5928 54.1221 90.8936 69.0391 90.8936 86.3242C90.8936 88.1797 90.7959 90.0352 90.6006 91.8906C88.6475 111.617 79.9561 131.563 64.5264 151.729L41.0156 143.307C41.4551 151.168 42.4072 156.417 43.8721 159.054C35.8643 163.985 24.9512 170.846 11.1328 179.635ZM65.2588 129.757C71.3135 129.757 74.3408 125.143 74.3408 115.914C74.3408 108.053 72.8271 99.9717 69.7998 91.6709C66.7725 83.3701 62.6709 76.8516 57.4951 72.1152C55.4443 70.2109 53.4424 69.2588 51.4893 69.2588C48.4619 69.2588 45.5078 71.4805 42.627 75.9238C41.6016 91.9883 40.9668 106.197 40.7227 118.551L64.8193 129.757C64.9658 129.757 65.1123 129.757 65.2588 129.757Z" fill="#DC4F2C"/>
</svg>
