<svg width="484" height="296" viewBox="0 0 484 296" fill="none" xmlns="http://www.w3.org/2000/svg">
<path d="M197.735 119.545C250.971 94.1708 264.582 89.4397 314.5 77.7336V155.791C280.194 152.896 243.906 165.806 212.22 187.188C186.655 204.441 169.766 215.55 153.487 223.035C137.361 230.451 121.818 234.315 99.0111 237.039L100.491 161.064C124.757 159.018 139.261 154.443 152.582 147.482C159.273 143.985 165.659 139.889 172.818 135.228C173.425 134.832 174.038 134.433 174.657 134.029C181.336 129.675 188.748 124.844 197.735 119.545Z" fill="#D9C0A1" stroke="#B3B3B3"/>
<path d="M475.137 276.89C475.854 277.54 475.291 278.725 474.329 278.62C382.731 268.621 351.646 227.961 237.913 266.037C173.187 284.392 165.95 278.069 98.8294 238.798C98.5202 238.617 98.3186 238.277 98.3216 237.919L98.9781 160.757C98.9845 160.005 99.8172 159.544 100.481 159.898C166.14 194.876 181.365 190.436 241.413 177.037C337.829 155.523 404.064 172.294 478.101 193.558C479.152 193.859 479.031 195.403 477.946 195.541C454.943 198.46 443.567 202.142 429.195 209.628C428.75 209.86 428.547 210.398 428.724 210.869C439.826 240.472 451.075 255.063 475.137 276.89Z" fill="#FFF5E9"/>
<path d="M475.137 276.89C475.854 277.54 475.291 278.725 474.329 278.62C382.731 268.621 351.646 227.961 237.913 266.037C173.187 284.392 165.95 278.069 98.8294 238.798C98.5202 238.617 98.3186 238.277 98.3216 237.919L98.9781 160.757C98.9845 160.005 99.8172 159.544 100.481 159.898C166.14 194.876 181.365 190.436 241.413 177.037C337.829 155.523 404.064 172.294 478.101 193.558C479.152 193.859 479.031 195.403 477.946 195.541C454.943 198.46 443.567 202.142 429.195 209.628C428.75 209.86 428.547 210.398 428.724 210.869C439.826 240.472 451.075 255.063 475.137 276.89Z" fill="#FFF5E9"/>
<path d="M241.413 177.037C181.365 190.436 166.14 194.876 100.481 159.898C99.8172 159.544 98.9845 160.005 98.9781 160.757L98.3216 237.919C98.3186 238.277 98.5202 238.617 98.8294 238.798C165.95 278.069 173.187 284.392 237.913 266.037C351.646 227.961 382.731 268.621 474.329 278.62C475.291 278.725 475.854 277.54 475.137 276.89C451.075 255.063 439.826 240.472 428.724 210.869C428.547 210.398 428.75 209.86 429.195 209.628C443.567 202.142 454.943 198.46 477.946 195.541C479.031 195.403 479.152 193.859 478.101 193.558C404.064 172.294 337.829 155.523 241.413 177.037Z" stroke="#B3B3B3" stroke-width="2"/>
<path d="M415.278 192.074C416.079 192.076 416.996 192.105 418.03 192.161C419.065 192.217 419.975 192.275 420.762 192.335C421.621 192.35 422.109 192.371 422.226 192.398C422.343 192.426 422.52 192.59 422.758 192.892C422.995 193.194 423.197 193.518 423.363 193.865C423.601 194.166 423.706 194.376 423.679 194.493L413.608 230.589C412.952 230.498 412.171 230.409 411.268 230.321C410.422 230.248 409.795 230.163 409.386 230.068C409.269 230.041 409.07 229.84 408.787 229.466C408.518 229.034 408.397 228.759 408.424 228.643L415.278 192.074ZM403.459 238.852C403.486 238.736 403.81 238.534 404.432 238.247C405.053 237.961 405.739 237.659 406.491 237.341C407.301 237.037 408.01 236.77 408.617 236.542C409.284 236.328 409.675 236.234 409.792 236.261C410.026 236.316 410.351 236.638 410.768 237.228C411.257 237.773 411.719 238.435 412.154 239.214C412.66 239.948 413.05 240.655 413.323 241.335C413.61 241.956 413.69 242.406 413.563 242.684L412.784 244.443C412.743 244.619 412.412 244.85 411.791 245.136C411.228 245.436 410.542 245.739 409.731 246.043C408.98 246.36 408.278 246.597 407.625 246.753C407.018 246.982 406.626 247.075 406.451 247.034C406.217 246.98 405.856 246.68 405.367 246.135C404.95 245.545 404.517 244.89 404.069 244.169C403.634 243.39 403.274 242.69 402.987 242.069C402.772 241.403 402.692 240.953 402.747 240.72L403.459 238.852Z" fill="#5555F2"/>
<path d="M1.99516 87.4734C1.32209 86.8214 1.88307 85.6847 2.81787 85.7504C83.8205 91.4438 97.8516 62.8472 125.5 50.6029C195.341 19.6734 240.793 32.9797 314.487 75.7477C314.795 75.9265 314.991 76.2598 314.991 76.6161V154.891C314.991 155.656 314.154 156.131 313.488 155.753C259.473 125.122 230.654 99.3608 139 134.041C71.9734 159.402 49.4679 151.408 9.18308 151.053C8.25855 151.044 7.81978 149.886 8.51077 149.272C21.1385 138.046 26.6858 130.64 31.7698 117.156C31.9097 116.785 31.8161 116.362 31.5312 116.086L1.99516 87.4734Z" fill="#FFF5E9"/>
<path d="M1.99516 87.4734C1.32209 86.8214 1.88307 85.6847 2.81787 85.7504C83.8205 91.4438 97.8516 62.8472 125.5 50.6029C195.341 19.6734 240.793 32.9797 314.487 75.7477C314.795 75.9265 314.991 76.2598 314.991 76.6161V154.891C314.991 155.656 314.154 156.131 313.488 155.753C259.473 125.122 230.654 99.3608 139 134.041C71.9734 159.402 49.4679 151.408 9.18308 151.053C8.25855 151.044 7.81978 149.886 8.51077 149.272C21.1385 138.046 26.6858 130.64 31.7698 117.156C31.9097 116.785 31.8161 116.362 31.5312 116.086L1.99516 87.4734Z" fill="#FFF5E9"/>
<path d="M139 134.041C230.654 99.3608 259.473 125.122 313.488 155.753C314.154 156.131 314.991 155.656 314.991 154.891V76.6161C314.991 76.2598 314.795 75.9265 314.487 75.7477C240.793 32.9797 195.341 19.6734 125.5 50.6029C97.8516 62.8472 83.8205 91.4438 2.81787 85.7504C1.88307 85.6847 1.32209 86.8214 1.99516 87.4734L31.5312 116.086C31.8161 116.362 31.9097 116.785 31.7698 117.156C26.6858 130.64 21.1385 138.046 8.51077 149.272C7.81978 149.886 8.25855 151.044 9.18308 151.053C49.4679 151.408 71.9734 159.402 139 134.041Z" stroke="#B3B3B3" stroke-width="2"/>
<path d="M66.4174 107.089C65.9203 107.187 65.5585 107.558 65.3318 108.2C65.1313 108.838 65.0246 109.606 65.0117 110.506C64.9988 111.405 65.0433 112.321 65.1453 113.252C65.2735 114.178 65.4047 114.981 65.5388 115.661C65.8483 117.231 66.2836 118.681 66.8448 120.011C67.4321 121.336 68.1771 122.357 69.0799 123.076C69.9775 123.769 71.0673 123.989 72.3493 123.736L77.4434 122.691L77.8457 124.732C77.5262 124.904 77.0236 125.112 76.3378 125.356C75.652 125.599 74.9244 125.838 74.155 126.071C73.4169 126.326 72.7522 126.538 72.1607 126.709C71.5955 126.875 71.2343 126.973 71.0773 127.004C69.5076 127.314 68.0963 127.048 66.8434 126.208C65.5906 125.368 64.5323 124.136 63.6686 122.512C62.8049 120.889 62.1771 119.083 61.7851 117.094C61.5169 115.734 61.3867 114.591 61.3945 113.665C61.4232 112.708 61.5487 111.759 61.771 110.819C61.8974 110.495 62.113 110.072 62.4177 109.55C62.7486 109.022 63.1763 108.503 63.7007 107.992C64.2251 107.481 64.8406 107.088 65.5474 106.812L66.4174 107.089ZM74.7551 101.817L74.5737 105.033C74.0394 105.356 73.4763 105.671 72.8845 105.978C72.2875 106.258 71.7116 106.508 71.1566 106.726C70.5965 106.918 70.081 107.06 69.61 107.153C68.956 107.282 68.4198 107.32 68.0016 107.266C67.5833 107.213 67.1782 107.157 66.7861 107.098C66.394 107.04 65.8971 107.07 65.2954 107.188C65.1384 107.219 64.9709 107.266 64.7929 107.328C64.6359 107.359 64.4841 107.416 64.3375 107.499L64.2125 107.28L57.9589 107.819L57.9695 103.944C59.7114 103.818 61.2988 103.736 62.7319 103.698C64.186 103.629 65.4361 103.559 66.4822 103.489C67.5284 103.419 68.3 103.334 68.7971 103.236C69.1634 103.164 69.5925 103.066 70.0844 102.942C70.5974 102.786 71.1967 102.587 71.8825 102.343C72.5631 102.073 73.3302 101.758 74.1836 101.4L74.7551 101.817ZM69.8924 124.302L66.1478 105.308L68.1885 104.906L71.4921 121.663C71.5231 121.82 71.5144 122.121 71.4661 122.565C71.4126 122.983 71.2936 123.483 71.109 124.063L69.8924 124.302ZM75.733 101.543L75.4468 100.091C75.4468 100.091 75.5488 100.057 75.753 99.9897C75.9781 99.8909 76.2425 99.7844 76.5462 99.6702C76.8708 99.5247 77.198 99.3922 77.5278 99.2728C77.8525 99.1273 78.143 99.0157 78.3995 98.9379C78.6508 98.834 78.8157 98.7743 78.8942 98.7589C78.9727 98.7434 79.1347 98.8066 79.3801 98.9485C79.6516 99.0852 79.8996 99.2401 80.124 99.4133C80.3695 99.5552 80.5025 99.6785 80.5231 99.7831L82.0754 108.691L82.2794 108.692C82.5679 108.363 82.8905 108 83.2473 107.604C83.6301 107.202 83.9894 106.819 84.3251 106.454C84.687 106.083 84.9938 105.778 85.2455 105.538C85.492 105.272 85.6284 105.137 85.6545 105.132C86.858 104.894 87.9171 104.889 88.8316 105.117C89.7462 105.344 90.5213 105.898 91.157 106.778C91.7926 107.659 92.278 108.949 92.6133 110.65L94.6248 120.853C94.7796 121.638 94.7982 122.491 94.6806 123.411C94.5681 124.357 94.3094 125.251 93.9044 126.092C93.5256 126.927 92.9798 127.606 92.2671 128.127L90.9434 127.409C91.191 126.735 91.3314 126.069 91.3646 125.41C91.4291 124.772 91.4257 124.134 91.3542 123.496C91.2879 122.884 91.198 122.29 91.0845 121.714L89.042 111.354C88.7944 110.098 88.4647 109.253 88.0527 108.817C87.6618 108.351 87.2754 108.114 86.8936 108.108C86.5329 108.071 86.2479 108.072 86.0386 108.114C85.9339 108.134 85.6406 108.301 85.1586 108.613C84.6766 108.926 84.1841 109.254 83.6811 109.598C83.1781 109.941 82.8192 110.189 82.6043 110.34L84.8093 121.525L86.2597 121.85L86.5459 123.302C86.5459 123.302 86.3836 123.375 86.059 123.521C85.7553 123.635 85.3758 123.778 84.9203 123.949C84.491 124.115 84.0853 124.263 83.7032 124.393C83.3524 124.543 83.1377 124.627 83.0592 124.642C82.9807 124.658 82.8188 124.594 82.5734 124.452C82.328 124.311 82.0931 124.153 81.8687 123.98C81.6443 123.807 81.5243 123.681 81.5088 123.602L77.2149 101.822L75.733 101.543ZM100.41 111.926C100.746 113.626 101.223 114.878 101.844 115.68C102.49 116.476 103.132 116.975 103.769 117.175C104.407 117.376 104.909 117.44 105.275 117.368C105.38 117.347 105.628 117.298 106.021 117.221C106.408 117.117 106.86 117.001 107.379 116.871C107.897 116.742 108.415 116.613 108.933 116.483C109.451 116.354 109.906 116.251 110.299 116.173L110.616 117.782C110.176 118.032 109.671 118.295 109.1 118.571C108.529 118.846 107.956 119.109 107.38 119.358C106.804 119.608 106.288 119.818 105.832 119.989C105.408 120.182 105.105 120.296 104.922 120.332C103.849 120.543 102.759 120.459 101.651 120.08C100.538 119.674 99.5361 118.934 98.6448 117.859C97.7744 116.754 97.1536 115.259 96.7822 113.375C96.5243 112.067 96.3786 110.845 96.3451 109.71C96.3116 108.575 96.3767 107.734 96.5403 107.185C96.6878 106.83 96.9792 106.378 97.4148 105.83C97.8714 105.251 98.3724 104.69 98.9178 104.148C99.4842 103.574 100.014 103.089 100.506 102.693C100.994 102.271 101.369 102.034 101.63 101.982C103.069 101.698 104.28 101.704 105.262 102C106.271 102.29 107.126 103.046 107.829 104.266C108.527 105.461 109.123 107.314 109.618 109.825L98.8539 113.13L98.5599 111.638L105.51 109.045C105.195 107.449 104.777 106.227 104.257 105.378C103.731 104.503 102.905 104.177 101.78 104.399C101.571 104.44 101.338 104.499 101.082 104.577C100.851 104.65 100.605 104.78 100.343 104.967C100.013 105.223 99.8515 105.988 99.8584 107.265C99.8602 108.514 100.044 110.068 100.41 111.926Z" fill="#5555F2"/>
<path d="M114.149 225.34C114.07 225.331 113.935 225.22 113.746 225.01C113.556 224.799 113.368 224.575 113.182 224.338C113.022 224.104 112.947 223.947 112.956 223.867L115.41 203.414L113.553 203.111L113.687 201.999L115.658 201.349L115.858 199.681C115.906 199.284 116.17 198.765 116.649 198.124C117.129 197.483 117.688 196.852 118.327 196.23C118.966 195.609 119.578 195.091 120.165 194.678C120.778 194.269 121.244 194.083 121.561 194.121C121.694 194.137 121.97 194.183 122.391 194.261C122.811 194.338 123.271 194.42 123.771 194.507C124.271 194.594 124.69 194.684 125.028 194.778C125.2 194.907 125.362 195.127 125.512 195.441C125.692 195.731 125.774 195.942 125.758 196.075C125.755 196.101 125.703 196.202 125.601 196.378C125.529 196.531 125.426 196.72 125.291 196.945C125.187 197.148 125.082 197.35 124.977 197.552C124.875 197.728 124.791 197.866 124.726 197.965C124.52 197.887 124.225 197.771 123.841 197.617C123.457 197.464 123.044 197.32 122.603 197.187C122.193 197.03 121.805 196.903 121.441 196.806C121.106 196.685 120.859 196.615 120.7 196.596C120.594 196.583 120.463 196.675 120.305 196.871C120.173 197.07 120.047 197.337 119.927 197.671C119.806 198.006 119.723 198.359 119.679 198.729L119.267 201.822L123.04 202.275L122.74 204.777L119.01 203.967L116.875 220.752L116.84 224.736C116.391 224.897 115.973 225.022 115.587 225.11C115.227 225.201 114.924 225.259 114.68 225.283C114.432 225.334 114.255 225.353 114.149 225.34Z" fill="#5555F2"/>
<path d="M139.764 239.457C139.686 239.442 139.559 239.323 139.384 239.1C139.209 238.877 139.036 238.641 138.866 238.392C138.722 238.148 138.658 237.986 138.673 237.908L141.403 223.443L140.117 222.712L140.391 221.258C140.391 221.258 140.54 221.259 140.838 221.261C141.168 221.241 141.549 221.232 141.984 221.233C142.418 221.233 142.81 221.239 143.16 221.251C143.542 221.242 143.772 221.245 143.851 221.259C143.93 221.274 144.08 221.411 144.303 221.67C144.525 221.929 144.719 222.197 144.884 222.472C145.075 222.753 145.163 222.932 145.149 223.011L144.781 224.529C145.217 224.231 145.624 223.942 146.003 223.66C146.413 223.358 146.789 223.09 147.132 222.856C147.474 222.622 147.752 222.444 147.965 222.321C148.21 222.177 148.358 222.11 148.41 222.12C148.699 222.175 149.116 222.335 149.663 222.601C150.21 222.867 150.631 223.082 150.925 223.246C150.948 223.413 150.961 223.633 150.964 223.905C150.967 224.177 150.956 224.378 150.931 224.509C150.916 224.588 150.837 224.722 150.692 224.912C150.574 225.107 150.427 225.31 150.252 225.521C150.102 225.737 149.945 225.924 149.779 226.083C149.64 226.247 149.541 226.337 149.484 226.353C149.315 226.24 149.12 226.121 148.9 225.998C148.679 225.875 148.442 225.763 148.19 225.661C147.964 225.564 147.733 225.493 147.497 225.449C147.419 225.434 147.28 225.448 147.082 225.492C146.888 225.51 146.662 225.562 146.401 225.649C146.145 225.709 145.859 225.791 145.541 225.893C145.254 225.975 144.936 226.078 144.587 226.202L142.539 237.05L144.432 238.018L144.128 239.63C144.128 239.63 143.992 239.631 143.72 239.634C143.453 239.611 143.116 239.601 142.708 239.606C142.305 239.584 141.889 239.56 141.46 239.533C141.025 239.532 140.649 239.516 140.329 239.482C140.031 239.48 139.843 239.472 139.764 239.457Z" fill="#5555F2"/>
<path d="M128.378 230.626C125.644 230.363 123.64 229.473 122.366 227.957C121.119 226.444 120.638 224.201 120.925 221.228C121.04 220.034 121.243 218.901 121.533 217.831C121.826 216.734 122.13 215.946 122.444 215.467C122.687 215.169 123.096 214.82 123.67 214.42C124.274 213.996 124.914 213.602 125.592 213.239C126.299 212.852 126.946 212.539 127.531 212.301C128.119 212.036 128.533 211.915 128.772 211.938C131.453 212.196 133.4 213.121 134.613 214.711C135.855 216.277 136.347 218.401 136.089 221.082C135.963 222.382 135.754 223.581 135.461 224.678C135.168 225.775 134.884 226.632 134.61 227.248C134.372 227.493 133.966 227.816 133.392 228.216C132.82 228.59 132.181 228.97 131.474 229.357C130.793 229.747 130.16 230.061 129.575 230.3C129.016 230.54 128.617 230.649 128.378 230.626ZM128.795 228.376C128.904 228.36 129.125 228.287 129.459 228.159C129.793 228.03 130.114 227.9 130.421 227.769C130.755 227.641 130.922 227.576 130.922 227.576C131.113 226.979 131.337 226.183 131.594 225.19C131.85 224.196 132.058 222.877 132.216 221.231C132.344 219.904 132.282 218.746 132.029 217.757C131.805 216.744 131.387 215.941 130.774 215.346C130.164 214.724 129.355 214.365 128.346 214.268C128.081 214.242 127.813 214.243 127.542 214.271C127.274 214.272 127.001 214.326 126.723 214.433C126.36 214.586 125.99 215.233 125.612 216.375C125.26 217.52 124.99 219.075 124.801 221.039C124.619 222.924 124.719 224.393 125.099 225.448C125.482 226.476 126.014 227.211 126.695 227.651C127.379 228.065 128.079 228.307 128.795 228.376Z" fill="#5555F2"/>
<path d="M187.213 101.181C184.518 101.352 182.154 101.052 180.121 100.28C178.148 99.5039 176.581 98.0406 175.422 95.89C174.263 93.7394 173.559 90.7181 173.311 86.826L172 66.2577L168.86 65.1052L168.648 61.7819C168.648 61.7819 169.004 61.6992 169.714 61.5336C170.481 61.3043 171.368 61.0674 172.375 60.8229C173.381 60.5783 174.3 60.3695 175.13 60.1963C175.957 59.9632 176.46 59.8409 176.64 59.8295C176.82 59.818 177.162 60.0066 177.668 60.3952C178.234 60.78 178.741 61.1985 179.191 61.6508C179.701 62.0993 179.961 62.4134 179.973 62.593L181.485 86.3048C181.668 89.179 182.127 91.1939 182.862 92.3495C183.657 93.5012 184.481 94.1701 185.335 94.3562C186.184 94.4824 186.819 94.5321 187.238 94.5054C187.597 94.4825 188.215 94.2627 189.09 93.8462C190.021 93.366 191.038 92.8201 192.142 92.2087C193.245 91.5972 194.262 91.0514 195.194 90.5712L193.556 64.8833L190.416 63.7308L190.204 60.4075C190.204 60.4075 190.56 60.3247 191.271 60.1592C192.038 59.9299 192.924 59.693 193.931 59.4484C194.937 59.2039 195.856 58.995 196.687 58.8218C197.573 58.5849 198.106 58.4608 198.286 58.4493C198.466 58.4378 198.808 58.6264 199.314 59.015C199.82 59.4036 200.298 59.8241 200.747 60.2764C201.257 60.7249 201.517 61.0389 201.529 61.2186L203.619 94.002L206.759 95.1546L206.971 98.4778C206.971 98.4778 206.587 98.5924 205.82 98.8217C205.109 98.9873 204.251 99.1923 203.244 99.4369C202.298 99.6776 201.379 99.8865 200.489 100.063C199.662 100.297 199.158 100.419 198.979 100.43C198.799 100.442 198.456 100.253 197.951 99.8646C197.445 99.476 196.967 99.0555 196.518 98.6032C196.128 98.1471 195.927 97.8292 195.916 97.6496L195.698 94.2365C195.018 94.8811 194.191 95.5951 193.219 96.3786C192.307 97.1582 191.423 97.906 190.567 98.6219C189.711 99.3378 188.966 99.9264 188.335 100.388C187.706 100.909 187.332 101.173 187.213 101.181Z" fill="#5555F2"/>
<path d="M220.169 80.1953C219.533 84.0431 219.552 87.0565 220.225 89.2355C220.958 91.4243 221.917 92.9815 223.102 93.9071C224.287 94.8327 225.294 95.364 226.123 95.5009C226.36 95.54 226.922 95.633 227.81 95.7797C228.708 95.8673 229.753 95.9793 230.947 96.1157C232.141 96.2522 233.335 96.3886 234.528 96.5251C235.722 96.6615 236.763 96.8031 237.651 96.9499L237.049 100.59C235.925 100.77 234.653 100.924 233.233 101.054C231.812 101.185 230.397 101.285 228.987 101.356C227.576 101.427 226.323 101.463 225.229 101.465C224.183 101.535 223.453 101.536 223.039 101.468C220.612 101.067 218.381 100.029 216.347 98.3552C214.322 96.6219 212.795 94.2714 211.765 91.3038C210.804 88.2868 210.676 84.6471 211.38 80.3849C211.869 77.4251 212.526 74.7363 213.352 72.3185C214.177 69.9007 214.979 68.1783 215.756 67.1514C216.347 66.5193 217.318 65.7979 218.668 64.9872C220.087 64.1271 221.586 63.3408 223.163 62.6284C224.809 61.8667 226.308 61.2629 227.658 60.8172C229.019 60.3122 229.995 60.1087 230.587 60.2065C233.843 60.7445 236.389 61.7126 238.226 63.1108C240.122 64.5187 241.328 66.7858 241.845 69.9119C242.372 72.9789 242.166 77.3539 241.227 83.0368L215.939 81.5032L216.496 78.1289L233.186 78.1504C233.783 74.5394 233.868 71.6343 233.441 69.4352C233.023 67.177 231.542 65.8375 228.996 65.4169C228.523 65.3386 227.985 65.2801 227.383 65.2415C226.841 65.2127 226.219 65.2924 225.519 65.4808C224.622 65.7582 223.677 67.2441 222.685 69.9383C221.702 72.5733 220.863 75.9923 220.169 80.1953Z" fill="#5555F2"/>
<path d="M262.265 110.849C261.678 110.724 260.746 110.495 259.467 110.162C258.188 109.829 256.74 109.429 255.121 108.963C253.503 108.496 251.949 108.013 250.461 107.513C248.96 107.071 247.694 106.679 246.662 106.337L249.531 93.6978L253.952 94.545L254.379 101.628C255.256 102.121 256.25 102.639 257.361 103.182C258.473 103.725 259.538 104.197 260.557 104.597C261.576 104.998 262.35 105.254 262.878 105.366C263.23 105.441 263.668 105.258 264.191 104.817C264.714 104.376 265.203 103.805 265.659 103.105C266.185 102.358 266.517 101.662 266.654 101.016C266.891 99.901 266.821 98.9352 266.442 98.1187C266.076 97.2435 265.358 96.2935 264.287 95.2686C263.217 94.2438 261.744 92.9494 259.868 91.3854C257.853 89.6079 256.248 88.0707 255.051 86.7737C253.926 85.4305 253.165 84.1034 252.769 82.7924C252.431 81.4939 252.424 80.0817 252.749 78.5558C252.911 77.7928 253.102 77.0361 253.323 76.2856C253.556 75.4764 253.817 74.8264 254.105 74.3356C254.724 73.731 255.538 73.0759 256.547 72.3701C257.627 71.6181 258.717 70.9604 259.819 70.3969C260.991 69.7872 262.044 69.3056 262.978 68.9519C263.97 68.6108 264.701 68.4901 265.171 68.5898C265.875 68.7394 266.837 68.9745 268.057 69.2951C269.336 69.6281 270.703 69.9798 272.158 70.3502C273.612 70.7206 275.002 71.1079 276.327 71.5121C277.665 71.8576 278.761 72.1825 279.616 72.487L277.07 83.1711L272.14 82.1237L272.516 77.3269C272.306 77.1597 271.773 76.9238 270.918 76.6194C270.075 76.2563 269.108 75.8976 268.018 75.5433C266.999 75.1428 266.032 74.7841 265.118 74.4672C264.263 74.1628 263.688 73.9794 263.395 73.9171C263.043 73.8422 262.695 73.891 262.352 74.0634C262.009 74.2359 261.693 74.5675 261.404 75.0583C261.116 75.5491 260.872 76.264 260.673 77.203C260.436 78.3181 260.553 79.3551 261.024 80.3139C261.507 81.2141 262.156 82.0573 262.971 82.8437C263.844 83.6426 264.71 84.4708 265.571 85.3284C266.49 86.1984 267.567 87.1939 268.801 88.3149C270.094 89.4482 271.315 90.6279 272.465 91.8537C273.675 93.092 274.595 94.3916 275.225 95.7524C275.869 97.0546 276.047 98.3806 275.76 99.7304C275.636 100.317 275.463 100.986 275.242 101.737C275.021 102.487 274.671 103.271 274.19 104.089C273.617 104.765 272.814 105.514 271.78 106.338C270.747 107.161 269.625 107.965 268.415 108.751C267.218 109.478 266.052 110.058 264.917 110.492C263.854 110.879 262.97 110.998 262.265 110.849Z" fill="#5555F2"/>
<path d="M280.645 121.057C280.155 120.83 279.67 120.307 279.19 119.489C278.739 118.75 278.351 117.876 278.026 116.865C277.702 115.854 277.486 114.894 277.379 113.985C277.272 113.075 277.332 112.375 277.559 111.886L289.909 85.2717L284.685 82.8471L285.821 80.3979L292.258 80.2101L299.406 76.7803C299.678 76.9066 300.009 77.1922 300.398 77.6372C300.841 78.1075 301.286 78.6448 301.733 79.2492L299.346 84.3924L307.265 88.0672L305.068 92.8022L297.149 89.1274L286.655 111.741C285.872 113.428 285.478 114.634 285.472 115.359C285.466 116.084 285.845 116.624 286.607 116.977L293.225 120.247L291.407 124.166C290.569 123.975 289.582 123.749 288.447 123.487C287.337 123.17 286.24 122.826 285.156 122.455C284.1 122.164 283.139 121.883 282.272 121.613C281.46 121.369 280.917 121.183 280.645 121.057Z" fill="#5555F2"/>
<path d="M228.538 255.536C228.359 255.557 227.944 255.365 227.291 254.959C226.639 254.553 226.012 254.114 225.412 253.642C224.872 253.163 224.591 252.833 224.57 252.655L220.687 220.035L217.442 219.424L217.049 216.118C217.049 216.118 217.369 216.019 218.01 215.822C218.704 215.558 219.517 215.28 220.449 214.988C221.381 214.696 222.227 214.444 222.987 214.232C223.8 213.954 224.296 213.805 224.475 213.783C224.713 213.755 225.129 213.947 225.722 214.36C226.367 214.706 226.96 215.119 227.501 215.599C228.101 216.071 228.418 216.456 228.454 216.754L232.336 249.374L235.571 249.895L235.964 253.202C235.964 253.202 235.617 253.334 234.924 253.598C234.283 253.795 233.496 254.039 232.564 254.332C231.632 254.624 230.756 254.879 229.936 255.098C229.183 255.368 228.717 255.515 228.538 255.536ZM217.474 200.659C217.46 200.54 217.67 200.273 218.104 199.859C218.591 199.378 219.133 198.86 219.732 198.306C220.331 197.751 220.88 197.293 221.381 196.931C221.875 196.51 222.181 196.292 222.3 196.278C222.539 196.249 222.951 196.412 223.537 196.765C224.123 197.118 224.719 197.561 225.326 198.093C225.993 198.618 226.567 199.123 227.048 199.61C227.528 200.097 227.757 200.492 227.733 200.797L227.588 202.627C227.55 202.813 227.317 203.143 226.89 203.617C226.456 204.031 225.94 204.515 225.341 205.07C224.795 205.558 224.275 206.013 223.781 206.434C223.28 206.796 222.941 206.987 222.762 207.008C222.524 207.037 222.112 206.874 221.526 206.521C220.933 206.108 220.333 205.636 219.726 205.104C219.118 204.572 218.574 204.063 218.094 203.576C217.672 203.082 217.451 202.746 217.43 202.568L217.474 200.659Z" fill="#5555F2"/>
<path d="M255.317 246.541C254.788 246.648 254.088 246.513 253.217 246.138C252.416 245.809 251.586 245.334 250.726 244.711C249.866 244.089 249.124 243.442 248.5 242.773C247.875 242.103 247.509 241.503 247.403 240.974L241.612 212.211L235.965 213.348L235.432 210.701L240.51 206.741L244.243 199.746C244.537 199.687 244.973 199.722 245.549 199.85C246.185 199.967 246.862 200.137 247.58 200.36L248.699 205.918L257.257 204.195L258.288 209.312L249.729 211.035L254.65 235.475C255.017 237.298 255.413 238.504 255.837 239.092C256.262 239.68 256.886 239.891 257.709 239.725L264.979 238.445L265.832 242.68C265.044 243.022 264.115 243.423 263.045 243.883C261.963 244.285 260.875 244.657 259.781 245C258.758 245.389 257.817 245.732 256.958 246.027C256.159 246.31 255.612 246.482 255.317 246.541Z" fill="#5555F2"/>
<path d="M281.017 238.389C278.302 238.888 275.944 238.834 273.941 238.227C271.986 237.549 270.409 236.436 269.209 234.888C268.009 233.339 267.208 231.473 266.806 229.29C266.556 227.933 266.438 226.46 266.451 224.871C266.523 223.272 266.882 221.742 267.528 220.281L274.31 222.327C274.242 222.95 274.23 223.715 274.275 224.622C274.309 225.469 274.407 226.336 274.57 227.221C274.885 228.932 275.424 230.206 276.188 231.041C276.952 231.877 278.337 232.11 280.343 231.741C280.638 231.687 281.249 231.361 282.176 230.763C283.093 230.107 284.17 229.329 285.408 228.43C286.694 227.462 287.955 226.528 289.193 225.629L289.861 229.258C288.64 230.581 287.366 231.944 286.038 233.347C284.769 234.74 283.674 235.918 282.753 236.88C281.831 237.843 281.253 238.346 281.017 238.389ZM267.528 220.281L286.126 213.931L286.843 217.826L273.395 223.319L267.528 220.281ZM265.266 204.499L265.512 198.872C267.614 198.363 269.492 197.957 271.144 197.653C272.785 197.29 274.349 197.002 275.835 196.79C277.31 196.519 278.826 196.301 280.382 196.137C281.278 196.033 282.333 196.296 283.547 196.927C284.81 197.488 286.051 198.266 287.271 199.262C288.54 200.188 289.612 201.21 290.489 202.33C291.415 203.38 291.959 204.348 292.121 205.233L296.55 229.309L299.893 230.067L300.495 233.342C299.358 233.795 298.216 234.218 297.069 234.613C295.991 235.055 295.05 235.411 294.245 235.681C293.452 236.01 292.937 236.196 292.701 236.24C292.524 236.272 292.161 236.125 291.613 235.799C291.076 235.532 290.557 235.2 290.058 234.804C289.617 234.397 289.374 234.076 289.331 233.84L288.533 229.502L288.072 228.489L284.392 208.485C284.034 206.537 283.385 205.162 282.444 204.359C281.562 203.545 280.343 203.221 278.787 203.385C278.186 203.434 277.207 203.584 275.85 203.834C274.493 204.083 272.993 204.39 271.352 204.753C269.7 205.056 268.141 205.374 266.677 205.704L265.266 204.499Z" fill="#5555F2"/>
<path d="M331.097 232.994C330.917 232.993 330.529 232.749 329.933 232.264C329.338 231.779 328.772 231.264 328.237 230.719C327.761 230.175 327.524 229.813 327.526 229.633L327.81 196.784L324.669 195.767L324.698 192.437C324.698 192.437 325.028 192.38 325.689 192.266C326.411 192.092 327.253 191.919 328.214 191.748C329.176 191.576 330.047 191.433 330.828 191.32C331.669 191.147 332.18 191.062 332.36 191.063C332.6 191.066 332.988 191.309 333.524 191.794C334.12 192.219 334.656 192.703 335.131 193.248C335.667 193.792 335.933 194.215 335.93 194.514L335.646 227.363L338.788 228.29L338.759 231.62C338.759 231.62 338.398 231.707 337.677 231.881C337.016 231.995 336.205 232.138 335.243 232.31C334.282 232.482 333.38 232.624 332.539 232.737C331.758 232.91 331.277 232.996 331.097 232.994ZM327.08 177.157C327.081 177.037 327.323 176.799 327.807 176.443C328.35 176.028 328.954 175.583 329.618 175.109C330.282 174.635 330.886 174.25 331.428 173.955C331.971 173.599 332.303 173.422 332.423 173.423C332.663 173.425 333.051 173.639 333.587 174.063C334.124 174.488 334.659 175.003 335.194 175.607C335.789 176.213 336.294 176.787 336.709 177.331C337.125 177.874 337.301 178.296 337.238 178.595L336.863 180.392C336.801 180.572 336.529 180.869 336.045 181.285C335.562 181.641 334.988 182.056 334.324 182.53C333.721 182.945 333.147 183.33 332.604 183.685C332.061 183.981 331.7 184.127 331.52 184.126C331.28 184.124 330.892 183.91 330.356 183.486C329.82 183.001 329.285 182.456 328.75 181.852C328.215 181.247 327.74 180.673 327.325 180.129C326.969 179.586 326.792 179.225 326.794 179.045L327.08 177.157Z" fill="#5555F2"/>
<path d="M356.578 231.73C356.041 231.668 355.416 231.324 354.703 230.699C354.043 230.14 353.399 229.432 352.773 228.574C352.147 227.717 351.64 226.874 351.252 226.044C350.865 225.214 350.701 224.531 350.763 223.995L354.115 194.847L348.393 194.189L348.701 191.507L354.753 189.303L360.459 183.799C360.757 183.834 361.16 184.001 361.67 184.301C362.238 184.608 362.83 184.978 363.444 185.411L362.797 191.044L371.469 192.041L370.873 197.227L362.2 196.23L359.352 220.996C359.139 222.844 359.145 224.113 359.367 224.803C359.59 225.493 360.118 225.886 360.953 225.982L368.264 227.004L367.77 231.296C366.915 231.378 365.908 231.474 364.748 231.582C363.595 231.631 362.445 231.65 361.299 231.639C360.205 231.694 359.205 231.73 358.297 231.746C357.449 231.77 356.876 231.764 356.578 231.73Z" fill="#5555F2"/>
<path d="M375.554 248.999C375.391 248.953 375.216 248.637 375.029 248.054C374.88 247.54 374.775 246.98 374.713 246.373C374.65 245.766 374.642 245.38 374.689 245.217L381.841 234.706C381.444 234.651 381.02 234.589 380.569 234.519C380.102 234.504 379.786 234.473 379.623 234.426C379.514 234.395 379.3 234.216 378.981 233.89C378.716 233.578 378.583 233.423 378.583 233.423L378.966 199.236L376.034 197.428L376.99 194.076C376.99 194.076 377.306 194.107 377.936 194.169C378.621 194.247 379.415 194.356 380.318 194.495C381.221 194.635 382.042 194.751 382.782 194.845C383.576 194.953 384.055 195.031 384.218 195.077C384.382 195.124 384.662 195.381 385.059 195.848C385.526 196.276 385.923 196.742 386.251 197.248C386.632 197.77 386.811 198.174 386.788 198.462L386.05 219.023L385.435 228.306L386.252 228.539L400.346 205.158L395.605 203.187L396.725 199.264C396.725 199.264 397.024 199.349 397.624 199.52C398.239 199.637 398.99 199.792 399.877 199.986C400.78 200.126 401.703 200.301 402.645 200.51C403.587 200.72 404.384 200.918 405.038 201.105C405.762 201.252 406.179 201.342 406.288 201.373C406.451 201.42 406.669 201.688 406.942 202.178C407.23 202.614 407.468 203.124 407.655 203.707C407.912 204.252 407.974 204.653 407.842 204.91L387.131 236.303L382.103 244.945L384.871 247.326L384.008 250.35C384.008 250.35 383.611 250.296 382.817 250.187C382.023 250.078 381.093 249.931 380.026 249.745C378.96 249.558 377.975 249.395 377.072 249.255C376.224 249.131 375.718 249.046 375.554 248.999Z" fill="#5555F2"/>
<path d="M311.781 235.514C311.602 235.527 311.257 235.343 310.746 234.96C310.236 234.578 309.753 234.163 309.298 233.716C308.843 233.269 308.609 232.956 308.595 232.776L304.823 182.969L301.497 181.957L301.246 178.637C301.246 178.637 301.483 178.589 301.957 178.493C302.486 178.332 303.135 178.163 303.904 177.984C304.668 177.746 305.435 177.537 306.203 177.359C307.027 177.116 307.736 176.942 308.33 176.837C308.919 176.672 309.304 176.583 309.483 176.569C309.663 176.555 310.007 176.74 310.518 177.122C311.028 177.505 311.511 177.92 311.966 178.367C312.416 178.754 312.651 179.067 312.669 179.306L316.434 229.024L319.587 230.139L319.839 233.459C319.839 233.459 319.457 233.579 318.693 233.817C317.984 233.991 317.128 234.206 316.124 234.463C315.121 234.719 314.175 234.941 313.286 235.129C312.462 235.372 311.961 235.5 311.781 235.514Z" fill="#5555F2"/>
<path d="M197.293 260.642C195.334 261.039 193.396 261.679 191.479 262.562C189.591 263.41 187.566 264.564 185.405 266.023C184.422 261.044 182.842 255.576 180.665 249.62C178.52 243.662 175.751 237.088 172.357 229.897C168.648 222.08 165.317 215.619 162.363 210.514C159.41 205.409 156.762 201.585 154.42 199.042C155.641 198.806 156.854 198.473 158.059 198.043C159.293 197.578 160.444 197.087 161.51 196.571C162.577 196.055 163.53 195.548 164.369 195.052C165.206 194.523 165.851 194.043 166.304 193.612C166.96 195.548 168.414 199.36 170.667 205.048C172.948 210.701 176.049 218.276 179.967 227.774C185.612 241.404 189.363 249.136 191.219 250.969C192.754 248.289 195.515 239.721 199.502 225.265C201.905 216.336 203.708 209.353 204.909 204.316C206.14 199.244 206.707 196.141 206.61 195.006L206.556 194.373C211.116 193.068 214.304 191.389 216.121 189.338C214.415 193.438 212.559 198.465 210.554 204.42C208.546 210.343 206.362 217.26 204.003 225.173C199.986 238.521 197.758 249.69 197.32 258.679L197.293 260.642Z" fill="#5555F2"/>
<path d="M162.499 118.041L140.782 109.324L148.388 105.8L169.452 108.693L167.641 117.142L162.499 118.041ZM128.655 62.4731C128.76 64.4649 128.885 66.5748 129.032 68.803C129.227 70.9617 129.472 73.2334 129.767 75.6182C130.052 77.9438 130.412 80.3478 130.847 82.8301C131.477 86.4353 132.178 89.5714 132.95 92.2384C133.77 94.8359 134.719 96.954 135.797 98.5927C136.925 100.162 138.305 101.26 139.937 101.888C141.56 102.457 143.523 102.54 145.828 102.137C146.36 102.044 147.019 101.807 147.805 101.425C148.64 100.975 149.411 100.505 150.117 100.016C150.872 99.4574 151.371 99.0045 151.615 98.6573C152.041 97.6082 152.291 96.2548 152.367 94.597C152.432 92.8801 152.311 90.7997 152.006 88.3558C151.759 85.9016 151.341 82.9901 150.751 79.6213C149.862 74.5385 148.818 70.4878 147.62 67.4692C146.422 64.4505 144.901 62.3716 143.057 61.2323C141.262 60.0237 138.975 59.6623 136.197 60.1484C135.902 60.2001 135.636 60.2466 135.399 60.288C135.222 60.319 134.932 60.4003 134.528 60.5318L132.837 54.5233C133.151 54.2249 133.533 53.9752 133.985 53.7742C134.427 53.5142 134.825 53.3531 135.18 53.2911C140.558 52.35 145.151 52.4905 148.959 53.7125C152.826 54.9242 155.928 57.3356 158.265 60.9468C160.651 64.4885 162.392 69.3918 163.489 75.6566C164.192 79.6755 164.527 83.3325 164.495 86.6274C164.511 89.8529 164.311 92.5376 163.894 94.6815C163.204 95.9595 162.175 97.3883 160.806 98.9678C159.428 100.488 157.891 101.975 156.196 103.429C154.561 104.873 152.977 106.094 151.447 107.093C149.965 108.022 148.78 108.564 147.894 108.719C143.757 109.443 140.004 109.582 136.637 109.136C133.319 108.62 130.415 107.514 127.925 105.818C125.484 104.052 123.442 101.607 121.799 98.4837C120.205 95.2907 119.01 91.4188 118.213 86.8679C117.572 83.2036 117.23 79.8525 117.185 76.8147C117.2 73.7665 117.421 71.2 117.848 69.1152C118.489 67.9066 119.44 66.5524 120.701 65.0528C122.01 63.4836 123.423 61.9877 124.941 60.5648L128.655 62.4731ZM132.837 54.5233L135.674 54.0269L143.384 98.0875C143.446 98.4421 143.353 99.1284 143.105 100.146C142.905 101.095 142.584 102.217 142.14 103.513L139.569 103.963L132.077 61.1434C131.984 60.6115 132.011 59.7235 132.159 58.4794C132.366 57.225 132.592 55.9063 132.837 54.5233Z" fill="#5555F2"/>
</svg>
