<svg width="484" height="296" viewBox="0 0 484 296" fill="none" xmlns="http://www.w3.org/2000/svg">
<path d="M197.735 119.545C250.971 94.1708 264.582 89.4397 314.5 77.7336V155.791C280.194 152.896 243.906 165.806 212.22 187.188C186.655 204.441 169.766 215.55 153.487 223.035C137.361 230.451 121.818 234.315 99.0111 237.039L100.491 161.064C124.757 159.018 139.261 154.443 152.582 147.482C159.273 143.985 165.659 139.889 172.818 135.228C173.425 134.832 174.038 134.433 174.657 134.029C181.336 129.675 188.748 124.844 197.735 119.545Z" fill="#D9C0A1" stroke="#B3B3B3"/>
<path d="M475.137 276.89C475.854 277.54 475.291 278.725 474.329 278.62C382.731 268.621 351.646 227.961 237.913 266.037C173.187 284.392 165.95 278.069 98.8294 238.798C98.5202 238.617 98.3186 238.277 98.3216 237.919L98.9781 160.757C98.9845 160.005 99.8172 159.544 100.481 159.898C166.14 194.876 181.365 190.436 241.413 177.037C337.829 155.523 404.064 172.294 478.101 193.558C479.152 193.859 479.031 195.403 477.946 195.541C454.943 198.46 443.567 202.142 429.195 209.628C428.75 209.86 428.547 210.398 428.724 210.869C439.826 240.472 451.075 255.063 475.137 276.89Z" fill="#FFF5E9"/>
<path d="M475.137 276.89C475.854 277.54 475.291 278.725 474.329 278.62C382.731 268.621 351.646 227.961 237.913 266.037C173.187 284.392 165.95 278.069 98.8294 238.798C98.5202 238.617 98.3186 238.277 98.3216 237.919L98.9781 160.757C98.9845 160.005 99.8172 159.544 100.481 159.898C166.14 194.876 181.365 190.436 241.413 177.037C337.829 155.523 404.064 172.294 478.101 193.558C479.152 193.859 479.031 195.403 477.946 195.541C454.943 198.46 443.567 202.142 429.195 209.628C428.75 209.86 428.547 210.398 428.724 210.869C439.826 240.472 451.075 255.063 475.137 276.89Z" fill="#FFF5E9"/>
<path d="M241.413 177.037C181.365 190.436 166.14 194.876 100.481 159.898C99.8172 159.544 98.9845 160.005 98.9781 160.757L98.3216 237.919C98.3186 238.277 98.5202 238.617 98.8294 238.798C165.95 278.069 173.187 284.392 237.913 266.037C351.646 227.961 382.731 268.621 474.329 278.62C475.291 278.725 475.854 277.54 475.137 276.89C451.075 255.063 439.826 240.472 428.724 210.869C428.547 210.398 428.75 209.86 429.195 209.628C443.567 202.142 454.943 198.46 477.946 195.541C479.031 195.403 479.152 193.859 478.101 193.558C404.064 172.294 337.829 155.523 241.413 177.037Z" stroke="#B3B3B3" stroke-width="2"/>
<path d="M415.278 192.074C416.079 192.076 416.996 192.105 418.03 192.161C419.065 192.217 419.975 192.275 420.762 192.335C421.621 192.35 422.109 192.371 422.226 192.398C422.343 192.426 422.52 192.59 422.758 192.892C422.995 193.194 423.197 193.518 423.363 193.865C423.601 194.166 423.706 194.376 423.679 194.493L413.608 230.589C412.952 230.498 412.171 230.409 411.268 230.321C410.422 230.248 409.795 230.163 409.386 230.068C409.269 230.041 409.07 229.84 408.787 229.466C408.518 229.034 408.397 228.759 408.424 228.643L415.278 192.074ZM403.459 238.852C403.486 238.736 403.81 238.534 404.432 238.247C405.053 237.961 405.739 237.659 406.491 237.341C407.301 237.037 408.01 236.77 408.617 236.542C409.284 236.328 409.675 236.234 409.792 236.261C410.026 236.316 410.351 236.638 410.768 237.228C411.257 237.773 411.719 238.435 412.154 239.214C412.66 239.948 413.05 240.655 413.323 241.335C413.61 241.956 413.69 242.406 413.563 242.684L412.784 244.443C412.743 244.619 412.412 244.85 411.791 245.136C411.228 245.436 410.542 245.739 409.731 246.043C408.98 246.36 408.278 246.597 407.625 246.753C407.018 246.982 406.626 247.075 406.451 247.034C406.217 246.98 405.856 246.68 405.367 246.135C404.95 245.545 404.517 244.89 404.069 244.169C403.634 243.39 403.274 242.69 402.987 242.069C402.772 241.403 402.692 240.953 402.747 240.72L403.459 238.852Z" fill="#5555F2"/>
<path d="M1.99516 87.4734C1.32209 86.8214 1.88307 85.6847 2.81787 85.7504C83.8205 91.4438 97.8516 62.8472 125.5 50.6029C195.341 19.6734 240.793 32.9797 314.487 75.7477C314.795 75.9265 314.991 76.2598 314.991 76.6161V154.891C314.991 155.656 314.154 156.131 313.488 155.753C259.473 125.122 230.654 99.3608 139 134.041C71.9734 159.402 49.4679 151.408 9.18308 151.053C8.25855 151.044 7.81978 149.886 8.51077 149.272C21.1385 138.046 26.6858 130.64 31.7698 117.156C31.9097 116.785 31.8161 116.362 31.5312 116.086L1.99516 87.4734Z" fill="#FFF5E9"/>
<path d="M1.99516 87.4734C1.32209 86.8214 1.88307 85.6847 2.81787 85.7504C83.8205 91.4438 97.8516 62.8472 125.5 50.6029C195.341 19.6734 240.793 32.9797 314.487 75.7477C314.795 75.9265 314.991 76.2598 314.991 76.6161V154.891C314.991 155.656 314.154 156.131 313.488 155.753C259.473 125.122 230.654 99.3608 139 134.041C71.9734 159.402 49.4679 151.408 9.18308 151.053C8.25855 151.044 7.81978 149.886 8.51077 149.272C21.1385 138.046 26.6858 130.64 31.7698 117.156C31.9097 116.785 31.8161 116.362 31.5312 116.086L1.99516 87.4734Z" fill="#FFF5E9"/>
<path d="M139 134.041C230.654 99.3608 259.473 125.122 313.488 155.753C314.154 156.131 314.991 155.656 314.991 154.891V76.6161C314.991 76.2598 314.795 75.9265 314.487 75.7477C240.793 32.9797 195.341 19.6734 125.5 50.6029C97.8516 62.8472 83.8205 91.4438 2.81787 85.7504C1.88307 85.6847 1.32209 86.8214 1.99516 87.4734L31.5312 116.086C31.8161 116.362 31.9097 116.785 31.7698 117.156C26.6858 130.64 21.1385 138.046 8.51077 149.272C7.81978 149.886 8.25855 151.044 9.18308 151.053C49.4679 151.408 71.9734 159.402 139 134.041Z" stroke="#B3B3B3" stroke-width="2"/>
<path d="M66.4174 107.089C65.9203 107.187 65.5585 107.558 65.3318 108.2C65.1313 108.838 65.0246 109.606 65.0117 110.506C64.9988 111.405 65.0433 112.321 65.1453 113.252C65.2735 114.178 65.4047 114.981 65.5388 115.661C65.8483 117.231 66.2836 118.681 66.8448 120.011C67.4321 121.336 68.1771 122.357 69.0799 123.076C69.9775 123.769 71.0673 123.989 72.3493 123.736L77.4434 122.691L77.8457 124.732C77.5262 124.904 77.0236 125.112 76.3378 125.356C75.652 125.599 74.9244 125.838 74.155 126.071C73.4169 126.326 72.7522 126.538 72.1607 126.709C71.5955 126.875 71.2343 126.973 71.0773 127.004C69.5076 127.314 68.0963 127.048 66.8434 126.208C65.5906 125.368 64.5323 124.136 63.6686 122.512C62.8049 120.889 62.1771 119.083 61.7851 117.094C61.5169 115.734 61.3867 114.591 61.3945 113.665C61.4232 112.708 61.5487 111.759 61.771 110.819C61.8974 110.495 62.113 110.072 62.4177 109.55C62.7486 109.022 63.1763 108.503 63.7007 107.992C64.2251 107.481 64.8406 107.088 65.5474 106.812L66.4174 107.089ZM74.7551 101.817L74.5737 105.033C74.0394 105.356 73.4763 105.671 72.8845 105.978C72.2875 106.258 71.7116 106.508 71.1566 106.726C70.5965 106.918 70.081 107.06 69.61 107.153C68.956 107.282 68.4198 107.32 68.0016 107.266C67.5833 107.213 67.1782 107.157 66.7861 107.098C66.394 107.04 65.8971 107.07 65.2954 107.188C65.1384 107.219 64.9709 107.266 64.7929 107.328C64.6359 107.359 64.4841 107.416 64.3375 107.499L64.2125 107.279L57.9589 107.819L57.9695 103.944C59.7114 103.818 61.2988 103.736 62.7319 103.698C64.186 103.629 65.4361 103.559 66.4822 103.489C67.5284 103.419 68.3 103.334 68.7971 103.236C69.1634 103.164 69.5925 103.066 70.0844 102.942C70.5974 102.786 71.1967 102.587 71.8825 102.343C72.5631 102.073 73.3302 101.758 74.1836 101.4L74.7551 101.817ZM69.8924 124.302L66.1478 105.308L68.1885 104.906L71.4921 121.663C71.5231 121.82 71.5144 122.121 71.4661 122.565C71.4126 122.983 71.2936 123.483 71.109 124.063L69.8924 124.302ZM75.733 101.543L75.4468 100.091C75.4468 100.091 75.5488 100.057 75.753 99.9897C75.9781 99.8909 76.2425 99.7844 76.5462 99.6702C76.8708 99.5247 77.198 99.3922 77.5278 99.2728C77.8525 99.1273 78.143 99.0156 78.3995 98.9379C78.6508 98.834 78.8157 98.7743 78.8942 98.7588C78.9727 98.7434 79.1347 98.8066 79.3801 98.9484C79.6516 99.0852 79.8996 99.2401 80.124 99.4133C80.3695 99.5552 80.5025 99.6785 80.5231 99.7831L82.0754 108.691L82.2794 108.692C82.5679 108.363 82.8905 108 83.2473 107.604C83.6301 107.202 83.9894 106.819 84.3251 106.454C84.687 106.083 84.9938 105.778 85.2455 105.538C85.492 105.272 85.6284 105.137 85.6545 105.132C86.858 104.894 87.9171 104.889 88.8316 105.117C89.7462 105.344 90.5213 105.898 91.157 106.778C91.7926 107.659 92.278 108.949 92.6133 110.65L94.6248 120.853C94.7796 121.638 94.7982 122.491 94.6806 123.411C94.5681 124.357 94.3094 125.251 93.9044 126.092C93.5256 126.927 92.9798 127.606 92.2671 128.127L90.9434 127.409C91.191 126.735 91.3314 126.069 91.3646 125.41C91.4291 124.772 91.4257 124.134 91.3542 123.496C91.2879 122.884 91.198 122.29 91.0845 121.714L89.042 111.354C88.7944 110.098 88.4647 109.253 88.0527 108.817C87.6618 108.351 87.2754 108.114 86.8936 108.108C86.5329 108.071 86.2479 108.072 86.0386 108.114C85.9339 108.134 85.6406 108.301 85.1586 108.613C84.6766 108.926 84.1841 109.254 83.6811 109.598C83.1781 109.941 82.8192 110.189 82.6043 110.34L84.8093 121.525L86.2597 121.85L86.5459 123.302C86.5459 123.302 86.3836 123.375 86.059 123.521C85.7553 123.635 85.3758 123.778 84.9203 123.949C84.491 124.115 84.0853 124.263 83.7032 124.393C83.3524 124.543 83.1377 124.627 83.0592 124.642C82.9807 124.657 82.8188 124.594 82.5734 124.452C82.328 124.311 82.0931 124.153 81.8687 123.98C81.6443 123.807 81.5243 123.681 81.5088 123.602L77.2149 101.821L75.733 101.543ZM100.41 111.926C100.746 113.626 101.223 114.878 101.844 115.679C102.49 116.476 103.132 116.975 103.769 117.175C104.407 117.376 104.909 117.44 105.275 117.368C105.38 117.347 105.628 117.298 106.021 117.221C106.408 117.117 106.86 117.001 107.379 116.871C107.897 116.742 108.415 116.613 108.933 116.483C109.451 116.354 109.906 116.251 110.299 116.173L110.616 117.782C110.176 118.032 109.671 118.295 109.1 118.571C108.529 118.846 107.956 119.109 107.38 119.358C106.804 119.608 106.288 119.818 105.832 119.989C105.408 120.182 105.105 120.296 104.922 120.332C103.849 120.543 102.759 120.459 101.651 120.08C100.538 119.674 99.5361 118.934 98.6448 117.859C97.7744 116.753 97.1536 115.259 96.7822 113.375C96.5243 112.067 96.3786 110.845 96.3451 109.71C96.3116 108.575 96.3767 107.734 96.5403 107.185C96.6878 106.83 96.9792 106.378 97.4148 105.83C97.8714 105.251 98.3724 104.69 98.9178 104.148C99.4842 103.574 100.014 103.089 100.506 102.693C100.994 102.271 101.369 102.034 101.63 101.982C103.069 101.698 104.28 101.704 105.262 102C106.271 102.29 107.126 103.046 107.829 104.266C108.527 105.461 109.123 107.314 109.618 109.825L98.8539 113.13L98.5599 111.638L105.51 109.045C105.195 107.449 104.777 106.227 104.257 105.378C103.731 104.503 102.905 104.177 101.78 104.399C101.571 104.44 101.338 104.499 101.082 104.577C100.851 104.65 100.605 104.78 100.343 104.967C100.013 105.223 99.8515 105.988 99.8584 107.265C99.8602 108.514 100.044 110.068 100.41 111.926Z" fill="#5555F2"/>
<path d="M114.721 236.331C114.642 236.347 114.481 236.284 114.235 236.142C113.99 236 113.742 235.845 113.491 235.677C113.267 235.504 113.147 235.378 113.131 235.299L109.147 215.088L107.287 215.373L107.07 214.275L108.745 213.048L108.42 211.399C108.342 211.007 108.433 210.432 108.691 209.674C108.949 208.917 109.286 208.144 109.702 207.355C110.117 206.566 110.54 205.885 110.97 205.311C111.427 204.732 111.812 204.411 112.126 204.349C112.257 204.323 112.534 204.282 112.958 204.226C113.382 204.17 113.845 204.106 114.347 204.034C114.849 203.962 115.275 203.919 115.626 203.904C115.83 203.972 116.052 204.133 116.291 204.384C116.552 204.605 116.696 204.78 116.721 204.911C116.727 204.937 116.708 205.05 116.666 205.248C116.644 205.415 116.604 205.627 116.546 205.883C116.509 206.108 116.472 206.333 116.434 206.558C116.392 206.756 116.355 206.913 116.323 207.028C116.104 207.017 115.787 206.998 115.374 206.97C114.961 206.943 114.525 206.934 114.064 206.943C113.625 206.921 113.217 206.92 112.841 206.94C112.485 206.929 112.229 206.938 112.072 206.969C111.967 206.99 111.87 207.118 111.78 207.353C111.717 207.583 111.68 207.876 111.668 208.231C111.657 208.587 111.687 208.948 111.759 209.314L112.324 212.383L116.052 211.648L116.539 214.12L112.741 214.502L115.896 231.126L117.094 234.926C116.717 235.218 116.358 235.465 116.017 235.668C115.703 235.866 115.433 236.014 115.208 236.113C114.988 236.238 114.826 236.311 114.721 236.331ZM129.467 227.635C126.772 228.166 124.597 227.888 122.943 226.801C121.314 225.709 120.211 223.698 119.633 220.767C119.401 219.59 119.271 218.447 119.242 217.338C119.209 216.203 119.274 215.361 119.438 214.813C119.585 214.457 119.876 214.006 120.312 213.458C120.769 212.879 121.27 212.318 121.815 211.775C122.381 211.202 122.911 210.717 123.404 210.321C123.891 209.898 124.253 209.664 124.488 209.618C127.131 209.097 129.261 209.424 130.879 210.6C132.518 211.745 133.598 213.638 134.119 216.281C134.372 217.563 134.515 218.771 134.548 219.906C134.582 221.041 134.556 221.943 134.47 222.612C134.312 222.915 134.016 223.341 133.58 223.889C133.139 224.41 132.636 224.958 132.069 225.532C131.529 226.1 131.013 226.583 130.52 226.979C130.054 227.37 129.703 227.588 129.467 227.635ZM129.222 225.359C129.322 225.312 129.513 225.18 129.796 224.961C130.079 224.742 130.349 224.526 130.606 224.312C130.889 224.093 131.03 223.984 131.03 223.984C131.043 223.356 131.029 222.53 130.99 221.505C130.951 220.479 130.772 219.156 130.452 217.534C130.194 216.225 129.802 215.134 129.276 214.259C128.772 213.353 128.141 212.703 127.383 212.308C126.621 211.888 125.743 211.776 124.748 211.972C124.487 212.023 124.23 212.101 123.979 212.205C123.722 212.283 123.476 212.413 123.24 212.595C122.936 212.845 122.767 213.572 122.732 214.775C122.724 215.972 122.911 217.539 123.292 219.475C123.658 221.333 124.175 222.712 124.842 223.614C125.504 224.489 126.224 225.04 127.002 225.267C127.776 225.468 128.516 225.498 129.222 225.359ZM141.638 225.235C141.559 225.251 141.397 225.188 141.152 225.046C140.907 224.904 140.659 224.749 140.408 224.581C140.184 224.408 140.064 224.282 140.048 224.203L137.201 209.761L135.735 209.561L135.448 208.109C135.448 208.109 135.587 208.055 135.865 207.946C136.163 207.805 136.514 207.655 136.917 207.494C137.32 207.333 137.687 207.192 138.016 207.073C138.367 206.922 138.582 206.839 138.66 206.824C138.739 206.808 138.93 206.879 139.232 207.037C139.535 207.195 139.815 207.371 140.07 207.565C140.352 207.754 140.501 207.888 140.516 207.966L140.74 209.512C141.034 209.074 141.304 208.654 141.551 208.252C141.819 207.818 142.069 207.429 142.3 207.085C142.531 206.74 142.722 206.471 142.874 206.278C143.048 206.054 143.16 205.937 143.213 205.926C143.501 205.869 143.948 205.863 144.554 205.906C145.161 205.95 145.631 205.993 145.966 206.036C146.049 206.182 146.143 206.381 146.247 206.633C146.351 206.884 146.415 207.075 146.441 207.206C146.457 207.284 146.433 207.439 146.369 207.669C146.332 207.893 146.271 208.136 146.187 208.398C146.129 208.654 146.052 208.886 145.958 209.095C145.889 209.299 145.831 209.419 145.784 209.456C145.585 209.413 145.361 209.376 145.11 209.344C144.859 209.312 144.597 209.295 144.325 209.295C144.079 209.289 143.839 209.309 143.603 209.355C143.525 209.371 143.402 209.436 143.234 209.551C143.061 209.639 142.87 209.772 142.66 209.949C142.446 210.1 142.21 210.282 141.953 210.496C141.717 210.679 141.46 210.892 141.182 211.137L143.318 221.969L145.435 222.163L145.752 223.772C145.752 223.772 145.627 223.824 145.375 223.928C145.119 224.006 144.802 224.122 144.425 224.278C144.043 224.408 143.648 224.54 143.24 224.675C142.837 224.836 142.481 224.961 142.172 225.049C141.894 225.158 141.716 225.22 141.638 225.235Z" fill="#5555F2"/>
<path d="M187.213 101.181C184.518 101.352 182.154 101.052 180.121 100.28C178.148 99.5039 176.581 98.0406 175.422 95.89C174.263 93.7394 173.559 90.7181 173.311 86.826L172 66.2577L168.86 65.1052L168.648 61.7819C168.648 61.7819 169.004 61.6992 169.714 61.5336C170.481 61.3043 171.368 61.0674 172.375 60.8229C173.381 60.5783 174.3 60.3695 175.13 60.1963C175.957 59.9632 176.46 59.8409 176.64 59.8295C176.82 59.818 177.162 60.0066 177.668 60.3952C178.234 60.78 178.741 61.1985 179.191 61.6508C179.701 62.0993 179.961 62.4134 179.973 62.593L181.485 86.3048C181.668 89.179 182.127 91.1939 182.862 92.3495C183.657 93.5012 184.481 94.1701 185.335 94.3562C186.184 94.4824 186.819 94.5321 187.238 94.5054C187.597 94.4825 188.215 94.2627 189.09 93.8462C190.021 93.366 191.038 92.8201 192.142 92.2087C193.245 91.5972 194.262 91.0514 195.194 90.5712L193.556 64.8833L190.416 63.7308L190.204 60.4075C190.204 60.4075 190.56 60.3247 191.271 60.1592C192.038 59.9299 192.924 59.693 193.931 59.4484C194.937 59.2039 195.856 58.995 196.687 58.8218C197.573 58.5849 198.106 58.4608 198.286 58.4493C198.466 58.4378 198.808 58.6264 199.314 59.015C199.82 59.4036 200.298 59.8241 200.747 60.2764C201.257 60.7249 201.517 61.0389 201.529 61.2186L203.619 94.002L206.759 95.1546L206.971 98.4778C206.971 98.4778 206.587 98.5924 205.82 98.8217C205.109 98.9873 204.251 99.1923 203.244 99.4369C202.298 99.6776 201.379 99.8865 200.489 100.063C199.662 100.297 199.158 100.419 198.979 100.43C198.799 100.442 198.456 100.253 197.951 99.8646C197.445 99.476 196.967 99.0555 196.518 98.6032C196.128 98.1471 195.927 97.8292 195.916 97.6496L195.698 94.2365C195.018 94.8811 194.191 95.5951 193.219 96.3786C192.307 97.1582 191.423 97.906 190.567 98.6219C189.711 99.3378 188.966 99.9264 188.335 100.388C187.706 100.909 187.332 101.173 187.213 101.181Z" fill="#5555F2"/>
<path d="M220.169 80.1953C219.533 84.0431 219.552 87.0565 220.225 89.2355C220.958 91.4243 221.917 92.9815 223.102 93.9071C224.287 94.8327 225.294 95.364 226.123 95.5009C226.36 95.54 226.922 95.633 227.81 95.7797C228.708 95.8673 229.753 95.9793 230.947 96.1157C232.141 96.2522 233.335 96.3886 234.528 96.5251C235.722 96.6615 236.763 96.8031 237.651 96.9499L237.049 100.59C235.925 100.77 234.653 100.924 233.233 101.054C231.812 101.185 230.397 101.285 228.987 101.356C227.576 101.427 226.323 101.463 225.229 101.465C224.183 101.535 223.453 101.536 223.039 101.468C220.612 101.067 218.381 100.029 216.347 98.3552C214.322 96.6219 212.795 94.2714 211.765 91.3038C210.804 88.2868 210.676 84.6471 211.38 80.3849C211.869 77.4251 212.526 74.7363 213.352 72.3185C214.177 69.9007 214.979 68.1783 215.756 67.1514C216.347 66.5193 217.318 65.7979 218.668 64.9872C220.087 64.1271 221.586 63.3408 223.163 62.6284C224.809 61.8667 226.308 61.2629 227.658 60.8172C229.019 60.3122 229.995 60.1087 230.587 60.2065C233.843 60.7445 236.389 61.7126 238.226 63.1108C240.122 64.5187 241.328 66.7858 241.845 69.9119C242.372 72.9789 242.166 77.3539 241.227 83.0368L215.939 81.5032L216.496 78.1289L233.186 78.1504C233.783 74.5394 233.868 71.6343 233.441 69.4352C233.023 67.177 231.542 65.8375 228.996 65.4169C228.523 65.3386 227.985 65.2801 227.383 65.2415C226.841 65.2127 226.219 65.2924 225.519 65.4808C224.622 65.7582 223.677 67.2441 222.685 69.9383C221.702 72.5733 220.863 75.9923 220.169 80.1953Z" fill="#5555F2"/>
<path d="M262.265 110.849C261.678 110.724 260.746 110.495 259.467 110.162C258.188 109.829 256.74 109.429 255.121 108.963C253.503 108.496 251.949 108.013 250.461 107.513C248.96 107.071 247.694 106.679 246.662 106.337L249.531 93.6978L253.952 94.545L254.379 101.628C255.256 102.121 256.25 102.639 257.361 103.182C258.473 103.725 259.538 104.197 260.557 104.597C261.576 104.998 262.35 105.254 262.878 105.366C263.23 105.441 263.668 105.258 264.191 104.817C264.714 104.376 265.203 103.805 265.659 103.105C266.185 102.358 266.517 101.662 266.654 101.016C266.891 99.901 266.821 98.9352 266.442 98.1187C266.076 97.2435 265.358 96.2935 264.287 95.2687C263.217 94.2438 261.744 92.9494 259.868 91.3854C257.853 89.6079 256.248 88.0707 255.051 86.7737C253.926 85.4305 253.165 84.1034 252.769 82.7924C252.431 81.4939 252.424 80.0817 252.749 78.5558C252.911 77.7928 253.102 77.0361 253.323 76.2856C253.556 75.4764 253.817 74.8264 254.105 74.3356C254.724 73.7311 255.538 73.0759 256.547 72.3701C257.627 71.6181 258.717 70.9604 259.819 70.3969C260.991 69.7872 262.044 69.3056 262.978 68.9519C263.97 68.6108 264.701 68.4901 265.171 68.5898C265.875 68.7395 266.837 68.9745 268.057 69.2951C269.336 69.6281 270.703 69.9798 272.158 70.3502C273.612 70.7207 275.002 71.108 276.327 71.5121C277.665 71.8576 278.761 72.1826 279.616 72.487L277.07 83.1711L272.14 82.1237L272.516 77.3269C272.306 77.1597 271.773 76.9238 270.918 76.6194C270.075 76.2563 269.108 75.8976 268.018 75.5433C266.999 75.1428 266.032 74.7841 265.118 74.4672C264.263 74.1628 263.688 73.9794 263.395 73.9171C263.043 73.8422 262.695 73.891 262.352 74.0635C262.009 74.2359 261.693 74.5675 261.404 75.0583C261.116 75.5491 260.872 76.264 260.673 77.2031C260.436 78.3182 260.553 79.3551 261.024 80.3139C261.507 81.2141 262.156 82.0574 262.971 82.8438C263.844 83.6426 264.71 84.4709 265.571 85.3284C266.49 86.1985 267.567 87.1939 268.801 88.3149C270.094 89.4483 271.315 90.6279 272.465 91.8537C273.675 93.092 274.595 94.3916 275.225 95.7524C275.869 97.0546 276.047 98.3806 275.76 99.7304C275.636 100.317 275.463 100.986 275.242 101.737C275.021 102.487 274.671 103.271 274.19 104.089C273.617 104.765 272.814 105.514 271.78 106.338C270.747 107.161 269.625 107.965 268.415 108.751C267.218 109.478 266.052 110.058 264.917 110.492C263.854 110.879 262.97 110.998 262.265 110.849Z" fill="#5555F2"/>
<path d="M280.645 121.057C280.155 120.83 279.67 120.307 279.19 119.489C278.739 118.75 278.351 117.876 278.026 116.865C277.702 115.854 277.486 114.894 277.379 113.985C277.272 113.075 277.332 112.376 277.559 111.886L289.909 85.2717L284.685 82.8471L285.821 80.398L292.258 80.2102L299.406 76.7803C299.678 76.9066 300.009 77.1922 300.398 77.6372C300.841 78.1075 301.286 78.6448 301.733 79.2492L299.346 84.3924L307.265 88.0672L305.068 92.8022L297.149 89.1274L286.655 111.741C285.872 113.428 285.478 114.634 285.472 115.359C285.466 116.084 285.845 116.624 286.607 116.977L293.225 120.247L291.407 124.166C290.569 123.975 289.582 123.749 288.447 123.487C287.337 123.17 286.24 122.826 285.156 122.455C284.1 122.164 283.139 121.883 282.272 121.613C281.46 121.369 280.917 121.183 280.645 121.057Z" fill="#5555F2"/>
<path d="M228.538 255.536C228.359 255.557 227.944 255.365 227.291 254.959C226.639 254.553 226.012 254.114 225.412 253.642C224.872 253.163 224.591 252.833 224.57 252.655L220.687 220.035L217.442 219.424L217.049 216.118C217.049 216.118 217.369 216.019 218.01 215.822C218.704 215.558 219.517 215.28 220.449 214.988C221.381 214.696 222.227 214.444 222.987 214.232C223.8 213.954 224.296 213.805 224.475 213.783C224.713 213.755 225.129 213.947 225.722 214.36C226.367 214.706 226.96 215.119 227.501 215.599C228.101 216.071 228.418 216.456 228.454 216.754L232.336 249.374L235.571 249.895L235.964 253.202C235.964 253.202 235.617 253.334 234.924 253.598C234.283 253.795 233.496 254.039 232.564 254.332C231.632 254.624 230.756 254.879 229.936 255.098C229.183 255.369 228.717 255.515 228.538 255.536ZM217.474 200.659C217.46 200.54 217.67 200.273 218.104 199.859C218.591 199.378 219.133 198.86 219.732 198.306C220.331 197.751 220.88 197.293 221.381 196.931C221.875 196.51 222.181 196.292 222.3 196.278C222.539 196.249 222.951 196.412 223.537 196.765C224.123 197.118 224.719 197.561 225.326 198.093C225.993 198.618 226.567 199.123 227.048 199.61C227.528 200.097 227.757 200.492 227.733 200.797L227.588 202.627C227.55 202.813 227.317 203.143 226.89 203.617C226.456 204.031 225.94 204.515 225.341 205.07C224.795 205.558 224.275 206.013 223.781 206.434C223.28 206.796 222.941 206.987 222.762 207.008C222.524 207.037 222.112 206.874 221.526 206.521C220.933 206.108 220.333 205.636 219.726 205.104C219.118 204.572 218.574 204.063 218.094 203.576C217.672 203.082 217.451 202.746 217.43 202.568L217.474 200.659Z" fill="#5555F2"/>
<path d="M255.317 246.541C254.788 246.647 254.088 246.513 253.217 246.138C252.416 245.809 251.586 245.334 250.726 244.711C249.866 244.089 249.124 243.442 248.5 242.773C247.875 242.103 247.509 241.503 247.403 240.974L241.612 212.211L235.965 213.348L235.432 210.701L240.51 206.741L244.243 199.746C244.537 199.687 244.973 199.722 245.549 199.85C246.185 199.967 246.862 200.137 247.58 200.36L248.699 205.918L257.257 204.195L258.288 209.312L249.729 211.035L254.65 235.475C255.017 237.298 255.413 238.504 255.837 239.092C256.262 239.68 256.886 239.891 257.709 239.725L264.979 238.445L265.832 242.68C265.044 243.022 264.115 243.423 263.045 243.883C261.963 244.285 260.875 244.657 259.781 245C258.758 245.389 257.817 245.732 256.958 246.027C256.159 246.31 255.612 246.482 255.317 246.541Z" fill="#5555F2"/>
<path d="M281.017 238.389C278.302 238.888 275.944 238.834 273.941 238.227C271.986 237.549 270.409 236.436 269.209 234.888C268.009 233.339 267.208 231.473 266.806 229.29C266.556 227.933 266.438 226.46 266.451 224.871C266.523 223.272 266.882 221.742 267.528 220.281L274.31 222.327C274.242 222.95 274.23 223.715 274.275 224.622C274.309 225.469 274.407 226.336 274.57 227.221C274.885 228.932 275.424 230.206 276.188 231.041C276.952 231.877 278.337 232.11 280.343 231.741C280.638 231.687 281.249 231.361 282.176 230.763C283.093 230.107 284.17 229.329 285.408 228.43C286.694 227.462 287.955 226.528 289.193 225.629L289.861 229.258C288.64 230.581 287.366 231.944 286.038 233.347C284.769 234.74 283.674 235.918 282.753 236.88C281.831 237.843 281.253 238.346 281.017 238.389ZM267.528 220.281L286.126 213.931L286.843 217.826L273.395 223.319L267.528 220.281ZM265.266 204.5L265.512 198.872C267.614 198.363 269.492 197.957 271.144 197.653C272.785 197.29 274.349 197.002 275.835 196.79C277.31 196.519 278.826 196.301 280.382 196.137C281.278 196.033 282.333 196.296 283.547 196.927C284.81 197.488 286.051 198.266 287.271 199.262C288.54 200.188 289.612 201.21 290.489 202.33C291.415 203.38 291.959 204.348 292.121 205.233L296.55 229.309L299.893 230.067L300.495 233.342C299.358 233.795 298.216 234.218 297.069 234.613C295.991 235.055 295.05 235.411 294.245 235.681C293.452 236.01 292.937 236.196 292.701 236.24C292.524 236.272 292.161 236.125 291.613 235.799C291.076 235.532 290.557 235.2 290.058 234.804C289.617 234.397 289.374 234.076 289.331 233.84L288.533 229.502L288.072 228.489L284.392 208.485C284.034 206.537 283.385 205.162 282.444 204.359C281.562 203.545 280.343 203.221 278.787 203.385C278.186 203.434 277.207 203.584 275.85 203.834C274.493 204.083 272.993 204.39 271.352 204.753C269.7 205.056 268.141 205.374 266.677 205.704L265.266 204.5Z" fill="#5555F2"/>
<path d="M331.097 232.994C330.917 232.993 330.529 232.749 329.933 232.264C329.338 231.779 328.772 231.264 328.237 230.719C327.761 230.175 327.524 229.813 327.526 229.633L327.81 196.784L324.669 195.767L324.698 192.437C324.698 192.437 325.028 192.38 325.689 192.266C326.411 192.092 327.253 191.919 328.214 191.748C329.176 191.576 330.047 191.433 330.828 191.32C331.669 191.147 332.18 191.062 332.36 191.063C332.6 191.066 332.988 191.309 333.524 191.794C334.12 192.219 334.656 192.703 335.131 193.248C335.667 193.792 335.933 194.215 335.93 194.515L335.646 227.363L338.788 228.291L338.759 231.62C338.759 231.62 338.398 231.707 337.677 231.881C337.016 231.995 336.205 232.138 335.243 232.31C334.282 232.482 333.38 232.624 332.539 232.737C331.758 232.91 331.277 232.996 331.097 232.994ZM327.08 177.157C327.081 177.037 327.323 176.799 327.807 176.443C328.35 176.028 328.954 175.583 329.618 175.109C330.282 174.635 330.886 174.25 331.428 173.955C331.971 173.599 332.303 173.422 332.423 173.423C332.663 173.425 333.051 173.639 333.587 174.063C334.124 174.488 334.659 175.003 335.194 175.607C335.789 176.213 336.294 176.787 336.709 177.331C337.125 177.874 337.301 178.296 337.238 178.595L336.863 180.392C336.801 180.572 336.529 180.869 336.045 181.285C335.562 181.641 334.988 182.056 334.324 182.53C333.721 182.945 333.147 183.33 332.604 183.685C332.061 183.981 331.7 184.127 331.52 184.126C331.28 184.124 330.892 183.91 330.356 183.486C329.82 183.001 329.285 182.457 328.75 181.852C328.215 181.247 327.74 180.673 327.325 180.129C326.969 179.586 326.792 179.225 326.794 179.045L327.08 177.157Z" fill="#5555F2"/>
<path d="M356.578 231.73C356.041 231.668 355.416 231.324 354.703 230.699C354.043 230.14 353.399 229.432 352.773 228.574C352.147 227.717 351.64 226.874 351.252 226.044C350.865 225.214 350.701 224.531 350.763 223.995L354.115 194.847L348.393 194.189L348.701 191.507L354.753 189.303L360.459 183.799C360.757 183.834 361.16 184.001 361.67 184.301C362.238 184.608 362.83 184.978 363.444 185.411L362.797 191.044L371.469 192.041L370.873 197.227L362.2 196.23L359.352 220.996C359.139 222.844 359.145 224.113 359.367 224.803C359.59 225.493 360.118 225.886 360.953 225.982L368.264 227.004L367.77 231.296C366.915 231.379 365.908 231.474 364.748 231.582C363.595 231.631 362.445 231.65 361.299 231.639C360.205 231.694 359.205 231.73 358.297 231.746C357.449 231.77 356.876 231.764 356.578 231.73Z" fill="#5555F2"/>
<path d="M375.554 248.999C375.391 248.953 375.216 248.637 375.029 248.054C374.88 247.54 374.775 246.98 374.713 246.373C374.65 245.766 374.642 245.38 374.689 245.217L381.841 234.706C381.444 234.651 381.02 234.589 380.569 234.519C380.102 234.504 379.786 234.473 379.623 234.426C379.514 234.395 379.3 234.216 378.981 233.89C378.716 233.578 378.583 233.423 378.583 233.423L378.966 199.236L376.034 197.428L376.99 194.076C376.99 194.076 377.306 194.107 377.936 194.169C378.621 194.247 379.415 194.356 380.318 194.495C381.221 194.635 382.042 194.751 382.782 194.845C383.576 194.953 384.055 195.031 384.218 195.077C384.382 195.124 384.662 195.381 385.059 195.848C385.526 196.276 385.923 196.742 386.251 197.248C386.632 197.77 386.811 198.174 386.788 198.462L386.05 219.023L385.435 228.306L386.252 228.539L400.346 205.158L395.605 203.187L396.725 199.264C396.725 199.264 397.024 199.349 397.624 199.52C398.239 199.637 398.99 199.792 399.877 199.986C400.78 200.126 401.703 200.301 402.645 200.51C403.587 200.72 404.384 200.918 405.038 201.105C405.762 201.253 406.179 201.342 406.288 201.373C406.451 201.42 406.669 201.688 406.942 202.178C407.23 202.614 407.468 203.124 407.655 203.707C407.912 204.252 407.974 204.653 407.842 204.91L387.131 236.303L382.103 244.945L384.871 247.326L384.008 250.35C384.008 250.35 383.611 250.296 382.817 250.187C382.023 250.078 381.093 249.931 380.026 249.745C378.96 249.558 377.975 249.395 377.072 249.256C376.224 249.131 375.718 249.046 375.554 248.999Z" fill="#5555F2"/>
<path d="M311.781 235.514C311.602 235.527 311.257 235.343 310.746 234.96C310.236 234.578 309.753 234.163 309.298 233.716C308.843 233.269 308.609 232.956 308.595 232.776L304.823 182.969L301.497 181.957L301.246 178.637C301.246 178.637 301.483 178.589 301.957 178.493C302.486 178.332 303.135 178.163 303.904 177.984C304.668 177.746 305.435 177.537 306.203 177.359C307.027 177.116 307.736 176.942 308.33 176.837C308.919 176.672 309.304 176.583 309.483 176.569C309.663 176.555 310.007 176.74 310.518 177.122C311.028 177.505 311.511 177.92 311.966 178.367C312.416 178.754 312.651 179.067 312.669 179.306L316.434 229.024L319.587 230.139L319.839 233.459C319.839 233.459 319.457 233.579 318.693 233.817C317.984 233.991 317.128 234.206 316.124 234.463C315.121 234.719 314.175 234.941 313.286 235.129C312.462 235.372 311.961 235.5 311.781 235.514Z" fill="#5555F2"/>
<path d="M197.293 260.642C195.334 261.039 193.396 261.679 191.479 262.562C189.591 263.41 187.566 264.564 185.405 266.023C184.422 261.044 182.842 255.576 180.665 249.62C178.52 243.662 175.751 237.088 172.357 229.897C168.648 222.08 165.317 215.619 162.363 210.514C159.41 205.409 156.762 201.585 154.42 199.042C155.641 198.806 156.854 198.473 158.059 198.043C159.293 197.578 160.444 197.087 161.51 196.571C162.577 196.055 163.53 195.549 164.369 195.052C165.206 194.523 165.851 194.043 166.304 193.612C166.96 195.548 168.414 199.36 170.667 205.048C172.948 210.701 176.049 218.276 179.967 227.774C185.612 241.404 189.363 249.136 191.219 250.969C192.754 248.289 195.515 239.721 199.502 225.265C201.905 216.336 203.708 209.353 204.909 204.316C206.14 199.245 206.707 196.141 206.61 195.006L206.556 194.373C211.116 193.068 214.304 191.389 216.121 189.338C214.415 193.438 212.559 198.465 210.554 204.42C208.546 210.343 206.362 217.26 204.003 225.173C199.986 238.521 197.758 249.69 197.32 258.679L197.293 260.642Z" fill="#5555F2"/>
<path d="M168.979 196.603C169.979 192.103 171.044 190.696 174.428 188.561C182.551 214.57 186.423 230.623 197.5 260.603C194.018 260.824 194.709 258.658 192.979 260.603C184.417 232.802 181.559 222.345 168.979 196.603Z" fill="#5555F2"/>
<path d="M123.841 65.145C124.841 60.645 125.906 59.2386 129.29 57.1029C137.413 83.1123 133.713 79.6234 144.79 109.603C141.308 109.824 142.02 107.658 140.29 109.603C136.79 97.1029 136.421 90.8868 123.841 65.145Z" fill="#5555F2"/>
<path d="M143.885 114.208C142.919 113.941 141.778 113.542 140.462 113.01C139.174 112.449 137.8 111.756 136.338 110.931C134.876 110.105 133.4 109.148 131.909 108.059C130.419 106.94 129.002 105.705 127.659 104.353C125.937 102.618 124.493 100.768 123.328 98.8007C122.163 96.8045 121.218 94.7944 120.492 92.7704C119.767 90.7171 119.246 88.7085 118.931 86.7445C118.615 84.7512 118.461 82.8171 118.467 80.9421C118.475 78.6862 118.776 76.2996 119.371 73.7821C119.995 71.2354 120.882 68.7482 122.033 66.3205C123.214 63.8636 124.657 61.5541 126.364 59.392C128.07 57.2299 130.025 55.3909 132.228 53.875L142.005 47.6244C142.59 47.8022 143.468 48.1275 144.638 48.6003C145.838 49.0439 147.169 49.6783 148.631 50.5037C150.122 51.2998 151.686 52.272 153.323 53.4202C154.96 54.5685 156.537 55.9069 158.055 57.4356C159.574 58.935 160.959 60.6389 162.213 62.5476C163.466 64.4562 164.455 66.5543 165.179 68.842C165.933 71.0712 166.497 73.2264 166.871 75.3078C167.244 77.3892 167.428 79.382 167.422 81.2863C167.414 83.5715 167.186 85.7826 166.739 87.9197C166.322 90.0277 165.744 92.0033 165.005 93.8464C164.266 95.6896 163.396 97.3858 162.395 98.9351C161.423 100.455 160.364 101.785 159.217 102.923L158.776 103.317L160.831 106.357C165.496 112.906 168.868 116.404 170.947 116.85C169.159 117.049 167.37 117.453 165.581 118.062C163.821 118.701 161.914 119.588 159.859 120.723C158.292 116.353 156.08 112.244 153.222 108.396L143.885 114.208ZM132.755 53.9647C130.23 55.4502 128.283 59.34 126.914 65.6341C126.021 69.7326 125.568 73.4811 125.557 76.8795C125.55 78.7252 125.719 80.6887 126.064 82.77C126.437 84.8221 127.046 86.8896 127.888 88.9726C128.73 91.0556 129.837 93.1102 131.207 95.1364C132.606 97.1627 134.314 98.985 136.329 100.603C138.345 102.192 140.714 103.636 143.434 104.934C146.154 106.233 149.285 107.225 152.828 107.911C150.434 105.413 148.463 103.458 146.915 102.046C145.368 100.605 144.257 99.6784 143.585 99.2659C144.757 99.1528 145.901 98.9516 147.015 98.6625C148.159 98.3441 149.214 97.9962 150.183 97.6187C151.151 97.2412 152.016 96.8486 152.779 96.4411C153.543 96.0336 154.174 95.6402 154.673 95.2611C154.963 96.141 155.341 97.0944 155.806 98.1214C156.3 99.1485 156.912 100.279 157.64 101.512C158.113 100.195 158.513 98.8339 158.841 97.4288C159.197 95.9944 159.48 94.5598 159.69 93.125C159.93 91.6903 160.096 90.2992 160.188 88.9519C160.31 87.6046 160.373 86.3451 160.377 85.1732C160.384 83.2103 160.186 81.0856 159.784 78.7991C159.381 76.4832 158.657 74.1663 157.61 71.8482C156.564 69.5008 155.121 67.2253 153.283 65.0217C151.445 62.8181 149.108 60.8472 146.272 59.1089C142.209 56.5461 137.703 54.8314 132.755 53.9647Z" fill="#5555F2"/>
</svg>
