<svg width="600" height="600" viewBox="0 0 600 600" fill="none" xmlns="http://www.w3.org/2000/svg">
<g clip-path="url(#clip0_55_409)">
<path d="M0 295.626V-9.03992H300.006H600.013V295.626V600.291H300.006H0V295.626Z" fill="#6A4B4B"/>
<path d="M7.98566 587.676C9.95258 440.639 23.0293 293.531 12.4292 146.542C10.4646 94.6951 8.54946 43.0674 8.06887 -8.81386C21.9254 32.7123 12.9014 76.9519 17.5082 119.729C18.2168 232.841 28.0133 346.229 16.5916 459.098C13.8481 502.811 12.0901 546.602 12.1066 590.413C8.983 601.101 6.00731 592.74 7.98559 587.682L7.98566 587.676ZM49.1487 557.745C45.4232 408.15 38.5875 258.245 49.5576 108.804C49.6655 69.5233 47.9182 30.1691 51.0061 -9.03998C51.4752 128.869 54.8458 251.187 47.6985 381.979C55.481 460.49 48.0485 503.179 57.4817 567.159C58.8803 593.602 42.813 590.354 49.1679 566.47L49.2323 562.104L49.1487 557.745ZM61.4513 596.423C55.9105 385.502 56.8199 199.977 61.2345 5.89578C78.5633 1.2094 62.4995 45.2381 67.4018 58.4518C52.6253 244.572 74.0895 418.755 69.4695 591.462C68.3708 594.563 65.107 598.058 61.4514 596.427L61.4513 596.423ZM75.5645 588.39C80.9622 541.512 78.2528 494.324 73.0566 447.613C65.7849 341.182 65.2564 234.383 70.8886 127.869C72.6066 87.1579 70.8593 45.0843 77.4032 5.33619C83.5767 27.6315 76.25 55.1323 76.4152 79.5115C74.5988 109.046 73.1914 138.675 74.6058 168.261C80.8755 112.148 76.7094 55.2395 85.7623 -0.614307C83.9974 79.3818 75.6254 159.133 75.8797 239.227C74.3109 326.964 80.6831 414.612 90.6456 501.679C92.1452 527.725 91.2211 573.319 87.7297 587.178C85.4269 545.382 91.829 503.241 83.5917 461.801C68.0312 27.4626 69.4469 264.471 83.9913 536.468C83.4872 549.438 87.2485 590.092 75.5645 588.386V588.39ZM68.6784 298.327C72.4839 300.846 65.0546 300.489 68.6784 298.327ZM108.394 597.268C113.58 504.714 111.647 411.934 115.915 319.332C89.087 247.879 99.3716 170.153 103.358 95.7838C113.579 68.59 93.5894 7.05351 117.659 1.60047C122.969 49.208 109.048 98.7293 126.354 145.055C140.387 175.353 142.497 208.603 141.345 241.635C135.633 308.79 145.672 393.349 154.564 468.683C158.251 502.059 157.541 535.592 160.614 568.971C161.931 585.354 146.666 598.926 150.004 573.834C147.742 538.703 153.399 502.639 146.395 468.074C122.227 465.421 133.607 511.614 127.258 529.83C122.845 552.273 126.407 582.639 113.1 599.649L110.418 598.809L108.397 597.276L108.394 597.268ZM123.53 588.985C131.241 567.608 124.171 509.384 143.381 510.191C147.248 532.364 148.692 574.252 142.458 584.788C140.887 570.777 152.743 525.679 133.966 532.492C131.459 549.415 134.709 571.311 123.53 588.985ZM161.268 592.258C169.447 501.226 156.049 410.363 146.662 320.022C142.665 268.712 142.861 217.141 145.538 165.762C144.044 145.907 105.884 116.856 141.665 116.403C152.81 88.9431 139.773 58.3599 143.054 29.5333C152.186 -16.4331 133.139 69.7456 154.763 57.0044C155.899 42.9231 162.311 -9.43771 159.102 30.3485C145.06 159.117 138.775 290.278 162.042 418.357C166.329 464.783 166.342 511.461 169.24 557.979C160.071 566.841 171.007 585.102 161.268 592.265L161.268 592.258ZM167.867 593.745C177.143 563.829 168.06 531.685 179.619 502.832C183.245 486.215 169.398 437.717 177.634 438.478C184.95 489.192 182.628 541.223 172.309 591.108C171.766 593.441 169.653 593.241 167.867 593.741L167.867 593.745ZM179.699 597.018C188.693 565.954 184.921 532.921 193.017 502.283C187.282 397.191 163.779 292.051 165.724 193.666C169.491 158.589 155.617 122.035 170.705 88.1969C174.157 61.4934 165.394 27.8945 176.998 6.7179C194.789 -23.1001 181.568 34.2009 180.806 45.0724C170.94 129.351 178.621 185.314 176.857 299.278C197.927 377.705 202.547 458.037 198.742 533.061C195.744 547.975 193.132 601.967 179.698 597.013L179.699 597.018ZM224.537 589.283C231.422 490.998 234.222 391.916 222.871 293.852C219.47 319.271 200.679 316.797 203.669 292.059C193.662 238.885 183.335 183.448 198.471 130.122C206.133 94.7508 217.944 60.0046 219.785 23.578C214.861 33.4083 202.59 78.644 210.042 45.0629C206.009 31.2958 228.768 -17.1674 226.781 19.1068C224.302 30.1756 215.663 73.7598 224.479 66.4074C227.545 42.8374 223.622 -16.6271 262.007 0.736456C265.703 43.1802 267.391 85.8226 278.223 127.125C277.847 156.128 280.696 195.755 263.351 217.576C253.693 196.528 264.628 163.304 248.11 148.099C226.212 186.679 243.057 206.661 239.7 274.607C222.746 387.999 267.86 486.373 246.787 592.114C242.188 568.465 244.728 604.591 239.214 581.788C235.521 548.735 244.66 515.157 233.782 482.628C231.523 518.095 242.652 555.688 229.98 590.112C223.298 599.321 224.376 598.395 224.536 589.274L224.537 589.283ZM226.887 592.283C230.693 594.802 223.263 594.444 226.887 592.283ZM235.126 374.066C235.482 325.964 229.812 264.537 226.105 209.701C218.673 219.694 217.48 268.746 206.491 234.356C191.162 195.878 208.568 155.394 220.126 118.531C225.841 103.563 211.627 90.0996 213.105 112.389C203.618 152.157 193.396 193.426 200.412 234.517C193.344 260.208 224.973 274.685 225.307 248.749C232.992 274.296 228.55 302.638 232.353 329.289C233.908 359.746 234.685 390.273 233.557 420.76C235.418 405.262 234.457 389.62 235.126 374.061L235.126 374.066ZM212.521 266.419C216.988 271.335 209.228 257.348 212.521 266.419ZM251.749 588.984C243.012 574.862 267.143 543.956 263.829 575.585C265.931 584.592 257.616 613.921 251.749 588.984ZM267.172 598.802C271.072 555.85 257.909 514.186 250.645 472.544C243.502 384.154 238.098 294.708 250.795 206.545C258.637 212.622 256.716 264.996 267.943 241.089C266.439 217.546 294.129 214.685 285.301 241.507C291.861 345.412 288.833 449.62 293.511 553.599C285.952 449.463 290.883 344.761 281.152 240.746C264.455 232.782 270.046 293.338 255.3 261.005C240.52 307.245 247.417 356.684 247.544 404.364C251.577 467.904 271.869 530.241 267.962 594.197L267.172 598.802ZM297.132 567.264C292.188 489.234 290.363 326.614 291.243 205.89C299.47 134.963 303.889 63.2212 297.95 -8.08956C312.326 1.66045 300.364 58.581 304.214 16.924C302.484 -3.55528 308.76 -5.05243 307.193 15.951C305.824 89.2683 309.625 162.726 302.593 235.858C300.189 267.555 306.499 298.783 301.194 330.399C299.718 417.918 307.214 505.368 306.412 592.912C292.388 607.22 299.384 573.096 297.133 567.262L297.132 567.264ZM304.21 557.743C302.182 540.508 304.224 517.714 300.318 503.926C301.499 521.85 298.225 540.394 304.21 557.743ZM319.795 597.017C314.589 504.058 317.516 408.683 319.228 294.124C325.457 211.474 332.687 128.248 322.11 45.6196C318.809 32.0251 323.611 -23.7715 326.676 14.2236C329.484 61.0957 331.437 108.056 332.435 155.012C332.642 184.388 332.203 213.761 331.839 243.132C346.382 211.078 335.968 174.204 339.032 140.196C335.562 98.6469 334.833 56.947 330.302 15.5922C341.224 -17.9007 343.481 36.1298 343.332 47.8297C354.125 246.838 327.762 417.332 338.323 597.013C312.457 482.897 338.694 356.494 336.174 248.766C320.602 290.378 331.701 327.375 322.709 394.803C321.376 442.486 322.319 490.264 326.388 537.794C312.89 559.101 342.639 577.103 319.795 597.031L319.795 597.017ZM368.061 597.612C365.856 547.286 353.579 497.709 356.553 447.1C353.538 301.563 367.292 156.382 367.908 10.8925C379.377 -5.07385 369.89 47.2239 370.754 57.1779C367.987 182.162 356.461 335.637 361.556 475.677C357.729 510.254 378.098 533.001 374.086 567.063C373.174 577.07 382.757 593.713 368.061 597.619L368.061 597.612ZM380.266 594.637C386.47 541.976 374.45 489.889 366.014 438.353C359.224 369.011 364.647 299.337 366.259 229.883C373.494 268.824 366.141 308.714 368.723 348.08C368.577 394.336 376.921 439.927 384.116 485.322C386.904 522.106 386.688 559.188 382.392 595.845L380.989 595.986L380.266 594.637ZM389.505 598.481C392.908 523.537 391.622 447.814 376.394 374.219C370.456 266.098 372.113 157.382 385.424 49.8569C384.586 36.4147 382.486 -8.50681 402.304 4.73662C400.841 57.2236 389.436 108.711 384.12 160.771C379.304 340.321 381.365 334.133 394.978 388.639C397.912 431.591 401.858 474.992 401.905 517.824C400.164 545.127 411.01 581.395 390.534 597.458L390.169 598.457L389.506 598.496L389.505 598.481ZM408.244 516.388C410.098 370.577 389.225 224.29 408.321 78.9548C408.333 59.3908 406.829 7.42387 413.001 8.61992C407.605 141.126 400.559 273.941 410.113 406.423C412.269 470.569 413.902 534.751 413.126 598.945C400.155 572.928 412.741 543.72 408.244 516.381V516.388ZM451.918 594.637C451.819 551.169 454.515 507.719 459.29 464.535C493.482 478.662 463.899 522.944 470.439 550.514C469.902 563.378 476.208 604.164 451.918 594.642V594.637ZM478.534 594.637C481.166 579.494 484.51 529.082 484.473 569.275C484.292 577.998 483.065 587.043 478.534 594.637ZM515.51 591.067C513.32 438.151 539.928 285.092 520.297 132.45C512.751 86.7143 513.983 40.4384 515.762 -5.70889C528.552 49.6117 517.08 109.483 526.43 125.523C535.963 248.104 529.505 371.112 527.761 493.847C521.352 526.129 525.042 569.35 516.305 595.517L515.51 591.067ZM524.278 585.116C529.102 545.345 541.531 506.07 533.705 465.773C531.583 369.171 533.726 272.548 534.11 175.948C535.746 307.763 535.711 439.96 536.904 571.561C537.092 580.079 521.381 610.837 524.278 585.126L524.278 585.116ZM533.918 435.187C537.723 437.707 530.294 437.349 533.918 435.187ZM553.38 572.656C559.643 563.242 547.208 542.289 548.733 564.758C553.477 483.971 561.96 402.38 548.22 322.013C544.573 251.597 551.236 181.117 549.875 110.592C552.556 72.7751 545.051 31.9071 555.691 -4.0506C584.177 -25.1273 611.329 11.5123 595.16 37.6672C601.437 207.006 599.534 376.501 598.072 545.923C602.776 569.885 590.151 602.756 564.201 598.935C554.224 594.731 550.193 582.463 553.381 572.649L553.38 572.656ZM581.67 264.682C585.158 188.733 582.736 112.599 576.586 36.8491C561.946 66.0922 573.756 101.32 568.318 132.884C568.713 179.922 573.044 226.858 579.765 273.375C580.914 270.566 581.491 267.708 581.67 264.677V264.682ZM576.651 253.475C579.323 255.681 575.125 246.475 576.651 253.475ZM597.188 138.854C600.994 141.374 593.564 141.016 597.188 138.854ZM597.188 134.094C600.994 136.613 593.564 136.255 597.188 134.094ZM375.078 592.651C377.75 594.857 373.552 585.651 375.078 592.651ZM250.493 573.194C256.493 572.82 244.4 560.114 250.493 573.194ZM433.228 554.843C417.961 558.247 439.784 529.877 422.59 540.25C419.977 423.332 413.459 306.407 414.989 189.444C416.258 158.932 420.055 128.119 419.342 97.8563C437.645 75.2111 431.176 125.594 435.444 138.473C437.047 168.538 441.782 198.115 448.337 227.354C464.893 295.339 470.838 158.061 475.116 134.864C480.822 111.218 473.549 77.032 490.736 60.0719C500.175 85.7709 498.288 114.975 503.866 141.977C515.195 232.639 519.061 326.109 501.156 415.855C484.432 381.955 484.188 340.401 473.821 303.553C481.113 327.519 461.504 282.809 461.216 313.014C454.641 361.206 448.479 409.505 441.893 457.73C437.764 489.939 436.625 522.878 434.412 554.944L433.229 554.839L433.228 554.843ZM427.273 451.854C431.079 454.373 423.649 454.016 427.273 451.854ZM442.467 288.953C436.751 250.827 433.373 212.345 426.26 174.438C414.372 213.213 420.94 254.794 420.996 294.745C422.668 329.201 421.434 363.916 426.757 398.1C451.233 413.966 443.178 298.938 442.467 288.951L442.467 288.953ZM501.642 348.64C513.659 269.52 506.299 188.822 492.111 110.525C468.414 143.791 481.734 186.562 475.501 224.196C477.687 266.626 482.578 310.175 501.641 348.633L501.642 348.64ZM178.104 553.956C182.332 557.503 176.272 544.837 178.104 553.956ZM403.835 537.521C405.969 545.695 405.341 521.56 403.835 537.521ZM507.8 509.245C504.865 492.141 512.85 486.756 510.347 508.384C510.764 523.334 505.815 533.783 507.8 509.245ZM483.836 528.665C478.298 514.143 486.534 481.602 485.249 515.731C485.305 520.069 485.209 524.504 483.836 528.665ZM138.255 520.037C141.993 523.437 136.781 512.801 138.255 520.037ZM327.153 514.015C328.798 518.987 327.02 504.889 327.153 514.015ZM327.244 505.09C328.13 514.761 328.13 495.418 327.244 505.09ZM157.096 503.404C159.768 505.609 155.569 496.403 157.096 503.404ZM327.197 495.573C327.841 503.773 327.841 487.373 327.197 495.573ZM7.3151 454.514C18.3294 312.583 5.92511 332.481 9.21745 450.075C8.85205 460.56 6.78071 475.71 7.3151 454.514ZM271.368 463.884C271.563 441.427 257.134 383.432 271.951 381.727C278.266 408.409 283.684 435.249 271.368 463.884ZM51.1207 443.51C47.9231 414.704 55.6692 430.607 52.0483 449.97L51.1207 443.51ZM55.8259 415.046C58.4934 407.113 47.8202 410.155 55.8259 415.046ZM166.375 396.933C157.004 335.995 157.279 273.983 155.743 212.455C154.743 147.777 150.097 132.924 166.971 7.07969C174.273 22.1475 158.471 68.2782 160.31 94.6461C157.448 159.474 158.723 224.486 159.783 289.323C176.077 321.349 136.487 376.973 166.375 396.921L166.375 396.933ZM48.0128 317.458C31.9965 411.653 15.9813 505.851 48.0128 317.458ZM221.911 299.904C225.122 291.266 213.612 293.313 221.911 299.904ZM330.529 264.2C333.201 266.405 329.002 257.199 330.529 264.2ZM331.701 246.348C334.373 248.554 330.174 239.348 331.701 246.348ZM276.621 240.398C279.294 242.603 275.095 233.397 276.621 240.398ZM512.079 223.57C516.542 219.284 511.196 231.801 512.079 223.57ZM367.49 184.963C368.691 123.549 371.24 62.0016 379.91 1.1518C389.395 34.2473 371.703 67.0488 373.4 100.486C371.2 134.68 372.126 169.111 367.398 203.113C366.955 197.066 367.53 191.014 367.491 184.964L367.49 184.963ZM598.882 174.946C601.554 177.152 597.356 167.946 598.882 174.946ZM532.756 173.357C530.824 127.226 521.507 102.104 523.78 3.25578C539.52 7.73865 527.039 50.5277 531.6 69.3754C532.682 104.008 536.682 138.765 532.756 173.362V173.357ZM530.355 61.5147C534.161 64.0342 526.731 63.6763 530.355 61.5147ZM599.122 164.74C600.008 174.412 600.008 155.069 599.122 164.74ZM251.302 153.91C255.876 159.759 247.489 138.35 251.302 153.91ZM285.908 151.756C279.568 103.634 273.803 55.4325 268.295 7.20608C281.586 30.2821 274.899 62.0816 279.638 88.5244C278.432 104.553 295.325 122.958 295.803 95.7821C299.709 72.5359 291.512 24.926 295.924 16.3608C297.778 61.0633 301.026 106.731 289.766 150.521C292.7 138.95 288.382 151.702 285.908 151.757L285.908 151.756ZM399.192 150.853C399.997 125.601 403.623 70.2467 406.426 64.4343C405.773 93.3597 402.853 122.178 399.192 150.853ZM187.77 144.165C188.514 129.502 199.589 96.3004 193.927 130.43C193.181 135.429 191.581 140.64 187.77 144.165ZM597.63 127.254C599.423 138.833 599.131 117.137 597.63 127.254ZM287.241 114.865C293.75 117.148 283.823 109.25 287.241 114.865ZM597.923 102.262C599.086 109.539 598.258 91.1273 597.923 102.262ZM128.87 94.5843C121.405 45.5474 132.808 -32.3518 137.425 55.8549C135.867 68.7817 135.48 83.0558 128.87 94.5843ZM455.338 78.7905C456.358 56.3749 438.228 0.112952 465.569 2.58003C472.635 28.5682 457.178 53.2723 455.338 78.7905ZM494.59 78.559C497.262 80.7648 493.064 71.5589 494.59 78.559ZM267.909 72.5086C270.279 67.3251 268.835 81.1406 267.909 72.5086ZM137.172 55.9459C139.844 58.1517 135.646 48.9458 137.172 55.9459ZM384.443 25.0033C387.115 27.2091 382.917 18.0032 384.443 25.0033Z" fill="#644545"/>
</g>
<defs>
<clipPath id="clip0_55_409">
<rect width="600" height="600" fill="white"/>
</clipPath>
</defs>
</svg>
